<?xml version="1.0" encoding="iso-8859-1"?>
<!-- Generator: Adobe Illustrator 20.0.0, SVG Export Plug-In . SVG Version: 6.00 Build 0)  -->
<svg version="1.1" id="Ebene_1" xmlns="http://www.w3.org/2000/svg" xmlns:xlink="http://www.w3.org/1999/xlink" x="0px" y="0px"
	 viewBox="0 0 32 32" style="enable-background:new 0 0 32 32;" xml:space="preserve" width="32px" height="32px" class="br-symbol-library">
<g id="Files">
	<path d="M29.17,5.039h-4.488c-0.275,0-0.493-0.18-0.493-0.455V0.097L29.17,5.039z M23.58,6.299c-0.275,0-0.65-0.376-0.65-0.651V0
		H10.594c-0.277,0-0.263,0.386-0.263,0.661v22.967c0,0.277-0.014,0.814,0.263,0.814h17.972c0.275,0,0.663-0.537,0.663-0.814V6.299
		H23.58z M6.036,29.984c-0.657,0-1.25-0.619-1.25-1.31V8.063h-1.6c-0.275,0-0.415,0.22-0.415,0.495v22.967
		c0,0.277,0.14,0.475,0.415,0.475h17.974c0.275,0,0.761-0.198,0.761-0.475v-1.541H6.036z M9.74,25.953
		c-0.657,0-0.922-0.291-0.922-0.982V4.283H6.889c-0.275,0-0.339,0.296-0.339,0.571v22.967c0,0.277,0.064,0.399,0.339,0.399h17.972
		c0.277,0,0.335-0.122,0.335-0.399v-1.868H9.74z"/>
</g>
<g id="Ebene_1_1_">
</g>
</svg>
