<?xml version="1.0" encoding="iso-8859-1"?>
<!-- Generator: Adobe Illustrator 20.0.0, SVG Export Plug-In . SVG Version: 6.00 Build 0)  -->
<svg version="1.1" id="Ebene_1" xmlns="http://www.w3.org/2000/svg" xmlns:xlink="http://www.w3.org/1999/xlink" x="0px" y="0px"
	 viewBox="0 0 32 32" style="enable-background:new 0 0 32 32;" xml:space="preserve" width="32px" height="32px" class="br-symbol-library">
<g id="Recipe">
	<g>
		<path d="M22.101,5.995v-5.96l6.526,6.578h-5.959C22.303,6.613,22.101,6.36,22.101,5.995z M28.75,8v23.283
			c0,0.367-0.56,0.717-0.927,0.717H3.958c-0.365,0-0.708-0.35-0.708-0.717V0.788C3.25,0.42,3.593,0,3.958,0H20.75v7.408
			C20.75,7.775,20.838,8,21.203,8H28.75z M6.25,6.5c0,0.415,0.335,0.75,0.75,0.75h10c0.415,0,0.75-0.335,0.75-0.75
			S17.415,5.75,17,5.75H7C6.585,5.75,6.25,6.085,6.25,6.5z M20.75,26.75c0-0.415-0.335-0.75-0.75-0.75H7
			c-0.415,0-0.75,0.335-0.75,0.75S6.585,27.5,7,27.5h13C20.415,27.5,20.75,27.165,20.75,26.75z M25.75,21.75
			c0-0.415-0.335-0.75-0.75-0.75H7c-0.415,0-0.75,0.335-0.75,0.75S6.585,22.5,7,22.5h18C25.415,22.5,25.75,22.165,25.75,21.75z
			 M25.75,16.5c0-0.415-0.335-0.75-0.75-0.75H7c-0.415,0-0.75,0.335-0.75,0.75S6.585,17.25,7,17.25h18
			C25.415,17.25,25.75,16.915,25.75,16.5z M25.75,11.5c0-0.415-0.335-0.75-0.75-0.75H7c-0.415,0-0.75,0.335-0.75,0.75
			S6.585,12.25,7,12.25h18C25.415,12.25,25.75,11.915,25.75,11.5z"/>
	</g>
</g>
<g id="Ebene_1_1_">
</g>
</svg>
