<?xml version="1.0" encoding="iso-8859-1"?>
<!-- Generator: Adobe Illustrator 20.0.0, SVG Export Plug-In . SVG Version: 6.00 Build 0)  -->
<svg version="1.1" xmlns="http://www.w3.org/2000/svg" xmlns:xlink="http://www.w3.org/1999/xlink" x="0px" y="0px"
	 viewBox="0 0 31.999 32" style="enable-background:new 0 0 31.999 32;" xml:space="preserve" width="32px" height="32px" class="br-symbol-library">
<g id="Search">
	<path id="Suchen_3_" d="M31.797,27.924l-8.005-8.005c1.302-2.017,2.072-4.415,2.072-6.99C25.865,5.8,20.06,0,12.93,0S0,5.8,0,12.93
		c0,7.132,5.8,12.932,12.93,12.932c2.575,0,4.97-0.765,6.99-2.07l8.005,8.007c0.267,0.267,0.705,0.267,0.97,0l2.902-2.905
		C32.067,28.629,32.067,28.192,31.797,27.924z M12.93,21.755c-4.865,0-8.822-3.957-8.822-8.825c0-4.865,3.957-8.822,8.822-8.822
		c4.867,0,8.825,3.957,8.825,8.822C21.755,17.797,17.797,21.755,12.93,21.755z"/>
</g>
<g id="Ebene_1">
</g>
</svg>
