<?xml version="1.0" encoding="iso-8859-1"?>
<!-- Generator: Adobe Illustrator 20.0.0, SVG Export Plug-In . SVG Version: 6.00 Build 0)  -->
<svg version="1.1" id="Ebene_1" xmlns="http://www.w3.org/2000/svg" xmlns:xlink="http://www.w3.org/1999/xlink" x="0px" y="0px"
	 viewBox="0 0 32 32" style="enable-background:new 0 0 32 32;" xml:space="preserve" width="32px" height="32px" class="br-symbol-library">
<g id="Calendar">
	<path id="Kalendar_3_" d="M29.96,2.75h-2.71V1.4c0-0.732-0.557-1.4-1.29-1.4h-1.335c-0.732,0-1.375,0.668-1.375,1.4v1.35H8.75V1.4
		C8.75,0.668,8.025,0,7.293,0H5.96C5.225,0,4.75,0.668,4.75,1.4v1.35H1.96c-0.735,0-1.21,0.585-1.21,1.318V8h30.5V4.068
		C31.25,3.335,30.693,2.75,29.96,2.75z M0.75,9.5v21.235C0.75,31.468,1.225,32,1.96,32h28c0.732,0,1.29-0.532,1.29-1.265V9.5H0.75z
		 M7.25,29.5h-4v-4h4V29.5z M7.25,24h-4v-4h4V24z M7.25,18.75h-4v-4h4V18.75z M12.75,29.5h-4v-4h4V29.5z M12.75,24h-4v-4h4V24z
		 M12.75,18.75h-4v-4h4V18.75z M18,29.5h-4v-4h4V29.5z M18,24h-4v-4h4V24z M18,18.75h-4v-4h4V18.75z M23.25,29.5h-4v-4h4V29.5z
		 M23.25,24h-4v-4h4V24z M23.25,18.75h-4v-4h4V18.75z M28.75,29.5h-4v-4h4V29.5z M28.75,24h-4v-4h4V24z M28.75,18.75h-4v-4h4V18.75z
		"/>
</g>
<g id="Ebene_1_1_">
</g>
</svg>
