<?xml version="1.0" encoding="iso-8859-1"?>
<!-- Generator: Adobe Illustrator 20.0.0, SVG Export Plug-In . SVG Version: 6.00 Build 0)  -->
<svg version="1.1" id="Ebene_1" xmlns="http://www.w3.org/2000/svg" xmlns:xlink="http://www.w3.org/1999/xlink" x="0px" y="0px"
	 viewBox="0 0 32 32" style="enable-background:new 0 0 32 32;" xml:space="preserve" width="32px" height="32px" class="br-symbol-library">
<g id="Clock">
	<path d="M18.632,16.001c0,1.473-1.178,2.652-2.651,2.652c-0.985,0-1.835-0.363-2.297-1.363H9.981c-0.367,0-0.698-0.241-0.698-0.608
		v-1.27c0-0.366,0.331-0.622,0.698-0.622h3.703c0.233-0.5,0.564-0.758,0.964-0.991l0.001-6.376c0-0.367,0.301-0.634,0.667-0.634
		h1.31c0.366,0,0.658,0.212,0.658,0.58v6.349C18.034,14.181,18.632,15.017,18.632,16.001z M16.006,3c-7.168,0-13,5.832-13,13
		s5.832,13,13,13s13-5.832,13-13S23.174,3,16.006,3 M16.006,0c8.837,0,16,7.163,16,16s-7.163,16-16,16s-16-7.163-16-16
		S7.168,0,16.006,0L16.006,0z"/>
</g>
<g id="Ebene_1_1_">
</g>
</svg>
