<?xml version="1.0" encoding="iso-8859-1"?>
<!-- Generator: Adobe Illustrator 20.0.0, SVG Export Plug-In . SVG Version: 6.00 Build 0)  -->
<svg version="1.1" id="Ebene_1" xmlns="http://www.w3.org/2000/svg" xmlns:xlink="http://www.w3.org/1999/xlink" x="0px" y="0px"
	 viewBox="0 0 32 32" style="enable-background:new 0 0 32 32;" xml:space="preserve" width="32px" height="32px" class="br-symbol-library">
<g id="Date">
	<path id="Datum_3_" d="M0.75,9.25v21.375C0.75,31.358,1.228,32,1.96,32h28c0.732,0,1.29-0.642,1.29-1.375V9.25H0.75z M28.75,29.25
		H3.25v-14.5h25.5V29.25z M13,27.25v-2h2v-6.69l-1.75,0.135V16.82L17,16.49v8.76h2v2H13z M31.25,3.959V8H0.75V3.959
		c0-0.733,0.477-1.209,1.21-1.209h2.79V1.293C4.75,0.56,5.227,0,5.96,0h1.333C8.027,0,8.75,0.56,8.75,1.293V2.75h14.5V1.293
		C23.25,0.56,23.894,0,24.627,0h1.333c0.733,0,1.29,0.56,1.29,1.293V2.75h2.71C30.694,2.75,31.25,3.226,31.25,3.959z"/>
</g>
<g id="Ebene_1_1_">
</g>
</svg>
