<?xml version="1.0" encoding="iso-8859-1"?>
<!-- Generator: Adobe Illustrator 20.0.0, SVG Export Plug-In . SVG Version: 6.00 Build 0)  -->
<svg version="1.1" id="Ebene_1" xmlns="http://www.w3.org/2000/svg" xmlns:xlink="http://www.w3.org/1999/xlink" x="0px" y="0px"
	 viewBox="0 0 32 32" style="enable-background:new 0 0 32 32;" xml:space="preserve" width="32px" height="32px" class="br-symbol-library">
<g id="ConnectionFail">
	<path d="M18.905,19.776l-1.567-1.567c-0.363-0.362-0.765-0.65-1.187-0.865c-1.582-0.8-3.477-0.572-4.757,0.707l-2.975,2.972
		L6.384,23.06c-0.097,0.095-0.187,0.192-0.27,0.297c-0.043,0.05-0.082,0.103-0.122,0.155c-0.033,0.045-0.065,0.09-0.095,0.135
		c-0.028,0.04-0.055,0.083-0.08,0.125c-0.003,0.003-0.003,0.003-0.003,0.005c-0.03,0.042-0.055,0.09-0.08,0.135
		c-0.05,0.092-0.098,0.185-0.14,0.28c-0.023,0.047-0.043,0.095-0.062,0.142c-0.02,0.05-0.04,0.097-0.057,0.145
		c-0.018,0.05-0.035,0.1-0.05,0.147c-0.015,0.05-0.03,0.1-0.043,0.148c-0.015,0.052-0.027,0.102-0.04,0.152
		c-0.01,0.042-0.018,0.087-0.028,0.13c-0.012,0.057-0.022,0.117-0.03,0.175c-0.008,0.05-0.015,0.1-0.023,0.153
		c-0.005,0.052-0.01,0.102-0.013,0.155c-0.003,0.005-0.003,0.012-0.003,0.02c-0.007,0.095-0.01,0.192-0.01,0.29
		c0,0.152,0.007,0.305,0.025,0.457c0.013,0.122,0.03,0.242,0.057,0.362c0.085,0.442,0.24,0.88,0.468,1.297
		c0.072,0.133,0.15,0.265,0.24,0.395c0.172,0.257,0.377,0.505,0.61,0.74l1.567,1.567c0.362,0.36,0.762,0.647,1.187,0.862
		c1.582,0.802,3.48,0.572,4.757-0.707l2.975-2.972l2.037-2.035c0.147-0.15,0.28-0.305,0.4-0.467
		c0.033-0.042,0.062-0.088,0.093-0.135C20.732,23.594,20.465,21.336,18.905,19.776z M17.205,23.711
		c-0.02,0.027-0.047,0.055-0.073,0.083l-1.5,1.497l-3.51,3.51c-0.597,0.597-1.4,0.335-1.895-0.157L8.66,27.077
		c-0.51-0.512-0.765-1.367-0.325-1.91c0.022-0.028,0.047-0.053,0.073-0.08l1.5-1.5l3.51-3.51c0.597-0.597,1.4-0.335,1.895,0.157
		l1.567,1.567C17.393,22.314,17.645,23.166,17.205,23.711z M25.02,2.898l-1.568-1.567c-0.363-0.362-0.765-0.65-1.187-0.865
		c-1.582-0.8-3.477-0.572-4.757,0.707l-2.976,2.973l-2.034,2.037C12.4,6.278,12.31,6.375,12.228,6.48
		c-0.043,0.05-0.083,0.103-0.123,0.155C12.073,6.68,12.04,6.725,12.01,6.77c-0.028,0.04-0.055,0.083-0.08,0.125
		c-0.002,0.003-0.002,0.003-0.002,0.005c-0.03,0.042-0.055,0.09-0.08,0.135c-0.05,0.092-0.098,0.185-0.14,0.28
		c-0.023,0.048-0.043,0.095-0.063,0.143c-0.02,0.05-0.04,0.098-0.057,0.145c-0.018,0.05-0.035,0.1-0.05,0.147
		c-0.015,0.05-0.03,0.1-0.043,0.148C11.48,7.95,11.468,8,11.455,8.05c-0.01,0.042-0.018,0.087-0.028,0.13
		c-0.012,0.057-0.022,0.117-0.03,0.175c-0.008,0.05-0.015,0.1-0.023,0.153C11.37,8.56,11.365,8.61,11.363,8.663
		c-0.003,0.005-0.003,0.012-0.003,0.02c-0.007,0.095-0.01,0.192-0.01,0.29c0,0.152,0.007,0.305,0.025,0.457
		c0.013,0.122,0.03,0.242,0.057,0.362c0.085,0.442,0.24,0.88,0.468,1.297c0.072,0.133,0.15,0.265,0.24,0.395
		c0.172,0.257,0.377,0.505,0.61,0.74l1.567,1.567c0.362,0.36,0.762,0.647,1.187,0.862c1.582,0.802,3.48,0.572,4.757-0.707
		l2.975-2.972l2.037-2.035c0.147-0.15,0.28-0.305,0.4-0.467c0.033-0.042,0.062-0.088,0.093-0.135
		C26.847,6.715,26.58,4.458,25.02,2.898z M23.32,6.833c-0.02,0.027-0.047,0.055-0.073,0.083l-1.5,1.497l-3.51,3.51
		c-0.597,0.597-1.4,0.335-1.895-0.157l-1.567-1.567c-0.51-0.512-0.765-1.367-0.325-1.91c0.022-0.029,0.047-0.054,0.072-0.081
		l1.5-1.5l3.51-3.51c0.597-0.597,1.4-0.335,1.895,0.157l1.567,1.567C23.507,5.435,23.76,6.288,23.32,6.833z M9.571,13.401
		L9.47,14.424c-0.005,0.055-0.047,0.095-0.092,0.091l-4.743-0.466c-0.046-0.004-0.078-0.052-0.073-0.107l0.101-1.023
		c0.005-0.055,0.047-0.095,0.092-0.091l4.743,0.466C9.544,13.298,9.576,13.346,9.571,13.401z M10.937,11.844l-0.794,0.652
		c-0.042,0.035-0.1,0.034-0.129-0.001L6.99,8.812C6.961,8.777,6.971,8.72,7.014,8.685l0.794-0.652
		c0.042-0.035,0.1-0.034,0.129,0.001l3.024,3.683C10.991,11.753,10.98,11.81,10.937,11.844z M10.506,16.346L6.823,19.37
		c-0.035,0.029-0.092,0.018-0.127-0.024l-0.652-0.794c-0.035-0.042-0.034-0.1,0.001-0.129l3.683-3.024
		c0.035-0.029,0.092-0.018,0.127,0.024l0.652,0.794C10.542,16.259,10.542,16.317,10.506,16.346z M22.407,18.193l0.152-1.016
		c0.008-0.054,0.051-0.093,0.097-0.086l4.713,0.705c0.045,0.007,0.076,0.056,0.067,0.111l-0.152,1.016
		c-0.008,0.054-0.051,0.093-0.097,0.086l-4.713-0.705C22.429,18.297,22.399,18.247,22.407,18.193z M20.964,19.679l0.826-0.611
		c0.044-0.033,0.102-0.029,0.129,0.008l2.834,3.831c0.027,0.037,0.014,0.093-0.03,0.126l-0.826,0.611
		c-0.044,0.033-0.102,0.029-0.129-0.008l-2.834-3.831C20.906,19.768,20.92,19.711,20.964,19.679z M21.622,15.205l3.831-2.834
		c0.037-0.027,0.093-0.014,0.126,0.03l0.611,0.826c0.033,0.044,0.029,0.102-0.008,0.129l-3.831,2.834
		c-0.037,0.027-0.093,0.014-0.126-0.03l-0.611-0.826C21.581,15.29,21.585,15.232,21.622,15.205z"/>
</g>
<g id="Ebene_1_1_">
</g>
</svg>
