<?xml version="1.0" encoding="iso-8859-1"?>
<!-- Generator: Adobe Illustrator 20.0.0, SVG Export Plug-In . SVG Version: 6.00 Build 0)  -->
<svg version="1.1" id="Ebene_1" xmlns="http://www.w3.org/2000/svg" xmlns:xlink="http://www.w3.org/1999/xlink" x="0px" y="0px"
	 viewBox="0 0 32 32" style="enable-background:new 0 0 32 32;" xml:space="preserve" width="32px" height="32px" class="br-symbol-library">
<g id="ConnectionOK">
	<path id="Verbindung_ok_3_" d="M20.088,14.33l-2.665-3c-0.005-0.006-0.01-0.008-0.015-0.014l-2.095,2.357
		c0.005,0.006,0.01,0.008,0.015,0.014l2.667,3.001c0.558,0.627,0.815,1.69,0.262,2.314l-5.18,5.827c-0.56,0.63-1.51,0.34-2.068-0.29
		l-1.62-1.82c-0.525-0.593-0.747-1.544-0.152-2.21l1.537-1.732c-0.768-0.866-1.285-1.887-1.562-2.956l-2.07,2.331
		c-1.683,1.893-1.615,4.933,0.155,6.924l1.617,1.82c1.798,2.019,4.603,2.151,6.258,0.29l5.18-5.827
		C22.03,19.471,21.915,16.383,20.088,14.33z M24.628,6.87l-1.62-1.822c-1.767-1.991-4.47-2.07-6.147-0.183l-5.18,5.824
		c-0.813,0.914-1.218,2.098-1.218,3.301c0,1.28,0.458,2.582,1.363,3.608c0,0.003,0.003,0.006,0.005,0.006
		c0.003,0.003,0.007,0.006,0.01,0.011l0.015,0.011l2.777,3.113l2.135-2.354l-2.716-3.115c0,0,0,0,0-0.003
		c0-0.008,0.023-0.017,0.023-0.025c-0.5-0.593-0.811-1.533-0.221-2.196l5.107-5.824c0.617-0.695,1.445-0.394,1.955,0.183l1.619,1.82
		c0.557,0.627,0.817,1.693,0.262,2.317l-1.55,1.744c0.75,0.886,1.265,1.912,1.54,2.981l2.105-2.368
		C26.568,12.008,26.453,8.92,24.628,6.87z"/>
</g>
<g id="Ebene_1_1_">
</g>
</svg>
