<?xml version="1.0" encoding="iso-8859-1"?>
<!-- Generator: Adobe Illustrator 20.0.0, SVG Export Plug-In . SVG Version: 6.00 Build 0)  -->
<svg version="1.1" id="Ebene_1" xmlns="http://www.w3.org/2000/svg" xmlns:xlink="http://www.w3.org/1999/xlink" x="0px" y="0px"
	 viewBox="0 0 32 32" style="enable-background:new 0 0 32 32;" xml:space="preserve" width="32px" height="32px" class="br-symbol-library">
<g id="Network">
	<path id="Netzwerk_3_" d="M26.435,19.478c-1.018,0-1.961,0.314-2.742,0.848l-2.787-2.787c0.412-0.647,0.659-1.41,0.659-2.235
		c0-0.598-0.13-1.163-0.357-1.677l4.457-3.268c0.595,0.476,1.339,0.772,2.16,0.772c1.921,0,3.478-1.557,3.478-3.478
		s-1.557-3.478-3.478-3.478s-3.478,1.557-3.478,3.478c0,0.443,0.091,0.862,0.242,1.251l-4.462,3.272
		c-0.734-0.643-1.684-1.045-2.736-1.045c-0.095,0-0.184,0.022-0.277,0.028l-1.388-4.725c0.996-0.612,1.666-1.701,1.666-2.956
		C17.391,1.557,15.833,0,13.913,0s-3.478,1.557-3.478,3.478s1.557,3.478,3.478,3.478c0.027,0,0.051-0.007,0.078-0.008l1.389,4.72
		c-0.719,0.399-1.302,0.997-1.681,1.729L7.65,11.805C7.639,9.894,6.088,8.348,4.174,8.348c-1.921,0-3.478,1.557-3.478,3.478
		s1.557,3.478,3.478,3.478c1.29,0,2.403-0.71,3.003-1.753l6.056,1.594c-0.002,0.054-0.016,0.105-0.016,0.159
		c0,0.824,0.247,1.588,0.659,2.235l-4.382,4.382C8.581,21.266,7.47,20.87,6.26,20.87c-3.072,0-5.564,2.491-5.564,5.565
		C0.696,29.508,3.188,32,6.261,32s5.565-2.492,5.565-5.565c0-1.21-0.396-2.321-1.051-3.234l4.382-4.382
		c0.647,0.412,1.41,0.659,2.235,0.659c0.824,0,1.588-0.247,2.235-0.659l2.787,2.787c-0.534,0.781-0.848,1.724-0.848,2.742
		c0,2.69,2.18,4.87,4.87,4.87s4.87-2.18,4.87-4.87S29.124,19.478,26.435,19.478z"/>
</g>
<g id="Ebene_1_1_">
</g>
</svg>
