<?xml version="1.0" encoding="utf-8"?>
<!-- Generator: Adobe Illustrator 20.0.0, SVG Export Plug-In . SVG Version: 6.00 Build 0)  -->
<svg version="1.1" id="Ebene_1" xmlns="http://www.w3.org/2000/svg" xmlns:xlink="http://www.w3.org/1999/xlink" x="0px" y="0px"
	 viewBox="0 0 32 32" style="enable-background:new 0 0 32 32;" xml:space="preserve" width="32px" height="32px" class="br-symbol-library">
<g id="FastForwardStop">
	<path d="M31.3,4.5h-2.5c-0.4,0-0.7,0.3-0.7,0.6V15L14.7,4.6C14.4,4.4,14,4.5,14,4.8V15L0.7,4.6C0.4,4.4,0,4.5,0,4.8v22.2
		c0,0.4,0.4,0.5,0.7,0.2L14,16.9v10.2c0,0.3,0.4,0.5,0.7,0.2L28,16.9v9.9c0,0.4,0.4,0.7,0.7,0.7h2.5c0.4,0,0.7-0.4,0.7-0.7V5.1
		C32,4.8,31.6,4.5,31.3,4.5z"/>
</g>
<g id="Ebene_1_1_">
</g>
</svg>
