<?xml version="1.0" encoding="utf-8"?>
<!-- Generator: Adobe Illustrator 20.0.0, SVG Export Plug-In . SVG Version: 6.00 Build 0)  -->
<svg version="1.1" id="Ebene_1" xmlns="http://www.w3.org/2000/svg" xmlns:xlink="http://www.w3.org/1999/xlink" x="0px" y="0px"
	 viewBox="0 0 32 32" style="enable-background:new 0 0 32 32;" xml:space="preserve" width="32px" height="32px" class="br-symbol-library">
<g id="Pause">
	<path d="M23,5.5c0-0.4-0.3-0.7-0.7-0.7H18c-0.4,0-0.7,0.3-0.7,0.7v21.1c0,0.4,0.3,0.7,0.7,0.7h4.3c0.4,0,0.7-0.3,0.7-0.7V5.5z
		 M14.8,5.5c0-0.4-0.3-0.7-0.7-0.7H9.7C9.3,4.8,9,5.1,9,5.5v21.1c0,0.4,0.3,0.7,0.7,0.7H14c0.4,0,0.7-0.3,0.7-0.7V5.5z"/>
</g>
<g id="Ebene_1_1_">
</g>
</svg>
