<?xml version="1.0" encoding="UTF-8" standalone="no"?>
<!-- Generator: Adobe Illustrator 20.0.0, SVG Export Plug-In . SVG Version: 6.00 Build 0)  -->

<svg
   xmlns:dc="http://purl.org/dc/elements/1.1/"
   xmlns:cc="http://creativecommons.org/ns#"
   xmlns:rdf="http://www.w3.org/1999/02/22-rdf-syntax-ns#"
   xmlns:svg="http://www.w3.org/2000/svg"
   xmlns="http://www.w3.org/2000/svg"
   xmlns:sodipodi="http://sodipodi.sourceforge.net/DTD/sodipodi-0.dtd"
   xmlns:inkscape="http://www.inkscape.org/namespaces/inkscape"
   version="1.1"
   id="Ebene_1"
   x="0px"
   y="0px"
   viewBox="0 0 30.219778 27.0198"
   xml:space="preserve"
   width="30.219778"
   height="27.0198"
   class="br-symbol-library"
   sodipodi:docname="EditUser.svg"
   inkscape:version="0.92.2 (5c3e80d, 2017-08-06)"><metadata
     id="metadata11"><rdf:RDF><cc:Work
         rdf:about=""><dc:format>image/svg+xml</dc:format><dc:type
           rdf:resource="http://purl.org/dc/dcmitype/StillImage" /></cc:Work></rdf:RDF></metadata><defs
     id="defs9"><pattern
       y="0"
       x="0"
       height="6"
       width="6"
       patternUnits="userSpaceOnUse"
       id="EMFhbasepattern" /></defs><sodipodi:namedview
     pagecolor="#ffffff"
     bordercolor="#666666"
     borderopacity="1"
     objecttolerance="10"
     gridtolerance="10"
     guidetolerance="10"
     inkscape:pageopacity="0"
     inkscape:pageshadow="2"
     inkscape:window-width="682"
     inkscape:window-height="480"
     id="namedview7"
     showgrid="false"
     inkscape:zoom="7.375"
     inkscape:cx="13.211583"
     inkscape:cy="20.560748"
     inkscape:window-x="2598"
     inkscape:window-y="166"
     inkscape:window-maximized="0"
     inkscape:current-layer="Ebene_1" /><path
     id="path821"
     d="m 26.239806,23.819823 v 2.639981 c 0,0.319997 -0.319998,0.559996 -0.639996,0.559996 H 0.4799964 C 0.2399982,27.0198 0,26.779801 0,26.459804 V 23.819823 C 0,22.619832 0.3199976,22.059836 1.1999911,21.57984 1.9199858,21.099844 6.7999496,18.299864 9.1999314,17.259872 v -4.239969 c -0.719994,-0.559995 -1.199991,-1.35999 -1.199991,-2.63998 V 7.0199473 c 0,-2.799979 1.679988,-5.119962 5.1199626,-5.119962 3.359975,0 5.119962,2.319983 5.119962,5.119962 v 3.3599757 c 0,1.199991 -0.559996,1.999985 -1.039992,2.479982 v 4.399967 c 2.159984,1.039992 7.199946,3.839972 7.919941,4.319968 0.959993,0.479996 1.119992,1.039992 1.119992,2.239983 z"
     style="fill:#000000;fill-opacity:1;fill-rule:nonzero;stroke:none"
     inkscape:connector-curvature="0" /><path
     id="path823"
     d="m 27.359797,5.4999594 v 2.799979 c 0,0.879993 -0.719994,1.679987 -1.599988,1.679987 h -5.35996 c -0.879994,0 -1.599988,-0.799994 -1.599988,-1.679987 v -5.35996 c 0,-0.879994 0.719994,-1.5199891 1.599988,-1.5199891 h 5.35996 c 0.08,0 0.239998,0 0.319998,0 l -0.879994,0.8799931 h -4.799964 c -0.399997,0 -0.719995,0.319998 -0.719995,0.639996 v 5.35996 c 0,0.399997 0.319998,0.799994 0.719995,0.799994 h 5.35996 c 0.399997,0 0.719995,-0.399997 0.719995,-0.799994 v -1.839986 z m 2.79998,-4.3999681 -1.039993,-1.03999205 c -0.08,-0.079999 -0.239998,-0.079999 -0.399997,0 l -0.639995,0.7199951 1.35999,1.35999005 0.719995,-0.7199951 c 0.08,-0.08 0.08,-0.239998 0,-0.319998 z m -5.919957,6.2399541 -1.359989,-1.35999 -0.799995,1.9999849 c 0,0.08 0,0.159999 0.159999,0.08 z m 4.799965,-4.799964 -1.35999,-1.35999 -4.399967,4.319968 1.439989,1.35999 z"
     style="fill:#000000;fill-opacity:1;fill-rule:nonzero;stroke:none"
     inkscape:connector-curvature="0" /></svg>