<?xml version="1.0" encoding="utf-8"?>
<!-- Generator: Adobe Illustrator 20.0.0, SVG Export Plug-In . SVG Version: 6.00 Build 0)  -->
<svg version="1.1" id="Ebene_1" xmlns="http://www.w3.org/2000/svg" xmlns:xlink="http://www.w3.org/1999/xlink" x="0px" y="0px"
	 viewBox="0 0 32 32" style="enable-background:new 0 0 32 32;" xml:space="preserve" width="32px" height="32px" class="br-symbol-library">
<g id="Login">
	<path d="M13.8,5.4c-1.2,0-2,0.9-2,2v1.3l2,2.1V7.4H18v-2C18,5.4,13.8,5.4,13.8,5.4z M13.8,24.6V21l-2,2.1v1.5c0,1.2,0.8,2.1,2,2.1
		H18v-2L13.8,24.6L13.8,24.6z M31.8,5.7c-0.1-0.2-0.2-0.3-0.6-0.4L20.5,3.2c-0.1,0-0.2,0-0.3,0c-0.2,0-0.4,0.1-0.6,0.2
		c-0.3,0.2-0.4,0.5-0.4,0.9v23.6c0,0.3,0.1,0.6,0.4,0.9c0.2,0.1,0.4,0.2,0.6,0.2c0.1,0,0.2,0,0.3,0l10.7-2.1
		c0.3-0.1,0.5-0.2,0.6-0.4c0.1-0.1,0.2-0.3,0.2-0.7V6.4C32,6.1,31.9,5.9,31.8,5.7z M22.9,16.5c-0.6,0-1.1-0.5-1.1-1.1
		c0-0.6,0.5-1.1,1.1-1.1s1.1,0.5,1.1,1.1C23.9,16.1,23.5,16.5,22.9,16.5z M17.1,16.3l-3.3,3.3l-2.1,2.1l-2.5,2.4
		c-0.1,0.1-0.2,0.1-0.3,0.1c-0.2,0-0.3-0.1-0.3-0.3v-4.5H0.7c-0.3,0-0.7-0.5-0.7-0.8v-5.4c0-0.3,0.4-0.3,0.7-0.3h7.8v-5
		c0-0.2,0.2-0.3,0.3-0.3c0.1,0,0.2,0,0.3,0.1l2.5,2.4l2.1,2.1l3.3,3.3C17.3,15.7,17.3,16.1,17.1,16.3z"/>
</g>
<g id="Ebene_1_1_">
</g>
</svg>
