<?xml version="1.0" encoding="utf-8"?>
<!-- Generator: Adobe Illustrator 20.0.0, SVG Export Plug-In . SVG Version: 6.00 Build 0)  -->
<svg version="1.1" id="Ebene_1" xmlns="http://www.w3.org/2000/svg" xmlns:xlink="http://www.w3.org/1999/xlink" x="0px" y="0px"
	 viewBox="0 0 32 32" style="enable-background:new 0 0 32 32;" xml:space="preserve" width="32px" height="32px" class="br-symbol-library">
<g id="Accept">
	<path id="Bestätigung_3_" d="M31.8,7.8l-4.5-4.4c-0.3-0.3-0.7-0.3-1,0L11.9,17.8c-0.3,0.3-0.7,0.3-1,0l-5.4-5.4
		c-0.3-0.3-0.7-0.3-1,0l-4.5,4.5c-0.3,0.3-0.3,0.7,0,1l5.4,5.4c0.3,0.3,0.7,0.7,1,1l4.5,4.5c0.3,0.3,0.7,0.3,1,0L31.8,8.8
		C32.1,8.5,32.1,8.1,31.8,7.8z"/>
</g>
<g id="Ebene_1_1_">
</g>
</svg>
