<?xml version="1.0" encoding="iso-8859-1"?>
<!-- Generator: Adobe Illustrator 20.0.0, SVG Export Plug-In . SVG Version: 6.00 Build 0)  -->
<svg version="1.1" xmlns="http://www.w3.org/2000/svg" xmlns:xlink="http://www.w3.org/1999/xlink" x="0px" y="0px"
	 viewBox="0 0 32 32" style="enable-background:new 0 0 32 32;" xml:space="preserve" width="32px" height="32px"class="br-symbol-library">
<g id="Button">
	<path d="M32,3c0-1.657-1.343-3-3-3H3C1.343,0,0,1.343,0,3v26c0,1.657,1.343,3,3,3h26c1.657,0,3-1.343,3-3V3z M29.272,29.267
		L3.282,29.27c-0.002-0.001-0.006-0.005-0.008-0.005c0,0-0.001,0-0.001,0L3.271,3.142C3.272,3.139,3.277,3,3.274,3h25.994
		C29.27,3,29,3.298,29,3.298s0-0.014,0-0.015l0.139,25.983C29.137,29.269,29.269,29.267,29.272,29.267z M16.273,6.267
		c-5.523,0-10,4.477-10,10c0,5.523,4.477,10,10,10s10-4.477,10-10C26.273,10.744,21.796,6.267,16.273,6.267z M16.273,24.267
		c-4.411,0-8-3.589-8-8s3.589-8,8-8s8,3.589,8,8S20.684,24.267,16.273,24.267z M16.273,9.517c-3.728,0-6.75,3.022-6.75,6.75
		s3.022,6.75,6.75,6.75s6.75-3.022,6.75-6.75S20.001,9.517,16.273,9.517z M16.273,22.117c-3.226,0-5.85-2.624-5.85-5.85
		c0-3.226,2.624-5.85,5.85-5.85s5.85,2.624,5.85,5.85C22.123,19.493,19.499,22.117,16.273,22.117z"/>
</g>
<g id="Ebene_1">
</g>
</svg>
