<?xml version="1.0" encoding="utf-8"?>
<!-- Generator: Adobe Illustrator 20.0.0, SVG Export Plug-In . SVG Version: 6.00 Build 0)  -->
<svg version="1.1" id="Ebene_1" xmlns="http://www.w3.org/2000/svg" xmlns:xlink="http://www.w3.org/1999/xlink" x="0px" y="0px"
	 viewBox="0 0 32 32" style="enable-background:new 0 0 32 32;" xml:space="preserve" width="32px" height="32px"class="br-symbol-library">
<g id="Conveyor">
	<path d="M32,19.2H6.9c-3.1,0-5.6,2.6-5.6,5.7c0,3.2,2.5,5.7,5.6,5.7H32v1.2H6.9c-3.8,0-6.9-3.1-6.9-7s3.1-7,6.9-7H32V19.2z
		 M2.9,24.9c0,2.2,1.8,4,4,4s4-1.8,4-4c0-2.2-1.8-4-4-4C4.7,20.9,2.9,22.7,2.9,24.9z M24.5,1.1c0-0.6-0.4-1-1-1H8.6
		c-0.5,0-1,0.4-1,1V16c0,0.5,0.4,1,1,1h14.9c0.5,0,1-0.4,1-1V1.1z"/>
</g>
<g id="Ebene_1_1_">
</g>
</svg>
