<?xml version="1.0" encoding="iso-8859-1"?>
<!-- Generator: Adobe Illustrator 20.0.0, SVG Export Plug-In . SVG Version: 6.00 Build 0)  -->
<svg version="1.1" xmlns="http://www.w3.org/2000/svg" xmlns:xlink="http://www.w3.org/1999/xlink" x="0px" y="0px"
	 viewBox="0 0 32 32" style="enable-background:new 0 0 32 32;" xml:space="preserve" width="32px" height="32px" class="br-symbol-library">
<g id="Download">
	<path id="Download_3_" d="M28,22.5v2.75H16.626l9.826-11.451c0.212-0.273,0.103-0.549-0.243-0.549H20V0.412
		C20,0.066,19.6,0,19.255,0h-6.699C12.21,0,12,0.066,12,0.412V13.25H5.62c-0.346,0-0.457,0.277-0.245,0.551l9.829,11.449H4V22.5H0
		v7.927C0,31.16,0.462,32,1.195,32h29.333C31.261,32,32,31.16,32,30.427V22.5H28z"/>
</g>
<g id="Ebene_1">
</g>
</svg>
