<?xml version="1.0" encoding="utf-8"?>
<!-- Generator: Adobe Illustrator 20.0.0, SVG Export Plug-In . SVG Version: 6.00 Build 0)  -->
<svg version="1.1" id="Ebene_1" xmlns="http://www.w3.org/2000/svg" xmlns:xlink="http://www.w3.org/1999/xlink" x="0px" y="0px"
	 viewBox="0 0 32 32" style="enable-background:new 0 0 32 32;" xml:space="preserve" width="32px" height="32px" class="br-symbol-library">
<g id="EngineReference">
	<path d="M32,15.3c0-0.1,0-0.3,0-0.4l-1.5-3.5c-0.2-0.4-0.5-0.6-1-0.6h-2.6c-0.6,0-0.9,0.4-0.9,1v1.7h-1V12c0-0.6-0.4-1-1-1h-2.8
		V8.2c0-0.6-0.5-1.2-1-1.2H15V6h5.2c0.6,0,1-0.4,1-1s-0.5-1-1-1H7.9c-0.6,0-1,0.4-1,1s0.5,1,1,1H13v1H7.9C7.3,7,6.7,7.6,6.7,8.2V9
		H4.6C4,9,3.5,9.5,3.5,10.1v5.7H2v-5.7c0-0.6-0.4-1-1-1s-1,0.5-1,1v13.3c0,0.6,0.4,1,1,1s1-0.5,1-1v-5.6h1.5v5.6
		c0,0.6,0.5,1.2,1.1,1.2h4l4.1,3.4c0.2,0.2,0.4,0.1,0.7,0.1H24c0.6,0,1-0.4,1-1v-2.8h1v1.6c0,0.6,0.4,0.9,0.9,0.9h2.6
		c0.4,0,0.8-0.2,0.9-0.6l1.5-3.5c0.1-0.1,0-0.3,0-0.4L32,15.3L32,15.3z M24,17.9c0,0.2-0.2,0.3-0.3,0.3h-1.4c-0.4,3.2-3,5.9-6.3,6.3
		v1.4c0,0.2-0.2,0.3-0.3,0.3h-0.8c-0.2,0-0.3-0.2-0.3-0.3v-1.4c-3.2-0.4-6-3-6.3-6.3H6.8c-0.2,0-0.3-0.2-0.3-0.3v-0.8
		c0-0.2,0.2-0.3,0.3-0.3h1.3c0.4-3.2,3.1-6,6.3-6.3V9.1c0-0.2,0.2-0.3,0.3-0.3h0.8c0.2,0,0.3,0.2,0.3,0.3v1.3
		c3.3,0.4,5.9,3.1,6.3,6.3h1.4c0.2,0,0.3,0.2,0.3,0.3L24,17.9L24,17.9z M18,17.9v-0.8c0-0.2,0.2-0.3,0.3-0.3h2.3
		c-0.4-2.5-2.1-4.3-4.6-4.7v2.4c0,0.2-0.2,0.3-0.3,0.3h-0.8c-0.2,0-0.3-0.2-0.3-0.3v-2.4c-2.5,0.4-4.3,2.2-4.7,4.7h2.4
		c0.2,0,0.3,0.2,0.3,0.3v0.8c0,0.2-0.2,0.3-0.3,0.3H9.8c0.3,2.5,2.2,4.3,4.7,4.6v-2.3c0-0.2,0.2-0.3,0.3-0.3h0.8
		c0.2,0,0.3,0.2,0.3,0.3v2.3c2.5-0.4,4.3-2.1,4.6-4.6h-2.3C18.2,18.2,18,18.1,18,17.9z"/>
</g>
<g id="Ebene_1_1_">
</g>
</svg>
