<?xml version="1.0" encoding="utf-8"?>
<!-- Generator: Adobe Illustrator 20.0.0, SVG Export Plug-In . SVG Version: 6.00 Build 0)  -->
<svg version="1.1" id="Ebene_1" xmlns="http://www.w3.org/2000/svg" xmlns:xlink="http://www.w3.org/1999/xlink" x="0px" y="0px"
	 viewBox="0 0 32 32" style="enable-background:new 0 0 32 32;" xml:space="preserve" width="32px" height="32px" class="br-symbol-library">
<g id="Engine">
	<path d="M32,15.3v7c0,0.1,0,0.3,0,0.4l-1.5,3.5c-0.2,0.4-0.5,0.6-0.9,0.6h-2.6c-0.6,0-0.9-0.4-0.9-0.9v-1.6h-1V27c0,0.6-0.4,1-1,1
		H13.4c-0.2,0-0.5,0-0.7-0.2l-4.1-3.3H4.6c-0.6,0-1.1-0.6-1.1-1.2v-5.6H2v5.6c0,0.6-0.4,1-1,1s-1-0.5-1-1V10.1c0-0.6,0.4-1,1-1
		s1,0.5,1,1v5.7h1.5v-5.7C3.5,9.5,4,9,4.6,9h2.2V8.2C6.7,7.6,7.3,7,7.9,7H13V6H7.9c-0.6,0-1-0.4-1-1s0.5-1,1-1h12.3c0.6,0,1,0.4,1,1
		s-0.5,1-1,1H15v1h5.2c0.6,0,1,0.6,1,1.2V11H24c0.6,0,1,0.5,1,1v1.5h1v-1.7c0-0.6,0.4-1,0.9-1h2.6c0.4,0,0.8,0.2,1,0.6l1.5,3.5
		C32,15,32,15.1,32,15.3z"/>
</g>
<g id="Ebene_1_1_">
</g>
</svg>
