<?xml version="1.0" encoding="utf-8"?>
<!-- Generator: Adobe Illustrator 20.0.0, SVG Export Plug-In . SVG Version: 6.00 Build 0)  -->
<svg version="1.1" id="Ebene_1" xmlns="http://www.w3.org/2000/svg" xmlns:xlink="http://www.w3.org/1999/xlink" x="0px" y="0px"
	 viewBox="0 0 32 32" style="enable-background:new 0 0 32 32;" xml:space="preserve" width="32px" height="32px" class="br-symbol-library">
<style type="text/css">
	.st0{opacity:0.3;enable-background:new    ;}
</style>
<g id="Graph">
	<g id="Graph_3_">
		<path class="st0" d="M30.8,10.5V9.2H27V8.4l-0.6,1l-0.7,1.2h0.1v3.8h-1.2c0,0,0.1,0.4,0.1,0.6c0,0,0,0,0,0c0,0,0,0,0,0
			c0,0.2,0,0.3-0.1,0.6h1.2V19h-3.5v-1.1c-0.2,0-0.4-0.1-0.6-0.1h0c-0.2,0-0.6,0.2-0.6,0.1V19h-3.8v-1.2L16,18.4V19h-1.8l-0.7,0.4
			c0,0,0,0,0,0.1c0,0.1,0,0.2,0,0.3c0,0,0,0,0,0.1c0,0.1,0,0.1,0,0.2c0,0.1,0,0.1-0.1,0.3H16V24h-3.8v-1.8c-0.2,0.3-0.8,0.5-1.2,0.6
			V24H7.9l-0.6,0.7l-1.1,1.4V29h1.2v-3.8H11V29h1.2v-3.8H16V29h1.2v-3.8H21V29h1.2v-3.8h3.5V29H27v-3.8h3.8V24H27v-3.8h3.8V19H27
			v-3.5h3.8v-1.2H27v-3.8H30.8z M21,24h-3.8v-3.8H21V24z M25.8,24h-3.5v-3.8h3.5V24z M25.8,0.5v3.3c0-1,0.5-1.9,1.2-2.5V0.5H25.8z
			 M26.5,5.8c-0.5-0.5-0.7-1.2-0.7-2v0.5h-3.5V0.5H21v3.8h-3.8V0.5H16v3.8h-3.8V0.5H11v3.8H7.5V0.5H6.2v3.8H2.5v1.2h3.8v3.8H2.5v1.2
			h3.8v3.8H2.5v1.2h3.8V19H2.5v1.2h3.8v3.1l1.2-1.4v-1.6h0c0-0.2-0.1-0.3-0.1-0.5c0,0,0,0,0,0c0,0,0-0.1,0-0.1c0-0.1,0-0.2,0-0.2
			c0-0.1,0-0.2,0.1-0.4h0v-3.5H11v1.3c0.2,0,0.3,0.1,0.5,0.1c0.3,0.1,0.6,0.2,0.7,0.4c0,0,0,0,0,0v-1.8H16v0.9l1.2-0.5v-0.3H18
			l0.5-0.2c0,0,0,0,0-0.1c0-0.1,0-0.2,0-0.3v0c0,0,0-0.1,0-0.2c0,0,0-0.1,0-0.1c0-0.1,0-0.2,0-0.3c0-0.1,0-0.1,0-0.1h-1.3v-3.8H21
			v1.4c0,0,0.4-0.1,0.6-0.1c0,0,0,0,0,0c0.2,0,0.4,0,0.6,0.1v-1.4h1.2l0.8-1.2h-2V5.5h3.5v1.4L26.5,5.8z M7.5,5.5H11v3.8H7.5V5.5z
			 M7.5,14.2v-3.8H11v3.8H7.5z M12.2,5.5H16v3.8h-3.8V5.5z M12.2,14.2v-3.8H16v3.8H12.2z M17.2,9.2V5.5H21v3.8H17.2z M2.5,24v1.2
			h1.9L5.5,24H2.5z"/>
		<path d="M28.9,6.9c1.7,0,3.1-1.4,3.1-3.1s-1.4-3.1-3.1-3.1s-3.1,1.4-3.1,3.1c0,0.8,0.3,1.4,0.7,2L22.5,12c-0.3-0.1-0.6-0.2-1-0.2
			c-1.7,0-3.1,1.4-3.1,3.1c0,0.1,0,0.3,0,0.4l-5.7,2.5c-0.6-0.6-1.4-1.1-2.3-1.1c-1.7,0-3.1,1.4-3.1,3.1c0,0.6,0.2,1.1,0.5,1.6
			l-5.4,6.2V0.5H1.2H0v31h1.2h29.5v-1.3V29H3.7l5.5-6.4c0.4,0.2,0.8,0.3,1.2,0.3c1.7,0,3.1-1.4,3.1-3.1c0-0.1,0-0.2,0-0.3l5.8-2.5
			c0.6,0.6,1.4,1,2.3,1c1.7,0,3.1-1.4,3.1-3.1c0-0.7-0.2-1.3-0.6-1.8l4.1-6.3C28.4,6.8,28.6,6.9,28.9,6.9z"/>
	</g>
</g>
<g id="Ebene_1_1_">
</g>
</svg>
