<?xml version="1.0" encoding="utf-8"?>
<!-- Generator: Adobe Illustrator 20.0.0, SVG Export Plug-In . SVG Version: 6.00 Build 0)  -->
<svg version="1.1" id="Ebene_1" xmlns="http://www.w3.org/2000/svg" xmlns:xlink="http://www.w3.org/1999/xlink" x="0px" y="0px"
	 viewBox="0 0 32 32" style="enable-background:new 0 0 32 32;" xml:space="preserve" width="32px" height="32px" class="br-symbol-library">
<g id="Hide">
	<path id="Ausblenden_3_" d="M24.2,8.8l-1.9,4.8c0.1,0.4,0.1,0.7,0.1,1.1c0,2.1-1,4-2.6,5.1l-1.7,4.2c7.5-1.2,13.8-7.8,13.8-7.8
		S29.4,11.6,24.2,8.8z M22.1,20.9c1.6-1.6,2.6-3.7,2.6-6.1c0-0.6-0.1-1.1-0.2-1.6c2.3,1.1,4.1,2.3,5,3.2
		C28.2,17.4,25.5,19.5,22.1,20.9z M22.2,3.1l-1.7,4.3c-1.4-0.4-2.9-0.7-4.5-0.7c-10.6,0-16,9.5-16,9.5s6.4,6.8,13.9,7.9l-1.8,4.7
		h2.7L24.9,3.1H22.2z M15.1,16.7l-0.8,0.8c-0.6-0.4-1-0.9-1.3-1.6l0.9-0.9C14,15.7,14.4,16.3,15.1,16.7z M3,16.3
		c0.9-0.8,2.4-2,4.5-3c-0.1,0.5-0.1,1-0.1,1.5c0,2.3,0.9,4.5,2.5,6C6.7,19.4,4.2,17.3,3,16.3z M15.1,21.1C12,20.6,9.6,18,9.6,14.7
		c0-0.9,0.2-1.8,0.6-2.7c1.1-0.4,2.2-0.7,3.4-0.9c-1.1,0.8-1.9,2.1-1.9,3.6c0,2.3,1.9,4.2,4.2,4.3L15.1,21.1z"/>
</g>
<g id="Ebene_1_1_">
</g>
</svg>
