<?xml version="1.0" encoding="utf-8"?>
<!-- Generator: Adobe Illustrator 20.0.0, SVG Export Plug-In . SVG Version: 6.00 Build 0)  -->
<svg version="1.1" id="Ebene_1" xmlns="http://www.w3.org/2000/svg" xmlns:xlink="http://www.w3.org/1999/xlink" x="0px" y="0px"
	 viewBox="0 0 32 32" style="enable-background:new 0 0 32 32;" xml:space="preserve" width="32px" height="32px" class="br-symbol-library">
<style type="text/css">
	.st0{opacity:0.55;enable-background:new    ;}
	.st1{opacity:0.6;enable-background:new    ;}
	.st2{opacity:0.5;enable-background:new    ;}
	.st3{opacity:0.65;enable-background:new    ;}
	.st4{opacity:0.45;enable-background:new    ;}
	.st5{opacity:0.7;enable-background:new    ;}
	.st6{opacity:0.75;enable-background:new    ;}
	.st7{opacity:0.95;enable-background:new    ;}
	.st8{opacity:0.8;enable-background:new    ;}
	.st9{opacity:0.9;enable-background:new    ;}
	.st10{opacity:0.85;enable-background:new    ;}
</style>
<g id="InProgress">
	<g>
		<path class="st0" d="M8.2,17.2h-8C0,17.2,0,17.1,0,17v-1.8C0,15.2,0,15,0.1,15h8c0.1,0,0.2,0.1,0.2,0.3c0,0.3,0,0.6,0,0.9
			c0,0.3,0,0.6,0,0.9C8.3,17.1,8.3,17.2,8.2,17.2z"/>
		<path class="st1" d="M9.7,21l-7,4c-0.1,0-0.2,0-0.2-0.1l-0.9-1.5c0-0.1,0-0.2,0.1-0.2l6.9-4c0.1-0.1,0.2,0,0.3,0.1
			c0.2,0.5,0.5,1,0.9,1.5C9.9,20.8,9.8,20.9,9.7,21z"/>
		<path class="st2" d="M8.7,13.2l-6.9-4C1.6,9.1,1.6,9,1.7,8.9l0.9-1.5c0-0.1,0.2-0.1,0.2-0.1l7,4c0.1,0.1,0.1,0.2,0.1,0.3
			c-0.3,0.5-0.6,1-0.9,1.5C8.9,13.2,8.8,13.2,8.7,13.2z"/>
		<path class="st3" d="M11.4,22.3c0.5,0.3,1,0.6,1.5,0.9c0.1,0,0.1,0.2,0.1,0.3l-4,6.9c0,0.1-0.2,0.1-0.2,0.1l-1.5-0.9
			c-0.1,0-0.1-0.2-0.1-0.2l4-7C11.2,22.3,11.3,22.2,11.4,22.3z"/>
		<path class="st4" d="M9,1.9l4,6.9C13,9,13,9.1,12.9,9.1c-0.5,0.2-1,0.5-1.5,0.9c-0.1,0.1-0.2,0-0.3-0.1l-4-7c0-0.1,0-0.2,0.1-0.2
			l1.5-0.9C8.8,1.8,8.9,1.9,9,1.9z"/>
		<path d="M15,0h1.8C16.9,0,17,0.3,17,0.4v8c0,0.1-0.1,0.2-0.2,0.2c-0.3,0-0.6,0-0.9,0c-0.3,0-0.6,0-0.9,0c-0.1,0-0.3-0.1-0.3-0.2
			v-8C14.8,0.3,14.9,0,15,0z"/>
		<path class="st5" d="M15.9,23.8c0.3,0,0.6,0,0.9,0c0.1,0,0.2,0.1,0.2,0.2v8c0,0.1-0.1,0-0.2,0H15c-0.1,0-0.3,0.1-0.3,0v-8
			c0-0.1,0.2-0.2,0.3-0.2C15.3,23.8,15.6,23.8,15.9,23.8z"/>
		<path class="st6" d="M20.7,22.4l4,7c0,0.1,0,0.2-0.1,0.2l-1.5,0.9c-0.1,0-0.2,0-0.2-0.1l-4-7c-0.1-0.1,0-0.2,0.1-0.3
			c0.5-0.2,1-0.5,1.5-0.9C20.6,22.2,20.7,22.3,20.7,22.4z"/>
		<path class="st7" d="M20.5,10c-0.5-0.3-1-0.6-1.5-0.9c-0.1,0-0.1-0.2-0.1-0.3l4-6.9c0-0.1,0.2-0.1,0.2-0.1l1.5,0.9
			c0.1,0,0.1,0.2,0.1,0.2l-4,7C20.7,10,20.6,10.1,20.5,10z"/>
		<path class="st8" d="M23.2,19.1l7,4c0.1,0,0.1,0.2,0.1,0.2l-0.9,1.5c0,0.1-0.2,0.1-0.2,0.1l-7-4c-0.1-0.1-0.1-0.2-0.1-0.3
			c0.3-0.5,0.6-1,0.9-1.5C23,19.1,23.1,19.1,23.2,19.1z"/>
		<path class="st9" d="M22.1,11.3l7-4c0.1,0,0.2,0,0.2,0.1l0.9,1.5c0,0.1,0,0.2-0.1,0.2l-6.9,4c-0.1,0.1-0.2,0-0.3-0.1
			c-0.2-0.5-0.5-1-0.9-1.5C22,11.5,22,11.4,22.1,11.3z"/>
		<path class="st10" d="M32,15.3V17c0,0.1-0.1,0.2-0.2,0.2h-8c-0.1,0-0.2-0.1-0.2-0.2c0-0.3,0-0.6,0-0.9s0-0.6,0-0.9
			c0-0.1,0.1-0.3,0.2-0.3h8C31.8,15,32,15.2,32,15.3z"/>
	</g>
</g>
<g id="Ebene_1_1_">
</g>
</svg>
