<?xml version="1.0" encoding="utf-8"?>
<!-- Generator: Adobe Illustrator 20.0.0, SVG Export Plug-In . SVG Version: 6.00 Build 0)  -->
<svg version="1.1" id="Ebene_1" xmlns="http://www.w3.org/2000/svg" xmlns:xlink="http://www.w3.org/1999/xlink" x="0px" y="0px"
	 viewBox="0 0 32 32" style="enable-background:new 0 0 32 32;" xml:space="preserve" width="32px" height="32px" class="br-symbol-library">
<style type="text/css">
	.st0{opacity:0.5;enable-background:new    ;}
</style>
<g id="Min">
	<g>
		<path class="st0" d="M32,18.3c0,4.4-1.8,8.5-4.7,11.4l-2.1-2.1c2.4-2.4,3.9-5.6,3.9-9.2c0-7.2-5.8-13-13-13s-13,5.8-13,13
			c0,0.9,0.1,1.7,0.2,2.5l-2.9,0.8C0.1,20.6,0,19.4,0,18.3c0-8.5,6.6-15.5,15-16H17C25.4,2.8,32,9.8,32,18.3z"/>
		<path d="M3.8,22.8c0.7,1.8,1.7,3.5,3.1,4.8l-2.1,2.1C3,28,1.7,25.9,0.9,23.6L3.8,22.8z M16,14.9c-1.9,0-3.5,1.6-3.5,3.5
			c0,0.1,0,0.3,0,0.4l-5.8,3.6c-0.5,0.3-0.6,0.9-0.3,1.4l0.5,0.8c0.3,0.5,0.9,0.6,1.4,0.3l5.8-3.6c0.5,0.4,1.2,0.6,1.9,0.6
			c1.9,0,3.5-1.6,3.5-3.5C19.5,16.4,17.9,14.9,16,14.9z"/>
	</g>
</g>
<g id="Ebene_1_1_">
</g>
</svg>
