<?xml version="1.0" encoding="utf-8"?>
<!-- Generator: Adobe Illustrator 20.0.0, SVG Export Plug-In . SVG Version: 6.00 Build 0)  -->
<svg version="1.1" id="Ebene_1" xmlns="http://www.w3.org/2000/svg" xmlns:xlink="http://www.w3.org/1999/xlink" x="0px" y="0px"
	 viewBox="0 0 32 32" style="enable-background:new 0 0 32 32;" xml:space="preserve" width="32px" height="32px" class="br-symbol-library">
<g id="Mode">
	<path d="M30,31c0,0.6-0.4,1-1,1h-6c-0.6,0-1-0.4-1-1s0.4-1,1-1h6C29.6,30,30,30.4,30,31z M19,30h-6c-0.6,0-1,0.4-1,1s0.4,1,1,1h6
		c0.6,0,1-0.4,1-1S19.6,30,19,30z M9,30H3c-0.6,0-1,0.4-1,1s0.4,1,1,1h6c0.6,0,1-0.4,1-1S9.6,30,9,30z M6,26.2V0h5.1l4.9,11.9
		L20.8,0h5v26.2H21V9.9l-3.5,8.9h-3l-3.7-8.9v16.4H6z"/>
</g>
<g id="Ebene_1_1_">
</g>
</svg>
