<?xml version="1.0" encoding="utf-8"?>
<!-- Generator: Adobe Illustrator 20.0.0, SVG Export Plug-In . SVG Version: 6.00 Build 0)  -->
<svg version="1.1" id="Ebene_1" xmlns="http://www.w3.org/2000/svg" xmlns:xlink="http://www.w3.org/1999/xlink" x="0px" y="0px"
	 viewBox="0 0 32 32" style="enable-background:new 0 0 32 32;" xml:space="preserve" width="32px" height="32px" class="br-symbol-library">
<g id="PDF">
	<g>
		<path d="M22.1,6V0l6.5,6.6h-6C22.3,6.6,22.1,6.4,22.1,6z M13.8,18.7c1.1-0.2,2.3-0.5,3.4-0.7c-0.6-0.8-1.2-1.7-1.8-2.5
			C14.8,16.5,14.3,17.6,13.8,18.7z M15.2,11.8c0.1-1,0.3-2,0.4-3c0-0.2-0.1-0.3-0.3-0.2c-0.2,0-0.3,0.1-0.3,0.3
			C14.8,9.9,14.9,10.8,15.2,11.8C15.2,11.8,15.2,11.8,15.2,11.8z M22.9,19.6c-0.9-0.4-1.9-0.5-3-0.6c0,0,0,0.1,0,0.1
			c0.4,0.4,0.9,0.8,1.3,1.1c0.4,0.3,0.9,0.6,1.3,0.8c0.3,0.1,0.6,0.2,0.9,0c0.3-0.1,0.4-0.3,0.3-0.6C23.6,20,23.3,19.8,22.9,19.6z
			 M8.6,22.7c-0.2,0.2-0.3,0.4-0.4,0.6c0,0,0.1,0,0.1,0.1c0.9-0.4,1.6-1.2,2.2-2C9.7,21.7,9.1,22.1,8.6,22.7z M21.2,8
			c-0.4,0-0.5-0.2-0.5-0.6V0H4C3.6,0,3.2,0.4,3.2,0.8v30.5C3.2,31.6,3.6,32,4,32h23.9c0.4,0,0.9-0.4,0.9-0.7V8H21.2z M23.3,22.3
			c-0.1,0-0.2,0-0.2,0c-0.7,0-1.4-0.3-2-0.7c-1-0.6-1.8-1.4-2.6-2.2c-0.2-0.2-0.4-0.3-0.7-0.3c-1.7,0.3-3.3,0.6-4.9,1.2
			c-0.1,0-0.2,0.1-0.3,0.2c-0.8,1.1-1.5,2.2-2.5,3.1c-0.4,0.4-0.9,0.7-1.5,0.9c-0.4,0.1-0.9,0.2-1.3-0.1C6.9,24,6.9,23.5,7,23.1
			c0.2-0.8,0.7-1.4,1.4-1.9c0.9-0.7,1.9-1.2,3-1.6c0.4-0.1,0.6-0.3,0.8-0.7c0.9-1.5,1.7-3.1,2.3-4.7c0-0.1,0-0.3,0-0.4
			c-0.5-1.2-0.8-2.4-0.8-3.7c0-0.5,0.1-1.1,0.2-1.6c0.3-1,1.6-1.5,2.6-0.6C17,8.1,16.9,8.6,16.9,9c-0.2,1.6-0.5,3.1-0.9,4.7
			c0,0.1,0,0.3,0.1,0.4c0.6,1.2,1.4,2.2,2.3,3.2c0.3,0.3,0.5,0.4,1,0.4c1.4,0,2.7,0.1,4,0.7c0.7,0.3,1.3,0.8,1.6,1.6
			C25.2,21.3,24.5,22.2,23.3,22.3z"/>
	</g>
</g>
<g id="Ebene_1_1_">
</g>
</svg>
