<?xml version="1.0" encoding="utf-8"?>
<!-- Generator: Adobe Illustrator 20.0.0, SVG Export Plug-In . SVG Version: 6.00 Build 0)  -->
<svg version="1.1" id="Ebene_1" xmlns="http://www.w3.org/2000/svg" xmlns:xlink="http://www.w3.org/1999/xlink" x="0px" y="0px"
	 viewBox="0 0 32 32" style="enable-background:new 0 0 32 32;" xml:space="preserve" width="32px" height="32px" class="br-symbol-library">
<g id="Remote1">
	<path d="M30.9,32H19.7c-0.6,0-1.1-0.6-1-1.3l1.7-13.2c0.1-0.6,0.5-1,1-1h0.8v-1H19v1c0,0.6-0.4,1-1,1h-4c-0.6,0-1-0.4-1-1v-1H9.7v1
		h0.8c0.5,0,0.9,0.4,1,1l1.7,13.2c0.1,0.7-0.4,1.3-1,1.3H1.1c-0.6,0-1.1-0.6-1-1.3l1.7-13.2c0.1-0.6,0.5-1,1-1h0.9v-2v-6
		c0-0.6,0.4-1,1-1h2.5V6c-0.6,0-1-0.4-1-1V1c0-0.6,0.4-1,1-1h6c0.6,0,1,0.4,1,1v4c0,0.6-0.4,1-1,1v1.5h5.5V6c-0.6,0-1-0.4-1-1V1
		c0-0.6,0.4-1,1-1h6c0.6,0,1,0.4,1,1v4c0,0.6-0.4,1-1,1v1.5h2.5c0.6,0,1,0.4,1,1v6v2h1c0.5,0,0.9,0.4,1,1l1.7,13.2
		C32,31.3,31.5,32,30.9,32z"/>
</g>
<g id="Ebene_1_1_">
</g>
</svg>
