<?xml version="1.0" encoding="utf-8"?>
<!-- Generator: Adobe Illustrator 20.0.0, SVG Export Plug-In . SVG Version: 6.00 Build 0)  -->
<svg version="1.1" id="Ebene_1" xmlns="http://www.w3.org/2000/svg" xmlns:xlink="http://www.w3.org/1999/xlink" x="0px" y="0px"
	 viewBox="0 0 32 32" style="enable-background:new 0 0 32 32;" xml:space="preserve" width="32px" height="32px" class="br-symbol-library">
<g id="Remote4">
	<path d="M25.9,21.7l-1.3-1.3c-0.2,0.9-0.5,1.7-0.8,2.4h-2.7c0.3-1,0.5-2.2,0.6-3.7h1.6l-3.9-3.9c0.1,0.6,0.2,1.1,0.2,1.9h-4.9v-3.5
		h3l-0.9-0.9c-0.5,0.1-0.9,0.1-1.4,0.1c-1.2,0-2.5-0.3-3.6-0.9c-0.3-0.2-0.5-0.3-0.8-0.5H9.4c0.2-0.2,0.4-0.7,0.6-1
		C9.5,9.8,9.1,9.2,8.8,8.6c-0.6,0.8-1.2,1.8-1.7,2.8H5C6,10.1,7.3,9,8.7,8.3C8.4,7.4,8.3,6.5,8.4,5.5l0-0.1C3.5,7.5,0,12.4,0,18.1
		c0,7.6,6.2,13.8,13.8,13.8c6,0,11.2-3.9,13-9.3L25.9,21.7z M3.7,13.6h2.6c-0.3,1-0.5,2.2-0.6,3.5H2.7C2.8,15.9,3.2,14.6,3.7,13.6z
		 M3.7,22.8c-0.5-1-0.9-2.2-1-3.7h3.1c0.1,1.5,0.3,2.7,0.6,3.7H3.7z M5,25.1h2.1c0.6,1.5,1.4,2.5,2.1,3.3C7.6,27.6,6.2,26.6,5,25.1z
		 M12.8,28.5c-0.7-0.4-2.2-1.4-3.4-3.4h3.4V28.5z M12.8,22.8H8.5c-0.3-1-0.6-2.2-0.7-3.7h5L12.8,22.8L12.8,22.8z M12.8,17.1h-5
		c0.1-1.2,0.3-2.5,0.7-3.5h4.3V17.1z M14.8,19.1h4.9c-0.1,1.5-0.3,2.7-0.6,3.7h-4.2L14.8,19.1L14.8,19.1z M14.8,28.5v-3.4h3.3
		C16.9,27.1,15.3,28.1,14.8,28.5z M18.2,28.4c0.8-0.8,1.5-1.8,2.2-3.3h2.1C21.4,26.6,19.9,27.7,18.2,28.4z M14.1,11.1
		c-0.5-0.1-0.9-0.3-1.3-0.5C13.3,10.9,13.7,11,14.1,11.1z M31.7,20l-2,2c-0.2,0.2-0.4,0.3-0.7,0.3c-0.2,0-0.5-0.1-0.7-0.3l-11-11
		c-0.6,0.2-1.2,0.3-1.8,0.3c-0.2,0-0.4,0-0.7,0c-0.1,0-0.3,0-0.4-0.1c0,0-0.1,0-0.1,0s-0.1,0-0.1,0c-0.4-0.1-0.8-0.3-1.3-0.5
		c0,0-0.1-0.1-0.1-0.1c-0.7-0.4-1.2-0.8-1.7-1.4c-0.8-0.9-1.2-2.1-1.1-3.5L14.5,8l2.1-3.3l0.6-0.9l-4.8-2.6c0.9-0.7,1.9-1,2.9-1
		c1,0,1.9,0.3,2.8,0.8c2,1.1,3,3.3,2.9,5.4c0,0.4-0.1,0.8-0.2,1.2l6.1,6.1l4.9,4.9C32.1,19,32.1,19.6,31.7,20z"/>
</g>
<g id="Ebene_1_1_">
</g>
</svg>
