<?xml version="1.0" encoding="utf-8"?>
<!-- Generator: Adobe Illustrator 20.0.0, SVG Export Plug-In . SVG Version: 6.00 Build 0)  -->
<svg version="1.1" id="Ebene_1" xmlns="http://www.w3.org/2000/svg" xmlns:xlink="http://www.w3.org/1999/xlink" x="0px" y="0px"
	 viewBox="0 0 32 32" style="enable-background:new 0 0 32 32;" xml:space="preserve" width="32px" height="32px" class="br-symbol-library">
<g id="Remote2">
	<path d="M32,3.3v12.3c0,0.8-0.4,1.9-1.2,1.9h-8c0,0.2,0,0.6,0,1.3c0,1.9,2.2,1.5,2.5,1.5s0.3,0.7,0,0.7h-5.6c0-0.1,0-0.2,0-0.4
		c0-1.9-0.5-3.8-1.4-5.3h12.1V4.3H9.5V10c-0.1,0-0.2,0-0.4,0c-0.5,0-1.1,0-1.6,0.1V3.3c0-0.8,0.8-0.9,1.6-0.9h21.7
		C31.6,2.4,32,2.5,32,3.3z M18.2,20.5c0,5-4.1,9.1-9.1,9.1S0,25.6,0,20.5s4.1-9.1,9.1-9.1S18.2,15.5,18.2,20.5z M3.6,16.5h1.3
		c0.4-1,0.9-1.6,1.4-2.1C5.3,14.8,4.3,15.5,3.6,16.5z M2.2,20.2h1.9c0-0.7,0.2-1.7,0.3-2.2H2.8C2.5,18.4,2.3,19.4,2.2,20.2z
		 M2.8,23.4h1.6c-0.2-0.2-0.3-1-0.3-2H2.2C2.3,22.4,2.5,22.9,2.8,23.4z M6.3,26.9c-0.5-0.5-0.9-1.1-1.3-2.1H3.7
		C4.3,25.9,5.2,26.5,6.3,26.9z M8,24.9H6.4C7.1,26.4,7.7,26.8,8,27V24.9z M8,21.4H5.4c0.1,1,0.2,1.7,0.4,2H8V21.4z M8,17.9H5.8
		c-0.2,0.5-0.4,1.5-0.4,2.2H8V17.9z M8,14.1c-0.2,0.2-0.9,1.2-1.6,2.4H8V14.1z M11.9,14.3c0.5,0.5,1,1.1,1.4,2.1h1.3
		C13.9,15.5,13,14.8,11.9,14.3z M9.5,16.5h2.3c-0.7-1.2-2.1-2.2-2.3-2.4V16.5z M9.5,20.2h3.3c-0.1-0.7-0.2-1.7-0.4-2.2H9.5V20.2z
		 M9.5,23.4h2.9c0.2-0.2,0.4-1,0.4-2H9.5V23.4z M11.8,24.9H9.5V27C9.7,26.8,11.1,26.4,11.8,24.9z M14.6,24.9h-1.3
		c-0.4,1-0.9,1.6-1.4,2.1C13,26.5,13.9,25.9,14.6,24.9z M16,21.4h-1.9c0,1-0.2,1.7-0.3,2h1.7C15.7,22.9,16,22.4,16,21.4z M16,20.2
		c-0.1-0.7-0.3-1.7-0.6-2.2h-1.7c0.2,0.5,0.3,1.5,0.3,2.2H16z"/>
</g>
<g id="Ebene_1_1_">
</g>
</svg>
