<?xml version="1.0" encoding="UTF-8" standalone="no"?>
<svg
   xmlns:dc="http://purl.org/dc/elements/1.1/"
   xmlns:cc="http://creativecommons.org/ns#"
   xmlns:rdf="http://www.w3.org/1999/02/22-rdf-syntax-ns#"
   xmlns:svg="http://www.w3.org/2000/svg"
   xmlns="http://www.w3.org/2000/svg"
   width="300"
   height="300"
   version="1.1"
   id="svg37"
   viewBox="0 2.7755576e-17 300 300">
  <metadata
     id="metadata43">
    <rdf:RDF>
      <cc:Work
         rdf:about="">
        <dc:format>image/svg+xml</dc:format>
        <dc:type
           rdf:resource="http://purl.org/dc/dcmitype/StillImage" />
        <dc:title></dc:title>
      </cc:Work>
    </rdf:RDF>
  </metadata>
  <defs
     id="defs41" />
  <g
     id="g909">
    <path
       id="svg_8"
       d="M 295.16129,0 H 4.8387097 C 2.1677419,0 0,2.1677419 0,4.8387097 V 295.16129 C 0,297.8371 2.1677419,300 4.8387097,300 H 295.16129 C 297.83226,300 300,297.8371 300,295.16129 V 4.8387097 C 300,2.1677419 297.83226,0 295.16129,0 Z m -4.83871,9.6774194 V 38.709678 H 9.6774194 V 9.6774194 Z M 9.6774194,290.32258 V 48.387097 H 290.32258 V 290.32258 Z"
       style="stroke-width:4.83871" />
    <circle
       id="svg_9"
       r="4.8387098"
       cy="24.193548"
       cx="24.193548"
       style="stroke-width:4.83871" />
    <circle
       id="svg_10"
       r="4.8387098"
       cy="24.193548"
       cx="43.548386"
       style="stroke-width:4.83871" />
    <circle
       id="svg_11"
       r="4.8387098"
       cy="24.193548"
       cx="62.903225"
       style="stroke-width:4.83871" />
    <circle
       id="svg_12"
       r="4.8387098"
       cy="174.19354"
       cx="275.80646"
       style="stroke-width:4.83871" />
    <circle
       id="svg_13"
       r="4.8387098"
       cy="193.54839"
       cx="275.80646"
       style="stroke-width:4.83871" />
    <circle
       id="svg_14"
       r="4.8387098"
       cy="212.90323"
       cx="275.80646"
       style="stroke-width:4.83871" />
    <circle
       id="svg_15"
       r="4.8387098"
       cy="232.25807"
       cx="275.80646"
       style="stroke-width:4.83871" />
    <circle
       id="svg_16"
       r="4.8387098"
       cy="251.6129"
       cx="275.80646"
       style="stroke-width:4.83871" />
    <path
       id="svg_17"
       d="m 101.6129,77.419355 c -45.358061,0 -82.258061,36.900005 -82.258061,82.258065 0,45.35806 36.9,82.25806 82.258061,82.25806 45.35807,0 82.25807,-36.9 82.25807,-82.25806 0,-45.35806 -36.9,-82.258065 -82.25807,-82.258065 z m -4.838706,9.924194 v 68.850001 l -65.317742,21.77419 c -1.529033,-5.85967 -2.424194,-11.96613 -2.424194,-18.29032 0,-38.38548 29.975807,-69.82742 67.741936,-72.333871 z M 101.6129,232.25807 c -30.295158,0 -56.283868,-18.67259 -67.141932,-45.10162 l 66.116132,-22.03548 53.49193,44.57419 C 140.85,223.5629 122.24516,232.25807 101.6129,232.25807 Z m 58.65484,-30.00484 -53.81613,-44.84516 V 87.343549 c 37.76613,2.506451 67.74194,33.948391 67.74194,72.333871 0,15.91452 -5.20645,30.6 -13.92581,42.57581 z"
       style="stroke-width:4.83871" />
    <circle
       id="svg_18"
       r="4.8387098"
       cy="140.32259"
       cx="120.96774"
       style="stroke-width:4.83871" />
    <circle
       id="svg_19"
       r="4.8387098"
       cy="140.32259"
       cx="140.32259"
       style="stroke-width:4.83871" />
    <circle
       id="svg_20"
       r="4.8387098"
       cy="140.32259"
       cx="159.67741"
       style="stroke-width:4.83871" />
    <path
       id="svg_21"
       d="m 256.45161,77.419355 h -38.70967 c -2.67097,0 -4.83871,2.167742 -4.83871,4.83871 0,2.670968 2.16774,4.83871 4.83871,4.83871 h 38.70967 c 2.67097,0 4.83871,-2.167742 4.83871,-4.83871 0,-2.670968 -2.16774,-4.83871 -4.83871,-4.83871 z"
       style="stroke-width:4.83871" />
    <path
       id="svg_22"
       d="m 256.45161,116.12903 h -38.70967 c -2.67097,0 -4.83871,2.16774 -4.83871,4.83871 0,2.67097 2.16774,4.83871 4.83871,4.83871 h 38.70967 c 2.67097,0 4.83871,-2.16774 4.83871,-4.83871 0,-2.67097 -2.16774,-4.83871 -4.83871,-4.83871 z"
       style="stroke-width:4.83871" />
    <path
       id="svg_23"
       d="m 217.74194,106.45161 h 9.67742 c 2.67096,0 4.83871,-2.16774 4.83871,-4.83871 0,-2.670964 -2.16775,-4.838706 -4.83871,-4.838706 h -9.67742 c -2.67097,0 -4.83871,2.167742 -4.83871,4.838706 0,2.67097 2.16774,4.83871 4.83871,4.83871 z"
       style="stroke-width:4.83871" />
    <path
       id="svg_24"
       d="m 256.45161,96.774194 h -9.67742 c -2.67096,0 -4.83871,2.167742 -4.83871,4.838706 0,2.67097 2.16775,4.83871 4.83871,4.83871 h 9.67742 c 2.67097,0 4.83871,-2.16774 4.83871,-4.83871 0,-2.670964 -2.16774,-4.838706 -4.83871,-4.838706 z"
       style="stroke-width:4.83871" />
    <path
       id="svg_25"
       d="m 62.903226,266.12903 h -9.677419 c -2.670968,0 -4.83871,2.16291 -4.83871,4.83871 0,2.67581 2.167742,4.83871 4.83871,4.83871 h 9.677419 c 2.670968,0 4.83871,-2.1629 4.83871,-4.83871 0,-2.6758 -2.167742,-4.83871 -4.83871,-4.83871 z"
       style="stroke-width:4.83871" />
    <path
       id="svg_26"
       d="m 91.935484,266.12903 h -9.677419 c -2.670968,0 -4.83871,2.16291 -4.83871,4.83871 0,2.67581 2.167742,4.83871 4.83871,4.83871 h 9.677419 c 2.670968,0 4.83871,-2.1629 4.83871,-4.83871 0,-2.6758 -2.167742,-4.83871 -4.83871,-4.83871 z"
       style="stroke-width:4.83871" />
    <path
       id="svg_27"
       d="m 120.96774,266.12903 h -9.67742 c -2.67096,0 -4.83871,2.16291 -4.83871,4.83871 0,2.67581 2.16775,4.83871 4.83871,4.83871 h 9.67742 c 2.67097,0 4.83871,-2.1629 4.83871,-4.83871 0,-2.6758 -2.16774,-4.83871 -4.83871,-4.83871 z"
       style="stroke-width:4.83871" />
    <path
       id="svg_28"
       d="m 150,266.12903 h -9.67742 c -2.67097,0 -4.83871,2.16291 -4.83871,4.83871 0,2.67581 2.16774,4.83871 4.83871,4.83871 H 150 c 2.67097,0 4.83871,-2.1629 4.83871,-4.83871 0,-2.6758 -2.16774,-4.83871 -4.83871,-4.83871 z"
       style="stroke-width:4.83871" />
    <path
       id="svg_29"
       d="M 256.45161,169.35484 H 198.3871 c -2.67097,0 -4.83871,2.1629 -4.83871,4.83871 0,2.67581 2.16774,4.83871 4.83871,4.83871 h 58.06451 c 2.67097,0 4.83871,-2.1629 4.83871,-4.83871 0,-2.67581 -2.16774,-4.83871 -4.83871,-4.83871 z"
       style="stroke-width:4.83871" />
    <path
       id="svg_30"
       d="M 256.45161,188.70968 H 198.3871 c -2.67097,0 -4.83871,2.1629 -4.83871,4.83871 0,2.6758 2.16774,4.83871 4.83871,4.83871 h 58.06451 c 2.67097,0 4.83871,-2.16291 4.83871,-4.83871 0,-2.67581 -2.16774,-4.83871 -4.83871,-4.83871 z"
       style="stroke-width:4.83871" />
    <path
       id="svg_31"
       d="M 256.45161,208.06452 H 198.3871 c -2.67097,0 -4.83871,2.1629 -4.83871,4.83871 0,2.6758 2.16774,4.83871 4.83871,4.83871 h 58.06451 c 2.67097,0 4.83871,-2.16291 4.83871,-4.83871 0,-2.67581 -2.16774,-4.83871 -4.83871,-4.83871 z"
       style="stroke-width:4.83871" />
    <path
       id="svg_32"
       d="M 256.45161,227.41936 H 198.3871 c -2.67097,0 -4.83871,2.1629 -4.83871,4.83871 0,2.6758 2.16774,4.83871 4.83871,4.83871 h 58.06451 c 2.67097,0 4.83871,-2.16291 4.83871,-4.83871 0,-2.67581 -2.16774,-4.83871 -4.83871,-4.83871 z"
       style="stroke-width:4.83871" />
    <path
       id="svg_33"
       d="M 256.45161,246.77419 H 198.3871 c -2.67097,0 -4.83871,2.16291 -4.83871,4.83871 0,2.67581 2.16774,4.83871 4.83871,4.83871 h 58.06451 c 2.67097,0 4.83871,-2.1629 4.83871,-4.83871 0,-2.6758 -2.16774,-4.83871 -4.83871,-4.83871 z"
       style="stroke-width:4.83871" />
  </g>
</svg>
