<?xml version="1.0" encoding="utf-8"?>
<!-- Generator: Adobe Illustrator 20.0.0, SVG Export Plug-In . SVG Version: 6.00 Build 0)  -->
<svg version="1.1" id="Ebene_1" xmlns="http://www.w3.org/2000/svg" xmlns:xlink="http://www.w3.org/1999/xlink" x="0px" y="0px"
	 viewBox="0 0 32 32" style="enable-background:new 0 0 32 32;" xml:space="preserve" width="32px" height="32px" class="br-symbol-library">
<g id="Reset">
	<path d="M1.8,22.6l1.1-0.7c0.6-0.4,1.3-0.4,1.7,0.1s1.2,1.7,1.5,2c2.7,3.1,6,4.1,9,4c3,0,6-1.2,8.3-3.5s3.5-5.4,3.5-8.4l0,0
		c0-2.4-0.7-4.9-2.2-7C20.9,4,13.9,2.7,8.6,6.1l1.9,2.6c0.2,0.3,0.1,0.5-0.3,0.5L1.6,9.1c-0.4,0-0.6-0.3-0.5-0.6l2.5-8.2
		c0.1-0.3,0.4-0.4,0.6-0.1l2,2.7l0.1-0.1c7.1-4.6,16.6-2.9,21.5,4c2,2.8,3,6.2,3,9.3s-1,7.6-4.6,11.2c-3.1,3.1-7.1,4.6-11.1,4.6
		c-3.9,0-8.9-1.7-12-5.4c-0.4-0.4-1.5-2-1.8-2.4S1.2,23,1.8,22.6z"/>
</g>
<g id="Ebene_1_1_">
</g>
</svg>
