<?xml version="1.0" encoding="utf-8"?>
<!-- Generator: Adobe Illustrator 20.0.0, SVG Export Plug-In . SVG Version: 6.00 Build 0)  -->
<svg version="1.1" id="Ebene_1" xmlns="http://www.w3.org/2000/svg" xmlns:xlink="http://www.w3.org/1999/xlink" x="0px" y="0px"
	 viewBox="0 0 32 32" style="enable-background:new 0 0 32 32;" xml:space="preserve" width="32px" height="32px" class="br-symbol-library">
<g id="Safety">
	<path d="M26.9,5.4c-0.7-0.5-5.4-3.2-11-3.2c-5.7,0-10.1,2.7-10.9,3.2C4.1,6,3.8,6.6,3.8,7.5v5.1c0,11.7,8.1,15.3,11,16.9
		c0.3,0.2,0.7,0.3,1.1,0.3c0.4,0,0.9-0.1,1.2-0.3c2.9-1.6,11.2-5.2,11.2-16.9V7.5C28.2,6.6,27.6,5.9,26.9,5.4z M24.4,10.9L13.7,21.6
		c-0.2,0.2-0.5,0.2-0.7,0l-5.7-5.7c-0.2-0.2-0.2-0.5,0-0.7l2.3-2.3c0.2-0.2,0.5-0.2,0.7,0l2.8,2.8c0.2,0.2,0.5,0.2,0.7,0L21.4,8
		c0.2-0.2,0.5-0.2,0.7,0l2.3,2.3C24.5,10.4,24.5,10.8,24.4,10.9z"/>
</g>
<g id="Ebene_1_1_">
</g>
</svg>
