<?xml version="1.0" encoding="utf-8"?>
<!-- Generator: Adobe Illustrator 20.0.0, SVG Export Plug-In . SVG Version: 6.00 Build 0)  -->
<svg version="1.1" id="Ebene_1" xmlns="http://www.w3.org/2000/svg" xmlns:xlink="http://www.w3.org/1999/xlink" x="0px" y="0px"
	 viewBox="0 0 32 32" style="enable-background:new 0 0 32 32;" xml:space="preserve" width="32px" height="32px" class="br-symbol-library">
<g id="Service">
	<path d="M19.9,25.9c-0.5,0.2-1,0.4-1.6,0.5l-1,4c-0.6,0.1-1.3,0.1-2,0.1c-0.7,0-1.3-0.1-2-0.1l-1-4c-1-0.3-1.9-0.6-2.8-1.1L6,27.5
		c-1-0.8-2-1.7-2.8-2.8l2.1-3.6c-0.5-0.9-0.9-1.8-1.1-2.8l-4-1C0.1,16.7,0,16,0,15.3c0-0.7,0.1-1.3,0.1-2l4-1c0.3-1,0.6-1.9,1.1-2.8
		L3.2,6C4,5,4.9,4,6,3.2l3.6,2.1c0.9-0.5,1.8-0.9,2.8-1.1l1-4C14,0.1,14.6,0,15.3,0c0.7,0,1.3,0.1,2,0.1l1,4c1,0.3,1.9,0.6,2.8,1.1
		l3.6-2.1c1,0.8,2,1.7,2.8,2.8l-2.1,3.6c0.5,0.9,0.9,1.8,1.1,2.8l4,1c0.1,0.6,0.1,1.3,0.1,2c0,0.7-0.1,1.3-0.1,2l-4,1
		c-0.2,0.6-0.4,1.2-0.6,1.7l-3-3c0.1-0.5,0.2-1.1,0.2-1.7c0-4.2-3.4-7.7-7.7-7.7s-7.7,3.4-7.7,7.7s3.4,7.7,7.7,7.7
		c0.5,0,1-0.1,1.5-0.1L19.9,25.9z M12.6,20.2c1.5,0.8,3.2,1,4.7,0.4l9.7,9.7l1.4,1.4c0.4,0.4,1,0.4,1.4,0l2-2c0.4-0.4,0.4-1,0-1.4
		L20.6,17.2c0.8-2.5-0.2-5.2-2.6-6.6c-1.8-1-3.8-1.2-5.7,0.2l4.8,2.6l-2.7,4.3l-4.6-2.3C9.7,17.6,10.8,19.2,12.6,20.2z"/>
</g>
<g id="Ebene_1_1_">
</g>
</svg>
