<?xml version="1.0" encoding="utf-8"?>
<!-- Generator: Adobe Illustrator 20.0.0, SVG Export Plug-In . SVG Version: 6.00 Build 0)  -->
<svg version="1.1" id="Ebene_1" xmlns="http://www.w3.org/2000/svg" xmlns:xlink="http://www.w3.org/1999/xlink" x="0px" y="0px"
	 viewBox="0 0 32 32" style="enable-background:new 0 0 32 32;" xml:space="preserve" width="32px" height="32px" class="br-symbol-library">
<g id="Slider_x5F_Symbol">
	<path d="M24,10c3.3,0,6,2.7,6,6s-2.7,6-6,6H8c-3.3,0-6-2.7-6-6s2.7-6,6-6H24 M24,8H8c-4.4,0-8,3.6-8,8v0c0,4.4,3.6,8,8,8h16
		c4.4,0,8-3.6,8-8v0C32,11.6,28.4,8,24,8L24,8z M24,11c-2.8,0-5,2.2-5,5s2.2,5,5,5s5-2.2,5-5S26.8,11,24,11z"/>
</g>
<g id="Ebene_1_1_">
</g>
</svg>
