<?xml version="1.0" encoding="iso-8859-1"?>
<!-- Generator: Adobe Illustrator 20.0.0, SVG Export Plug-In . SVG Version: 6.00 Build 0)  -->
<svg version="1.1" id="Ebene_1" xmlns="http://www.w3.org/2000/svg" xmlns:xlink="http://www.w3.org/1999/xlink" x="0px" y="0px"
	 viewBox="0 0 32 32" style="enable-background:new 0 0 32 32;" xml:space="preserve" width="32px" height="32px" class="br-symbol-library">
<g id="SystemSettings">
	<path id="Tool_2_1_" d="M29.5,8.9L24,11.7l-3.2-5.1l5.7-3c-2.2-1.6-4.6-1.4-6.7-0.2C17,5,15.7,8.3,16.7,11.2L3.4,24.4
		C3,24.8,3,25.6,3.4,26l2.4,2.4c0.4,0.4,1.2,0.4,1.6,0L9,26.8l11.5-11.5c1.8,0.6,3.8,0.5,5.6-0.5C28.3,13.6,29.7,11.6,29.5,8.9z
		 M9.3,8.9c-0.2-0.2-0.4-0.7-0.4-1V7.3C9,7,8.8,6.6,8.5,6.4L5.2,4.3C5,4.1,4.6,4.2,4.4,4.4L2.7,6C2.5,6.3,2.4,6.7,2.6,6.9l2.1,3.3
		c0.2,0.3,0.6,0.5,0.9,0.5h0.6c0.3,0,0.8,0.2,1,0.4l3.4,3.4l2.2-2.1L9.3,8.9z M28,24.6l-7.4-6.7l-4,4.2l6.6,7.3
		c0.2,0.2,0.6,0.2,0.8,0l4-4C28.2,25.2,28.2,24.8,28,24.6z"/>
</g>
<g id="Ebene_1_1_">
</g>
</svg>
