<?xml version="1.0" encoding="utf-8"?>
<!-- Generator: Adobe Illustrator 20.0.0, SVG Export Plug-In . SVG Version: 6.00 Build 0)  -->
<svg version="1.1" id="Ebene_1" xmlns="http://www.w3.org/2000/svg" xmlns:xlink="http://www.w3.org/1999/xlink" x="0px" y="0px"
	 viewBox="0 0 32 32" style="enable-background:new 0 0 32 32;" xml:space="preserve" width="32px" height="32px" class="br-symbol-library">
<g id="Temperature">
	<path d="M21.3,18V4c0-2.2-1.8-4-4-4h-2.7c-2.2,0-3.9,1.8-3.9,4V18C9,19.5,8,21.6,8,24c0,4.4,3.6,8,8,8c4.4,0,8-3.6,8-8
		C24,21.6,23,19.5,21.3,18z M16,29.6c-3.1,0-5.6-2.5-5.6-5.6c0-2.1,1.1-3.9,2.9-4.9V4c0-0.7,0.6-1.2,1.4-1.2h2.7
		c0.7,0,1.5,0.5,1.5,1.2v1.3H16v1.5h2.8V8H16v1.3h2.8v1.5H16V12h2.8v7.1c1.8,1,2.8,2.8,2.8,4.9C21.6,27.1,19,29.6,16,29.6z M19.8,24
		c0,2.1-1.7,3.8-3.8,3.8s-3.8-1.7-3.8-3.8c0-1.6,1.1-3,2.6-3.6V14c0-0.4,0.2-0.7,0.5-0.7h1.3c0.4,0,0.6,0.4,0.6,0.7v6.4
		C18.8,21,19.8,22.3,19.8,24z"/>
</g>
<g id="Ebene_1_1_">
</g>
</svg>
