<?xml version="1.0" encoding="utf-8"?>
<!-- Generator: Adobe Illustrator 20.0.0, SVG Export Plug-In . SVG Version: 6.00 Build 0)  -->
<svg version="1.1" id="Ebene_1" xmlns="http://www.w3.org/2000/svg" xmlns:xlink="http://www.w3.org/1999/xlink" x="0px" y="0px"
	 viewBox="0 0 32 32" style="enable-background:new 0 0 32 32;" xml:space="preserve" width="32px" height="32px" class="br-symbol-library">
<g id="TouchMe">
	<path d="M26.9,10.9c0,1.8-0.4,3.4-1.2,4.9c-0.3-0.3-0.8-0.6-1.3-0.8l0,0c0.6-1.2,0.9-2.6,0.9-4.1c0-5.2-4.2-9.4-9.4-9.4
		s-9.4,4.2-9.4,9.4c0,2,0.6,3.8,1.6,5.3L7.4,17c-0.1,0.1-0.1,0.1-0.2,0.2c-1.3-1.8-2.1-4-2.1-6.4C5.1,4.9,10,0,16,0
		S26.9,4.9,26.9,10.9z M16,3.4c-4.1,0-7.5,3.4-7.5,7.5c0,1.5,0.4,2.9,1.2,4.1c0.3-0.1,0.7-0.2,1.1-0.2c0.2,0,0.3,0,0.5,0
		c0-0.1,0-0.1,0-0.2c-0.8-1-1.3-2.3-1.3-3.7c0-3.3,2.7-6,6-6c3.3,0,6,2.7,6,6c0,1.2-0.3,2.2-0.9,3.1l1.5,0.4
		c0.6-1.1,0.9-2.3,0.9-3.6C23.5,6.7,20.1,3.4,16,3.4z M22.7,28.5h-9.4c-0.5,0-0.8,0.5-0.8,1V32h11v-2.5C23.5,29,23.2,28.5,22.7,28.5
		z M23.9,16.9l-5.4-1.5v-2.9c0-1.8-1.3-2.7-2.6-2.7s-2.6,0.9-2.6,2.7c0,1.6,0,4.2,0,5.9l-2-1.5c-0.3-0.3-0.8-0.2-1.1,0.1l-1.4,1.4
		c-0.3,0.3-0.3,0.7-0.2,1l3.9,7.9c0.1,0.3,0.4,0.5,0.8,0.5h8.6c0.3,0,0.6-0.2,0.8-0.5l1.7-3.4c0.1-0.1,0.1-0.2,0.1-0.4v-5.8
		C24.5,17.3,24.2,17,23.9,16.9z M22.7,23.3L21.3,26h-7.5l-3.4-6.8l0.5-0.5l2.8,2.1c0.3,0.2,0.6,0.2,0.9,0.1c0.3-0.1,0.4-0.5,0.4-0.9
		c0,0,0-5.9,0-8.4c0-0.8,0.5-0.6,0.9-0.6c0.4,0,0.9-0.2,0.9,0.6V16c0,0.4,0.3,0.7,0.6,0.8l5.4,1.5V23.3z"/>
</g>
<g id="Ebene_1_1_">
</g>
</svg>
