<?xml version="1.0" encoding="utf-8"?>
<!-- Generator: Adobe Illustrator 20.0.0, SVG Export Plug-In . SVG Version: 6.00 Build 0)  -->
<svg version="1.1" id="Ebene_1" xmlns="http://www.w3.org/2000/svg" xmlns:xlink="http://www.w3.org/1999/xlink" x="0px" y="0px"
	 viewBox="0 0 32 32" style="enable-background:new 0 0 32 32;" xml:space="preserve" width="32px" height="32px" class="br-symbol-library">
<g id="Upload">
	<path id="Upload_3_" d="M26.4,12L15.9,0L5.4,12c-0.2,0.3-0.1,0.6,0.2,0.6h6.2v10.1c0,0.3,0.3,0.6,0.7,0.6h6.6
		c0.3,0,0.6-0.2,0.6-0.6V12.6h6.3C26.5,12.6,26.6,12.3,26.4,12z M28,22.5v2.7H4.2v-2.7H0v7.9C0,31.1,0.5,32,1.2,32h29.1
		c0.7,0,1.6-0.8,1.6-1.6v-7.9H28z"/>
</g>
<g id="Ebene_1_1_">
</g>
</svg>
