<?xml version="1.0" encoding="utf-8"?>
<!-- Generator: Adobe Illustrator 20.0.0, SVG Export Plug-In . SVG Version: 6.00 Build 0)  -->
<svg version="1.1" id="Ebene_1" xmlns="http://www.w3.org/2000/svg" xmlns:xlink="http://www.w3.org/1999/xlink" x="0px" y="0px"
	 viewBox="0 0 32 32" style="enable-background:new 0 0 32 32;" xml:space="preserve" width="32px" height="32px" class="br-symbol-library">
<g id="USB">
	<path id="USB_3_" d="M15,32c-0.2,0-0.5-0.1-0.7-0.2c-1.5-0.4-2.5-1.8-2.6-3.3c-0.1-1.5,0.7-3,2.1-3.6c0.2-0.1,0.3-0.2,0.3-0.5
		c0-0.6-0.3-1.1-0.8-1.4c-0.7-0.3-1.5-0.6-2.3-0.9c-1.1-0.4-2.3-0.6-3.4-1.3c-1.3-0.8-2.1-1.9-2.1-3.4c0-0.9,0-1.8,0-2.7
		c0-0.3-0.1-0.4-0.3-0.6c-1.4-1.1-1.2-3.3,0.4-4.1c1.1-0.5,2.4-0.2,3.1,0.8c0.7,1,0.5,2.5-0.4,3.2C8.1,14.3,8,14.6,8,14.9
		c0,0.7,0,1.3,0,2C7.9,18,8.4,18.7,9.4,19c0.7,0.3,1.5,0.5,2.2,0.8c0.8,0.3,1.7,0.6,2.5,0.8c0-4.8,0-9.7,0-14.5c-0.8,0-1.6,0-2.4,0
		c1.2-2,2.4-4.1,3.7-6.1c1.2,2.1,2.4,4.1,3.7,6.1c-0.7,0-1.4,0-2,0c-0.4,0-0.4-0.1-0.4,0.4c0,3.4,0,6.8,0,10.2c0,0.1,0,0.3,0,0.4
		c0.8-0.2,1.1-0.4,1.7-0.6c1.3-0.4,2.7-0.7,4-1.1c0.4-0.1,0.8-0.4,1.2-0.6c0.4-0.2,0.6-0.6,0.6-1c0-0.9,0-1.8,0-2.6
		c-0.4,0-0.6,0-1.1,0c0-1.8,0-3.3,0-5c1.5,0,3.3,0,4.8,0c0,1.5,0,3.3,0,4.8c-0.3,0-0.7,0-1.1,0c0,0.3,0,0.3,0,0.4c0,0.7,0,1.4,0,2.1
		c0,1.7-0.8,3-2.3,3.8c-1.2,0.6-2.5,0.9-3.8,1.3c-0.9,0.3-1.8,0.5-2.6,0.9c-0.7,0.3-1.1,0.8-1.1,1.6c0,1.2,0,2.4,0,3.6
		c0,0.2,0.1,0.2,0.2,0.3c1.4,0.7,2.3,2,2.2,3.6c-0.1,1.7-1.4,3.2-3.1,3.4c-0.1,0-0.2,0.1-0.2,0.1C15.5,32,15.3,32,15,32z"/>
</g>
<g id="Ebene_1_1_">
</g>
</svg>
