<?xml version="1.0" encoding="utf-8"?>
<!-- Generator: Adobe Illustrator 20.0.0, SVG Export Plug-In . SVG Version: 6.00 Build 0)  -->
<svg version="1.1" id="Ebene_1" xmlns="http://www.w3.org/2000/svg" xmlns:xlink="http://www.w3.org/1999/xlink" x="0px" y="0px"
	 viewBox="0 0 32 32" style="enable-background:new 0 0 32 32;" xml:space="preserve" width="32px" height="32px" class="br-symbol-library">
<g id="Wait">
	<path d="M24,8c0-0.5,0-1.3,0-1.3V4h1.3c0.7,0,1.5-0.6,1.5-1.4V0H5.2v2.6C5.2,3.4,5.9,4,6.6,4H8v2.6c0,0,0,0.9,0,1.3
		c0,3.3,2,6.1,4.8,7.3C10,16.5,8,19.4,8,22.6C8,23.1,8,24,8,24v4H6.6c-0.7,0-1.4,0.6-1.4,1.3V32h21.5v-2.7c0-0.7-0.7-1.3-1.5-1.3H24
		v-4c0,0,0-0.9,0-1.3c0-3.3-2-6.1-4.8-7.3C22,14.1,24,11.3,24,8z M21.2,8c0,2.1-1.2,4-3.2,4.9c-1,0.4-1.6,1.4-1.6,2.4
		c0,1.1,0.6,2,1.6,2.4c1.9,0.9,3.2,2.8,3.2,4.9V28H10.8v-5.4c0-2.1,1.2-4,3.1-4.9c1-0.4,1.6-1.4,1.6-2.4c0-1.1-0.6-2-1.6-2.4
		C12,12,10.8,10.1,10.8,8V4h10.5V8z M12,8c0,1.5,0.9,3,2.4,3.7c0.6,0.3,1.2,0.7,1.6,1.3c0.4-0.5,0.9-1,1.6-1.3C19,11,20,9.5,20,8H12
		z M17.6,23c-0.6-0.3-1.2-0.8-1.6-1.3c-0.4,0.5-0.9,1-1.6,1.3c-1.5,0.6-2.4,2-2.4,3.7h8C20,25,19,23.7,17.6,23z"/>
</g>
<g id="Ebene_1_1_">
</g>
</svg>
