<?xml version="1.0" encoding="utf-8"?>
<!-- Generator: Adobe Illustrator 20.0.0, SVG Export Plug-In . SVG Version: 6.00 Build 0)  -->
<svg version="1.1" id="Ebene_1" xmlns="http://www.w3.org/2000/svg" xmlns:xlink="http://www.w3.org/1999/xlink" x="0px" y="0px"
	 viewBox="0 0 32 32" style="enable-background:new 0 0 32 32;" xml:space="preserve" width="32px" height="32px" class="br-symbol-library">
<g id="Webcam">
	<path id="webcam_3_" d="M16,15.6c-1.2,0-2.2-1-2.2-2.2s1-2.2,2.2-2.2c1.2,0,2.2,1,2.2,2.2S17.2,15.6,16,15.6z M25.9,27.2l-1.6-1
		c-0.6-0.4-1.8-0.7-2.5-0.7h-3.1l0.6-1.7c5.1-1.5,8.8-6.2,8.8-11.7c0-6.2-4.8-11.4-11-12.1v8.3c2.5,0.6,4.2,2.7,4.2,5.1
		s-1.7,4.5-4.2,5.1V24h-0.8h-0.5H15v-5.5c-2.3-0.6-4.2-2.7-4.2-5.1s2-4.5,4.2-5.1V0C9,0.7,3.9,5.8,3.9,12c0,5.5,3.7,10.3,8.7,11.8
		l0.6,1.7h-3.1c-0.8,0-1.9,0.2-2.5,0.7l-1.6,1c-0.6,0.4-0.8,1.3-0.4,1.9c0,0,2,2.9,10.3,2.9s10.3-2.9,10.3-2.9
		C26.7,28.5,26.5,27.6,25.9,27.2z"/>
</g>
<g id="Ebene_1_1_">
</g>
</svg>
