<?xml version="1.0" encoding="UTF-8"?>
<svg id="B_R_Logo_RGB_33px" xmlns="http://www.w3.org/2000/svg" viewBox="0 0 95.75 66">
	<defs>
		<style>.cls-1{fill:#f80;}</style>
	</defs>
	<rect class="cls-1" x="16.87" y="43.99" width="62.14" height="5.51"/>
	<g>
		<path d="M53.78,33.5l-2.14-2.66-1.6,1.98-4.03-5.25,5.59,.02v-3.67h-10.97v3.61l2,2.15c-.18,.1-1.38,.63-1.78,.89-1.1,.73-2.05,1.75-2.42,3.03-.69,2.35,.52,4.95,2.68,6.04,2.12,1.07,4.97,.85,7.09-.1,.44-.2,.85-.46,1.24-.74,.04-.03,.17-.12,.32-.24l1.5,1.79h4.88l-3.97-4.87,1.6-1.97Zm-7.97,3.28c-.8,.26-1.81,.15-2.51-.34-.17-.12-.33-.27-.45-.44-.46-.61-.57-1.46-.11-2.13,.48-.7,1.29-1.16,2.04-1.52l.49,.61,2.26,2.87c-.79,.52-1.6,.9-1.72,.94Z"/>
		<path d="M71.55,31.3s5.55-.89,5.55-7.2c0-4.44-2.8-7.6-8.46-7.6h-11.56v23.85h5.53v-9.04h2.52l7.23,9.04h6.43l-7.25-9.05Zm-3.57-3.85h-5.41v-6.41h5.41c2.29,0,3.73,.98,3.73,3.2,0,2.03-1.34,3.2-3.73,3.2Z"/>
		<path d="M33.08,27.99c2.04-.95,3.16-2.8,3.16-5.03,0-3.91-2.92-6.46-7.85-6.46h-11.51v23.85h11.92c5.54,0,8.18-3.09,8.18-6.67,0-2.66-1.36-4.77-3.91-5.69Zm-10.64-7.6h5.04c2.01,0,3.19,.95,3.19,2.65s-1.19,2.77-3.47,2.77h-4.76v-5.41Zm5.34,16.33h-5.34v-7.28h5.44c2.28,0,3.65,1.25,3.65,3.64,0,2.24-1.3,3.64-3.75,3.64Z"/>
	</g>
</svg>
