<?xml version="1.0" encoding="UTF-8" standalone="no"?>
<svg
   version="1.1"
   id="Ebene_1"
   x="0px"
   y="0px"
   viewBox="0 0 48 48"
   width="48"
   height="48"
   class="br-symbol-library"
   sodipodi:docname="AlarmStateInactiveNotAck.svg"
   inkscape:version="1.2.1 (9c6d41e410, 2022-07-14)"
   xmlns:inkscape="http://www.inkscape.org/namespaces/inkscape"
   xmlns:sodipodi="http://sodipodi.sourceforge.net/DTD/sodipodi-0.dtd"
   xmlns="http://www.w3.org/2000/svg"
   xmlns:svg="http://www.w3.org/2000/svg">
  <defs
     id="defs9" />
  <sodipodi:namedview
     id="namedview7"
     pagecolor="#ffffff"
     bordercolor="#000000"
     borderopacity="0.25"
     inkscape:showpageshadow="2"
     inkscape:pageopacity="0.0"
     inkscape:pagecheckerboard="0"
     inkscape:deskcolor="#d1d1d1"
     showgrid="false"
     inkscape:zoom="26.15625"
     inkscape:cx="14.470729"
     inkscape:cy="16.019116"
     inkscape:window-width="3440"
     inkscape:window-height="1377"
     inkscape:window-x="1912"
     inkscape:window-y="1072"
     inkscape:window-maximized="1"
     inkscape:current-layer="Ebene_1" />
  <path
     d="m 19.344013,26.001554 h -2.547758 c -0.359346,0 -0.69713,0.143738 -0.69713,0.503083 v 2.447141 c 0,0.269509 0.06288,0.808527 0.116787,1.069052 l 0.885786,4.62118 c 0.0539,0.264119 0.359345,0.79056 0.628854,0.79056 h 0.763609 c 0.273102,0 0.59831,-0.524644 0.650415,-0.79056 l 0.857038,-4.675081 c 0.05031,-0.260526 0.138348,-0.745642 0.138348,-1.015151 v -1.778759 c -0.447385,-0.377312 -0.555188,-0.722284 -0.795949,-1.171465 z m 0.797746,10.821682 c 0,-0.271305 -0.219201,-0.490506 -0.48871,-0.490506 h -3.065215 c -0.269509,0 -0.488709,0.219201 -0.488709,0.490506 v 3.063419 c 0,0.271305 0.2192,0.490506 0.488709,0.490506 h 3.063419 c 0.269509,0 0.488709,-0.219201 0.488709,-0.490506 z m 0,0 c 0,-0.271305 -0.219201,-0.490506 -0.48871,-0.490506 h -3.065215 c -0.269509,0 -0.488709,0.219201 -0.488709,0.490506 v 3.063419 c 0,0.271305 0.2192,0.490506 0.488709,0.490506 h 3.063419 c 0.269509,0 0.488709,-0.219201 0.488709,-0.490506 z M 19.344013,26.001554 h -2.547758 c -0.359346,0 -0.69713,0.143738 -0.69713,0.503083 v 2.447141 c 0,0.269509 0.06288,0.808527 0.116787,1.069052 l 0.885786,4.62118 c 0.0539,0.264119 0.359345,0.79056 0.628854,0.79056 h 0.763609 c 0.273102,0 0.59831,-0.524644 0.650415,-0.79056 l 0.857038,-4.675081 c 0.05031,-0.260526 0.138348,-0.745642 0.138348,-1.015151 v -1.778759 c -0.447385,-0.377312 -0.555188,-0.722284 -0.795949,-1.171465 z m 0,0 h -2.547758 c -0.359346,0 -0.69713,0.143738 -0.69713,0.503083 v 2.447141 c 0,0.269509 0.06288,0.808527 0.116787,1.069052 l 0.885786,4.62118 c 0.0539,0.264119 0.359345,0.79056 0.628854,0.79056 h 0.763609 c 0.273102,0 0.59831,-0.524644 0.650415,-0.79056 l 0.857038,-4.675081 c 0.05031,-0.260526 0.138348,-0.745642 0.138348,-1.015151 v -1.778759 c -0.447385,-0.377312 -0.555188,-0.722284 -0.795949,-1.171465 z m 0.797746,10.821682 c 0,-0.271305 -0.219201,-0.490506 -0.48871,-0.490506 h -3.065215 c -0.269509,0 -0.488709,0.219201 -0.488709,0.490506 v 3.063419 c 0,0.271305 0.2192,0.490506 0.488709,0.490506 h 3.063419 c 0.269509,0 0.488709,-0.219201 0.488709,-0.490506 z m 15.800411,5.663282 -5.569851,-9.427423 c -2.051862,-0.314427 -3.970766,-0.970233 -5.672265,-1.927888 l 6.171754,10.591702 H 5.3313438 L 17.378394,21.060556 c -0.29107,-1.324187 -0.438401,-2.725633 -0.438401,-4.195356 0,-0.81751 0.0539,-1.620647 0.161705,-2.407613 -0.283883,0.167096 -0.526441,0.404264 -0.69713,0.700723 L 0.26098216,42.486518 c -0.3503616,0.607293 -0.3467682,1.521827 0.00359,2.12373 0.3503616,0.605497 0.99179294,1.153498 1.69431294,1.153498 H 34.242467 c 0.700723,0 1.342155,-0.548001 1.694313,-1.153498 0.348565,-0.600107 0.353955,-1.518234 0.0054,-2.12373 z M 19.344013,26.001554 h -2.547758 c -0.359346,0 -0.69713,0.143738 -0.69713,0.503083 v 2.447141 c 0,0.269509 0.06288,0.808527 0.116787,1.069052 l 0.885786,4.62118 c 0.0539,0.264119 0.359345,0.79056 0.628854,0.79056 h 0.763609 c 0.273102,0 0.59831,-0.524644 0.650415,-0.79056 l 0.857038,-4.675081 c 0.05031,-0.260526 0.138348,-0.745642 0.138348,-1.015151 v -1.778759 c -0.447385,-0.377312 -0.555188,-0.722284 -0.795949,-1.171465 z m 0.797746,10.821682 c 0,-0.271305 -0.219201,-0.490506 -0.48871,-0.490506 h -3.065215 c -0.269509,0 -0.488709,0.219201 -0.488709,0.490506 v 3.063419 c 0,0.271305 0.2192,0.490506 0.488709,0.490506 h 3.063419 c 0.269509,0 0.488709,-0.219201 0.488709,-0.490506 z m 0,0 c 0,-0.271305 -0.219201,-0.490506 -0.48871,-0.490506 h -3.065215 c -0.269509,0 -0.488709,0.219201 -0.488709,0.490506 v 3.063419 c 0,0.271305 0.2192,0.490506 0.488709,0.490506 h 3.063419 c 0.269509,0 0.488709,-0.219201 0.488709,-0.490506 z M 19.344013,26.001554 h -2.547758 c -0.359346,0 -0.69713,0.143738 -0.69713,0.503083 v 2.447141 c 0,0.269509 0.06288,0.808527 0.116787,1.069052 l 0.885786,4.62118 c 0.0539,0.264119 0.359345,0.79056 0.628854,0.79056 h 0.763609 c 0.273102,0 0.59831,-0.524644 0.650415,-0.79056 l 0.857038,-4.675081 c 0.05031,-0.260526 0.138348,-0.745642 0.138348,-1.015151 V 27.173019 C 19.692577,26.795707 19.584774,26.450735 19.344013,26.001554 Z M 33.371055,2.2362545 c -7.285725,0 -13.328116,4.7918691 -14.44568,12.1279025 -0.125771,0.803137 -0.188656,1.640412 -0.188656,2.50284 0,2.066235 0.318021,3.931237 0.903753,5.582429 0.59292,1.697906 1.469722,3.171222 2.563929,4.405573 1.802116,2.039284 4.198949,3.431747 6.938957,4.128877 1.338561,0.341378 2.757975,0.517457 4.227697,0.517457 C 41.450933,31.501333 48,24.946875 48,16.866997 48,8.7871186 41.450933,2.2362545 33.371055,2.2362545 Z M 43.553103,12.202696 30.756818,24.99898 c -0.08624,0.08984 -0.201233,0.131161 -0.314427,0.131161 -0.113194,0 -0.224591,-0.04132 -0.314427,-0.131161 L 27.262185,22.133202 C 27.086106,21.957123 26.807614,21.67863 26.633331,21.513331 l -3.449714,-3.458698 c -0.174283,-0.176079 -0.174283,-0.454571 0,-0.628854 l 2.865778,-2.865778 c 0.08984,-0.08984 0.201233,-0.129365 0.314427,-0.129365 0.113194,0 0.228184,0.03953 0.312631,0.129365 l 3.449714,3.449714 c 0.08984,0.08624 0.20303,0.129364 0.318021,0.129364 0.111397,0 0.22459,-0.04492 0.310833,-0.129364 l 9.280092,-9.2800914 c 0.08984,-0.08624 0.20303,-0.131161 0.314427,-0.131161 0.111397,0 0.228184,0.04492 0.314427,0.131161 l 2.889136,2.8514044 c 0.174282,0.168893 0.174282,0.450979 0,0.621668 z"
     style="fill:#666666;fill-opacity:1;stroke-width:1"
     id="path2" />
  <g
     id="Ebene_1_1_" />
</svg>
