<?xml version="1.0" encoding="UTF-8" standalone="no"?>
<svg
   version="1.1"
   id="Ebene_1"
   x="0px"
   y="0px"
   viewBox="0 0 32 32"
   style="enable-background:new 0 0 32 32;"
   width="32px"
   height="32px"
   class="br-symbol-library"
   sodipodi:docname="AlarmStateInactiveNotAck.svg"
   inkscape:version="1.2.1 (9c6d41e410, 2022-07-14)"
   xmlns:inkscape="http://www.inkscape.org/namespaces/inkscape"
   xmlns:sodipodi="http://sodipodi.sourceforge.net/DTD/sodipodi-0.dtd"
   xmlns="http://www.w3.org/2000/svg"
   xmlns:svg="http://www.w3.org/2000/svg">
  <defs
     id="defs9" />
  <sodipodi:namedview
     id="namedview7"
     pagecolor="#ffffff"
     bordercolor="#000000"
     borderopacity="0.25"
     inkscape:showpageshadow="2"
     inkscape:pageopacity="0.0"
     inkscape:pagecheckerboard="0"
     inkscape:deskcolor="#d1d1d1"
     showgrid="false"
     inkscape:zoom="26.15625"
     inkscape:cx="15.904421"
     inkscape:cy="16.019116"
     inkscape:window-width="1920"
     inkscape:window-height="1017"
     inkscape:window-x="1912"
     inkscape:window-y="-8"
     inkscape:window-maximized="1"
     inkscape:current-layer="Ebene_1" />
  <path
     d="M 13.408,17.114 H 11.99 c -0.2,0 -0.388,0.08 -0.388,0.28 v 1.362 c 0,0.15 0.035,0.45 0.065,0.595 l 0.493,2.572 c 0.03,0.147 0.2,0.44 0.35,0.44 h 0.425 c 0.152,0 0.333,-0.292 0.362,-0.44 l 0.477,-2.602 c 0.028,-0.145 0.077,-0.415 0.077,-0.565 v -0.99 c -0.249,-0.21 -0.309,-0.402 -0.443,-0.652 z m 0.444,6.023 c 0,-0.151 -0.122,-0.273 -0.272,-0.273 h -1.706 c -0.15,0 -0.272,0.122 -0.272,0.273 v 1.705 c 0,0.151 0.122,0.273 0.272,0.273 h 1.705 c 0.15,0 0.272,-0.122 0.272,-0.273 z m 0,0 c 0,-0.151 -0.122,-0.273 -0.272,-0.273 h -1.706 c -0.15,0 -0.272,0.122 -0.272,0.273 v 1.705 c 0,0.151 0.122,0.273 0.272,0.273 h 1.705 c 0.15,0 0.272,-0.122 0.272,-0.273 z M 13.408,17.114 H 11.99 c -0.2,0 -0.388,0.08 -0.388,0.28 v 1.362 c 0,0.15 0.035,0.45 0.065,0.595 l 0.493,2.572 c 0.03,0.147 0.2,0.44 0.35,0.44 h 0.425 c 0.152,0 0.333,-0.292 0.362,-0.44 l 0.477,-2.602 c 0.028,-0.145 0.077,-0.415 0.077,-0.565 v -0.99 c -0.249,-0.21 -0.309,-0.402 -0.443,-0.652 z m 0,0 H 11.99 c -0.2,0 -0.388,0.08 -0.388,0.28 v 1.362 c 0,0.15 0.035,0.45 0.065,0.595 l 0.493,2.572 c 0.03,0.147 0.2,0.44 0.35,0.44 h 0.425 c 0.152,0 0.333,-0.292 0.362,-0.44 l 0.477,-2.602 c 0.028,-0.145 0.077,-0.415 0.077,-0.565 v -0.99 c -0.249,-0.21 -0.309,-0.402 -0.443,-0.652 z m 0.444,6.023 c 0,-0.151 -0.122,-0.273 -0.272,-0.273 h -1.706 c -0.15,0 -0.272,0.122 -0.272,0.273 v 1.705 c 0,0.151 0.122,0.273 0.272,0.273 h 1.705 c 0.15,0 0.272,-0.122 0.272,-0.273 z m 8.794,3.152 -3.1,-5.247 c -1.142,-0.175 -2.21,-0.54 -3.157,-1.073 l 3.435,5.895 H 5.609 l 6.705,-11.5 c -0.162,-0.737 -0.244,-1.517 -0.244,-2.335 0,-0.455 0.03,-0.902 0.09,-1.34 -0.158,0.093 -0.293,0.225 -0.388,0.39 l -8.985,15.21 c -0.195,0.338 -0.193,0.847 0.002,1.182 0.195,0.337 0.552,0.642 0.943,0.642 H 21.7 c 0.39,0 0.747,-0.305 0.943,-0.642 0.194,-0.334 0.197,-0.845 0.003,-1.182 z M 13.408,17.114 H 11.99 c -0.2,0 -0.388,0.08 -0.388,0.28 v 1.362 c 0,0.15 0.035,0.45 0.065,0.595 l 0.493,2.572 c 0.03,0.147 0.2,0.44 0.35,0.44 h 0.425 c 0.152,0 0.333,-0.292 0.362,-0.44 l 0.477,-2.602 c 0.028,-0.145 0.077,-0.415 0.077,-0.565 v -0.99 c -0.249,-0.21 -0.309,-0.402 -0.443,-0.652 z m 0.444,6.023 c 0,-0.151 -0.122,-0.273 -0.272,-0.273 h -1.706 c -0.15,0 -0.272,0.122 -0.272,0.273 v 1.705 c 0,0.151 0.122,0.273 0.272,0.273 h 1.705 c 0.15,0 0.272,-0.122 0.272,-0.273 z m 0,0 c 0,-0.151 -0.122,-0.273 -0.272,-0.273 h -1.706 c -0.15,0 -0.272,0.122 -0.272,0.273 v 1.705 c 0,0.151 0.122,0.273 0.272,0.273 h 1.705 c 0.15,0 0.272,-0.122 0.272,-0.273 z M 13.408,17.114 H 11.99 c -0.2,0 -0.388,0.08 -0.388,0.28 v 1.362 c 0,0.15 0.035,0.45 0.065,0.595 l 0.493,2.572 c 0.03,0.147 0.2,0.44 0.35,0.44 h 0.425 c 0.152,0 0.333,-0.292 0.362,-0.44 l 0.477,-2.602 c 0.028,-0.145 0.077,-0.415 0.077,-0.565 v -0.99 c -0.249,-0.21 -0.309,-0.402 -0.443,-0.652 z M 21.215,3.887 c -4.055,0 -7.418,2.667 -8.04,6.75 -0.07,0.447 -0.105,0.913 -0.105,1.393 0,1.15 0.177,2.188 0.503,3.107 0.33,0.945 0.818,1.765 1.427,2.452 1.003,1.135 2.337,1.91 3.862,2.298 0.745,0.19 1.535,0.288 2.353,0.288 4.497,0 8.142,-3.648 8.142,-8.145 0,-4.497 -3.645,-8.143 -8.142,-8.143 z m 5.667,5.547 -7.122,7.122 c -0.048,0.05 -0.112,0.073 -0.175,0.073 -0.063,0 -0.125,-0.023 -0.175,-0.073 l -1.595,-1.595 c -0.098,-0.098 -0.253,-0.253 -0.35,-0.345 l -1.92,-1.925 c -0.097,-0.098 -0.097,-0.253 0,-0.35 l 1.595,-1.595 c 0.05,-0.05 0.112,-0.072 0.175,-0.072 0.063,0 0.127,0.022 0.174,0.072 l 1.92,1.92 c 0.05,0.048 0.113,0.072 0.177,0.072 0.062,0 0.125,-0.025 0.173,-0.072 l 5.165,-5.165 c 0.05,-0.048 0.113,-0.073 0.175,-0.073 0.062,0 0.127,0.025 0.175,0.073 l 1.608,1.587 c 0.097,0.094 0.097,0.251 0,0.346 z"
     style="fill:#666666;fill-opacity:1"
     id="path2" />
  <g
     id="Ebene_1_1_" />
</svg>
