<?xml version="1.0" encoding="UTF-8"?>
<svg xmlns="http://www.w3.org/2000/svg" xmlns:xlink="http://www.w3.org/1999/xlink" width="14pt" height="14pt" viewBox="0 0 14 14" version="1.1">
<g id="surface1">
<path style=" stroke:none;fill-rule:nonzero;fill:rgb(0%,0%,0%);fill-opacity:1;" d="M 7.503906 5.484375 L 6.492188 5.484375 C 6.359375 5.484375 6.25 5.59375 6.25 5.734375 L 6.25 6.683594 C 6.25 6.785156 6.265625 6.960938 6.285156 7.066406 L 6.632812 8.785156 C 6.652344 8.886719 6.75 8.984375 6.855469 8.984375 L 7.152344 8.984375 C 7.257812 8.984375 7.367188 8.886719 7.386719 8.785156 L 7.734375 7.054688 C 7.753906 6.953125 7.78125 6.785156 7.78125 6.683594 L 7.78125 5.734375 C 7.78125 5.59375 7.640625 5.484375 7.503906 5.484375 Z M 7.59375 9.53125 L 6.441406 9.53125 C 6.335938 9.53125 6.25 9.617188 6.25 9.722656 L 6.25 10.875 C 6.25 10.980469 6.335938 11.0625 6.441406 11.0625 L 7.59375 11.0625 C 7.695312 11.0625 7.78125 10.976562 7.78125 10.875 L 7.78125 9.722656 C 7.78125 9.617188 7.695312 9.53125 7.59375 9.53125 Z M 7.59375 9.53125 L 6.441406 9.53125 C 6.335938 9.53125 6.25 9.617188 6.25 9.722656 L 6.25 10.875 C 6.25 10.980469 6.335938 11.0625 6.441406 11.0625 L 7.59375 11.0625 C 7.695312 11.0625 7.78125 10.976562 7.78125 10.875 L 7.78125 9.722656 C 7.78125 9.617188 7.695312 9.53125 7.59375 9.53125 Z M 7.503906 5.484375 L 6.492188 5.484375 C 6.359375 5.484375 6.25 5.59375 6.25 5.734375 L 6.25 6.683594 C 6.25 6.785156 6.265625 6.960938 6.285156 7.066406 L 6.632812 8.785156 C 6.652344 8.886719 6.75 8.984375 6.855469 8.984375 L 7.152344 8.984375 C 7.257812 8.984375 7.367188 8.886719 7.386719 8.785156 L 7.734375 7.054688 C 7.753906 6.953125 7.78125 6.785156 7.78125 6.683594 L 7.78125 5.734375 C 7.78125 5.59375 7.640625 5.484375 7.503906 5.484375 Z M 13.902344 11.914062 L 7.65625 1.347656 C 7.523438 1.109375 7.269531 0.96875 7 0.96875 C 6.730469 0.96875 6.480469 1.109375 6.34375 1.347656 L 0.0976562 11.914062 C -0.0351562 12.152344 -0.0351562 12.429688 0.101562 12.664062 C 0.234375 12.894531 0.484375 13.03125 0.753906 13.03125 L 13.246094 13.03125 C 13.515625 13.03125 13.765625 12.894531 13.898438 12.664062 C 14.035156 12.429688 14.035156 12.152344 13.902344 11.914062 Z M 2.0625 11.5 L 7 3.027344 L 11.9375 11.5 Z M 7.59375 9.53125 L 6.441406 9.53125 C 6.335938 9.53125 6.25 9.617188 6.25 9.722656 L 6.25 10.875 C 6.25 10.980469 6.335938 11.0625 6.441406 11.0625 L 7.59375 11.0625 C 7.695312 11.0625 7.78125 10.976562 7.78125 10.875 L 7.78125 9.722656 C 7.78125 9.617188 7.695312 9.53125 7.59375 9.53125 Z M 6.25 5.734375 L 6.25 6.683594 C 6.25 6.785156 6.265625 6.960938 6.285156 7.066406 L 6.632812 8.785156 C 6.652344 8.886719 6.75 8.984375 6.855469 8.984375 L 7.152344 8.984375 C 7.257812 8.984375 7.367188 8.886719 7.386719 8.785156 L 7.734375 7.054688 C 7.753906 6.953125 7.78125 6.785156 7.78125 6.683594 L 7.78125 5.734375 C 7.78125 5.59375 7.640625 5.484375 7.503906 5.484375 L 6.492188 5.484375 C 6.359375 5.484375 6.25 5.59375 6.25 5.734375 Z M 6.25 5.734375 "/>
</g>
</svg>
