<?xml version="1.0" encoding="utf-8"?>
<svg version="1.1" id="Ebene_1" x="0px" y="0px" viewBox="0 0 32 32" style="enable-background:new 0 0 32 32;" width="32px" height="32px" class="br-symbol-library" xmlns="http://www.w3.org/2000/svg">
  <g id="Acknowledge">
    <path d="M 22.766 26.369 L 19.666 21.122 C 18.524 20.947 17.456 20.582 16.509 20.049 L 19.944 25.944 L 5.729 25.944 L 12.434 14.444 C 12.272 13.707 12.19 12.927 12.19 12.109 C 12.19 11.654 12.22 11.207 12.28 10.769 C 12.122 10.862 11.987 10.994 11.892 11.159 L 2.907 26.369 C 2.7119999999999997 26.707 2.714 27.216 2.909 27.551 C 3.104 27.888 3.461 28.193 3.8520000000000003 28.193 L 21.82 28.193 C 22.21 28.193 22.567 27.888 22.763 27.551 C 22.957 27.217 22.96 26.706 22.766 26.369 Z" style="paint-order: stroke; fill: rgb(212, 0, 0);"/>
    <path d="M 13.528 17.194 L 12.11 17.194 C 11.91 17.194 11.722 17.274 11.722 17.474 L 11.722 18.836 C 11.722 18.986 11.757 19.286 11.786999999999999 19.431 L 12.28 22.003 C 12.31 22.15 12.48 22.443 12.63 22.443 L 13.055 22.443 C 13.207 22.443 13.388 22.151 13.417 22.003 L 13.894 19.401 C 13.922 19.256 13.971 18.986 13.971 18.836 L 13.971 17.846 C 13.722 17.636 13.661999999999999 17.444 13.528 17.194 Z" style="paint-order: stroke; fill: rgb(212, 0, 0);"/>
    <path d="M 21.335 3.967 C 17.28 3.967 13.917 6.634 13.295 10.717 C 13.225 11.164 13.19 11.63 13.19 12.11 C 13.19 13.26 13.367 14.298 13.693 15.217 C 14.023 16.162 14.511 16.982 15.12 17.669 C 16.123 18.804 17.457 19.579 18.982 19.967 C 19.727 20.157 20.517 20.255 21.335 20.255 C 25.832 20.255 29.477 16.607 29.477 12.11 C 29.477 7.6129999999999995 25.832 3.967 21.335 3.967 Z" style="paint-order: stroke; fill: rgb(245, 245, 245);"/>
    <path d="M 27.002 9.514 L 19.88 16.636 C 19.832 16.686 19.768 16.709 19.705 16.709 C 19.642 16.709 19.58 16.686 19.53 16.636 L 17.935 15.041 C 17.837 14.943 17.682 14.788 17.585 14.696 L 15.665 12.771 C 15.568 12.673 15.568 12.518 15.665 12.421 L 17.26 10.826 C 17.31 10.776 17.372 10.754 17.435 10.754 C 17.498 10.754 17.562 10.776 17.609 10.826 L 19.529 12.746 C 19.579 12.794 19.642 12.818 19.706 12.818 C 19.768 12.818 19.831 12.793 19.879 12.746 L 25.044 7.5809999999999995 C 25.094 7.533 25.157 7.508 25.219 7.508 C 25.281 7.508 25.346 7.533 25.394 7.5809999999999995 L 27.002 9.168 C 27.099 9.262 27.099 9.419 27.002 9.514 Z" style="paint-order: stroke; fill: rgb(255, 255, 255);"/>
    <path d="M 13.972 23.217 C 13.972 23.066 13.85 22.944 13.7 22.944 L 11.994 22.944 C 11.844 22.944 11.722 23.066 11.722 23.217 L 11.722 24.922 C 11.722 25.073 11.844 25.195 11.994 25.195 L 13.699 25.195 C 13.849 25.195 13.971 25.073 13.971 24.922 L 13.972 23.217 Z" style="paint-order: stroke; fill: rgb(212, 0, 0);"/>
  </g>
  <g id="Ebene_1_1_"/>
</svg>