<?xml version="1.0" encoding="utf-8"?>
<!-- Generator: Adobe Illustrator 20.0.0, SVG Export Plug-In . SVG Version: 6.00 Build 0)  -->
<svg version="1.1" id="Ebene_1" xmlns="http://www.w3.org/2000/svg" xmlns:xlink="http://www.w3.org/1999/xlink" x="0px" y="0px"
	 viewBox="0 0 32 32" style="enable-background:new 0 0 32 32;" xml:space="preserve" width="32px" height="32px" class="br-symbol-library">
<g id="EngineMove">
	<path d="M32,15.1c0-0.1,0.1-0.3,0-0.4l-1.5-3.4c-0.2-0.4-0.5-0.5-0.9-0.5H27c-0.6,0-1.1,0.3-1.1,0.9v1.9h-1v-1.6
		c0-0.6-0.3-0.9-0.8-0.9h-2.9V8c0-0.6-0.3-1-0.9-1H15V6h5.3c0.6,0,1-0.4,1-1s-0.5-1-1-1H8C7.4,4,7,4.4,7,5s0.5,1,1,1h5v1H8
		C7.4,7,6.7,7.5,6.7,8v1H4.7C4.1,9,3.5,9.4,3.5,9.9v5.8H2V9.9c0-0.6-0.4-1-1-1c-0.6,0-1,0.5-1,1v13.3c0,0.6,0.4,1,1,1
		c0.6,0,1-0.5,1-1v-5.5h1.5v5.5c0,0.6,0.6,1.3,1.2,1.3h4l4.1,3.3C13,28,13.3,28,13.5,28h10.6c0.6,0,0.8-0.5,0.8-1.1v-2.6h1v1.4
		c0,0.6,0.5,1.1,1.1,1.1h2.6c0.4,0,0.8-0.2,0.9-0.6l1.5-3.5c0.1-0.1,0-0.3,0-0.5V15.1z M13.6,12.9l0-0.7c-2.2,0.7-3.8,2.8-3.8,5.2
		c0,1.7,0.8,3.3,2.1,4.3c0.7,0.5,0,1.9-1.1,0.9c-1.5-1.3-2.4-3.1-2.4-5.2c0-3.2,2.2-5.9,5.2-6.7l0-0.6c0-0.4,0.3-0.5,0.6-0.3
		l2.3,1.4c0.3,0.2,0.3,0.5,0,0.7l-2.3,1.3C13.8,13.4,13.6,13.3,13.6,12.9z M16.5,25l-2.3-1.3c-0.3-0.2-0.3-0.5,0-0.7l2.3-1.4
		c0.1,0,0.2-0.1,0.2-0.1c0.1,0,0.1,0,0.2,0c0.1,0.1,0.2,0.2,0.2,0.4l0,0.6h0l0,0.2h0c0.8-0.2,1.6-0.8,2.2-1.4c0,0,0.1-0.1,0.1-0.2
		c0.2-0.3,0.5-0.6,0.6-0.9c0.2-0.4,0.4-0.8,0.5-1.2c0.2-0.5,0.3-1.1,0.3-1.7c0-1.8-0.8-3.3-2.1-4.3c-0.7-0.5,0.4-1.6,1.1-0.9
		c0.2,0.2,0.4,0.3,0.5,0.5c1.2,1.2,1.8,2.9,1.8,4.7c0,3.2-2.3,5.9-5.3,6.7v0.6c0,0.3,0,0.4-0.2,0.4C16.7,25.1,16.7,25,16.5,25z"/>
</g>
<g id="Ebene_1_1_">
</g>
</svg>
