<?xml version="1.0" encoding="UTF-8" standalone="no"?>
<svg
   id="svg"
   version="1.1"
   width="400"
   height="400"
   viewBox="0, 0, 400,400"
   sodipodi:docname="PackML.svg"
   inkscape:version="1.2.2 (732a01da63, 2022-12-09)"
   xmlns:inkscape="http://www.inkscape.org/namespaces/inkscape"
   xmlns:sodipodi="http://sodipodi.sourceforge.net/DTD/sodipodi-0.dtd"
   xmlns="http://www.w3.org/2000/svg"
   xmlns:svg="http://www.w3.org/2000/svg">
  <defs
     id="defs16" />
  <sodipodi:namedview
     id="namedview14"
     pagecolor="#ffffff"
     bordercolor="#000000"
     borderopacity="0.25"
     inkscape:showpageshadow="2"
     inkscape:pageopacity="0.0"
     inkscape:pagecheckerboard="0"
     inkscape:deskcolor="#d1d1d1"
     showgrid="false"
     inkscape:zoom="1.4796209"
     inkscape:cx="148.34881"
     inkscape:cy="225.73349"
     inkscape:window-width="1920"
     inkscape:window-height="1017"
     inkscape:window-x="1912"
     inkscape:window-y="-8"
     inkscape:window-maximized="1"
     inkscape:current-layer="svg" />
  <path
     id="path1"
     d="m 277.032,50.606 c -2.309,1.747 -2.226,0.832 -2.229,24.816 l -0.003,22.021 -1.319,1.279 -1.319,1.278 h -15.831 c -20.986,0 -22.136,0.451 -25.318,9.938 -1.016,3.031 -1.776,4.495 -3.916,7.541 -0.607,0.864 -1.66,3.167 -2.341,5.118 -1.158,3.322 -1.792,4.506 -4.106,7.671 -0.51,0.698 -1.511,2.948 -2.225,5 -0.749,2.157 -1.931,4.577 -2.8,5.734 -1.904,2.537 -2.587,3.863 -3.396,6.603 -0.655,2.22 -1.918,4.622 -3.932,7.479 -0.607,0.861 -1.665,3.174 -2.35,5.141 -0.686,1.966 -1.809,4.359 -2.497,5.317 -2.302,3.208 -2.641,3.844 -3.655,6.858 -0.999,2.972 -1.562,4.047 -4.109,7.842 -0.723,1.077 -1.659,3.072 -2.08,4.434 -0.941,3.045 -2.043,5.241 -3.752,7.481 -0.72,0.943 -1.897,3.408 -2.617,5.478 -0.76,2.186 -1.939,4.605 -2.812,5.767 -1.863,2.481 -2.483,3.695 -3.577,6.998 -0.858,2.591 -1.656,4.097 -3.751,7.079 -0.607,0.864 -1.66,3.167 -2.341,5.118 -1.158,3.322 -1.792,4.506 -4.106,7.671 -0.51,0.698 -1.511,2.948 -2.225,5 -0.8,2.302 -1.927,4.571 -2.942,5.923 -1.541,2.051 -3.452,5.969 -3.474,7.12 -0.013,0.702 -2.179,4.7 -3.732,6.889 -0.702,0.99 -1.791,3.353 -2.42,5.251 -0.71,2.145 -1.75,4.253 -2.75,5.574 -0.884,1.168 -2.105,3.234 -2.714,4.592 -1.882,4.193 -1.851,4.183 -13.186,4.183 h -9.669 l -1.169,-1.169 -1.169,-1.169 V 250.231 228 l -1.6,-1.6 -1.6,-1.6 H 61 0 v 62.6 62.6 l 61.1,-0.013 c 66.697,-0.014 61.753,0.164 63.365,-2.281 0.684,-1.037 0.73,-2.489 0.732,-23.128 l 0.003,-22.021 1.319,-1.279 1.319,-1.278 h 15.831 c 20.986,0 22.136,-0.451 25.318,-9.938 1.016,-3.031 1.776,-4.495 3.916,-7.541 0.607,-0.864 1.66,-3.167 2.341,-5.118 1.158,-3.322 1.792,-4.506 4.106,-7.671 0.51,-0.698 1.511,-2.948 2.225,-5 0.749,-2.157 1.931,-4.577 2.8,-5.734 1.904,-2.537 2.587,-3.863 3.396,-6.603 0.655,-2.22 1.918,-4.622 3.932,-7.479 0.607,-0.861 1.665,-3.174 2.35,-5.141 0.686,-1.966 1.809,-4.359 2.497,-5.317 2.302,-3.208 2.641,-3.844 3.655,-6.858 0.999,-2.972 1.562,-4.047 4.109,-7.842 0.723,-1.077 1.659,-3.072 2.08,-4.434 0.941,-3.045 2.043,-5.241 3.752,-7.481 0.72,-0.943 1.897,-3.408 2.617,-5.478 0.76,-2.186 1.939,-4.605 2.812,-5.767 1.863,-2.481 2.483,-3.695 3.577,-6.998 0.858,-2.591 1.656,-4.097 3.751,-7.079 0.607,-0.864 1.66,-3.167 2.341,-5.118 1.158,-3.322 1.792,-4.506 4.106,-7.671 0.51,-0.698 1.511,-2.948 2.225,-5 0.8,-2.302 1.927,-4.571 2.942,-5.923 1.541,-2.051 3.452,-5.969 3.474,-7.12 0.013,-0.702 2.179,-4.7 3.732,-6.889 0.702,-0.99 1.791,-3.353 2.42,-5.251 0.71,-2.145 1.75,-4.253 2.75,-5.574 0.884,-1.168 2.105,-3.234 2.714,-4.592 1.882,-4.193 1.851,-4.183 13.186,-4.183 h 9.669 l 1.169,1.169 1.169,1.169 V 149.769 172 l 1.6,1.6 1.6,1.6 h 61 61 V 112.6 50 l -61.1,0.013 c -52.792,0.011 -61.204,0.091 -61.868,0.593 m 96.599,25.763 1.169,1.169 v 34.912 34.912 l -1.278,1.319 -1.279,1.319 H 337.482 302.72 l -1.36,-1.36 -1.36,-1.36 V 112.559 77.838 l 1.278,-1.319 1.279,-1.319 h 34.952 34.953 l 1.169,1.169 M 98.64,251.36 100,252.72 v 34.721 34.721 l -1.278,1.319 -1.279,1.319 H 62.491 27.538 L 26.369,323.631 25.2,322.462 V 287.55 252.638 L 26.478,251.319 27.757,250 H 62.518 97.28 l 1.36,1.36"
     stroke="none"
     fill="#040404"
     fill-rule="evenodd" />
</svg>
