<?xml version="1.0" encoding="UTF-8" standalone="no"?>
<svg
   id="svg"
   version="1.1"
   width="400"
   height="400"
   viewBox="0, 0, 400,400"
   sodipodi:docname="PackML2.svg"
   inkscape:version="1.2.2 (732a01da63, 2022-12-09)"
   xmlns:inkscape="http://www.inkscape.org/namespaces/inkscape"
   xmlns:sodipodi="http://sodipodi.sourceforge.net/DTD/sodipodi-0.dtd"
   xmlns="http://www.w3.org/2000/svg"
   xmlns:svg="http://www.w3.org/2000/svg">
  <defs
     id="defs223" />
  <sodipodi:namedview
     id="namedview221"
     pagecolor="#ffffff"
     bordercolor="#000000"
     borderopacity="0.25"
     inkscape:showpageshadow="2"
     inkscape:pageopacity="0.0"
     inkscape:pagecheckerboard="0"
     inkscape:deskcolor="#d1d1d1"
     showgrid="false"
     inkscape:zoom="1.4796209"
     inkscape:cx="278.78762"
     inkscape:cy="230.46443"
     inkscape:window-width="1920"
     inkscape:window-height="1017"
     inkscape:window-x="-8"
     inkscape:window-y="-8"
     inkscape:window-maximized="1"
     inkscape:current-layer="svg" />
  <path
     id="path1"
     d="M 113.747,51.428 112.4,52.857 V 100 147.143 l 1.347,1.429 1.347,1.428 h 37.839 37.839 l 1.414,1.241 1.414,1.242 v 19.389 19.39 l -1.169,1.169 -1.169,1.169 H 140.859 90.457 l -1.429,1.347 -1.428,1.347 v 25.44 25.439 L 86.187,248.587 84.773,250 H 46.865 8.957 l -1.279,1.319 -1.278,1.319 v 47.403 47.402 l 1.319,1.279 1.319,1.278 h 84.721 84.721 l 1.36,-1.36 1.36,-1.36 V 300 252.72 l -1.36,-1.36 -1.36,-1.36 H 140.6 102.72 l -1.36,-1.36 -1.36,-1.36 v -19.026 -19.026 l 1.241,-1.414 1.242,-1.414 H 200 297.517 l 1.242,1.414 1.241,1.414 v 19.026 19.026 l -1.36,1.36 -1.36,1.36 H 259.4 221.52 l -1.36,1.36 -1.36,1.36 V 300 347.28 l 1.36,1.36 1.36,1.36 h 84.762 84.761 l 1.279,-1.319 1.278,-1.319 v -47.403 -47.402 l -1.319,-1.279 -1.319,-1.278 h -37.868 -37.867 l -1.414,-1.413 -1.413,-1.414 v -25.439 -25.44 l -1.428,-1.347 -1.429,-1.347 h -50.402 -50.403 l -1.169,-1.169 -1.169,-1.169 v -19.39 -19.389 l 1.414,-1.242 1.414,-1.241 h 37.839 37.839 l 1.347,-1.428 1.347,-1.429 V 100 52.857 L 286.253,51.428 284.906,50 H 200 115.094 l -1.347,1.428 M 267.44,70.16 268.8,71.52 V 100 128.48 l -1.36,1.36 -1.36,1.36 H 200 133.92 l -1.36,-1.36 -1.36,-1.36 V 100 71.52 l 1.36,-1.36 1.36,-1.36 H 200 266.08 l 1.36,1.36 m -106.359,199.918 1.319,1.279 v 28.602 28.603 l -1.278,1.319 -1.279,1.319 H 93.752 27.662 L 26.431,329.969 25.2,328.738 V 300 271.262 l 1.231,-1.231 1.231,-1.231 h 66.05 66.05 l 1.319,1.278 m 212.488,-0.047 1.231,1.231 V 300 328.738 l -1.231,1.231 -1.231,1.231 h -66.05 -66.05 l -1.319,-1.278 -1.319,-1.279 v -28.602 -28.603 l 1.278,-1.319 1.279,-1.319 h 66.091 66.09 l 1.231,1.231"
     stroke="none"
     fill="#040404"
     fill-rule="evenodd" />
</svg>
