<?xml version="1.0" encoding="UTF-8" standalone="no"?>
<!-- Created with Inkscape (http://www.inkscape.org/) -->

<svg
   width="8.4666662mm"
   height="8.4666662mm"
   viewBox="0 0 8.4666662 8.4666662"
   version="1.1"
   id="svg20267"
   xml:space="preserve"
   inkscape:version="1.2.2 (732a01da63, 2022-12-09)"
   sodipodi:docname="PageUp.svg"
   xmlns:inkscape="http://www.inkscape.org/namespaces/inkscape"
   xmlns:sodipodi="http://sodipodi.sourceforge.net/DTD/sodipodi-0.dtd"
   xmlns="http://www.w3.org/2000/svg"
   xmlns:svg="http://www.w3.org/2000/svg"><sodipodi:namedview
     id="namedview20269"
     pagecolor="#505050"
     bordercolor="#ffffff"
     borderopacity="1"
     inkscape:showpageshadow="0"
     inkscape:pageopacity="0"
     inkscape:pagecheckerboard="1"
     inkscape:deskcolor="#505050"
     inkscape:document-units="mm"
     showgrid="false"
     inkscape:zoom="4"
     inkscape:cx="52.875"
     inkscape:cy="40"
     inkscape:window-width="1920"
     inkscape:window-height="1017"
     inkscape:window-x="1912"
     inkscape:window-y="-8"
     inkscape:window-maximized="1"
     inkscape:current-layer="layer1" /><defs
     id="defs20264" /><g
     inkscape:label="Layer 1"
     inkscape:groupmode="layer"
     id="layer1"><path
       style="fill:#000000;stroke-width:0.0140489"
       d="m 3.8069452,8.445726 -0.00787,-0.02178 h -0.055392 -0.055386 l -0.083651,-0.09024 -0.083658,-0.09024 -0.00153,-0.0252 c -6.35e-4,-0.01388 -0.012046,-0.03736 -0.024667,-0.05222 l -0.022934,-0.02699 -0.00371,-1.695498 -0.00371,-1.6954987 -0.032454,-0.00515 -0.032454,-0.00515 -0.038403,0.030284 c -0.021146,0.016605 -0.044804,0.030283 -0.052586,0.030283 -0.00782,0 -0.014155,0.00682 -0.014155,0.015171 0,0.00834 -0.2756788,0.3084957 -0.6126244,0.6670317 L 2.0692152,6.132436 h -0.025374 -0.025387 l -0.016962,0.02178 -0.016949,0.02178 h -0.044143 -0.044142 l -0.034597,0.02904 -0.034601,0.02903 h -0.098961 -0.09886 L 1.6037282,6.209516 C 1.5897322,6.196006 1.5647142,6.182836 1.5482092,6.180256 L 1.5182132,6.175556 1.5030812,6.154106 1.4879362,6.132636 1.4621892,6.13247 1.4364422,6.132306 1.2289322,5.909 1.0213753,5.685657 V 5.658617 5.631537 L 0.9940987,5.606677 0.9668809,5.581817 V 5.525377 5.469027 L 0.9464659,5.450977 0.9260514,5.432937 v -0.09094 -0.09093 l 0.0204145,-0.0084 0.020415,-0.0084 v -0.0565 -0.05649 l 0.0272178,-0.03689 c 0.0149688,-0.02029 0.0272186,-0.04547 0.0272186,-0.05597 v -0.01912 l 1.4597196,-1.5555379 1.459724,-1.5555354 0.019331,-2.94e-5 c 0.010618,-1.3e-5 0.029198,-0.00954 0.041271,-0.021189 l 0.021939,-0.021162 0.2245194,-0.00188 0.2245189,-0.00188 0.053301,0.052013 0.05328,0.052013 h 0.021175 0.021175 l 1.4138489,1.5063695 1.4138446,1.5063682 -0.00828,0.014274 -0.00824,0.01427 0.026911,0.02591 0.026911,0.02592 v 0.03176 0.03175 l 0.027188,0.02625 0.027184,0.02625 V 5.342285 5.51934 l -0.027184,0.03688 c -0.014986,0.02029 -0.027188,0.0458 -0.027188,0.05676 0,0.01091 -0.010695,0.03088 -0.023818,0.04433 -0.013123,0.01345 -0.03452,0.03664 -0.047635,0.05157 l -0.023818,0.0271 V 5.76196 5.78795 L 7.2571273,5.931162 7.1232968,6.074347 h -0.026467 -0.026463 l -0.022984,0.02536 c -0.01261,0.01393 -0.035698,0.03825 -0.051214,0.05395 l -0.028268,0.02851 -0.046973,0.0016 -0.046974,0.0016 -0.024995,0.02407 -0.024995,0.02407 H 6.720395 6.6166619 l -0.011957,-0.0228 -0.011957,-0.02284 -0.054306,-0.0038 -0.054306,-0.0038 L 5.899872,5.560901 C 5.2481927,4.8702269 5.2763325,4.8994364 5.2624466,4.8994364 c -0.012565,0 -0.089683,-0.08121 -0.089683,-0.094441 0,-0.0055 -0.013806,-0.021884 -0.030624,-0.036898 L 5.1115251,4.7409123 5.074082,4.740489 5.0366387,4.7400657 V 6.389916 8.039761 l -0.027184,0.02485 -0.027184,0.02484 v 0.05635 0.05635 l -0.020447,0.01804 -0.020447,0.01804 v 0.02762 0.02761 l -0.060886,0.06487 -0.060886,0.06487 h -0.05523 -0.05523 l -0.00787,0.02178 -0.00787,0.02178 H 4.2540541 3.8146255 Z"
       id="path22222" /><rect
       style="fill:#000000;stroke-width:9.44144;stroke-opacity:0.302222"
       id="rect22276"
       width="6.6145835"
       height="1.5875"
       x="0.92604166"
       y="0"
       ry="0.52916664"
       rx="0.52916664" /></g></svg>
