<?xml version="1.0" encoding="UTF-8" standalone="no"?>
<!-- Created with Inkscape (http://www.inkscape.org/) -->

<svg
   width="8.4666662mm"
   height="8.4666662mm"
   viewBox="0 0 8.4666662 8.4666662"
   version="1.1"
   id="svg20267"
   xml:space="preserve"
   inkscape:version="1.2.2 (732a01da63, 2022-12-09)"
   sodipodi:docname="PageDown.svg"
   xmlns:inkscape="http://www.inkscape.org/namespaces/inkscape"
   xmlns:sodipodi="http://sodipodi.sourceforge.net/DTD/sodipodi-0.dtd"
   xmlns="http://www.w3.org/2000/svg"
   xmlns:svg="http://www.w3.org/2000/svg"><sodipodi:namedview
     id="namedview20269"
     pagecolor="#505050"
     bordercolor="#ffffff"
     borderopacity="1"
     inkscape:showpageshadow="0"
     inkscape:pageopacity="0"
     inkscape:pagecheckerboard="1"
     inkscape:deskcolor="#505050"
     inkscape:document-units="mm"
     showgrid="false"
     inkscape:zoom="8"
     inkscape:cx="29.5625"
     inkscape:cy="24.125"
     inkscape:window-width="1920"
     inkscape:window-height="1017"
     inkscape:window-x="1912"
     inkscape:window-y="-8"
     inkscape:window-maximized="1"
     inkscape:current-layer="layer1" /><defs
     id="defs20264" /><g
     inkscape:label="Layer 1"
     inkscape:groupmode="layer"
     id="layer1"><path
       style="fill:#000000;stroke-width:0.0140489"
       d="m 4.659721,0.02104126 0.00787,0.02177786 h 0.055392 0.055386 l 0.083651,0.09024172 0.083658,0.0902436 0.00153,0.0251963 c 6.35e-4,0.0138827 0.012047,0.0373589 0.024667,0.0522211 l 0.022934,0.0269931 0.00371,1.69549766 0.00371,1.6954983 0.032454,0.00515 0.032454,0.00515 0.038404,-0.030283 c 0.021145,-0.016605 0.044804,-0.030283 0.052586,-0.030283 0.00782,0 0.014155,-0.00682 0.014155,-0.015171 0,-0.00834 0.2756786,-0.3084955 0.6126243,-0.6670306 l 0.6125454,-0.651907 h 0.025374 0.025387 l 0.016962,-0.021778 0.016949,-0.021778 h 0.044143 0.044142 l 0.034597,-0.029037 0.034601,-0.029033 h 0.098961 0.09886 l 0.025511,0.024551 c 0.013996,0.013512 0.039014,0.026681 0.055519,0.029263 l 0.029996,0.00466 0.015132,0.021452 0.015145,0.021471 0.025747,1.651e-4 0.025747,1.638e-4 0.2075101,0.2233057 0.2075559,0.2233425 v 0.02704 0.027079 l 0.02728,0.024855 0.02722,0.024858 v 0.05644 0.056352 l 0.02041,0.018052 0.02041,0.018039 v 0.090943 0.090927 l -0.02041,0.00836 -0.02041,0.00836 v 0.056502 0.056493 l -0.02722,0.03689 c -0.01497,0.020288 -0.02722,0.045472 -0.02722,0.055972 v 0.019119 l -1.4597186,1.5555371 -1.4597237,1.5555352 -0.019331,2.94e-5 c -0.010618,1.29e-5 -0.029198,0.00954 -0.041271,0.021188 l -0.021939,0.021161 -0.2245193,0.00188 -0.2245189,0.00188 -0.053301,-0.052013 -0.05328,-0.052013 H 3.8665804 3.8454058 L 2.4315572,5.0041767 1.0177127,3.4978088 l 0.00828,-0.014274 0.00824,-0.014272 -0.026911,-0.025913 -0.026911,-0.025916 V 3.3856778 3.3539265 L 0.95322577,3.3276772 0.92604167,3.3014278 V 3.1243734 2.9473184 l 0.027184,-0.036877 c 0.014986,-0.020288 0.027188,-0.045795 0.027188,-0.05676 0,-0.010909 0.010695,-0.030881 0.023818,-0.044329 0.013123,-0.013446 0.03452,-0.036642 0.047635,-0.051569 l 0.023818,-0.027104 V 2.7047029 2.6787181 L 1.2095529,2.5355068 1.3433834,2.3923222 h 0.026467 0.026463 l 0.022984,-0.025358 c 0.01261,-0.01393 0.035698,-0.038247 0.051214,-0.053952 l 0.028268,-0.028512 0.046973,-0.00159 0.046974,-0.00159 0.024995,-0.024069 0.024995,-0.024072 h 0.1035552 0.1037331 l 0.011957,0.022802 0.011957,0.022839 0.054306,0.00384 0.054306,0.00384 0.584265,0.6193572 c 0.6516792,0.6906743 0.6235394,0.6614648 0.6374252,0.6614648 0.012565,0 0.089683,0.08121 0.089683,0.094441 0,0.0055 0.013806,0.021884 0.030624,0.036898 l 0.030615,0.027185 0.037443,4.233e-4 0.037443,4.233e-4 V 2.0768518 0.4270061 L 3.4572129,0.4021564 3.4843969,0.377312 V 0.3209602 0.2646103 L 3.5048439,0.2465684 3.5252909,0.2285265 V 0.2009106 0.17329868 l 0.060886,-0.0648714 0.060886,-0.06487161 h 0.05523 0.05523 L 3.7653876,0.02177786 3.7732563,0 h 0.4393558 0.4394286 z"
       id="path22222" /><rect
       style="fill:#000000;stroke-width:9.44144;stroke-opacity:0.302222"
       id="rect22276"
       width="6.6145835"
       height="1.5875"
       x="-7.5406251"
       y="-8.4666662"
       ry="0.52916664"
       rx="0.52916664"
       transform="scale(-1)" /></g></svg>
