<svg id="Layer_1" data-name="Layer 1" xmlns="http://www.w3.org/2000/svg" viewBox="0 0 19.4 19.55"><path d="M9.75,2.83a6.95,6.95,0,1,0,6.94,7A7,7,0,0,0,9.75,2.83Zm0,12.88a5.93,5.93,0,1,1,5.93-5.93,6,6,0,0,1-5.93,5.93Zm0,0"/><path d="M9.07,13.51a.68.68,0,1,0,.34-.59.67.67,0,0,0-.34.59Zm0,0"/><path d="M9.75,5.54a2.2,2.2,0,0,0-2.21,2.2.51.51,0,0,0,1,0,1.19,1.19,0,0,1,2.37,0c0,.44-.85,1.22-1.46,1.6a.58.58,0,0,0-.23.44v1.69a.51.51,0,1,0,1,0V10.05C10.8,9.64,12,8.73,12,7.74a2.19,2.19,0,0,0-2.2-2.2Zm0,0"/></svg>