<svg id="Layer_1" data-name="Layer 1" xmlns="http://www.w3.org/2000/svg" viewBox="0 0 30 29"><path d="M21,13l-1.43-.25-.28-.64.82-1.18A.87.87,0,0,0,20,9.75l-.89-.9A.87.87,0,0,0,18,8.75l-1.18.82-.65-.29L15.9,7.85a.81.81,0,0,0-.82-.71H13.83a.94.94,0,0,0-.89.75l-.25,1.43-.64.29-1.22-.86a.87.87,0,0,0-1.14.1l-.9.9a.87.87,0,0,0-.1,1.14l.82,1.18-.29.64L7.79,13a.91.91,0,0,0-.68.86v1.25a1,1,0,0,0,.75.89l1.43.25.29.65-.86,1.21a.89.89,0,0,0,.11,1.15l.89.89a.89.89,0,0,0,1.15.11l1.18-.83.64.29.25,1.43a.89.89,0,0,0,.89.75h1.25a1,1,0,0,0,.9-.75l.25-1.43.64-.29,1.18.83a.87.87,0,0,0,1.14-.11l.89-.89a.88.88,0,0,0,.11-1.15l-.82-1.18.29-.64L21.08,16a.9.9,0,0,0,.76-.89V13.86A1.05,1.05,0,0,0,21,13Zm-.32,2-1.57.28a.52.52,0,0,0-.39.33l-.5,1.18a.48.48,0,0,0,.07.5l.89,1.28-.68.68-1.28-.89a.49.49,0,0,0-.5-.07l-1.22.53a.53.53,0,0,0-.32.39l-.29,1.58h-1l-.29-1.58a.51.51,0,0,0-.32-.39l-1.18-.5a.52.52,0,0,0-.5.07l-1.28.9-.68-.68.89-1.29a.51.51,0,0,0,.07-.5l-.5-1.21a.52.52,0,0,0-.39-.33l-1.57-.28V14l1.57-.28a.51.51,0,0,0,.39-.32l.5-1.18a.5.5,0,0,0-.07-.5l-.89-1.29.68-.68,1.28.9a.54.54,0,0,0,.5.07l1.22-.5a.52.52,0,0,0,.32-.4L14,8.21h1l.29,1.57a.51.51,0,0,0,.32.4l1.18.5a.53.53,0,0,0,.5-.07l1.28-.9.68.68-.89,1.29a.48.48,0,0,0-.07.5l.5,1.21a.49.49,0,0,0,.39.32l1.57.29Zm0,0"/><path d="M14.44,12.5a2,2,0,1,0,2,2,2,2,0,0,0-2-2Zm0,2.86a.9.9,0,1,1,.89-.9.89.89,0,0,1-.89.9Zm0,0"/></svg>