<svg id="Layer_1" data-name="Layer 1" xmlns="http://www.w3.org/2000/svg" viewBox="0 0 22 21"><path d="M10.6,10.44a.49.49,0,0,0-.47.48v5.36a.48.48,0,0,0,.95,0V10.92A.49.49,0,0,0,10.6,10.44ZM7.92,11.86H4.46a.48.48,0,1,0,0,1h1.1v3.47a.48.48,0,0,0,.47.47.49.49,0,0,0,.48-.47V12.81H7.92a.48.48,0,1,0,0-1Zm5.21-2.68a.48.48,0,0,0-.48-.47H11.08V6.19a.48.48,0,1,0-.95,0V8.71H8.56a.48.48,0,1,0,0,.95h4.09a.49.49,0,0,0,.48-.48Zm3.31,3.63H13a.48.48,0,0,0-.47.47.49.49,0,0,0,.47.48h1.42v2.52a.48.48,0,0,0,.47.47.49.49,0,0,0,.48-.47V13.76h1.1a.49.49,0,0,0,.47-.48A.48.48,0,0,0,16.44,12.81ZM6,10.44A.49.49,0,0,0,6.51,10V6.19A.5.5,0,0,0,6,5.71a.49.49,0,0,0-.47.48V10A.48.48,0,0,0,6,10.44Zm8.83,1a.49.49,0,0,0,.48-.47V6.19a.5.5,0,0,0-.48-.48.49.49,0,0,0-.47.48v4.73A.48.48,0,0,0,14.86,11.39Z"/></svg>