<svg id="Layer_1" data-name="Layer 1" xmlns="http://www.w3.org/2000/svg" viewBox="0 0 22 21"><path d="M4.65,9.41l5.67,2.84a.66.66,0,0,0,.26.06.82.82,0,0,0,.25-.06L16.5,9.41a.51.51,0,0,0,.29-.47.57.57,0,0,0-.29-.47L10.83,5.63a.55.55,0,0,0-.47,0L4.68,8.47a.51.51,0,0,0-.28.47A.54.54,0,0,0,4.65,9.41ZM10.58,6.7l4.47,2.24-4.47,2.24L6.1,8.94ZM16,14.14l-5.42,2.71L5.15,14.14a.54.54,0,0,0-.72.25.55.55,0,0,0,.25.73L10.36,18a.57.57,0,0,0,.25.06.76.76,0,0,0,.25-.06l5.68-2.84a.57.57,0,0,0,.25-.73.63.63,0,0,0-.79-.25Z"/><path d="M16,11.3,10.58,14,5.15,11.3a.54.54,0,0,0-.47,1l5.68,2.84a.57.57,0,0,0,.25.06.76.76,0,0,0,.25-.06l5.68-2.84a.56.56,0,0,0,.25-.72A.63.63,0,0,0,16,11.3Z"/></svg>