<svg id="Layer_1" data-name="Layer 1" xmlns="http://www.w3.org/2000/svg" viewBox="0 0 22 21"><path d="M17.94,16H7.54a.15.15,0,0,1-.16-.16V5.45A.48.48,0,0,0,6.91,5a.49.49,0,0,0-.48.47v10.4A1.13,1.13,0,0,0,7.54,17h10.4a.48.48,0,1,0,0-.95Z"/><path d="M11.48,10.18v4.73a.48.48,0,0,0,.95,0V10.18a.48.48,0,0,0-.95,0Zm-2.05,5.2a.48.48,0,0,0,.47-.47V11.12a.47.47,0,0,0-.94,0v3.79A.48.48,0,0,0,9.43,15.38Zm5.05-3.78a.48.48,0,0,0-.48.47v2.84a.48.48,0,0,0,.95,0V12.07A.48.48,0,0,0,14.48,11.6ZM17,8.44a.49.49,0,0,0-.47.48v6a.47.47,0,0,0,.94,0v-6A.49.49,0,0,0,17,8.44Zm-7.22.82L12,7.09l2.18,2.17a.45.45,0,0,0,.35.13h0a.51.51,0,0,0,.34-.19l2.53-3.47a.48.48,0,0,0-.76-.57l-2.21,3L12.27,6.05a.45.45,0,0,0-.66,0L9.08,8.57a.45.45,0,0,0,0,.66A.53.53,0,0,0,9.78,9.26Z"/></svg>