<svg id="Layer_1" data-name="Layer 1" xmlns="http://www.w3.org/2000/svg" xmlns:xlink="http://www.w3.org/1999/xlink" viewBox="0 0 30 33"><defs><style>.cls-1{fill:none;}.cls-2{clip-path:url(#clip-path);}</style><clipPath id="clip-path"><rect class="cls-1" x="2.11" y="5.4" width="25.51" height="25.54"/></clipPath></defs><g class="cls-2"><path d="M14.86,5.4A12.75,12.75,0,1,0,27.61,18.15,12.76,12.76,0,0,0,14.86,5.4Zm0,4.67a3.73,3.73,0,1,1-3.73,3.73,3.74,3.74,0,0,1,3.73-3.73Zm6.91,14.8A9.62,9.62,0,0,1,8,24.87a1.09,1.09,0,0,1-.25-.93,7.4,7.4,0,0,1,14.3,0,1.08,1.08,0,0,1-.24.93Zm0,0"/></g></svg>