<?xml version="1.0" encoding="UTF-8" standalone="no"?>
<!-- Generator: Adobe Illustrator 20.0.0, SVG Export Plug-In . SVG Version: 6.00 Build 0)  -->

<svg
   version="1.1"
   id="Ebene_1"
   x="0px"
   y="0px"
   viewBox="0 0 35 35"
   xml:space="preserve"
   width="35"
   height="35"
   class="br-symbol-library"
   xmlns="http://www.w3.org/2000/svg"
   xmlns:svg="http://www.w3.org/2000/svg"
   xmlns:rdf="http://www.w3.org/1999/02/22-rdf-syntax-ns#"
   xmlns:cc="http://creativecommons.org/ns#"
   xmlns:dc="http://purl.org/dc/elements/1.1/"><metadata
     id="metadata10"><rdf:RDF><cc:Work
         rdf:about=""><dc:format>image/svg+xml</dc:format><dc:type
           rdf:resource="http://purl.org/dc/dcmitype/StillImage" /></cc:Work></rdf:RDF></metadata><defs
     id="defs8" /><g
     id="Alarm"><path
       id="Alarm_3_"
       d="m 18.655127,14.0425 h -2.31 c -0.315,0 -0.555,0.25 -0.555,0.565 v 2.165 c 0,0.238 0.028,0.643 0.075,0.875 l 0.788,3.93 c 0.048,0.233 0.28,0.465 0.52,0.465 h 0.678 c 0.237,0 0.485,-0.232 0.533,-0.465 l 0.792,-3.95 c 0.048,-0.233 0.115,-0.617 0.115,-0.855 v -2.165 c -0.001,-0.315 -0.321,-0.565 -0.636,-0.565 z m 0.203,9.25 h -2.635 c -0.24,0 -0.433,0.193 -0.433,0.433 v 2.635 c 0,0.238 0.193,0.432 0.433,0.432 h 2.635 c 0.238,0 0.432,-0.195 0.432,-0.432 v -2.635 c 0,-0.241 -0.195,-0.433 -0.432,-0.433 z m 0,0 h -2.635 c -0.24,0 -0.433,0.193 -0.433,0.433 v 2.635 c 0,0.238 0.193,0.432 0.433,0.432 h 2.635 c 0.238,0 0.432,-0.195 0.432,-0.432 v -2.635 c 0,-0.241 -0.195,-0.433 -0.432,-0.433 z m -0.203,-9.25 h -2.31 c -0.315,0 -0.555,0.25 -0.555,0.565 v 2.165 c 0,0.238 0.028,0.643 0.075,0.875 l 0.788,3.93 c 0.048,0.233 0.28,0.465 0.52,0.465 h 0.678 c 0.237,0 0.485,-0.232 0.533,-0.465 l 0.792,-3.95 c 0.048,-0.233 0.115,-0.617 0.115,-0.855 v -2.165 c -0.001,-0.315 -0.321,-0.565 -0.636,-0.565 z m 14.616,14.694 -14.271,-24.158 c -0.307,-0.537 -0.88,-0.87 -1.5,-0.87 -0.62,0 -1.19,0.333 -1.5,0.87 L 1.7291265,28.7365 c -0.308,0.535 -0.305,1.175 0.003,1.71 0.31,0.533 0.88,0.845 1.498,0.845 H 31.771127 c 0.618,0 1.188,-0.312 1.498,-0.845 0.307,-0.535 0.309,-1.175 0.002,-1.71 z M 6.2151265,27.7925 17.500127,8.4255 l 11.288,19.366 H 6.2151265 Z m 12.6430005,-4.5 h -2.635 c -0.24,0 -0.433,0.193 -0.433,0.433 v 2.635 c 0,0.238 0.193,0.432 0.433,0.432 h 2.635 c 0.238,0 0.432,-0.195 0.432,-0.432 v -2.635 c 0,-0.241 -0.195,-0.433 -0.432,-0.433 z m -3.068,-8.686 v 2.165 c 0,0.238 0.028,0.643 0.075,0.875 l 0.788,3.93 c 0.048,0.233 0.28,0.465 0.52,0.465 h 0.678 c 0.237,0 0.485,-0.232 0.533,-0.465 l 0.792,-3.95 c 0.048,-0.233 0.115,-0.617 0.115,-0.855 v -2.165 c 0,-0.315 -0.32,-0.565 -0.635,-0.565 h -2.31 c -0.316,0.001 -0.556,0.251 -0.556,0.565 z"
       style="fill:#d80027;fill-opacity:1" /></g><g
     id="Ebene_1_1_" /></svg>
