<?xml version="1.0" encoding="utf-8"?>
<!-- Generator: Adobe Illustrator 25.0.1, SVG Export Plug-In . SVG Version: 6.00 Build 0)  -->
<svg version="1.1"
	 id="svg8" inkscape:version="1.0 (4035a4fb49, 2020-05-01)" xmlns:cc="http://creativecommons.org/ns#" xmlns:dc="http://purl.org/dc/elements/1.1/" xmlns:inkscape="http://www.inkscape.org/namespaces/inkscape" xmlns:rdf="http://www.w3.org/1999/02/22-rdf-syntax-ns#" xmlns:sodipodi="http://sodipodi.sourceforge.net/DTD/sodipodi-0.dtd" xmlns:svg="http://www.w3.org/2000/svg"
	 xmlns="http://www.w3.org/2000/svg" xmlns:xlink="http://www.w3.org/1999/xlink" x="0px" y="0px" viewBox="0 0 25 21"
	 style="enable-background:new 0 0 25 21;" xml:space="preserve">
<style type="text/css">
	.axis_disabled_st0{fill:#c4c4c4;}
	.axis_disabled_st1{fill:#808080;}
</style>

<g id="Ebene_3" transform="translate(0, 0)">
	<path id="rect2660-7-4-0-8" inkscape:connector-curvature="0" sodipodi:nodetypes="ccsccccsscccsc" class="axis_disabled_st0" d="M11.2,0.6
		c-0.3,0-0.8,0.1-1.6,0.3C5.5,2.1,10,2.5,7,5.5c-3,3-3.6-1.4-4.6,2.7c-1,4,1.6,0.4,2.8,4.4c1.2,4-3,2.3,0.1,5.2
		c3.1,2.9,1.2-1.1,5.4-0.1c4.2,1,0.6,3.7,4.7,2.5c4.1-1.2-0.4-1.6,2.6-4.5s3.6,1.4,4.6-2.7c1-4-1.6-0.4-2.8-4.4
		c-1.2-4,3-2.3-0.1-5.2c-3.1-2.9-1.2,1.1-5.4,0.1C10.9,2.6,12.6,0.7,11.2,0.6z"/>

</g>

<g id="Ebene_2">
	<path id="path2893-48-0" inkscape:connector-curvature="0" class="axis_disabled_st1" d="M12.5,7.7c-1.6,0-2.8,1.3-2.8,2.8c0,0,0,0,0,0
		c0,1.6,1.3,2.8,2.8,2.8c0,0,0,0,0,0c1.6,0,2.8-1.3,2.8-2.8c0,0,0,0,0,0C15.3,8.9,14.1,7.7,12.5,7.7z"/>
</g>

</svg>
