<?xml version="1.0" encoding="UTF-8" standalone="no"?>
<svg
   xmlns:dc="http://purl.org/dc/elements/1.1/"
   xmlns:cc="http://creativecommons.org/ns#"
   xmlns:rdf="http://www.w3.org/1999/02/22-rdf-syntax-ns#"
   xmlns:svg="http://www.w3.org/2000/svg"
   xmlns="http://www.w3.org/2000/svg"
   xmlns:sodipodi="http://sodipodi.sourceforge.net/DTD/sodipodi-0.dtd"
   xmlns:inkscape="http://www.inkscape.org/namespaces/inkscape"
   width="36"
   height="31"
   viewBox="0 0 36 31"
   version="1.1"
   id="svg8634"
   inkscape:version="1.0.1 (3bc2e813f5, 2020-09-07)"
   sodipodi:docname="Home.svg">
  <defs
     id="defs8628" />
  <sodipodi:namedview
     id="base"
     pagecolor="#ffffff"
     bordercolor="#666666"
     borderopacity="1.0"
     inkscape:pageopacity="0.0"
     inkscape:pageshadow="2"
     inkscape:zoom="11.2"
     inkscape:cx="10.069809"
     inkscape:cy="17.409573"
     inkscape:document-units="mm"
     inkscape:current-layer="layer1"
     showgrid="false"
     fit-margin-top="0"
     fit-margin-left="0"
     fit-margin-right="0"
     fit-margin-bottom="0"
     inkscape:window-width="3440"
     inkscape:window-height="1377"
     inkscape:window-x="1912"
     inkscape:window-y="1072"
     inkscape:window-maximized="1"
     inkscape:document-rotation="0" />
  <metadata
     id="metadata8631">
    <rdf:RDF>
      <cc:Work
         rdf:about="">
        <dc:format>image/svg+xml</dc:format>
        <dc:type
           rdf:resource="http://purl.org/dc/dcmitype/StillImage" />
        <dc:title />
      </cc:Work>
    </rdf:RDF>
  </metadata>
  <g
     inkscape:label="Layer 1"
     inkscape:groupmode="layer"
     id="layer1"
     transform="matrix(3.5,0,0,3.5,-23.09787,-28.661228)">
    <rect
       style="fill:#13a5f4;fill-opacity:1;stroke:none;stroke-width:0.689845"
       id="rect831"
       width="10.285714"
       height="8.8571424"
       x="6.5993915"
       y="8.1889219"
       ry="0"
       rx="0" />
    <path
       d="m 9.1865141,12.903208 h -0.587123 v -0.571429 h 0.587123 c 0.131756,-1.19189 1.0781289,-2.138263 2.2700199,-2.27002 V 9.4746358 h 0.571429 v 0.5871232 c 1.19189,0.131757 2.138263,1.07813 2.27002,2.27002 h 0.587123 v 0.571429 h -0.587123 c -0.131757,1.19189 -1.07813,2.138263 -2.27002,2.27002 v 0.587123 h -0.571429 v -0.587123 c -1.191891,-0.131757 -2.1382639,-1.07813 -2.2700199,-2.27002 z m 2.5557339,-2.285715 c -1.104569,0 -1.9999999,0.895431 -1.9999999,2 0,1.10457 0.8954309,2 1.9999999,2 1.10457,0 2.000001,-0.89543 2.000001,-2 0,-1.104569 -0.895431,-2 -2.000001,-2 z m 0,0.857143 c 0.631183,0 1.142858,0.511675 1.142858,1.142857 0,0.631183 -0.511675,1.142858 -1.142858,1.142858 -0.631182,0 -1.142857,-0.511675 -1.142857,-1.142858 0,-0.631182 0.511675,-1.142857 1.142857,-1.142857 z m 0,0.571429 c -0.315591,0 -0.571428,0.255837 -0.571428,0.571428 0,0.315592 0.255837,0.571429 0.571428,0.571429 0.315592,0 0.571429,-0.255837 0.571429,-0.571429 0,-0.315591 -0.255837,-0.571428 -0.571429,-0.571428 z"
       fill-rule="evenodd"
       id="path2-8"
       style="stroke-width:0.28616423;stroke-miterlimit:4;stroke-dasharray:none" />
  </g>
</svg>
