<?xml version="1.0" encoding="UTF-8" standalone="no"?>
<svg
   id="svg8"
   version="1.1"
   viewBox="0 0 30 30"
   height="30"
   width="30"
   sodipodi:docname="Off1.svg"
   inkscape:version="1.2.1 (9c6d41e410, 2022-07-14)"
   inkscape:export-filename="Off1.png"
   inkscape:export-xdpi="96"
   inkscape:export-ydpi="96"
   xmlns:inkscape="http://www.inkscape.org/namespaces/inkscape"
   xmlns:sodipodi="http://sodipodi.sourceforge.net/DTD/sodipodi-0.dtd"
   xmlns="http://www.w3.org/2000/svg"
   xmlns:svg="http://www.w3.org/2000/svg"
   xmlns:rdf="http://www.w3.org/1999/02/22-rdf-syntax-ns#"
   xmlns:cc="http://creativecommons.org/ns#"
   xmlns:dc="http://purl.org/dc/elements/1.1/">
  <sodipodi:namedview
     id="namedview460"
     pagecolor="#ffffff"
     bordercolor="#666666"
     borderopacity="1.0"
     inkscape:showpageshadow="2"
     inkscape:pageopacity="0.0"
     inkscape:pagecheckerboard="0"
     inkscape:deskcolor="#d1d1d1"
     showgrid="false"
     inkscape:zoom="20.04"
     inkscape:cx="3.7924152"
     inkscape:cy="11.976048"
     inkscape:window-width="1920"
     inkscape:window-height="1017"
     inkscape:window-x="2626"
     inkscape:window-y="-8"
     inkscape:window-maximized="1"
     inkscape:current-layer="svg8" />
  <defs
     id="defs2" />
  <metadata
     id="metadata5">
    <rdf:RDF>
      <cc:Work
         rdf:about="">
        <dc:format>image/svg+xml</dc:format>
        <dc:type
           rdf:resource="http://purl.org/dc/dcmitype/StillImage" />
      </cc:Work>
    </rdf:RDF>
  </metadata>
  <g
     id="layer1"
     transform="matrix(14.177215,0,0,14.177215,-2.7215148,-2.7215135)">
    <g
       transform="matrix(0.12762857,0,0,0.1276297,63.006224,-51.186758)"
       id="g2941-17-3">
      <g
         style="fill:#c4c4c4;fill-opacity:1"
         id="g1370-2-0"
         transform="matrix(0.47233325,0,0,0.48357671,-491.43194,403.11352)">
        <g
           style="fill:#c4c4c4;fill-opacity:1"
           id="Off-4-0">
          <path
             id="path978-3-9"
             d="M 16,0 C 8.1,0 1.7,6.4 1.7,14.3 c 0,5.3 2.8,9.8 7.1,12.3 0.8,0.5 1.8,0.7 1.8,-0.4 V 23.7 C 10.6,22.7 10,22.5 9.7,22.3 7.4,20.4 5.9,17.6 5.9,14.4 5.8,8.7 10.4,4.1 16,4.1 c 5.6,0 10.2,4.6 10.2,10.2 0,3.2 -1.5,6.1 -3.8,8 -0.3,0.2 -0.9,0.3 -0.9,1.4 v 2.4 c 0,1.1 0.8,1.1 1.8,0.5 4.2,-2.5 7,-7.1 7,-12.3 C 30.3,6.4 23.9,0 16,0 Z"
             style="fill:#c4c4c4;fill-opacity:1" />
          <path
             id="path1356-9-2"
             d="m 17.3,18.5 h -2.7 c -0.7,0 -1.3,0.5 -1.3,1.2 v 10.9 c 0,0.7 0.6,1.4 1.3,1.4 h 2.7 c 0.7,0 1.4,-0.6 1.4,-1.4 V 19.7 C 18.8,19 18.1,18.5 17.3,18.5 Z"
             style="fill:#c4c4c4;fill-opacity:1" />
        </g>
        <g
           style="fill:#c4c4c4;fill-opacity:1"
           id="Ebene_1_1_-2-1-8" />
      </g>
    </g>
  </g>
</svg>
