<?xml version="1.0" encoding="UTF-8" standalone="no"?>
<svg
   xmlns:dc="http://purl.org/dc/elements/1.1/"
   xmlns:cc="http://creativecommons.org/ns#"
   xmlns:rdf="http://www.w3.org/1999/02/22-rdf-syntax-ns#"
   xmlns:svg="http://www.w3.org/2000/svg"
   xmlns="http://www.w3.org/2000/svg"
   xmlns:sodipodi="http://sodipodi.sourceforge.net/DTD/sodipodi-0.dtd"
   xmlns:inkscape="http://www.inkscape.org/namespaces/inkscape"
   inkscape:version="1.0 (4035a4fb49, 2020-05-01)"
   sodipodi:docname="On.svg"
   class="br-symbol-library"
   height="31"
   width="36"
   xml:space="preserve"
   viewBox="0 0 35.999999 30.999999"
   y="0px"
   x="0px"
   id="Ebene_1"
   version="1.1"><metadata
   id="metadata11"><rdf:RDF><cc:Work
       rdf:about=""><dc:format>image/svg+xml</dc:format><dc:type
         rdf:resource="http://purl.org/dc/dcmitype/StillImage" /><dc:title></dc:title></cc:Work></rdf:RDF></metadata><defs
   id="defs9" /><sodipodi:namedview
   units="px"
   inkscape:current-layer="Ebene_1"
   inkscape:window-maximized="1"
   inkscape:window-y="-9"
   inkscape:window-x="-9"
   inkscape:cy="23.033939"
   inkscape:cx="33.422826"
   inkscape:zoom="12.96875"
   showgrid="false"
   id="namedview7"
   inkscape:window-height="1001"
   inkscape:window-width="1920"
   inkscape:pageshadow="2"
   inkscape:pageopacity="0"
   guidetolerance="10"
   gridtolerance="10"
   objecttolerance="10"
   borderopacity="1"
   bordercolor="#666666"
   pagecolor="#ffffff"
   inkscape:document-rotation="0" />
<rect
   y="0"
   x="0"
   height="31"
   width="36"
   id="rect836"
   style="fill:#008000;fill-opacity:1;stroke-width:2.77864;paint-order:stroke fill markers" /><g
   transform="matrix(-0.61188811,0,0,-0.546875,27.79021,24.25)"
   id="Off">
	
	<path
   id="path2"
   background-color="#008000"
   fill="#ffffff"
   d="M 16,0 C 8.1,0 1.7,6.4 1.7,14.3 c 0,5.3 2.8,9.8 7.1,12.3 0.8,0.5 1.8,0.7 1.8,-0.4 V 23.7 C 10.6,22.7 10,22.5 9.7,22.3 7.4,20.4 5.9,17.6 5.9,14.4 5.8,8.7 10.4,4.1 16,4.1 c 5.6,0 10.2,4.6 10.2,10.2 0,3.2 -1.5,6.1 -3.8,8 -0.3,0.2 -0.9,0.3 -0.9,1.4 v 2.4 c 0,1.1 0.8,1.1 1.8,0.5 4.2,-2.5 7,-7.1 7,-12.3 C 30.3,6.4 23.9,0 16,0 Z m 1.3,18.5 h -2.7 c -0.7,0 -1.3,0.5 -1.3,1.2 v 10.9 c 0,0.7 0.6,1.4 1.3,1.4 h 2.7 c 0.7,0 1.4,-0.6 1.4,-1.4 V 19.7 C 18.8,19 18.1,18.5 17.3,18.5 Z" />
</g>
<g
   id="Ebene_1_1_">
</g>
</svg>
