<?xml version="1.0" encoding="UTF-8" standalone="no"?>
<svg
   id="svg8"
   version="1.1"
   viewBox="0 0 25 25"
   height="25"
   width="25"
   xmlns="http://www.w3.org/2000/svg"
   xmlns:svg="http://www.w3.org/2000/svg"
   xmlns:rdf="http://www.w3.org/1999/02/22-rdf-syntax-ns#"
   xmlns:cc="http://creativecommons.org/ns#"
   xmlns:dc="http://purl.org/dc/elements/1.1/">
  <defs
     id="defs2" />
  <metadata
     id="metadata5">
    <rdf:RDF>
      <cc:Work
         rdf:about="">
        <dc:format>image/svg+xml</dc:format>
        <dc:type
           rdf:resource="http://purl.org/dc/dcmitype/StillImage" />
      </cc:Work>
    </rdf:RDF>
  </metadata>
  <g
     id="layer1"
     transform="scale(10)">
    <g
       transform="matrix(0.12762857,0,0,0.1276297,63.006224,-51.186758)"
       id="g2941-17-3">
      <g
         style="fill:#fefffc;fill-opacity:1"
         id="g1354-1-8"
         transform="matrix(0.47069608,0,0,0.47614369,-491.38221,403.35149)">
        <g
           style="fill:#fefffc;fill-opacity:1"
           id="On-5-6">
          <path
             id="path974-0-3"
             d="M 23.2,5.3 C 22.4,4.8 21.5,4.6 21.5,5.7 v 2.5 c 0,1 0.6,1.2 0.9,1.5 2.3,1.9 3.8,4.7 3.8,8 0,5.6 -4.6,10.2 -10.2,10.2 -5.6,0 -10.2,-4.6 -10.2,-10.2 0,-3.2 1.5,-6.1 3.8,-8 0.3,-0.2 0.9,-0.3 0.9,-1.4 V 5.9 C 10.5,4.8 9.7,4.8 8.6,5.4 4.4,7.9 1.6,12.5 1.6,17.7 1.7,25.6 8.1,32 16,32 23.9,32 30.3,25.6 30.3,17.7 30.3,12.4 27.5,7.8 23.2,5.3 Z"
             style="fill:#fefffc;fill-opacity:1" />
          <path
             id="path1340-6-5"
             d="M 18.8,1.3 C 18.8,0.6 18.2,0 17.4,0 H 14.8 C 14,0 13.4,0.6 13.4,1.3 v 10.9 c 0,0.7 0.6,1.3 1.4,1.3 h 2.6 c 0.8,0 1.4,-0.6 1.4,-1.3 z"
             style="fill:#00c800;fill-opacity:1;stroke:#ffffff;stroke-opacity:1" />
        </g>
        <g
           style="fill:#fefffc;fill-opacity:1"
           id="Ebene_1_1_-25-8" />
      </g>
    </g>
  </g>
</svg>
