<?xml version="1.0" encoding="UTF-8" standalone="no"?>
<svg
   id="svg26"
   xml:space="preserve"
   viewBox="0 0 30 30"
   y="0px"
   x="0px"
   version="1.1"
   width="30"
   height="30"
   sodipodi:docname="UnknownPosition.svg"
   inkscape:version="1.2.1 (9c6d41e410, 2022-07-14)"
   inkscape:export-filename="UnknownPosition.png"
   inkscape:export-xdpi="96"
   inkscape:export-ydpi="96"
   xmlns:inkscape="http://www.inkscape.org/namespaces/inkscape"
   xmlns:sodipodi="http://sodipodi.sourceforge.net/DTD/sodipodi-0.dtd"
   xmlns="http://www.w3.org/2000/svg"
   xmlns:svg="http://www.w3.org/2000/svg"
   xmlns:rdf="http://www.w3.org/1999/02/22-rdf-syntax-ns#"
   xmlns:cc="http://creativecommons.org/ns#"
   xmlns:dc="http://purl.org/dc/elements/1.1/"><sodipodi:namedview
   id="namedview16"
   pagecolor="#ffffff"
   bordercolor="#666666"
   borderopacity="1.0"
   inkscape:showpageshadow="2"
   inkscape:pageopacity="0.0"
   inkscape:pagecheckerboard="0"
   inkscape:deskcolor="#d1d1d1"
   showgrid="false"
   inkscape:zoom="14.17042"
   inkscape:cx="-4.0577485"
   inkscape:cy="3.8813246"
   inkscape:window-width="1350"
   inkscape:window-height="1205"
   inkscape:window-x="2689"
   inkscape:window-y="1095"
   inkscape:window-maximized="0"
   inkscape:current-layer="svg26" /><metadata
   id="metadata32"><rdf:RDF><cc:Work
       rdf:about=""><dc:format>image/svg+xml</dc:format><dc:type
         rdf:resource="http://purl.org/dc/dcmitype/StillImage" /></cc:Work></rdf:RDF></metadata><defs
   id="defs30" />
<style
   id="style2"
   type="text/css">
	.notHomed_st0{fill:#c4c4c4;}
	.notHomed_st1{fill:#00C800;}
	.notHomed_st2{opacity:0;}
</style>
<g
   id="Ebene_3">
</g>
<g
   id="svg8"
   transform="matrix(1.3658537,0,0,1.3658537,-1.9394492,0.59024347)">
	<g
   id="Ebene_6">
		
			
	</g>
	<g
   id="Ebene_5">
		<defs
   id="defs9">
			
				
			
				
		</defs>
	</g>
	<g
   id="Ebene_x5F_Ping">
	</g>
	<path
   id="path13"
   d="m 14.7,16.3 c -0.1,0.2 -0.2,0.4 -0.4,0.6 1.7,0.3 2.9,0.9 2.9,1.6 0,0.9 -2.1,1.7 -4.7,1.7 -2.6,0 -4.7,-0.8 -4.7,-1.7 0,-0.7 1.2,-1.3 2.9,-1.6 -0.1,-0.2 -0.2,-0.4 -0.4,-0.6 -2.4,0.3 -4.1,1.2 -4.1,2.2 0,1.3 2.8,2.3 6.2,2.3 3.4,0 6.2,-1.1 6.2,-2.3 0.1,-1 -1.6,-1.9 -3.9,-2.2 z"
   class="notHomed_st0" />
	<path
   id="path15"
   d="m 12.5,0.3 c -3.3,0 -5.9,2.7 -5.9,6 0,3.3 5.9,12.2 5.9,12.2 0,0 5.9,-8.9 5.9,-12.2 0,-3.3 -2.6,-6 -5.9,-6 z m 0,9.8 C 10.2,10.1 8.4,8.3 8.4,6 c 0,-2.3 1.8,-4.1 4.1,-4.1 2.3,0 4.1,1.8 4.1,4.1 0,2.3 -1.8,4.1 -4.1,4.1 z"
   class="notHomed_st0" />
	<g
   id="g21">
		<path
   id="path19"
   d="m 12.5,7.9 c -1.1,0 -2.1,-0.9 -2.1,-2.1 0,-1.2 0.9,-2.1 2.1,-2.1 1.2,0 2.1,0.9 2.1,2.1 0,1.2 -1,2.1 -2.1,2.1 z m 0,-3.2 c -0.7,0 -1.2,0.5 -1.2,1.2 0,0.7 0.5,1.2 1.2,1.2 0.7,0 1.2,-0.5 1.2,-1.2 0,-0.7 -0.5,-1.2 -1.2,-1.2 z"
   class="notHomed_st2" />
	</g>

</g>
</svg>
