<?xml version="1.0" encoding="UTF-8" standalone="no"?>
<svg
   viewBox="0 0 32 32"
   version="1.1"
   id="svg13"
   sodipodi:docname="Update.svg"
   inkscape:version="1.2.1 (9c6d41e410, 2022-07-14)"
   width="32"
   height="32"
   xmlns:inkscape="http://www.inkscape.org/namespaces/inkscape"
   xmlns:sodipodi="http://sodipodi.sourceforge.net/DTD/sodipodi-0.dtd"
   xmlns="http://www.w3.org/2000/svg"
   xmlns:svg="http://www.w3.org/2000/svg"
   xmlns:rdf="http://www.w3.org/1999/02/22-rdf-syntax-ns#"
   xmlns:cc="http://creativecommons.org/ns#"
   xmlns:dc="http://purl.org/dc/elements/1.1/">
  <metadata
     id="metadata19">
    <rdf:RDF>
      <cc:Work
         rdf:about="">
        <dc:format>image/svg+xml</dc:format>
        <dc:type
           rdf:resource="http://purl.org/dc/dcmitype/StillImage" />
      </cc:Work>
    </rdf:RDF>
  </metadata>
  <defs
     id="defs17">
    <inkscape:path-effect
       effect="powerclip"
       id="path-effect11577"
       is_visible="true"
       lpeversion="1"
       inverse="true"
       flatten="false"
       hide_clip="false"
       message="Use fill-rule evenodd on &lt;b&gt;fill and stroke&lt;/b&gt; dialog if no flatten result after convert clip to paths." />
    <linearGradient
       id="linearGradient846"
       inkscape:swatch="solid">
      <stop
         style="stop-color:#000000;stop-opacity:1;"
         offset="0"
         id="stop844" />
    </linearGradient>
    <symbol
       id="symbol6583">
      <path
         style="fill:#000000;stroke-width:0.104611"
         d="m 14.860044,31.923681 -1.087338,-0.0756 -0.847266,-0.16985 -0.847273,-0.16985 -1.060822,-0.35316 -1.060821,-0.35315 -0.931011,-0.4679 -0.931012,-0.46789 -0.943937,-0.63186 -0.943937,-0.63185 -0.919038,-0.85414 -0.919038,-0.85415 -1.347056,1.35852 -1.347063,1.35852 -0.33093,0.0665 -0.33093,0.0665 L 0.6378,29.560481 0.263028,29.376651 0.133014,29.115041 0.003,28.853421 0.0015,24.060561 0,19.267691 l 0.152237,-0.29465 0.152237,-0.29464 0.360259,-0.17106 0.360259,-0.17106 h 4.657053 4.657053 l 0.258213,0.0983 0.258213,0.0983 0.219209,0.23546 0.219209,0.23546 v 0.47077 0.47078 l -1.830056,1.84104 -1.830041,1.84163 v 0.11512 0.11513 l 0.700638,0.65589 0.700638,0.65588 0.855112,0.55778 0.855112,0.55777 0.509624,0.22072 0.509623,0.22072 0.6797,0.24302 0.679699,0.24302 0.821634,0.166 0.821626,0.16592 1.269841,-2e-5 1.26984,-10e-6 0.816169,-0.15625 0.816176,-0.15624 0.804717,-0.2691 0.804724,-0.2691 0.862021,-0.45746 0.862029,-0.45747 0.654301,-0.49791 0.654302,-0.4979 0.684764,-0.69006 0.684764,-0.69006 0.478632,-0.67622 0.478556,-0.67622 0.368649,-0.68023 0.36865,-0.68023 0.336297,-1.04649 0.336297,-1.04648 0.151027,-0.43872 0.151028,-0.43872 0.203184,-0.25852 0.203184,-0.25851 0.450891,-0.21845 0.45089,-0.21846 h 0.561403 0.561402 l 0.460717,0.22322 0.460717,0.22321 0.299183,0.41333 0.299182,0.41332 0.06879,0.4586 0.06879,0.4586 -0.129333,0.55309 -0.129334,0.55308 -0.257457,0.83719 -0.257457,0.83719 -0.556716,1.15113 -0.556716,1.15114 -0.624141,0.94183 -0.624141,0.94183 -0.895288,0.95135 -0.895281,0.95134 -0.712732,0.58355 -0.712732,0.58355 -0.907722,0.57032 -0.907723,0.57032 -1.099991,0.48211 -1.099992,0.48211 -0.954293,0.2685 -0.9543,0.26849 -1.010766,0.14407 -1.010766,0.14408 -0.732007,0.0386 -0.732008,0.0386 z m -13.239227,-16.87457 -0.313696,-0.13916 -0.277488,-0.26101 -0.277489,-0.26101 -0.17892,-0.3462 -0.17892,-0.3462 0.05064,-0.89778 L 0.495594,11.89998 0.811633,10.957766 1.127672,10.015553 1.607816,9.0145 2.087959,8.013447 2.675818,7.131206 3.263676,6.248972 3.906488,5.518326 4.5493,4.787679 5.072152,4.29786 5.595003,3.808041 6.013315,3.470232 6.431626,3.132423 7.268211,2.584173 8.104804,2.035924 8.859715,1.657372 9.614626,1.278821 10.2814,1.027637 10.948174,0.776454 11.749935,0.556338 12.551696,0.336221 13.570059,0.168111 14.588421,0 h 1.411745 1.411745 l 0.994695,0.164331 0.994688,0.164332 0.939924,0.271517 0.939915,0.271517 0.888878,0.379307 0.888871,0.379307 0.888878,0.521416 0.88887,0.521415 0.366004,0.265319 0.366004,0.265318 0.731175,0.633137 0.731176,0.633136 0.222006,0.235461 0.222006,0.235461 h 0.143393 0.143393 l 1.326027,-1.324031 1.326018,-1.324023 0.487854,-0.01058 0.487854,-0.01058 0.305154,0.34174 0.30523,0.341739 v 4.869693 4.869701 l -0.157906,0.305618 -0.157906,0.30568 -0.201219,0.10779 -0.201219,0.10779 h -4.87475 -4.874736 l -0.305456,-0.15806 -0.305457,-0.15806 -0.107715,-0.20129 -0.107639,-0.20129 V 12.410115 12.017428 L 22.535962,10.175799 24.365996,8.33417 V 8.219048 8.103925 L 23.697635,7.478197 23.029198,6.852468 22.155135,6.273302 21.281065,5.694136 20.56153,5.370009 19.841995,5.045882 19.149823,4.845117 18.457652,4.644351 17.72315,4.518268 16.988648,4.392185 15.52709,4.442835 14.065532,4.493485 13.022255,4.769386 11.978978,5.045287 10.930781,5.558917 9.88259,6.072547 9.150583,6.62193 8.418576,7.171314 7.669939,7.94618 6.921302,8.721054 6.434506,9.44709 l -0.486795,0.726036 -0.456485,0.968005 -0.456484,0.967997 -0.277261,0.994163 -0.277262,0.99417 -0.250201,0.32942 -0.250201,0.32941 -0.454141,0.22004 -0.454141,0.22005 -0.56828,-0.004 -0.568281,-0.004 z"
         id="path6878" />
    </symbol>
    <clipPath
       clipPathUnits="userSpaceOnUse"
       id="clipPath11573">
      <path
         id="path11575"
         style="display:block;fill:#0000ff;stroke-width:265.977;stroke-opacity:0.302222"
         d="M 12,4.5 A 7.5,7.5 0 0 0 4.5,12 7.5,7.5 0 0 0 5.611328,15.908203 v 1.726562 l 0.148437,0.166016 0.148438,0.166016 0.238281,-0.0039 0.238281,-0.0059 0.496094,-0.496094 A 7.5,7.5 0 0 0 12,19.499965 7.5,7.5 0 0 0 19.5,11.999966 7.5,7.5 0 0 0 18.429688,8.1386377 v -1.81836 l -0.150391,-0.166015 -0.146485,-0.167969 -0.240234,0.0059 -0.238281,0.0059 L 17.125,6.5273907 A 7.5,7.5 0 0 0 12,4.5000467 Z M 12,9 a 3,3 0 0 1 1.943359,0.712891 l -0.126953,0.128906 -0.892578,0.896484 v 0.191407 0.191406 l 0.05078,0.09766 0.05469,0.09766 0.148437,0.07813 0.148438,0.07617 h 1.625 a 3,3 0 0 1 0.04883,0.529297 3,3 0 0 1 -3,3 3,3 0 0 1 -1.939453,-0.722656 l 0.164062,-0.164063 0.890625,-0.896484 v -0.191406 -0.191407 l -0.05078,-0.09961 -0.05469,-0.0957 -0.148438,-0.07813 -0.148437,-0.07617 H 9.054688 a 3,3 0 0 1 -0.05469,-0.484375 3,3 0 0 1 3,-3 z" />
    </clipPath>
  </defs>
  <sodipodi:namedview
     pagecolor="#ffffff"
     bordercolor="#666666"
     borderopacity="1"
     objecttolerance="10"
     gridtolerance="10"
     guidetolerance="10"
     inkscape:pageopacity="0"
     inkscape:pageshadow="2"
     inkscape:window-width="3440"
     inkscape:window-height="1377"
     id="namedview15"
     showgrid="false"
     inkscape:zoom="22.627417"
     inkscape:cx="3.4029514"
     inkscape:cy="23.467106"
     inkscape:window-x="1912"
     inkscape:window-y="1072"
     inkscape:window-maximized="1"
     inkscape:current-layer="svg13"
     inkscape:showpageshadow="0"
     inkscape:pagecheckerboard="1"
     inkscape:deskcolor="#d1d1d1" />
  <title
     id="title2" />
  <path
     d="M 28.118743,2.496555 25.087497,5.5296768 C 22.65625,3.32343 19.462497,1.9990519 16,1.9990519 c -5.90625,0 -11.0881316,3.771253 -12.9012566,9.3874971 -0.3398718,1.050628 0.2373188,2.180006 1.288125,2.517506 1.0606313,0.343744 2.17875,-0.238256 2.5187531,-1.286878 C 8.1812496,8.6553018 11.8375,5.9990549 16,5.9990549 c 2.372494,0 4.562494,0.8862469 6.2625,2.3625 l -2.818753,2.7624931 c -1.000003,1.050001 -0.268753,2.837504 1.206253,2.875004 h 9.181247 C 30.481243,13.980302 31,13.455302 31,12.805305 V 3.689055 C 31,2.1859238 29.18125,1.43343 28.118743,2.496555 Z m -0.50625,15.602493 c -1.058746,-0.339871 -2.179996,0.238257 -2.518743,1.286879 -1.275,3.956878 -4.93125,6.613125 -9.09375,6.613125 -2.372503,0 -4.562503,-0.886247 -6.2625004,-2.3625 l 2.7624944,-2.762504 c 1.056253,-1.05 0.325003,-2.837493 -1.149994,-2.874993 H 2.1662497 c -0.6462562,0.01875 -1.16624993,0.54375 -1.16624993,1.193747 v 9.118753 c 0,1.502493 1.81687493,2.254996 2.87937173,1.191871 l 3.0312469,-3.033121 c 2.4331312,2.203743 5.6268756,3.52875 9.0331316,3.52875 5.903118,0 11.087493,-3.771253 12.9,-9.387507 0.399993,-1.05 -0.181257,-2.23125 -1.231257,-2.5125 z"
     id="path2067"
     style="stroke-width:1" />
</svg>
