<?xml version="1.0" encoding="iso-8859-1"?>
<!-- Generator: Adobe Illustrator 20.0.0, SVG Export Plug-In . SVG Version: 6.00 Build 0)  -->
<svg version="1.1" id="Ebene_1" xmlns="http://www.w3.org/2000/svg" xmlns:xlink="http://www.w3.org/1999/xlink" x="0px" y="0px"
	 viewBox="0 0 35.035 132.973" style="enable-background:new 0 0 35.035 132.973;" xml:space="preserve" class="br-symbol-library">
<g id="Needle4short">
	<path d="M21.807,98.495V2.697C21.807,1.19,20.545,0,19.038,0h-3.462c-1.507,0-2.769,1.19-2.769,2.697v95.912
		C5.557,100.654,0,107.427,0,115.473c0,9.665,7.845,17.5,17.51,17.5s17.525-7.835,17.525-17.5
		C35.035,107.273,29.307,100.394,21.807,98.495z M17.52,124.052c-4.731,0-8.579-3.849-8.579-8.579c0-4.731,3.849-8.579,8.579-8.579
		s8.579,3.849,8.579,8.579C26.099,120.204,22.25,124.052,17.52,124.052z"/>
</g>
<g id="Ebene_1_1_">
</g>
</svg>
