<?xml version="1.0" encoding="iso-8859-1"?>
<!-- Generator: Adobe Illustrator 20.0.0, SVG Export Plug-In . SVG Version: 6.00 Build 0)  -->
<svg version="1.1" id="Ebene_1" xmlns="http://www.w3.org/2000/svg" xmlns:xlink="http://www.w3.org/1999/xlink" x="0px" y="0px"
	 viewBox="0 0 49.888 137.973" style="enable-background:new 0 0 49.888 137.973;" xml:space="preserve" class="br-symbol-library">
<g id="Needle2short">
	<g>
		<path d="M25.449,102.972c-5.514,0-10,4.486-10,10s4.486,10,10,10s10-4.486,10-10S30.963,102.972,25.449,102.972z M25.449,119.222
			c-3.448,0-6.25-2.802-6.25-6.25c0-3.445,2.802-6.25,6.25-6.25c3.445,0,6.25,2.805,6.25,6.25
			C31.699,116.42,28.894,119.222,25.449,119.222z"/>
		<path d="M33.714,89.708v-87.4c0-1.823-0.58-2.307-2.403-2.307h-12.15c-1.823,0-4.197,0.485-4.197,2.307v87.573
			C5.714,93.64,0,102.562,0,112.972c0,13.808,11.417,25,25.224,25s24.664-11.192,24.664-25
			C49.888,102.399,42.964,93.359,33.714,89.708z M40.068,128.023c-3.925,3.998-9.195,6.199-14.838,6.199
			c-5.698,0-11.079-2.216-15.151-6.24c-4.074-4.025-6.317-9.356-6.317-15.01c0-8.933,4.831-16.45,12.626-19.619l2.327-0.95v-2.524
			V3.769c0.25-0.009,0.292-0.021,0.447-0.021h10.803v85.958v2.551l2.384,0.937c8.25,3.258,13.799,11.206,13.799,19.777
			C46.146,118.683,43.991,124.028,40.068,128.023z"/>
	</g>
</g>
<g id="Ebene_1_1_">
</g>
</svg>
