<?xml version="1.0" encoding="iso-8859-1"?>
<!-- Generator: Adobe Illustrator 20.0.0, SVG Export Plug-In . SVG Version: 6.00 Build 0)  -->
<svg version="1.1" id="Ebene_1" xmlns="http://www.w3.org/2000/svg" xmlns:xlink="http://www.w3.org/1999/xlink" x="0px" y="0px"
	 viewBox="0 0 35.035 200.723" style="enable-background:new 0 0 35.035 200.723;" xml:space="preserve" class="br-symbol-library">
<g id="Needle4long">
	<path d="M21.807,166.245V2.615C21.807,1.108,20.545,0,19.038,0h-3.462c-1.507,0-2.769,1.107-2.769,2.615v163.744
		C5.557,168.404,0,175.177,0,183.223c0,9.665,7.845,17.5,17.51,17.5s17.525-7.835,17.525-17.5
		C35.035,175.023,29.307,168.144,21.807,166.245z M17.52,191.802c-4.731,0-8.579-3.849-8.579-8.579c0-4.731,3.849-8.579,8.579-8.579
		s8.579,3.849,8.579,8.579C26.099,187.954,22.25,191.802,17.52,191.802z"/>
</g>
<g id="Ebene_1_1_">
</g>
</svg>
