<?xml version="1.0" encoding="iso-8859-1"?>
<!-- Generator: Adobe Illustrator 20.0.0, SVG Export Plug-In . SVG Version: 6.00 Build 0)  -->
<svg version="1.1" id="Ebene_1" xmlns="http://www.w3.org/2000/svg" xmlns:xlink="http://www.w3.org/1999/xlink" x="0px" y="0px"
	 viewBox="0 0 42.98 135.97" style="enable-background:new 0 0 42.98 135.97;" xml:space="preserve" class="br-symbol-library">
<g id="Needle3short">
	<path d="M24.957,114.338v0.162H24.94c-0.253,2-1.955,3.538-4.02,3.538s-3.767-1.538-4.02-3.538h0.003
		c0.255,2,1.955,3.528,4.017,3.528s3.762-1.537,4.017-3.527c0.003-0.003,0.002-0.007,0.002-0.01
		C24.948,114.44,24.957,114.388,24.957,114.338z M42.98,114.472c0,11.872-9.657,21.497-21.53,21.497
		C9.578,135.97,0,126.345,0,114.472c0-8.227,4.457-15.375,11.457-18.987V3.424C11.457,1.601,12.81,0,14.632,0h12.15
		c1.823,0,3.425,1.6,3.425,3.423v91.37C37.707,98.125,42.98,105.683,42.98,114.472z M24.975,113.972c0-0.032,0-0.062-0.002-0.095
		c-0.005-0.095-0.015-0.193-0.015-0.285V45.847c0-0.415-0.32-0.848-0.732-0.848h-6.61c-0.415,0-0.658,0.433-0.658,0.848v67.265
		c0,0.278-0.092,0.565-0.092,0.86c0,0.175,0.01,0.347,0.035,0.517c0,0.003,0,0.01,0,0.01l0,0c0.253,2,1.955,3.538,4.02,3.538
		s3.767-1.538,4.02-3.538h0.017v-0.162c0-0.09,0.01-0.182,0.015-0.272C24.975,114.035,24.975,114.002,24.975,113.972z
		 M16.865,113.972c0,0.175,0.01,0.347,0.035,0.517c0,0.003,0,0.01,0,0.01h0.057v-1.387C16.957,113.39,16.865,113.678,16.865,113.972
		z M24.973,113.877c-0.005-0.095-0.015-0.193-0.015-0.285v0.745c0-0.09,0.01-0.182,0.015-0.272c0.002-0.03,0.003-0.062,0.003-0.093
		C24.975,113.94,24.975,113.91,24.973,113.877z M16.9,114.489c0,0.003,0,0.01,0,0.01h0.057v-1.387c0,0.278-0.092,0.565-0.092,0.86
		C16.865,114.148,16.875,114.32,16.9,114.489z M24.973,113.877c0-0.095-0.015-0.193-0.015-0.285v0.745
		c0-0.09,0.015-0.18,0.015-0.272c0.002-0.03,0.003-0.062,0.003-0.093C24.975,113.94,24.975,113.91,24.973,113.877z M24.94,114.489
		c0,0.003,0,0.008-0.003,0.01h0.02v-0.163C24.953,114.388,24.948,114.44,24.94,114.489z"/>
</g>
<g id="Ebene_1_1_">
</g>
</svg>
