<?xml version="1.0" encoding="iso-8859-1"?>
<!-- Generator: Adobe Illustrator 20.0.0, SVG Export Plug-In . SVG Version: 6.00 Build 0)  -->
<svg version="1.1" id="Ebene_1" xmlns="http://www.w3.org/2000/svg" xmlns:xlink="http://www.w3.org/1999/xlink" x="0px" y="0px"
	 viewBox="0 0 49.984 207.973" style="enable-background:new 0 0 49.984 207.973;" xml:space="preserve" class="br-symbol-library">
<g id="Needle1long">
	<path d="M34.1,159.706V3.3c0-1.822-1.352-3.3-3.175-3.3h-12.15c-1.822,0-3.425,1.477-3.425,3.3v156.579
		C6.35,163.64,0,172.563,0,182.973c0,13.807,11.224,25,25.031,25s24.953-11.193,24.953-25C49.984,172.4,43.6,163.361,34.1,159.706z
		 M25.062,189.223c-3.446,0-6.25-2.804-6.25-6.25s2.804-6.25,6.25-6.25s6.25,2.804,6.25,6.25S28.509,189.223,25.062,189.223z"/>
</g>
<g id="Ebene_1_1_">
</g>
</svg>
