<?xml version="1.0" encoding="iso-8859-1"?>
<!-- Generator: Adobe Illustrator 20.0.0, SVG Export Plug-In . SVG Version: 6.00 Build 0)  -->
<svg version="1.1" id="Ebene_1" xmlns="http://www.w3.org/2000/svg" xmlns:xlink="http://www.w3.org/1999/xlink" x="0px" y="0px"
	 viewBox="0 0 42.995 204.47" style="enable-background:new 0 0 42.995 204.47;" xml:space="preserve" class="br-symbol-library">
<g id="Needle3long">
	<path d="M30.785,163.585V3.3c0-1.823-1.602-3.3-3.425-3.3H15.21c-1.823,0-3.175,1.478-3.175,3.3v160.387
		c0,0.013-0.052,0.027-0.08,0.04C4.895,167.25,0,174.545,0,182.973c0,11.872,9.625,21.497,21.498,21.497s21.497-9.625,21.497-21.497
		C42.995,174.43,38.035,167.053,30.785,163.585z M21.52,186.528c-2.062,0-3.74-1.528-3.995-3.528h0.01v-0.527V70.725
		c0-0.415,0.243-0.725,0.658-0.725h6.61c0.413,0,0.732,0.31,0.732,0.725v111.969c-0.001,0.083-0.004,0.174-0.017,0.306l0,0
		C25.263,185,23.583,186.528,21.52,186.528z"/>
</g>
<g id="Ebene_1_1_">
</g>
</svg>
