<?xml version="1.0" encoding="iso-8859-1"?>
<!-- Generator: Adobe Illustrator 20.0.0, SVG Export Plug-In . SVG Version: 6.00 Build 0)  -->
<svg version="1.1" id="Ebene_1" xmlns="http://www.w3.org/2000/svg" xmlns:xlink="http://www.w3.org/1999/xlink" x="0px" y="0px"
	 viewBox="0 0 32 32" style="enable-background:new 0 0 32 32;" xml:space="preserve" width="32px" height="32px" class="br-symbol-library">
<g id="Calibrate">
	<path d="M1.5,13.75H7v-2.996c0-0.374,0.189-0.462,0.452-0.199l5.798,5.075c0.264,0.264,0.277,0.696,0.014,0.959l-5.811,5.075
		C7.189,21.928,7,21.839,7,21.466V18.5H1.5V13.75z M30.5,13.75H25v-2.996c0-0.374-0.241-0.462-0.505-0.199l-5.837,5.075
		c-0.264,0.264-0.27,0.696-0.006,0.959l5.847,5.075c0.264,0.264,0.502,0.175,0.502-0.199V18.5H30.5V13.75z M18.5,30.5V25h2.856
		c0.374,0,0.462-0.134,0.199-0.397l-5.075-5.784c-0.264-0.264-0.696-0.236-0.959,0.027l-5.075,5.749
		C10.182,24.859,10.271,25,10.644,25h3.106v5.5H18.5z M13.75,1.5V7h-3.106c-0.374,0-0.462,0.289-0.199,0.553l5.075,5.886
		c0.264,0.264,0.696,0.256,0.959-0.008l5.075-5.874C21.818,7.293,21.729,7,21.356,7H18.5V1.5H13.75z M16.961,16.11
		c0-0.531-0.43-0.961-0.961-0.961s-0.961,0.43-0.961,0.961c0,0.531,0.43,0.961,0.961,0.961S16.961,16.641,16.961,16.11z"/>
</g>
<g id="Ebene_1_1_">
</g>
</svg>
