<?xml version="1.0" encoding="utf-8"?>
<!-- Generator: Adobe Illustrator 20.0.0, SVG Export Plug-In . SVG Version: 6.00 Build 0)  -->
<svg version="1.1" id="Ebene_1" xmlns="http://www.w3.org/2000/svg" xmlns:xlink="http://www.w3.org/1999/xlink" x="0px" y="0px"
	 viewBox="0 0 32 32" style="enable-background:new 0 0 32 32;" xml:space="preserve" width="32px" height="32px" class="br-symbol-library">
<g id="AddUser">
	<path d="M26.2,26.5c0,0.5,0,2.7,0,2.7c0,0.3-0.3,0.5-0.6,0.5H0.5c-0.3,0-0.5-0.2-0.5-0.5c0,0,0-2.2,0-2.7c0-1.2,0.3-1.7,1.2-2.2
		C1.9,23.8,6.8,21,9.2,20v-4.3C8.5,15.2,8,14.4,8,13.1c0-2.9,0-3.4,0-3.4c0-2.8,1.7-5.1,5.1-5.1s5.1,2.3,5.1,5.1v3.4
		c0,1.2-0.5,2-1,2.5V20c2.2,1,7.2,3.8,7.9,4.3C26.1,24.8,26.2,25.3,26.2,26.5z M27.359797,5.4999594 v 2.799979 c 0,0.879993 
		-0.719994,1.679987 -1.599988,1.679987 h -5.35996 c -0.879994,0 -1.599988,-0.799994 -1.599988,-1.679987 v -5.35996 c 0,
		-0.879994 0.719994,-1.5199891 1.599988,-1.5199891 h 5.35996 c 0.08,0 0.239998,0 0.319998,0 l -0.879994,0.8799931 h -4.799964
		c -0.399997,0 -0.719995,0.319998 -0.719995,0.639996 v 5.35996 c 0,0.399997 0.319998,0.799994 0.719995,0.799994 h 5.35996 c 
		0.399997,0 0.719995,-0.399997 0.719995,-0.799994 v -1.839986 z m 2.79998,-4.3999681 -1.039993,-1.03999205 c -0.08,-0.079999 
		-0.239998,-0.079999 -0.399997,0 l -0.639995,0.7199951 1.35999,1.35999005 0.719995,-0.7199951 c 0.08,-0.08 0.08,-0.239998 0,
		-0.319998 z m -5.919957,6.2399541 -1.359989,-1.35999 -0.799995,1.9999849 c 0,0.08 0,0.159999 0.159999,0.08 z m 4.799965,
		-4.799964 -1.35999,-1.35999 -4.399967,4.319968 1.439989,1.35999 z"/>
</g>
<g id="Ebene_1_1_">
</g>
</svg>
