<?xml version="1.0" encoding="utf-8"?>
<!-- Generator: Adobe Illustrator 20.0.0, SVG Export Plug-In . SVG Version: 6.00 Build 0)  -->
<svg version="1.1" id="Ebene_1" xmlns="http://www.w3.org/2000/svg" xmlns:xlink="http://www.w3.org/1999/xlink" x="0px" y="0px"
	 viewBox="0 0 32 32" style="enable-background:new 0 0 32 32;" xml:space="preserve" width="32px" height="32px" class="br-symbol-library">
<g id="Logout">
	<path d="M18.2,5.4H14v2h4.3v4h2v-4C20.3,6.2,19.4,5.4,18.2,5.4z M18.3,20.9v3.8H14v2h4.2c1.2,0,2.1-0.9,2.1-2.1v-3.7H18.3z
		 M12.4,3.4c-0.2-0.1-0.4-0.2-0.6-0.2c-0.1,0-0.2,0-0.3,0L0.8,5.3C0.4,5.4,0.3,5.6,0.2,5.7C0.1,5.9,0,6.1,0,6.4v19.3
		c0,0.4,0.1,0.6,0.2,0.7c0.1,0.1,0.3,0.3,0.6,0.4l10.7,2.1c0.1,0,0.2,0,0.3,0c0.2,0,0.4-0.1,0.6-0.2c0.3-0.2,0.4-0.5,0.4-0.9V4.2
		C12.8,3.9,12.6,3.6,12.4,3.4z M9.1,16.5c-0.6,0-1.1-0.5-1.1-1.1c0-0.6,0.5-1.1,1.1-1.1c0.6,0,1.1,0.5,1.1,1.1
		C10.2,16.1,9.7,16.5,9.1,16.5z M31.8,16.3l-3.3,3.3l-2.1,2.1l-2.5,2.4c-0.1,0.1-0.2,0.1-0.3,0.1c-0.2,0-0.3-0.1-0.3-0.3v-4.5h-7.8
		c-0.3,0-0.7-0.5-0.7-0.8v-5.4c0-0.3,0.4-0.3,0.7-0.3h7.8v-5c0-0.2,0.2-0.3,0.3-0.3c0.1,0,0.2,0,0.3,0.1l2.5,2.4l2.1,2.1l3.3,3.3
		C32.1,15.7,32,16.1,31.8,16.3z"/>
</g>
<g id="Ebene_1_1_">
</g>
</svg>
