<?xml version="1.0" encoding="utf-8"?>
<!-- Generator: Adobe Illustrator 20.0.0, SVG Export Plug-In . SVG Version: 6.00 Build 0)  -->
<svg version="1.1" id="Ebene_1" xmlns="http://www.w3.org/2000/svg" xmlns:xlink="http://www.w3.org/1999/xlink" x="0px" y="0px"
	 viewBox="0 0 32 32" style="enable-background:new 0 0 32 32;" xml:space="preserve" width="32px" height="32px" class="br-symbol-library">
<g id="NoAccessRights">
	<path id="Keine_Berechtigung_3_" d="M26.3,2.2c-3.1,0-5.7,2.5-5.7,5.7c0,3.1,2.5,5.7,5.7,5.7S32,11,32,7.9
		C32,4.8,29.5,2.2,26.3,2.2z M26.3,12.1c-2.3,0-4.2-1.9-4.2-4.2c0-0.8,0.2-1.6,0.7-2.3l5.9,5.9C27.9,11.9,27.2,12.1,26.3,12.1z
		 M29.9,10.2l-5.9-5.9c0.7-0.4,1.4-0.7,2.3-0.7c2.3,0,4.2,1.9,4.2,4.2C30.6,8.7,30.3,9.5,29.9,10.2z M25.2,24.2
		c-0.7-0.4-5.7-3.3-7.9-4.3v-4.3c0.5-0.5,1-1.3,1-2.5V9.7c0-2.8-1.7-5.1-5.1-5.1C9.7,4.5,8,6.8,8,9.7c0,0,0,0.6,0,3.4
		c0,1.2,0.5,2,1.3,2.6v4.3c-2.5,1-7.3,3.8-8.1,4.3c-0.9,0.5-1.2,1-1.2,2.2c0,0.5,0,2.7,0,2.7c0,0.3,0.2,0.7,0.5,0.7h25.2
		c0.3,0,0.6-0.3,0.6-0.7c0,0,0-2.2,0-2.7C26.3,25.2,26.1,24.7,25.2,24.2z"/>
</g>
<g id="Ebene_1_1_">
</g>
</svg>
