<svg id="Layer_1" data-name="Layer 1" xmlns="http://www.w3.org/2000/svg" xmlns:xlink="http://www.w3.org/1999/xlink" viewBox="0 0 200 200"><defs><style>.cls-1{fill:none;}.cls-2{clip-path:url(#clip-path);}</style><clipPath id="clip-path"><rect class="cls-1" x="13.63" y="18.57" width="171.48" height="171.72"/></clipPath></defs><g class="cls-2"><path d="M99.33,18.6a85.73,85.73,0,1,0,85.73,85.72A85.85,85.85,0,0,0,99.33,18.6ZM55.42,162.87a43.91,43.91,0,0,1,87.82,0,73.17,73.17,0,0,1-87.82,0ZM80.51,87.6a18.82,18.82,0,1,1,18.82,18.81A18.74,18.74,0,0,1,80.51,87.6Zm74,64.4a56.6,56.6,0,0,0-34.29-41.4,31,31,0,0,0,10-23,31.37,31.37,0,1,0-62.73,0,30.92,30.92,0,0,0,10,23A56.6,56.6,0,0,0,43.3,152c-10.88-13-18-29.28-18-47.68,0-40.14,33-73.18,73.19-73.18s74,33,74,73.18a71.69,71.69,0,0,1-18,47.68Zm0,0"/></g></svg>