<?xml version="1.0" encoding="UTF-8" standalone="no"?>
<svg
   xmlns:dc="http://purl.org/dc/elements/1.1/"
   xmlns:cc="http://creativecommons.org/ns#"
   xmlns:rdf="http://www.w3.org/1999/02/22-rdf-syntax-ns#"
   xmlns:svg="http://www.w3.org/2000/svg"
   xmlns="http://www.w3.org/2000/svg"
   xmlns:sodipodi="http://sodipodi.sourceforge.net/DTD/sodipodi-0.dtd"
   xmlns:inkscape="http://www.inkscape.org/namespaces/inkscape"
   data-name="Layer 1"
   id="Layer_1"
   viewBox="0 0 512 512"
   version="1.1"
   sodipodi:docname="UserExport.svg"
   inkscape:version="1.0.1 (3bc2e813f5, 2020-09-07)">
  <metadata
     id="metadata9">
    <rdf:RDF>
      <cc:Work
         rdf:about="">
        <dc:format>image/svg+xml</dc:format>
        <dc:type
           rdf:resource="http://purl.org/dc/dcmitype/StillImage" />
      </cc:Work>
    </rdf:RDF>
  </metadata>
  <defs
     id="defs7" />
  <sodipodi:namedview
     pagecolor="#ffffff"
     bordercolor="#666666"
     borderopacity="1"
     objecttolerance="10"
     gridtolerance="10"
     guidetolerance="10"
     inkscape:pageopacity="0"
     inkscape:pageshadow="2"
     inkscape:window-width="3440"
     inkscape:window-height="1377"
     id="namedview5"
     showgrid="false"
     inkscape:zoom="1.96875"
     inkscape:cx="256"
     inkscape:cy="256"
     inkscape:window-x="1912"
     inkscape:window-y="1072"
     inkscape:window-maximized="1"
     inkscape:current-layer="Layer_1"
     inkscape:document-rotation="0" />
  <path
     d="m 421.24,269.93 h 30 v 159.91 c -0.0331,26.86047 -21.79953,48.62694 -48.66,48.66 H 82.77 C 55.90953,478.46694 34.143059,456.70047 34.11,429.84 V 110 C 34.159577,83.151246 55.921221,61.403019 82.77,61.37 h 159.91 v 30 H 82.77 C 72.480623,91.38098 64.137535,99.710654 64.11,110 v 319.84 c 0.01102,10.30106 8.358936,18.64898 18.66,18.66 h 319.81 c 10.30106,-0.011 18.64898,-8.35894 18.66,-18.66 z m -69,-236.43 v 30 h 74.4 L 268.80159,221.37841 293.56714,242.08048 447.89,84.71 v 74.4 h 30 V 33.5 Z"
     id="path2"
     sodipodi:nodetypes="ccccccccccccccccccccccccccc" />
  <g
     id="UserGroup"
     transform="matrix(11.015873,0,0,11.015873,66.698413,176.11825)">
    <path
       d="m 32,23.2 v 1.5 c 0,0.2 -0.2,0.3 -0.4,0.3 h -5.2 c 0,-0.2 0.1,-0.2 0.1,-0.4 v -1.9 c 0,-1.1 -0.2,-2 -1.4,-2.7 -0.1,0 -0.2,-0.1 -0.3,-0.2 -0.4,-0.3 -1.2,-0.7 -2,-1.1 0,0 0,0 0,0 V 17.4 C 22.2,17 22,16.6 22,15.9 22,14.3 22,14 22,14 c 0,-1.5 1,-2.8 2.9,-2.8 1.9,0 2.9,1.3 2.9,2.8 v 1.9 c 0,0.7 -0.2,1.1 -0.8,1.4 v 2.4 c 0.8,0.3 1.7,0.8 2.6,1.3 0.9,0.5 1.6,0.9 1.8,1 0.5,0.2 0.6,0.5 0.6,1.2 z M 0.3,24.9 h 5.2 c 0,-0.2 0,-0.2 0,-0.4 v -1.9 c 0,-1.1 0.2,-2 1.4,-2.7 H 7 C 7.4,19.7 8.2,19.2 9.2,18.7 V 17.3 C 9.8,17 10,16.6 10,15.9 V 14 c 0,-1.5 -1,-2.8 -2.9,-2.8 -1.9,0 -2.9,1.3 -2.9,2.8 0,0 0,0.3 0,1.9 0,0.7 0.2,1.1 0.8,1.4 v 2.3 C 4.2,19.9 3.3,20.4 2.4,20.9 1.5,21.4 0.8,21.8 0.6,21.9 0.1,22.2 0,22.5 0,23.2 v 1.5 c 0,0.1 0.1,0.2 0.3,0.2 z M 24.4,21.1 C 24.1,21 23.2,20.4 22.1,19.8 20.9,19.2 19.7,18.5 18.7,18.1 V 15 c 0.5,-0.4 1,-0.9 1,-1.8 v -2.4 c 0,-2 -1.3,-3.7 -3.8,-3.7 -2.5,0 -3.8,1.6 -3.8,3.7 0,0 0,0.4 0,2.4 0,0.9 0.5,1.4 1,1.8 v 3 c -1,0.4 -2.2,1.1 -3.4,1.7 -1.1,0.6 -2.1,1.2 -2.4,1.3 -0.7,0.4 -0.8,0.7 -0.8,1.6 0,0.3 0,1.9 0,1.9 0,0.2 0.1,0.4 0.3,0.4 h 17.8 c 0.2,0 0.4,-0.1 0.4,-0.4 0,0 0,-1.6 0,-1.9 0.2,-0.8 0.1,-1.2 -0.6,-1.5 z"
       id="path2-9" />
  </g>
</svg>
