<?xml version="1.0" encoding="iso-8859-1"?>
<!-- Generator: Adobe Illustrator 20.0.0, SVG Export Plug-In . SVG Version: 6.00 Build 0)  -->
<svg version="1.1" xmlns="http://www.w3.org/2000/svg" xmlns:xlink="http://www.w3.org/1999/xlink" x="0px" y="0px"
	 viewBox="0 0 32 32" style="enable-background:new 0 0 32 32;" xml:space="preserve" width="32px" height="32px" class="br-symbol-library">
<g id="Browser">
	<path d="M16,0C7.163,0,0,7.163,0,16c0,8.835,7.163,16,16,16c8.838,0,16-7.165,16-16C32,7.163,24.838,0,16,0z M10.838,4.08
		C9.952,5.055,9.025,6.5,8.273,8H5.827C7.14,6.25,8.857,4.953,10.838,4.08z M4.29,10.5h3.07c-0.335,1.25-0.555,2.75-0.64,4.25H3.168
		C3.308,13.25,3.7,11.75,4.29,10.5z M4.315,21.25c-0.595-1.25-0.997-2.5-1.145-4h3.55c0.085,1.5,0.305,3,0.64,4H4.315z M5.868,24
		h2.405c0.732,1.5,1.622,2.86,2.488,3.825C8.833,26.962,7.16,25.5,5.868,24z M14.82,28.07c-0.75-0.452-2.505-1.82-3.858-4.07h3.858
		V28.07z M14.82,21.25H9.875c-0.385-1-0.66-2.5-0.757-4h5.703V21.25z M14.82,14.75H9.118c0.098-1.5,0.372-3,0.757-4.25h4.945V14.75z
		 M14.82,8h-3.858c1.352-2.5,3.108-3.602,3.858-4.055V8z M27.765,10.5c0.588,1.25,0.98,2.75,1.123,4.25h-3.605
		c-0.087-1.5-0.307-3-0.643-4.25H27.765z M26.225,8h-2.497c-0.765-1.75-1.705-2.982-2.603-3.965C23.145,4.905,24.893,6.25,26.225,8z
		 M17.32,3.945C18.07,4.398,19.685,5.5,21.038,8H17.32V3.945z M17.32,10.5h4.807c0.383,1.25,0.658,2.75,0.755,4.25H17.32V10.5z
		 M17.32,17.25h5.562c-0.098,1.5-0.372,3-0.755,4H17.32V17.25z M17.32,28.073V24h3.717C19.685,26.25,18.07,27.62,17.32,28.073z
		 M21.202,27.87c0.875-0.97,1.783-2.37,2.525-3.87h2.458C24.875,25.5,23.168,27.007,21.202,27.87z M27.738,21.25H24.64
		c0.335-1,0.555-2.5,0.643-4h3.603C28.738,18.75,28.335,20,27.738,21.25z"/>
</g>
<g id="Ebene_1">
</g>
</svg>
