<?xml version="1.0" encoding="utf-8"?>
<!-- Generator: Adobe Illustrator 20.0.0, SVG Export Plug-In . SVG Version: 6.00 Build 0)  -->
<svg version="1.1" id="Ebene_1" xmlns="http://www.w3.org/2000/svg" xmlns:xlink="http://www.w3.org/1999/xlink" x="0px" y="0px"
	 viewBox="0 0 32 32" style="enable-background:new 0 0 32 32;" xml:space="preserve" width="32px" height="32px" class="br-symbol-library">
<g id="Flag">
	<path d="M28.4,0.9c-6.2-1.7-8.2,2.3-13.1,2.3c-3.2,0-5.5-0.7-6.7-1.3C8,1.6,7.5,1.9,7.5,2.6v14.3c0,0.7,0.5,1.6,1.1,1.9
		c1.2,0.6,3.4,1.3,6.7,1.3c4.9,0,7-4,13.1-2.3c0.7,0.2,1.3-0.2,1.3-0.9V2.6C29.7,1.9,29.1,1.1,28.4,0.9z M4.3,0c-1.1,0-2,0.7-2,1.6
		c0,0.1,0,28.9,0,28.9h0.1c0,0,0,0,0,0.1c0,0.9,0.9,1.4,2,1.4c1.1,0,1.9-0.5,1.9-1.5h0c0,0,0-28.8,0-28.9C6.3,0.7,5.3,0,4.3,0z"/>
</g>
<g id="Ebene_1_1_">
</g>
</svg>
