<?xml version="1.0" encoding="iso-8859-1"?>
<!-- Generator: Adobe Illustrator 20.0.0, SVG Export Plug-In . SVG Version: 6.00 Build 0)  -->
<svg version="1.1" xmlns="http://www.w3.org/2000/svg" xmlns:xlink="http://www.w3.org/1999/xlink" x="0px" y="0px"
	 viewBox="0 0 32 32" style="enable-background:new 0 0 32 32;" xml:space="preserve" width="32px" height="32px" class="br-symbol-library">
<g id="GreatBritain">
	<g>
		<defs>
			<circle id="SVGID_1_" cx="16" cy="16" r="15.5"/>
		</defs>
		<use xlink:href="#SVGID_1_"  style="overflow:visible;fill:#FFFFFF;"/>
		<clipPath id="SVGID_2_">
			<use xlink:href="#SVGID_1_"  style="overflow:visible;"/>
		</clipPath>
		<g style="clip-path:url(#SVGID_2_);">
			<defs>
				<rect id="SVGID_3_" x="-1.5" y="-0.008" width="35" height="32"/>
			</defs>
			<clipPath id="SVGID_4_">
				<use xlink:href="#SVGID_3_"  style="overflow:visible;"/>
			</clipPath>
			<polygon style="clip-path:url(#SVGID_4_);fill:#BD0034;" points="21.937,13.242 33.5,6.678 33.5,5.742 32.723,5.742 
				19.522,13.242 			"/>
			<polygon style="clip-path:url(#SVGID_4_);fill:#BD0034;" points="21.404,19.242 33.5,26.034 33.5,24.698 23.823,19.242 			"/>
			<polygon style="clip-path:url(#SVGID_4_);fill:#BD0034;" points="-1.5,7.302 8.845,13.242 11.264,13.242 -1.5,5.971 			"/>
			<polygon style="clip-path:url(#SVGID_4_);fill:#BD0034;" points="10.683,19.242 -1.5,26.125 -1.5,26.242 0.674,26.242 
				13.12,19.242 			"/>
			<polygon style="clip-path:url(#SVGID_4_);fill:#1A237B;" points="31.242,5.793 19,-6.317 19,12.629 			"/>
			<polygon style="clip-path:url(#SVGID_4_);fill:#1A237B;" points="13.5,-6.317 1.25,5.793 13.5,12.629 			"/>
			<polygon style="clip-path:url(#SVGID_4_);fill:#1A237B;" points="33.5,13.242 33.5,8.455 25.197,13.242 			"/>
			<polygon style="clip-path:url(#SVGID_4_);fill:#1A237B;" points="33.5,23.814 33.5,19.242 25.197,19.242 			"/>
			<polygon style="clip-path:url(#SVGID_4_);fill:#1A237B;" points="1.96,26.207 13.5,35.895 13.5,19.821 			"/>
			<polygon style="clip-path:url(#SVGID_4_);fill:#1A237B;" points="19,35.895 30.561,26.207 19,19.821 			"/>
			<polygon style="clip-path:url(#SVGID_4_);fill:#1A237B;" points="-1.5,19.242 -1.5,24.083 7.09,19.242 			"/>
			<polygon style="clip-path:url(#SVGID_4_);fill:#1A237B;" points="-1.5,13.242 7.09,13.242 -1.5,8.277 			"/>
			<polygon style="clip-path:url(#SVGID_4_);fill:#BD0034;" points="14.5,-6.258 14.5,14.492 -1.5,14.492 -1.5,17.992 14.5,17.992 
				14.5,35.992 17.75,35.992 17.75,17.992 33.5,17.992 33.5,14.492 17.75,14.492 17.75,-6.258 			"/>
		</g>
	</g>
	<g>
		<path d="M16,1.5c7.995,0,14.5,6.505,14.5,14.5S23.995,30.5,16,30.5S1.5,23.995,1.5,16S8.005,1.5,16,1.5 M16,0
			C7.163,0,0,7.163,0,16s7.163,16,16,16s16-7.163,16-16S24.837,0,16,0L16,0z"/>
	</g>
</g>
<g id="Ebene_1">
</g>
</svg>
