<?xml version="1.0" encoding="utf-8"?>
<!-- Generator: Adobe Illustrator 20.0.0, SVG Export Plug-In . SVG Version: 6.00 Build 0)  -->
<svg version="1.1" id="Ebene_1" xmlns="http://www.w3.org/2000/svg" xmlns:xlink="http://www.w3.org/1999/xlink" x="0px" y="0px"
	 viewBox="0 0 32 32" style="enable-background:new 0 0 32 32;" xml:space="preserve" width="32px" height="32px" class="br-symbol-library">
<g id="Language">
	<path d="M16,0.5c-6.2,0-12,3.4-14.6,8.4c-1,2.1-1.5,4.3-1.4,6.5c0.1,2.2,0.8,4.3,1.9,6.2c0.6,0.9,1.2,1.8,2,2.6
		C3.7,27.3,1.4,31,1.4,31c-0.1,0.4,0.1,0.6,0.6,0.4c0,0,5.5-1.9,7.8-3.5c3.6,1.3,7.7,1.5,11.4,0.4c3.6-1.1,6.6-3.3,8.5-6.1
		c0,0,0,0,0,0c1.2-1.8,2-3.9,2.3-6c0-0.4,0.1-0.8,0.1-1.1C32.1,7.2,24.9,0.5,16,0.5z M10.1,8.2c0.1-0.1,0.4-0.1,0.5-0.3
		c0.4-0.5-0.2-0.9-0.4-1.2c0.4-1.1,2.8,0.7,1.5,1.7C11.4,8.6,9.8,8.6,10.1,8.2z M21.5,22.7c0,0.5-0.4,1.6-1.1,1.6
		c-0.5,0-0.5-0.6-0.5-0.9c0.2-1.1,0.7-1.3,1.4-2.1C21.8,21.5,21.5,22.2,21.5,22.7z M29.7,15.4c-0.3-0.1-0.2-0.8-0.4-1
		c-0.6,0.1-1.6,1-1.9,1.5c-0.2,0.3,0.2,1.5-0.6,1.5c-0.3,0-0.4-1-0.5-1.1c-0.1-0.5-0.2-1-0.4-1.4c-0.3-0.5-0.5-0.2-0.9-0.3
		c-0.5-0.1-0.4-0.7-1.2-0.8c-0.7-0.1-0.9,0.4-0.8,1c-0.6,0.6-1.5,1.5-2.5,1.5c-0.7,0-0.7-1.9-1.6-2.2c-0.4-0.2-1,0.2-0.7,0.6
		c0.4,0.4,0.4,0.9,0.8,1.3c0.8,0.6,1.5,1.3,2.6,0.5c-0.1,1.1-1,1.7-1.8,2.5c-0.4,0.4-0.7,1-0.6,1.6c0.1,0.5,0.5,1.2,0.1,1.6
		c-0.3,0.3-1,0.5-1,1c0.1,0.2,0.1,0.4,0.1,0.6c-0.1,0.3-0.5,0.4-0.6,0.7C17.6,25,17,26,16.3,26.2c-0.3,0.1-1.2,0.3-1.4,0.1
		c-0.7-0.8-0.5-2.6-0.9-3.5c-0.3-0.6,0.2-0.9,0.2-1.5c0-0.4-0.3-0.8-0.5-1.1c-0.3-0.5-0.2-0.8-0.2-1.2c0-0.5-0.5-0.2-0.8-0.4
		c-0.3-0.2-0.4-0.5-0.8-0.3c-0.4,0.2-1.6,0.4-2,0.3c-0.6-0.1-1.4-1.3-1.6-1.8c-0.2-0.5,0.3-0.9,0.1-1.3c-0.2-0.4,0-0.8,0.3-1.1
		c0.5-0.5,1-1.3,1.7-1.7c0.4-0.2,1,0,1.5-0.1c0.5-0.1,1.2-0.3,1.6-0.2c0.5,0.1-0.1,0.6,0.3,0.7c0.4,0.2,0.7,0.4,1.1,0.6
		c0.4,0.2,0.5-0.4,0.8-0.5c0.3-0.1,0.8-0.1,1.1-0.1c0.7,0.1,2-0.3,1.4-1.2c-0.2-0.3-0.9-0.4-1.2-0.5c-0.4-0.2-0.2-0.8-0.8-0.8
		c-0.4,0.1,0.2,0.5,0,0.7c-0.3,0.4-0.8-0.5-0.9-0.6c-0.1-0.1-1-1.3-1.4-1.1c-0.1,0.1,1.6,1.8,0.3,1.5c0-0.5-0.5-0.5-0.8-0.8
		c-0.4-0.4-0.7-0.2-1.1,0.1c-0.4,0.3-1,0.8-1.6,1c-1.1,0.5-0.9-0.6-0.9-1.2c0-0.4,0.7-0.2,0.9-0.3c0.7-0.3,0-0.6-0.2-0.9
		c0.2-0.3,1.5-0.6,1.9-0.7C13.3,8.2,14,7.6,15,8.1c0.1,0.1,1.4-0.6,0.5-0.8c-1-0.5-1,0.2-1.8,0.4c0-0.7-2-0.8-1.3-1.8
		c0.6-0.8,1.1-0.9,2.9-1c1.3-0.1,1.9,0,2.2,0.2c0.3,0.2,0.4,1-0.3,1.1c0.1,1,1.3,0.1,1.7-0.2c0.7-0.4,2.3-0.2,2.5-0.3
		c0.1-0.1,0-0.4,0-0.6c0-0.1,0-0.2,0.1-0.3c0.2-0.3,0.6-0.1,0.7,0.1c0.8,0.1,1.2-0.4,2,0.1c1.3,0.8,2.5,1.8,3.5,3
		c0.9,1.1,1.6,2.5,2,4.2C30.2,13.7,30.3,15.5,29.7,15.4z"/>
</g>
<g id="Ebene_1_1_">
</g>
</svg>
