<?xml version="1.0" encoding="iso-8859-1"?>
<!-- Generator: Adobe Illustrator 20.0.0, SVG Export Plug-In . SVG Version: 6.00 Build 0)  -->
<svg version="1.1" xmlns="http://www.w3.org/2000/svg" xmlns:xlink="http://www.w3.org/1999/xlink" x="0px" y="0px"
	 viewBox="0 0 32 32" style="enable-background:new 0 0 32 32;" xml:space="preserve" width="32px" height="32px" class="br-symbol-library">
<g id="Portugal">
	<g>
		<defs>
			<circle id="SVGID_1_" cx="16" cy="16" r="15.5"/>
		</defs>
		<clipPath id="SVGID_2_">
			<use xlink:href="#SVGID_1_"  style="overflow:visible;"/>
		</clipPath>
		<g style="clip-path:url(#SVGID_2_);">
			<defs>
				<rect id="SVGID_3_" x="-7.25" y="0.492" width="53.25" height="31"/>
			</defs>
			<clipPath id="SVGID_4_">
				<use xlink:href="#SVGID_3_"  style="overflow:visible;"/>
			</clipPath>
			<rect x="11.25" y="0.492" style="clip-path:url(#SVGID_4_);fill:#EA0020;" width="34.75" height="31"/>
			<rect x="-7.25" y="0.492" style="clip-path:url(#SVGID_4_);fill:#2A680B;" width="18.5" height="31"/>
			<g style="clip-path:url(#SVGID_4_);">
				<defs>
					<rect id="SVGID_5_" x="-7.25" y="0.492" width="53.25" height="31"/>
				</defs>
				<clipPath id="SVGID_6_">
					<use xlink:href="#SVGID_5_"  style="overflow:visible;"/>
				</clipPath>
				<path style="clip-path:url(#SVGID_6_);fill:#FCFF2C;" d="M17.386,20.941c-2.354-0.131-13.077-6.862-13.143-7.939l0.6-0.932
					c1.044,1.608,12.04,8.063,13.08,7.794L17.386,20.941L17.386,20.941z"/>
				<path style="clip-path:url(#SVGID_6_);fill:#FCFF2C;" d="M4.713,11.992c-0.171,0,2.79,2.518,6.422,4.54
					c3.595,2.292,6.72,3.556,6.957,3.425c0-0.139,0.099-0.214,0.099-0.214s-0.167,0-0.302,0c-0.939-0.25-3.529-1.554-6.691-3.432
					c-3.159-1.891-5.877-3.6-6.32-4.27c0-0.138-0.033-0.231-0.033-0.231l0,0l-0.102,0.183H4.713L4.713,11.992z M17.422,20.941
					c-0.036,0.131-0.108,0.131-0.239,0c-0.873,0-3.529-1.346-6.655-3.231c-3.664-2.154-6.721-4.17-6.353-4.708l0.069-0.138l0,0
					c-0.272,0.946,5.946,4.584,6.386,4.715c3.562,2.285,6.622,3.493,6.888,3.086L17.422,20.941L17.422,20.941z"/>
				<path style="clip-path:url(#SVGID_6_);" d="M17.284,20.992h-0.102c-0.873,0-3.562-1.437-6.691-3.322
					c-4.167-2.423-6.248-3.88-6.382-4.55c-0.036,0-0.036-0.128,0.065-0.128l0.107-0.133l0,0L4.25,13.002v0.138
					c0,0.539,2.149,2.173,6.315,4.596c3.093,1.885,5.744,3.006,6.617,3.256c0.131,0,0.204,0,0.204,0l0.098-0.25
					c-0.062,0-0.098,0-0.098,0c-0.739,0-3.533-1.181-6.79-3.197c0,0-0.134-0.114-0.269-0.114c-4.068-2.423-6.084-3.899-6.084-4.575
					c0.065,0.42,1.041,1.62,6.146,4.588c0.102,0,0.207,0.002,0.24,0.133c3.224,2.016,6.018,3.232,6.757,3.232
					c0,0,0.098,0.001,0.131-0.144l0,0c0,0.145,0,0.145-0.033,0.145l-0.03,0.091C17.422,21.032,17.35,20.992,17.284,20.992
					L17.284,20.992z M17.99,20.002c-0.506,0-3.46-1.353-6.891-3.5c-3.897-2.285-6.622-4.058-6.386-4.596l0.102-0.164h0.03
					l-0.065,0.164c-0.237,0.538,3.23,2.692,6.356,4.583c3.395,2.017,6.349,3.446,6.855,3.446c0.066,0,0.066,0.057,0.066-0.193
					c0.036,0,0.069,0,0.069,0s-0.134,0-0.236,0c-1.077-0.25-3.73-1.554-6.691-3.432c-2.919-1.76-5.877-3.476-6.32-4.27
					c-0.033-0.138-0.062-0.123-0.033-0.26c0.033,0.138,0.033,0.145,0.033,0.283c0.473,0.67,3.667,2.689,6.32,4.304
					c2.961,1.74,5.65,3.095,6.691,3.495c0.134,0,0.236,0.001,0.269-0.137c0.033,0.138,0.033,0.138-0.033,0.138
					C18.091,20.002,18.056,20.002,17.99,20.002L17.99,20.002z"/>
				<path style="clip-path:url(#SVGID_6_);fill:#FCFF2C;" d="M11.299,13.678c2.354,0,5.28-0.269,6.891-0.939l-0.335-0.545
					c-0.939,0.545-3.904,0.808-6.556,0.945c-3.191-0.138-5.374-0.276-6.455-1.07l-0.368,0.67
					C6.495,13.54,8.643,13.678,11.299,13.678L11.299,13.678z"/>
				<path style="clip-path:url(#SVGID_6_);fill:#FCFF2C;" d="M18.325,12.74c-0.102,0.124-1.142,0.545-2.755,0.801
					c-1.073,0.138-2.489,0.27-4.271,0.27c-1.645,0-3.02-0.132-4.068-0.27c-1.648-0.256-2.518-0.676-2.856-0.676
					c0.102-0.124,0.102-0.124,0.102-0.262c0.943,0.4,1.783,0.682,2.791,0.682c1.011,0.256,2.387,0.394,4.032,0.394
					c1.75,0,3.198-0.138,4.202-0.394c1.681-0.282,2.554-0.545,2.689-0.682L18.325,12.74L18.325,12.74z M17.99,12.194
					c-0.171,0.145-1.008,0.408-2.62,0.67c-1.011,0.138-2.322,0.276-4.035,0.276c-1.579,0-2.893-0.138-3.904-0.276
					c-1.576-0.124-2.384-0.525-2.718-0.67c0.066,0,0.066-0.124,0.131-0.124c0.204,0.124,1.011,0.4,2.624,0.67
					c0.975,0.124,2.288,0.262,3.868,0.262c1.713,0,2.958-0.138,4.002-0.262c1.612-0.27,2.449-0.67,2.551-0.67L17.99,12.194
					L17.99,12.194z"/>
				<path style="clip-path:url(#SVGID_6_);" d="M11.266,13.742c-1.411,0-2.784-0.098-4.097-0.235
					C5.56,13.25,4.75,12.864,4.25,12.864V12.74l0.164-0.138c0.906,0.262,1.781,0.538,2.822,0.682
					c1.313,0.256,2.639,0.394,4.047,0.394c1.481,0,2.831-0.138,4.21-0.394c1.681-0.282,2.558-0.545,2.693-0.814l0.136,0.27
					c-0.062,0.124-1.141,0.51-2.754,0.767c-1.313,0.138-2.72,0.235-4.27,0.235H11.266L11.266,13.742z M4.476,12.602l-0.102,0.262
					c0.404,0,1.28,0.386,2.893,0.642c1.277,0.138,2.587,0.235,3.999,0.235l0,0h0.033c1.55,0,2.958-0.098,4.271-0.235
					c1.649-0.401,2.653-0.659,2.755-0.784l-0.134-0.129c-0.099,0.138-0.939,0.404-2.689,0.687c-1.379,0.256-2.722,0.396-4.202,0.396
					c-1.409,0-2.718-0.137-4.032-0.268C6.226,13.283,5.349,13.002,4.476,12.602L4.476,12.602z M11.299,13.242
					c-1.409,0-2.718-0.189-3.868-0.327c-1.376-0.124-2.183-0.42-2.587-0.551l-0.131-0.197l0.066-0.176h0.065
					c0.106,0,0.88,0.439,2.624,0.709c0.742,0.124,2.084,0.144,3.831,0.144c1.448,0,2.692,0.01,4.038-0.115
					c1.547-0.27,2.419-0.665,2.518-0.803l0.167,0.14c-0.204,0.269-1.041,0.584-2.653,0.846c-1.313,0.138-2.591,0.328-4.035,0.328
					H11.299L11.299,13.242z M4.814,12.094l-0.072,0.148h0.134c0.371,0,1.179,0.573,2.554,0.697c1.149,0.138,2.492,0.303,3.868,0.303
					l0,0h0.036c1.444,0,2.689-0.228,4.035-0.366c1.612-0.262,2.416-0.634,2.62-0.884h-0.134c-0.069,0-0.873,0.439-2.518,0.709
					c-1.346,0.124-2.591,0.282-4.002,0.282c-1.783,0-3.126-0.116-3.868-0.241C5.724,12.472,4.949,12.094,4.814,12.094L4.814,12.094z
					"/>
				<path style="clip-path:url(#SVGID_6_);fill:#FCFF2C;" d="M3.75,16.502c0,0.801,4.586,1.208,7.606,1.208
					c2.758,0,6.327-0.407,7.67-1.208l-0.044-0.67c-0.443,0.67-4.221,1.208-7.652,1.208c-3.392,0-6.58-0.539-7.58-1.208V16.502
					L3.75,16.502z"/>
				<path style="clip-path:url(#SVGID_6_);fill:#FCFF2C;" d="M19,16.37v0.131c-0.25,0.276-1.445,0.676-3.025,0.946
					c-1.208,0.262-2.739,0.4-4.725,0.4c-1.848,0-3.371-0.138-4.513-0.4c-1.812-0.27-2.987-0.67-3.237-0.946V16.37
					c0.75,0.407,2.643,0.808,3.277,0.933c1.109,0.145,2.631,0.276,4.48,0.276c1.986,0,3.505-0.131,4.677-0.276
					C17.113,17.04,18.75,16.633,19,16.37L19,16.37z M19,15.694v0.27c-0.25,0.269-1.445,0.538-3.025,0.814
					c-1.208,0.124-2.739,0.262-4.725,0.262c-1.848,0-3.354-0.138-4.496-0.262c-1.812-0.276-2.987-0.683-3.224-0.814l0.038-0.27
					c0.673,0.539,2.591,0.808,3.225,0.939c1.109,0.145,2.623,0.269,4.472,0.269c1.986,0,3.501-0.124,4.673-0.269
					C17.117,16.502,18.75,16.095,19,15.694L19,15.694z"/>
				<path style="clip-path:url(#SVGID_6_);" d="M11.266,17.848c-1.645,0-3.175-0.138-4.521-0.4c-1.714-0.27-2.994-0.67-3.244-0.814
					V16.37c0.75,0.407,2.709,0.808,3.277,0.933c1.313,0.145,2.835,0.276,4.48,0.276c1.75,0,3.333-0.131,4.709-0.276
					c1.179-0.263,2.796-0.67,3.062-0.933l0.034,0.131c-0.167,0.276-1.477,0.676-3.056,0.946
					C14.627,17.71,13.048,17.848,11.266,17.848L11.266,17.848z M3.534,16.37l0.073,0.131c0.131,0.132,1.27,0.676,3.188,0.946
					c1.313,0.262,2.827,0.4,4.471,0.4c1.75,0,3.347-0.138,4.726-0.4c1.55-0.27,2.758-0.67,3.008-0.946V16.37
					c-0.25,0.263-1.866,0.67-3.045,1.077c-1.343,0.131-2.947,0.262-4.697,0.262c-1.645,0-3.154-0.131-4.468-0.262
					C6.052,17.178,4.243,16.778,3.534,16.37L3.534,16.37z M11.266,17.178c-1.645,0-3.175-0.138-4.521-0.4
					C5.031,16.502,3.75,16.095,3.5,15.964v-0.27c0.75,0.539,2.709,0.808,3.277,0.939c1.313,0.145,2.835,0.269,4.48,0.269
					c1.75,0,3.366-0.124,4.709-0.401c1.179,0,2.796-0.538,3.062-0.808l0.034,0.27c-0.167,0.269-1.477,0.538-3.056,0.814
					C14.627,17.04,13.048,17.178,11.266,17.178L11.266,17.178z M3.534,15.694l0.073,0.27c0.131,0.131,1.27,0.538,3.188,0.814
					c1.313,0.124,2.827,0.262,4.471,0.262c1.783,0,3.347-0.138,4.726-0.262c1.55-0.276,2.758-0.683,3.008-0.814v-0.27
					c-0.25,0.401-1.866,0.808-3.045,0.939c-1.343,0.145-2.915,0.269-4.697,0.269c-1.645,0-3.154-0.124-4.468-0.269
					C6.052,16.502,4.243,16.233,3.534,15.694L3.534,15.694z"/>
				<path style="clip-path:url(#SVGID_6_);fill:#FCFF2C;" d="M11.299,20.81c-3.326-0.145-6.117-0.946-6.684-1.084l0.4,0.676
					c1.041,0.407,3.835,1.077,6.284,1.077c2.554,0,4.741-0.407,6.288-1.077l0.436-0.676C16.982,20.271,13.416,20.665,11.299,20.81
					L11.299,20.81z"/>
				<path style="clip-path:url(#SVGID_6_);fill:#FCFF2C;" d="M17.786,20.242c-0.069,0-0.167,0.146-0.2,0.278
					c-0.739,0.276-1.918,0.545-2.384,0.545c-1.011,0.407-2.521,0.411-3.904,0.411c-2.958,0-5.341-0.551-6.422-1.09l-0.098-0.144l0,0
					h0.171c1.947,0.75,4.232,1.085,6.349,1.085c1.382,0,2.725-0.132,3.831-0.408c1.717-0.276,2.387-0.427,2.587-0.677H17.786
					L17.786,20.242z M18.157,19.595L18.157,19.595c-0.066,0.131-0.102,0.269-0.167,0.269c-0.371,0.139-1.411,0.407-2.958,0.67
					c-1.041,0.131-1.648,0.276-3.697,0.276c-3.799-0.145-6.218-0.808-6.793-0.946l-0.066-0.138c2.148,0.545,4.406,0.939,6.859,0.939
					c1.881,0,2.616-0.131,3.628-0.263c1.848-0.269,2.755-0.539,3.027-0.676l0,0L18.157,19.595L18.157,19.595z"/>
				<path style="clip-path:url(#SVGID_6_);" d="M11.299,21.61L11.299,21.61c-3.02-0.131-5.341-0.684-6.422-1.223l-0.134-0.146
					c0.036,0,0.036,0,0.036,0h0.036h0.135c1.746,0.75,3.933,1.085,6.349,1.085l0,0c1.55,0,2.926-0.277,3.831-0.408
					c1.885-0.276,2.456-0.677,2.587-0.677h0.039l0,0h0.03l0,0l0,0c-0.03,0-0.131,0.278-0.2,0.278
					c-0.703,0.276-1.881,0.545-2.384,0.69C14.122,21.472,12.681,21.61,11.299,21.61L11.299,21.61z M4.779,20.242l0.098,0.146
					c1.179,0.539,3.667,1.085,6.422,1.085c1.349,0,2.86-0.134,3.904-0.404c0.466,0,1.645-0.26,2.354-0.536
					c0.03-0.132,0.098-0.131,0.161-0.262c-0.161,0.131-0.769,0.394-2.587,0.801c-0.873,0-2.281,0.393-3.73,0.393l0,0
					c-2.518-0.138-4.705-0.473-6.487-1.223H4.779L4.779,20.242z M11.335,20.81L11.335,20.81c-3.398,0-5.713-0.539-6.793-0.946
					l-0.167-0.138c2.554,0.545,4.807,0.939,6.961,0.939c1.681,0,2.489-0.131,3.322-0.263l0.305-0.131
					c1.786-0.138,2.656-0.459,2.961-0.597l0.233-0.183h-0.033l-0.134,0.227c-0.335,0.138-1.241,0.523-3.027,0.773h-0.266
					c-0.873,0-1.681,0.218-3.362,0.218c-2.187,0-4.406-0.416-6.859-0.962l0.066,0.127c1.081,0.27,3.395,0.775,6.793,0.919
					c1.713,0,2.416-0.052,3.26-0.302h0.437c1.378-0.25,2.452-0.511,2.958-0.649l0.134-0.258l-0.102,0.274
					c-0.539,0.27-1.612,0.541-2.991,0.673l-0.437,0.132C13.751,20.664,13.048,20.81,11.335,20.81L11.335,20.81L11.335,20.81z"/>
				<path style="clip-path:url(#SVGID_6_);fill:#FCFF2C;" d="M11.299,9.102c3.802,0,6.858,3.237,6.858,6.993
					c0,3.769-3.057,6.862-6.858,6.862c-3.796,0-6.823-3.093-6.823-6.862C4.476,12.339,7.503,9.102,11.299,9.102L11.299,9.102z
					 M11.299,8.432c4.17,0,7.564,3.5,7.564,7.663c0,4.176-3.395,7.531-7.564,7.531s-7.561-3.355-7.561-7.531
					C3.738,11.932,7.129,8.432,11.299,8.432L11.299,8.432z"/>
				<path style="clip-path:url(#SVGID_6_);fill:#FCFF2C;" d="M11.299,8.3c4.202,0,7.669,3.632,7.669,7.794
					c0,4.176-3.467,7.669-7.669,7.669c-4.199,0-7.663-3.493-7.663-7.669C3.635,11.932,7.1,8.3,11.299,8.3L11.299,8.3z M11.299,8.57
					c4.104,0,7.499,3.5,7.499,7.525c0,4.176-3.395,7.394-7.499,7.394c-4.097,0-7.492-3.217-7.492-7.394
					C3.806,12.07,7.201,8.57,11.299,8.57L11.299,8.57z"/>
				<path style="clip-path:url(#SVGID_6_);" d="M11.299,23.764c-4.199,0-7.692-3.493-7.692-7.669c0-4.163,3.493-7.794,7.692-7.794
					c4.202,0,7.699,3.632,7.699,7.794C18.998,20.271,15.501,23.764,11.299,23.764L11.299,23.764z M11.299,8.432
					c-4.199,0-7.663,3.5-7.663,7.663c0,4.176,3.464,7.669,7.663,7.669c4.202,0,7.669-3.493,7.669-7.669
					C18.968,11.932,15.501,8.432,11.299,8.432L11.299,8.432z M11.299,23.626c-4.131,0-7.528-3.355-7.528-7.531
					c0-4.163,3.398-7.525,7.528-7.525c4.17,0,7.531,3.362,7.531,7.525C18.83,20.271,15.468,23.626,11.299,23.626L11.299,23.626z
					 M11.299,8.57c-4.097,0-7.492,3.5-7.492,7.525c0,4.176,3.395,7.394,7.492,7.394c4.137,0,7.499-3.217,7.499-7.394
					C18.797,12.07,15.435,8.57,11.299,8.57L11.299,8.57z"/>
				<path style="clip-path:url(#SVGID_6_);fill:#FCFF2C;" d="M11.299,9.102c3.868,0,7.026,3.092,7.026,6.993
					c0,3.907-3.158,6.993-7.026,6.993c-3.831,0-6.99-3.086-6.99-6.993C4.309,12.194,7.467,9.102,11.299,9.102L11.299,9.102z
					 M11.299,9.246c3.802,0,6.858,3.093,6.858,6.849c0,3.769-3.057,6.862-6.858,6.862c-3.763,0-6.823-3.093-6.823-6.862
					C4.476,12.339,7.536,9.246,11.299,9.246L11.299,9.246z"/>
				<path style="clip-path:url(#SVGID_6_);" d="M11.299,23.088c-3.868,0-7.055-3.086-7.055-6.993c0-3.901,3.188-7.125,7.055-7.125
					c3.904,0,7.026,3.224,7.026,7.125C18.325,20.002,15.203,23.088,11.299,23.088L11.299,23.088z M11.299,9.102
					c-3.831,0-6.99,3.092-6.99,6.993c0,3.907,3.159,6.993,6.99,6.993c3.868,0,7.026-3.086,7.026-6.993
					C18.325,12.194,15.166,9.102,11.299,9.102L11.299,9.102z M11.299,22.957c-3.796,0-6.823-3.093-6.823-6.862
					c0-3.756,3.027-6.993,6.823-6.993c3.802,0,6.891,3.237,6.891,6.993C18.19,19.864,15.1,22.957,11.299,22.957L11.299,22.957z
					 M11.299,9.246c-3.763,0-6.757,3.093-6.757,6.849c0,3.769,2.994,6.862,6.757,6.862c3.802,0,6.858-3.093,6.858-6.862
					C18.157,12.339,15.1,9.246,11.299,9.246L11.299,9.246z"/>
				<rect x="11" y="8.242" style="clip-path:url(#SVGID_6_);fill:#FCFF2C;" width="0.75" height="15.5"/>
				<path style="clip-path:url(#SVGID_6_);fill:none;" d="M11.062,8.242h0.506H11.062z"/>
				<path style="clip-path:url(#SVGID_6_);fill:none;" d="M11.062,23.742h0.506H11.062z"/>
				<path style="clip-path:url(#SVGID_6_);fill:#FCFF2C;" d="M11.5,8.242h0.25v15.75H11.5V8.242L11.5,8.242z M11,8.242L11,8.242
					v15.75l0,0V8.242L11,8.242z"/>
				<path style="clip-path:url(#SVGID_6_);" d="M11.703,23.992h-0.135l-0.032-15.75h0.167l0.036,15.75l0,0
					C11.703,23.992,11.703,23.992,11.703,23.992L11.703,23.992z M11.75,8.242h-0.182l0.036,15.75h0.146V8.242L11.75,8.242z
					 M11.062,23.992h-0.128l-0.036-15.75h0.164l0.036,15.75H11.062L11.062,23.992L11.062,23.992z M11.032,8.242H11v15.75h0.062
					L11.032,8.242L11.032,8.242z"/>
				<path style="clip-path:url(#SVGID_6_);fill:#FCFF2C;" d="M3.5,15.694c0-0.808,4.57-1.339,7.728-1.339
					c3.191,0,6.772,0.67,7.772,1.339v0.676c-0.75-0.676-3.667-1.346-7.772-1.346c-4.098,0-6.978,0.67-7.728,1.346V15.694L3.5,15.694
					z"/>
				<polygon style="clip-path:url(#SVGID_6_);" points="3.75,16.37 3.607,15.742 3.75,15.742 3.75,16.37 				"/>
				<polygon style="clip-path:url(#SVGID_6_);" points="19,16.37 18.968,15.742 19,15.742 19,16.37 				"/>
				<path style="clip-path:url(#SVGID_6_);fill:#FCFF2C;" d="M11.299,14.887c1.819,0,3.57,0.138,4.978,0.401
					c1.409,0.407,2.473,0.676,2.723,1.083v0.131c-0.25-0.407-1.748-0.808-2.821-0.945c-1.346-0.269-3.077-0.532-4.896-0.532
					c-1.881,0-3.673,0.263-5.049,0.532C5.193,15.694,3.75,16.095,3.5,16.502V16.37c0.25-0.276,1.262-0.676,2.742-1.083
					C7.618,15.024,9.417,14.887,11.299,14.887L11.299,14.887z M11.299,14.355c1.819,0,3.57,0.125,4.978,0.401
					c1.409,0.269,2.473,0.532,2.723,0.939v0.27c-0.25-0.539-1.748-0.939-2.821-1.077c-1.346-0.276-3.077-0.407-4.896-0.407
					c-1.881,0-3.673,0.131-5.049,0.407c-1.011,0.138-2.484,0.67-2.734,1.077v-0.27c0.25-0.269,1.262-0.67,2.742-0.939
					C7.618,14.48,9.417,14.355,11.299,14.355L11.299,14.355z"/>
				<path style="clip-path:url(#SVGID_6_);" d="M3.5,16.633L3.5,16.633c0,0,0,0,0-0.132V16.37c0-0.276,1.297-0.676,2.742-1.083
					c1.444-0.263,3.266-0.401,5.048-0.401c1.75,0,3.472,0.138,4.982,0.401C17.75,15.694,18.75,15.964,19,16.37v0.131
					c-0.5-0.407-1.912-0.808-2.821-0.945c-1.412-0.269-3.146-0.4-4.83-0.4c-1.813,0-3.62,0.131-5.098,0.4
					c-1.142,0.138-2.534,0.676-2.666,0.945C3.549,16.633,3.5,16.633,3.5,16.633L3.5,16.633z M11.299,15.024
					c1.75,0,3.5,0.263,5.01,0.532c0.84,0.138,2.318,0.539,2.755,0.945l-0.033-0.131c-0.302-0.276-1.245-0.676-2.722-1.083
					c-1.51-0.263-3.26-0.401-4.974-0.401c-1.783,0-3.685,0.138-5.129,0.539C4.623,15.694,3.75,16.095,3.5,16.37v0.131
					c0.25-0.407,1.865-0.808,2.706-0.945C7.683,15.287,9.552,15.024,11.299,15.024L11.299,15.024z M3.5,15.992L3.5,15.992
					L3.5,15.992v-0.297c0.25-0.269,1.327-0.67,2.742-1.083c1.444-0.131,3.266-0.394,5.048-0.394c1.75,0,3.472,0.263,4.982,0.394
					c1.477,0.414,2.477,0.676,2.727,1.083v0.27c-0.25-0.539-1.912-0.939-2.821-1.077c-1.412-0.276-3.146-0.407-4.86-0.407
					c-1.783,0-3.591,0.145-5.068,0.421c-1.142,0.27-2.546,0.591-2.645,1.091H3.5L3.5,15.992z M11.299,14.48c1.75,0,3.5,0,5.01,0.407
					c0.84,0.138,2.318,0.539,2.755,1.077l-0.033-0.27c-0.302-0.269-1.245-0.67-2.722-0.939c-1.51-0.276-3.26-0.401-4.944-0.401
					c-1.848,0-3.714,0.125-5.159,0.401c-1.547,0.269-2.456,0.67-2.706,0.939v0.138c0.25-0.407,1.796-0.807,2.706-0.945
					C7.683,14.48,9.552,14.48,11.299,14.48L11.299,14.48z"/>
				<path style="clip-path:url(#SVGID_6_);fill:#FCFF2C;" d="M11.266,10.855c2.856,0,5.381,0.407,6.52,1.077l0.371,0.67
					c-0.975-0.532-3.66-1.077-6.891-0.933c-2.554,0-5.411,0.263-6.79,0.933l0.473-0.808C6.088,11.124,8.849,10.855,11.266,10.855
					L11.266,10.855z"/>
				<path style="clip-path:url(#SVGID_6_);fill:none;" d="M17.819,12.07l0.272,0.4L17.819,12.07z"/>
				<path style="clip-path:url(#SVGID_6_);fill:#FCFF2C;" d="M11.299,11.525c1.684,0,3.231,0.145,4.439,0.27
					c1.211,0.276,2.285,0.545,2.452,0.676l0.134,0.27c-0.401-0.27-1.343-0.545-2.62-0.67c-1.208-0.401-2.755-0.401-4.406-0.401
					c-1.815,0-3.26,0.125-4.469,0.401c-1.277,0.124-2.154,0.532-2.354,0.67l0.099-0.27c0.407-0.131,1.08-0.4,2.22-0.676
					C8.038,11.669,9.516,11.525,11.299,11.525L11.299,11.525z M11.299,10.855c1.582,0,3.158,0,4.271,0.269
					c1.009,0.263,1.914,0.545,2.249,0.808l0.171,0.262c-0.272-0.4-1.411-0.67-2.489-0.932c-1.142-0.139-2.62-0.276-4.202-0.276
					c-1.612,0-3.162,0.138-4.268,0.401c-1.175,0.282-1.848,0.407-2.154,0.683l0.171-0.276c0.407-0.27,1.041-0.407,1.914-0.67
					C8.108,10.986,9.686,10.855,11.299,10.855L11.299,10.855z"/>
				<path style="clip-path:url(#SVGID_6_);" d="M18.325,12.74L18.325,12.74c-0.401-0.27-1.343-0.509-2.62-0.633
					c-1.008-0.276-2.453-0.365-4.265-0.365h-0.141h-0.131c-1.78,0-3.159,0.089-4.338,0.365c-1.277,0.124-2.154,0.514-2.354,0.652
					l0.066-0.279c0.575-0.276,1.313-0.559,2.253-0.697c1.109-0.125,2.456-0.291,4.504-0.291H11.4c1.717,0,3.227,0.161,4.338,0.286
					c1.244,0.276,2.285,0.553,2.452,0.684L18.325,12.74L18.325,12.74L18.325,12.74L18.325,12.74z M11.4,11.492h-0.102
					c-2.019,0-3.395,0.161-4.504,0.286c-0.939,0.276-1.678,0.408-2.22,0.684l-0.099,0.274c0.2-0.138,1.044-0.507,2.354-0.769
					c1.143-0.138,2.558-0.225,4.338-0.225h0.131h0.141c1.812,0,3.257,0.089,4.265,0.227c1.244,0.262,2.114,0.52,2.518,0.789
					l-0.066-0.279c-0.134-0.131-1.208-0.421-2.419-0.697C14.628,11.657,13.118,11.492,11.4,11.492L11.4,11.492z M17.99,12.242
					L17.99,12.242c-0.305,0-1.481-0.693-2.489-0.831c-1.044-0.263-2.453-0.413-4.202-0.413c-1.678,0-3.191,0.132-4.268,0.395
					c-1.041,0.282-1.783,0.405-2.154,0.68l0.138-0.402c0.44-0.145,1.074-0.464,1.947-0.603c1.113-0.269,2.626-0.326,4.337-0.326
					H11.4c1.681,0,3.129,0.057,4.17,0.326c1.077,0.139,1.936,0.574,2.238,0.836L18,12.07c0,0.124,0,0.172,0,0.172H17.99
					L17.99,12.242z M11.299,10.986c1.75,0,3.158,0.138,4.202,0.276c0.909,0.262,1.983,0.407,2.423,0.808l-0.138-0.138
					c-0.269-0.263-1.172-0.602-2.216-0.865c-1.04-0.138-2.489-0.326-4.17-0.326h-0.102c-1.711,0-3.224,0.188-4.337,0.326
					c-0.873,0.263-1.507,0.574-1.914,0.699l-0.171,0.29c0.342-0.401,1.113-0.538,2.124-0.8C8.108,11.117,9.621,10.986,11.299,10.986
					L11.299,10.986z"/>
				<path style="clip-path:url(#SVGID_6_);fill:#FCFF2C;" d="M15.1,19.319c-1.411-0.401-2.86-0.401-3.802-0.401
					c-4.738,0.138-6.251,1.084-6.422,1.353l-0.401-0.545c1.212-0.932,3.802-1.477,6.859-1.339c1.615,0,2.958,0.132,4.1,0.263
					L15.1,19.319L15.1,19.319z"/>
				<path style="clip-path:url(#SVGID_6_);fill:none;" d="M4.614,19.864l0.2,0.27L4.614,19.864z"/>
				<path style="clip-path:url(#SVGID_6_);fill:#FCFF2C;" d="M11.299,18.918c1.349,0,2.59,0,3.831,0.276l-0.065,0.27
					c-1.212-0.27-2.384-0.407-3.766-0.407c-1.747,0-3.562,0.263-5.072,0.67c-0.502,0.138-1.277,0.407-1.35,0.676l-0.098-0.131
					c0.036-0.138,0.469-0.407,1.382-0.808C7.904,18.918,9.588,18.918,11.299,18.918L11.299,18.918z M11.335,18.248
					c1.411,0,2.787,0,4.166,0.27l-0.099,0.276c-1.244-0.276-2.386-0.407-4.067-0.407c-1.747,0-3.632,0.132-5.313,0.67
					c-0.539,0.138-1.448,0.539-1.481,0.808l-0.066-0.138c0-0.262,0.772-0.67,1.514-0.808C7.703,18.386,9.588,18.248,11.335,18.248
					L11.335,18.248z"/>
				<path style="clip-path:url(#SVGID_6_);" d="M4.877,20.492H4.844l-0.102-0.176c0.036-0.138,0.542-0.43,1.418-0.83
					c1.714-0.545,3.29-0.557,5.138-0.557c1.277,0,2.554-0.006,3.831,0.27l-0.03,0.235c-1.109-0.27-2.252-0.442-3.631-0.442h-0.171
					h-0.237c-1.812,0-3.49,0.34-4.836,0.747C5.688,19.876,4.949,20.242,4.877,20.492L4.877,20.492L4.877,20.492L4.877,20.492z
					 M11.299,18.918c-1.848,0-3.424,0.138-5.105,0.676c-0.945,0.269-1.379,0.539-1.379,0.676l0.062,0.131
					c0.138-0.269,0.978-0.571,1.35-0.709c1.346-0.407,3.024-0.702,4.836-0.702h0.237h0.171c1.379,0,2.521,0.17,3.631,0.44
					l0.03-0.254C13.853,18.902,12.576,18.918,11.299,18.918L11.299,18.918z M4.542,19.742L4.542,19.742l-0.167-0.077
					c0.102-0.407,1.248-0.777,1.615-0.901c1.442-0.407,3.192-0.53,5.346-0.53c1.378,0,2.787,0.008,4.166,0.277l-0.066,0.279
					c-1.343-0.276-2.587-0.406-4.1-0.406c-2.154,0-3.868,0.203-5.28,0.61c-0.706,0.263-1.481,0.497-1.481,0.747
					C4.542,19.742,4.542,19.742,4.542,19.742L4.542,19.742L4.542,19.742z M11.335,18.248c-2.154,0-3.868,0.27-5.346,0.67
					c-0.942,0.276-1.514,0.545-1.514,0.808l0.066,0.138c0.134-0.4,1.313-0.808,1.481-0.945c1.445-0.4,3.159-0.532,5.313-0.532
					c1.514,0,2.757,0.132,4.067,0.407l0.099-0.276C14.093,18.386,12.713,18.248,11.335,18.248L11.335,18.248z"/>
				<path style="clip-path:url(#SVGID_6_);" d="M9.923,18.649c0,0,0,0,0.033,0l0.03-0.131c0,0,0,0,0.036,0c0,0.131,0,0.131,0,0.131
					h0.036h-0.036c0,0.145,0,0.145-0.036,0.145l0,0h-0.03H9.923C9.923,18.649,9.923,18.649,9.923,18.649L9.923,18.649z
					 M9.956,18.649c0,0,0,0,0,0.145h0.03l0,0c0.036-0.145,0.036-0.145,0.036-0.145l0,0H9.986l0,0H9.956L9.956,18.649L9.956,18.649z
					 M10.127,18.649h0.03c0,0,0,0,0,0.145h0.033l0,0c0-0.145,0-0.145,0-0.145l0,0l0,0h-0.033H10.127L10.127,18.649c0,0,0,0,0.03,0
					l0,0l0,0h0.033l0,0l0,0l0,0l0,0l0,0l0,0h-0.033l0,0l0,0l0,0h0.033l0,0l0,0l0,0c0,0,0,0,0,0.145l0,0l0,0c0,0-0.033,0-0.063,0
					C10.127,18.794,10.127,18.794,10.127,18.649L10.127,18.649z M10.291,18.649h0.036c0,0-0.036,0-0.036,0.145
					c-0.033,0-0.033,0-0.033,0h-0.03c-0.039-0.145-0.039-0.145-0.039-0.145h0.039h0.03h0.069l0,0l0,0h-0.099l0,0
					c0,0,0.03,0.145,0.03,0l0,0C10.258,18.649,10.258,18.649,10.291,18.649L10.291,18.649z M10.228,18.649h0.063l0,0
					c-0.033,0-0.033,0-0.033,0l0,0H10.228L10.228,18.649z M10.327,18.794L10.327,18.794h0.062l0,0l0,0l0,0c0,0,0,0,0-0.145v0.145
					c0,0-0.062,0-0.062-0.145l0,0l0,0h0.062l0,0l0,0l0,0l0,0l0,0c0,0.145,0,0.145,0,0.145l0,0l0,0H10.327L10.327,18.794
					L10.327,18.794z M10.389,18.649L10.389,18.649L10.389,18.649L10.389,18.649L10.389,18.649L10.389,18.649L10.389,18.649
					L10.389,18.649L10.389,18.649L10.389,18.649z M10.462,18.794v-0.145l0,0l0,0c0,0,0,0,0.03,0l0.036-0.131v0.131h0.033
					l0.036-0.131c0,0,0,0.131,0.033,0.131l0,0h-0.033l0,0l0,0l0,0l0,0l0,0H10.56l0,0h-0.033l0,0l0,0l0,0h-0.036l0,0
					c-0.03,0-0.03,0-0.03,0l0,0V18.794L10.462,18.794L10.462,18.794z M10.695,18.649L10.695,18.649L10.695,18.649h-0.033h-0.033l0,0
					l0,0c0-0.131,0.033-0.131,0.033-0.131S10.695,18.518,10.695,18.649L10.695,18.649L10.695,18.649h-0.066l0,0h0.033H10.695
					L10.695,18.649L10.695,18.649z M10.629,18.649h0.066l0,0h-0.033H10.629L10.629,18.649L10.629,18.649z M10.731,18.649
					l0.033-0.131l0,0v0.131c0-0.131,0-0.131,0.03-0.131l0,0l0,0c0,0.131,0,0.131,0,0.131l0,0l0,0l0,0l0,0l0,0l0,0l0,0
					c-0.03,0-0.03,0-0.03,0l0,0l0,0H10.731z M10.862,18.649L10.862,18.649h-0.033l0,0l0,0l0,0l0,0l0,0v-0.131l0,0l0,0h0.033l0,0
					h0.036v0.131H10.862h-0.033l0,0l0,0l0,0C10.862,18.649,10.862,18.649,10.862,18.649L10.862,18.649z M10.898,18.649
					c0,0,0,0,0-0.131c0.036,0,0.036,0,0.036,0s0.03,0,0.063,0c0,0.131,0,0.131,0,0.131s0,0-0.033,0l0,0h-0.03
					C10.898,18.649,10.898,18.649,10.898,18.649L10.898,18.649L10.898,18.649z M10.898,18.649L10.898,18.649h0.036h0.03l0,0l0,0
					l-0.03-0.131v0.131C10.898,18.649,10.898,18.649,10.898,18.649L10.898,18.649z M11.098,18.649h0.036
					C11.135,18.649,11.135,18.649,11.098,18.649h-0.036h-0.03l0,0c0,0,0,0,0.03-0.131h0.036h0.036c0,0.131,0,0.131,0,0.131l0,0
					h-0.073l0,0l0,0H11.098L11.098,18.649L11.098,18.649z M11.062,18.649h0.036c0.036,0,0,0,0,0l-0.036-0.131V18.649L11.062,18.649
					L11.062,18.649z M11.135,18.649l0.033-0.131h0.03l-0.03,0.131H11.135L11.135,18.649z M11.197,18.518L11.197,18.518h0.036H11.197
					L11.197,18.518L11.197,18.518z M11.197,18.649v-0.131l0,0V18.649L11.197,18.649L11.197,18.649z M11.233,18.649v-0.131l0,0l0,0
					h0.033h0.033l0,0l0,0h0.036h0.03c0.036,0,0.036,0.131,0,0.131l0,0h-0.03h0.03l0,0l-0.03-0.131l0,0c0,0-0.036,0-0.036,0.131l0,0
					l0,0l0,0l0,0l0,0c0-0.131,0-0.131,0-0.131h-0.033C11.266,18.649,11.266,18.649,11.233,18.649L11.233,18.649L11.233,18.649
					L11.233,18.649L11.233,18.649z M11.4,18.518L11.4,18.518L11.4,18.518L11.4,18.518L11.4,18.518L11.4,18.518z M11.4,18.649v-0.131
					l0,0V18.649L11.4,18.649L11.4,18.649z M11.4,18.649l0.04-0.131h0.03l0,0h0.033l0,0c0.033,0,0.033,0,0.033,0s0,0,0,0.131l0,0
					h-0.033l0,0l0,0l0,0v-0.131l0,0c0,0-0.033,0-0.033,0.131l0,0h-0.03H11.4L11.4,18.649z M11.604,18.649L11.604,18.649h-0.036
					h-0.032l0,0l0,0h0.032l0,0H11.604L11.604,18.649L11.604,18.649L11.604,18.649c0-0.131,0-0.131,0-0.131l0,0
					c-0.036,0.131-0.036,0.131-0.036,0.131h-0.032l0.032-0.131c0,0,0,0,0.036,0l0,0l0,0l0,0V18.649L11.604,18.649L11.604,18.649
					L11.604,18.649L11.604,18.649L11.604,18.649L11.604,18.649L11.604,18.649z M11.604,18.649L11.604,18.649
					c-0.036,0-0.036,0-0.036,0l0,0l0,0l0,0l0,0C11.604,18.649,11.604,18.649,11.604,18.649L11.604,18.649L11.604,18.649
					L11.604,18.649L11.604,18.649z M11.703,18.649L11.703,18.649H11.67c-0.033,0-0.033,0-0.033,0l0,0l0,0l0,0
					c0-0.131,0-0.131,0-0.131c0.033,0,0.033,0,0.033,0h0.033l0,0l0,0h0.036L11.703,18.649L11.703,18.649L11.703,18.649z
					 M11.637,18.649L11.637,18.649c0,0,0,0,0.033,0h0.033l0,0l0,0c0-0.131,0-0.131,0-0.131S11.67,18.518,11.637,18.649
					L11.637,18.649L11.637,18.649z M11.738,18.649c0,0,0.033,0,0.033-0.131h0.033l0,0c0,0.131,0,0.131,0,0.131l0,0l0,0
					c0,0,0,0-0.033,0H11.738L11.738,18.649L11.738,18.649z M11.771,18.649L11.771,18.649L11.771,18.649c0.033,0,0.033,0,0.033,0l0,0
					l0,0c0-0.131,0-0.131,0-0.131S11.771,18.518,11.771,18.649L11.771,18.649L11.771,18.649z M11.87,18.649l0.032-0.131l0,0v0.131
					c0-0.131,0.04-0.131,0.04-0.131l0,0h0.033v0.131l0,0h-0.033h-0.04l0,0l0,0H11.87L11.87,18.649z M12.005,18.649h0.036H12.005
					L12.005,18.649c-0.03,0-0.03,0-0.03,0l0,0l0,0c0.03-0.131,0.03-0.131,0.03-0.131s0.036,0,0.036,0.131l0,0l0,0h-0.065l0,0H12.005
					L12.005,18.649L12.005,18.649L12.005,18.649z M11.975,18.649h0.03l0,0l0,0l0,0H11.975L11.975,18.649z M12.04,18.649h0.033l0,0
					h0.033c0,0,0,0,0.069,0l0,0l0,0h-0.069h-0.033l0,0l0,0l0,0v-0.131h0.033l0,0c0.069,0,0.069,0,0.069,0v0.131l0,0l0,0l0,0
					c0,0,0,0-0.069,0l0,0h-0.033l0,0h0.033l0,0c0.069,0,0.069,0,0.069,0l0,0l0,0l0,0l0,0c-0.069,0-0.069,0-0.069,0h-0.033
					C12.04,18.649,12.04,18.649,12.04,18.649L12.04,18.649z M12.176,18.794v-0.276h0.065v0.131c0,0,0,0,0-0.131l0,0c0,0,0,0,0,0.131
					l0,0l0,0l0,0l0,0l0,0c0,0,0,0-0.065,0l0,0V18.794L12.176,18.794L12.176,18.794z M12.176,18.649L12.176,18.649
					c0.065,0,0.065,0,0.065,0l0,0l0,0l0,0l0,0l0,0H12.176L12.176,18.649z M12.408,18.649L12.408,18.649L12.408,18.649l-0.065,0.145
					c0-0.145,0-0.145-0.102-0.145l0,0h0.102c0,0,0-0.131,0.065-0.131V18.649L12.408,18.649L12.408,18.649h-0.065l0,0l0,0
					C12.343,18.649,12.343,18.649,12.408,18.649L12.408,18.649L12.408,18.649z M12.343,18.649h0.065l0,0
					C12.408,18.649,12.408,18.649,12.343,18.649L12.343,18.649L12.343,18.649L12.343,18.649z M12.477,18.518L12.477,18.518
					L12.477,18.518L12.477,18.518L12.477,18.518L12.477,18.518z M12.408,18.794l0.069-0.145l0,0v0.145H12.408z M12.477,18.649v0.145
					l0,0l0,0C12.477,18.649,12.477,18.649,12.477,18.649L12.477,18.649L12.477,18.649L12.477,18.649L12.477,18.649L12.477,18.649
					v-0.131h0.033L12.477,18.649h0.033l0,0H12.477L12.477,18.649L12.477,18.649L12.477,18.649L12.477,18.649L12.477,18.649
					L12.477,18.649z M12.576,18.649v0.145h-0.032c0,0-0.033,0-0.033-0.145l0,0l0,0h0.033l0,0H12.576h0.033l0,0l0,0H12.576
					L12.576,18.649h-0.032H12.51h0.033C12.543,18.649,12.543,18.649,12.576,18.649L12.576,18.649h0.033l0,0l0,0l0,0l0,0l0,0v0.145
					h-0.033V18.649L12.576,18.649z M12.609,18.649h-0.033h-0.032l0,0l0,0l0,0l0,0c0.032,0,0.032,0,0.032,0l0,0H12.609L12.609,18.649
					L12.609,18.649z M12.681,18.649L12.681,18.649c0.032,0,0.065,0,0.065,0l0,0c0.033,0,0.033,0,0.033,0h-0.033
					c0,0.145,0,0.145,0,0.145h-0.033c-0.032,0-0.032,0-0.032,0C12.681,18.649,12.681,18.649,12.681,18.649L12.681,18.649z
					 M12.681,18.649L12.681,18.649l0.032,0.145c0,0,0.033,0,0.033-0.145l0,0l0,0l0,0h-0.033
					C12.681,18.649,12.681,18.649,12.681,18.649L12.681,18.649z M12.812,18.794l0.036-0.145l0,0l0,0l0,0h0.032h0.03l0,0l0,0
					c0,0,0,0,0,0.145h-0.03h-0.032l0,0l0,0l0,0H12.812z M12.849,18.649L12.849,18.649c0,0.145,0,0.145,0,0.145h0.032
					c0-0.145,0.03-0.145,0.03-0.145l0,0c-0.03,0-0.03,0-0.03,0H12.849L12.849,18.649L12.849,18.649z M12.91,18.794l0.04-0.145h0.033
					l0,0l0,0l0,0h0.033l0,0h-0.033l0,0l0,0l0,0l-0.033,0.145H12.91L12.91,18.794z M13.016,18.649L13.016,18.649
					c0.032,0,0.032,0,0.032,0l0,0h0.033l-0.033,0.145l0,0l0,0c-0.032,0-0.032,0-0.032,0V18.649L13.016,18.649z M13.016,18.649v0.145
					c0,0,0,0,0.032,0l0,0v-0.145l0,0l0,0l0,0C13.016,18.649,13.016,18.649,13.016,18.649L13.016,18.649z M13.118,18.649
					L13.118,18.649h0.03l0,0H13.118L13.118,18.649z M13.048,18.794L13.048,18.794L13.048,18.794h0.033l0,0l0.036-0.145l0,0
					l-0.036,0.145l0,0H13.048L13.048,18.794L13.048,18.794z M13.216,18.794h0.036H13.216h-0.033c-0.036,0-0.036,0-0.036,0
					s0,0,0-0.145l0,0c0.036,0,0.036,0,0.036,0h0.069l0,0l0,0h-0.105c0,0.145,0,0.145,0,0.145h0.036H13.216L13.216,18.794
					L13.216,18.794z M13.147,18.649h0.105c0,0,0,0-0.036,0l0,0h-0.033C13.147,18.649,13.147,18.649,13.147,18.649L13.147,18.649z"/>
				<path style="clip-path:url(#SVGID_6_);" d="M13.318,18.794L13.318,18.794c0,0,0,0-0.036,0l0,0h-0.03c0,0,0,0,0-0.145l0,0h0.03
					l0,0c0.036,0,0.036,0,0.036,0l0,0l0,0l0,0c-0.036,0-0.036,0-0.036,0l0,0h-0.03c0,0.145,0,0.145,0,0.145h0.03l0,0
					C13.282,18.794,13.282,18.794,13.318,18.794L13.318,18.794z M13.384,18.794L13.384,18.794h-0.033l0,0h-0.033l0,0l0.033-0.145
					l0,0l0,0l0,0h0.033l0,0l0,0l0,0l0,0l0,0l-0.033,0.145l0,0l0,0H13.384L13.384,18.794L13.384,18.794z M13.384,18.794
					c0-0.145,0.032-0.145,0.032-0.145c0.033,0,0.033,0,0.033,0h0.04c0,0,0,0,0,0.145h-0.04l0,0l0,0
					C13.416,18.794,13.384,18.794,13.384,18.794L13.384,18.794L13.384,18.794z M13.416,18.794L13.416,18.794c0,0,0,0,0.033,0l0,0
					l0,0v-0.145l0,0l0,0C13.416,18.649,13.416,18.649,13.416,18.794L13.416,18.794z M13.62,18.794L13.62,18.794
					c-0.033,0-0.033,0-0.033,0h-0.033l0,0l0,0c0,0,0,0,0-0.145h0.033l0,0c0.033,0,0.033,0,0.033,0l0,0l0,0h0.033L13.62,18.794
					L13.62,18.794L13.62,18.794z M13.554,18.794L13.554,18.794h0.033c0,0,0,0,0.033,0l0,0c0,0,0,0,0-0.145c0,0,0,0-0.033,0l0,0
					C13.587,18.794,13.554,18.794,13.554,18.794L13.554,18.794z M13.721,18.794L13.721,18.794h-0.032l0,0c-0.036,0-0.036,0-0.036,0
					l0,0c0,0,0,0,0-0.145c0.036,0,0.036,0,0.036,0S13.721,18.649,13.721,18.794C13.751,18.794,13.751,18.794,13.721,18.794
					L13.721,18.794h-0.069l0,0h0.036l0,0H13.721L13.721,18.794z M13.653,18.794h0.069l0,0l-0.032-0.145c0,0,0,0,0,0.145H13.653
					L13.653,18.794z M13.889,18.794h0.033c0,0-0.033,0-0.069,0l0,0l0,0h-0.03l0,0c0,0,0.03,0,0.03-0.145l0,0l0,0
					c0.036,0,0.036,0,0.036,0s0.033,0,0.033,0.145H13.889v-0.145h-0.036l0,0c0,0,0,0,0,0.145l0,0l0,0l0,0l0,0l0,0H13.889
					L13.889,18.794z M13.922,18.794h0.03h0.04c0.033,0,0.033,0,0.033,0l0,0l0,0h-0.033h-0.04H13.922L13.922,18.794L13.922,18.794z
					 M13.951,18.794L13.951,18.794L13.951,18.794h0.04h0.033l0,0c-0.033,0-0.033,0-0.033,0H13.951L13.951,18.794L13.951,18.794z
					 M14.057,18.918v-0.269h0.036L14.057,18.918L14.057,18.918L14.057,18.918z M14.122,18.918L14.122,18.918h-0.03l0,0
					c0,0,0,0,0-0.124l0,0l0,0l0,0h0.03h-0.03l0,0l0,0h0.03c0,0.124,0,0,0,0l0,0c0.036,0,0.036,0,0.036,0l0,0h0.033l-0.033,0.124
					H14.122L14.122,18.918z M14.158,18.918l0.066-0.124l0,0l0,0h0.032l0,0l0,0l0,0h0.036h0.066l0,0l-0.066,0.124l0,0v-0.124l0,0l0,0
					l0,0c0,0,0,0-0.036,0l0,0v0.124l0,0v-0.124l0,0l0,0h-0.032l0,0l0,0l-0.033,0.124H14.158z M14.359,18.918L14.359,18.918v-0.124
					h0.065h-0.065c0.065,0,0.098,0,0.098,0l0,0l0,0l0,0l0,0c0,0.124,0,0.124,0,0.124S14.424,18.918,14.359,18.918L14.359,18.918
					L14.359,18.918L14.359,18.918z M14.359,18.794c0,0.124,0,0.124,0,0.124l0,0c0.065,0,0.065,0,0.065,0s0.033,0,0.033-0.124l0,0
					l0,0h-0.033C14.359,18.794,14.359,18.794,14.359,18.794L14.359,18.794z M14.53,18.918h-0.033l0,0h-0.04l0,0l0,0
					c0.04,0,0.04,0,0.04,0l0,0l0,0c0,0,0.033,0,0.033-0.124l0,0l0,0l0,0h-0.033l0,0l0,0l0,0l0,0h0.033c0,0,0,0,0.032,0l0,0l0,0l0,0
					v0.124C14.53,18.918,14.53,18.918,14.53,18.918L14.53,18.918L14.53,18.918L14.53,18.918L14.53,18.918z M14.53,18.918h-0.033l0,0
					l0,0l0,0l0,0l0,0l0,0H14.53L14.53,18.918L14.53,18.918L14.53,18.918z M14.562,18.918l0.033-0.124h0.033l0,0l0,0h0.03l0,0
					c0,0,0,0,0,0.124l0,0l0,0h-0.03h0.03l0,0c0-0.124,0-0.124,0-0.124h-0.03l0,0l-0.033,0.124H14.562L14.562,18.918L14.562,18.918z
					 M14.697,18.918c0,0,0,0,0-0.124h0.032c0,0,0,0,0.033,0.124l0,0c-0.033,0-0.033,0-0.033,0H14.697L14.697,18.918L14.697,18.918
					L14.697,18.918L14.697,18.918z M14.697,18.918L14.697,18.918L14.697,18.918L14.697,18.918h0.032l0,0H14.697L14.697,18.918
					L14.697,18.918L14.697,18.918z"/>
				<path style="clip-path:url(#SVGID_6_);fill:#EA0020;" d="M15.1,19.492h-0.036c-0.033,0-0.033,0-0.033,0l0.436-1H15.5
					c0,0,0,0.027,0,0.158L15.1,19.492L15.1,19.492L15.1,19.492z"/>
				<path style="clip-path:url(#SVGID_6_);fill:#FCFF2C;" d="M4.877,11.794c2.354,0,13.215,6.592,13.28,7.932l-0.673,0.939
					c-0.302-1.346-11.363-7.801-13.176-7.801L4.877,11.794L4.877,11.794z"/>
				<polygon style="clip-path:url(#SVGID_6_);" points="17.557,20.543 18.056,19.742 18.091,19.742 18.091,19.742 17.557,20.543 
									"/>
				<path style="clip-path:url(#SVGID_6_);" d="M4.374,12.864l0.502-0.932c0-0.138,0-0.138,0,0c0,0,0.036,0,0,0L4.374,12.864
					L4.374,12.864z"/>
				<path style="clip-path:url(#SVGID_6_);fill:#FCFF2C;" d="M4.243,12.864c0.469-0.262,3.661,1.215,6.99,3.1
					c3.395,2.147,6.553,4.464,6.284,4.871l-0.095,0.157h-0.036c0,0,0.036-0.025,0-0.301c-0.135-0.394-2.423-2.291-6.189-4.583
					c-3.694-2.016-6.721-3.362-7.023-3.099L4.243,12.864L4.243,12.864z M18.144,19.864c0.305-0.67-2.666-2.961-6.363-5.108
					c-3.796-2.154-6.473-3.339-6.949-2.931l-0.12,0.168c0,0,0,0,0.066,0c0.065,0,0.236,0,0.236,0c0.873,0,3.281,1.04,6.711,3.063
					C13.236,15.862,18,18.918,18,19.864c0,0,0,0,0,0.139L18.144,19.864L18.144,19.864z"/>
				<path style="clip-path:url(#SVGID_6_);" d="M17.386,20.992L17.386,20.992L17.386,20.992c0,0,0.036-0.025,0-0.301
					c-0.167-0.394-2.587-2.297-6.189-4.45c-3.123-1.878-5.949-3.249-6.823-3.249c-0.131,0-0.2,0-0.2,0l0,0l0,0l0.069-0.25
					c0,0,0.065,0,0.233,0c0.808,0,3.774,1.414,6.761,3.161c2.991,1.884,6.263,4.1,6.263,4.763v0.145l-0.046,0.182
					c-0.033,0-0.033,0-0.033,0H17.386L17.386,20.992z M4.374,12.992c0.873,0,3.733,1.358,6.823,3.098
					c3.703,2.292,6.054,4.179,6.189,4.573c0.036,0.145,0.027,0.146,0.027,0.277l0.087-0.13c0-0.145,0-0.145,0-0.145
					c0-0.532-3.35-2.879-6.276-4.631c-2.954-1.74-5.94-3.292-6.748-3.292c-0.167,0-0.226,0-0.226,0v0.25
					C4.25,12.992,4.243,12.992,4.374,12.992L4.374,12.992z M18.091,19.992L18.091,19.992L18.091,19.992L18,19.864l0,0v0.139v-0.261
					h0.091c0-0.75-4.908-4.079-6.353-4.748c-3.398-2.023-5.85-3.002-6.691-3.002c-0.066,0-0.204,0-0.269,0l0,0
					c0.065,0,0.203-0.168,0.269-0.168c0.84,0,3.293,1.193,6.724,3.077c1.041,0.67,6.386,3.9,6.353,4.97l0,0l0.066-0.142
					c0.272-0.407-2.554-2.687-6.386-4.841c-4.068-2.417-6.52-3.471-6.961-3.063l-0.065,0.167c-0.036,0-0.066,0-0.066,0l0.131-0.25
					c0,0,0.138,0,0.237,0c1.08,0,4.268,1.579,6.724,3.05c3.362,1.878,6.757,4.277,6.386,5.085l-0.066,0.115H18.091L18.091,19.992z"
					/>
				<path style="clip-path:url(#SVGID_6_);fill:#FFFFFF;" d="M6.75,16.902c0,1.208,0.508,2.417,1.316,3.231
					c0.91,0.939,1.97,1.477,3.247,1.477c1.31,0,2.462-0.539,3.302-1.339C15.423,19.463,16,18.248,16,16.902l0,0v-6.047l-9.25-0.131
					V16.902L6.75,16.902z"/>
				<path style="clip-path:url(#SVGID_6_);" d="M11.299,21.61c-1.205,0-2.291-0.539-3.233-1.339c-0.87-0.952-1.316-2.16-1.316-3.369
					v-6.161H16v6.161c0,1.208-0.519,2.417-1.359,3.369C13.735,21.072,12.576,21.61,11.299,21.61L11.299,21.61z M15.75,10.742H6.696
					l0.066,6.104c0,1.208,0.469,2.445,1.313,3.259c0.906,0.939,2.019,1.36,3.224,1.36c1.277,0,2.293-0.4,3.202-1.339
					c0.84-0.814,1.249-2.015,1.249-3.224V10.742L15.75,10.742z"/>
				<path style="clip-path:url(#SVGID_6_);fill:#EA0020;" d="M7,16.902L7,16.902c0,1.208,0.421,2.417,1.189,3.231
					c0.877,0.676,1.931,1.346,3.136,1.346c1.245,0,2.331-0.67,3.168-1.346c0.746-0.814,1.257-2.023,1.257-3.231l0,0v-5.911H7V16.902
					L7,16.902z M14,12.742v3.76v0.401l0,0c0,0.138-0.039,0.276-0.072,0.401c-0.036,0.676-0.321,1.083-0.761,1.491
					c-0.434,0.525-1.152,0.801-1.858,0.801c-0.703,0-1.361-0.276-1.834-0.801C9.005,18.248,8.75,17.71,8.75,16.902v-4.161H14
					L14,12.742z"/>
				<path style="clip-path:url(#SVGID_6_);" d="M11.299,21.479c-1.172,0-2.197-0.539-3.11-1.346C7.352,19.319,7,18.111,7,16.902
					v-5.911h8.75v5.911c0,1.208-0.463,2.417-1.27,3.231C13.609,20.941,12.51,21.479,11.299,21.479L11.299,21.479z M15.75,10.992H7
					v5.911c0,1.208,0.421,2.291,1.261,3.231c0.84,0.676,1.921,1.208,3.064,1.208c1.179,0,2.316-0.401,3.153-1.208
					c0.808-0.939,1.272-2.023,1.272-3.231V10.992L15.75,10.992z M11.299,19.595c-0.67,0-1.309-0.276-1.814-0.801
					C9.015,18.248,8.75,17.71,8.75,16.902V12.74L14,12.864v3.638v0.401c0,0.138,0,0.276,0,0.401
					c-0.25,0.676-0.341,1.083-0.777,1.491C12.72,19.319,11.975,19.595,11.299,19.595L11.299,19.595z M8.75,12.742v4.161
					c0,0.808,0.234,1.346,0.736,1.891c0.502,0.525,1.144,0.801,1.814,0.801c0.676,0,1.382-0.276,1.848-0.801
					c0.44-0.407,0.761-0.946,0.761-1.491C13.945,17.178,14,17.04,14,16.902v-4.161H8.75L8.75,12.742z"/>
				<path style="clip-path:url(#SVGID_6_);fill:#1A0095;" d="M10.75,16.233L10.75,16.233c0,0.269,0.036,0.269,0.178,0.401
					c0.063,0.145,0.237,0.269,0.368,0.269c0.171,0,0.247-0.124,0.346-0.269c0.102-0.132,0.109-0.132,0.109-0.401v-0.741h-1V16.233
					L10.75,16.233z"/>
				<path style="clip-path:url(#SVGID_6_);fill:#FFFFFF;" d="M11.637,15.694h-0.102c0,0.138,0.069,0.138,0.069,0.138
					c0.099,0,0.167,0,0.167-0.138C11.771,15.694,11.703,15.694,11.637,15.694L11.637,15.694z"/>
				<path style="clip-path:url(#SVGID_6_);fill:#FFFFFF;" d="M11.299,15.964c0,0-0.102,0-0.102,0.131l0.102,0.138
					c0.102,0,0.141-0.138,0.141-0.138C11.44,15.964,11.4,15.964,11.299,15.964L11.299,15.964z"/>
				<path style="clip-path:url(#SVGID_6_);fill:#FFFFFF;" d="M11.637,16.233l-0.102,0.138c0,0.131,0.069,0.131,0.069,0.131
					c0.099,0,0.167,0,0.167-0.131C11.771,16.37,11.703,16.233,11.637,16.233L11.637,16.233z"/>
				<path style="clip-path:url(#SVGID_6_);fill:#FFFFFF;" d="M10.997,16.233l-0.063,0.138c0,0.131,0.063,0.131,0.063,0.131
					c0.065,0,0.138,0,0.138-0.131C11.135,16.37,11.062,16.233,10.997,16.233L10.997,16.233z"/>
				<path style="clip-path:url(#SVGID_6_);fill:#FFFFFF;" d="M10.997,15.694h-0.063c0,0.138,0.063,0.138,0.063,0.138
					c0.065,0,0.138,0,0.138-0.138C11.135,15.694,11.062,15.694,10.997,15.694L10.997,15.694z"/>
				<path style="clip-path:url(#SVGID_6_);fill:#1A0095;" d="M10.75,18.248L10.75,18.248c0,0.138,0.036,0.27,0.178,0.401
					c0.063,0.145,0.237,0.269,0.368,0.269c0.171,0,0.247-0.124,0.346-0.269c0.102-0.131,0.109-0.263,0.109-0.401v-0.757h-1V18.248
					L10.75,18.248z"/>
				<path style="clip-path:url(#SVGID_6_);fill:#FFFFFF;" d="M11.637,17.71c0,0-0.102,0-0.102,0.138h0.102c0.066,0,0.102,0,0.102,0
					C11.738,17.71,11.703,17.71,11.637,17.71L11.637,17.71z"/>
				<path style="clip-path:url(#SVGID_6_);fill:#FFFFFF;" d="M11.299,17.98c0,0-0.102,0-0.102,0.131h0.102c0.102,0,0.141,0,0.141,0
					C11.44,17.98,11.4,17.98,11.299,17.98L11.299,17.98z"/>
				<path style="clip-path:url(#SVGID_6_);fill:#FFFFFF;" d="M11.637,18.248c0,0-0.102,0-0.102,0.138l0.102,0.132
					c0.066,0,0.102-0.132,0.102-0.132C11.738,18.248,11.703,18.248,11.637,18.248L11.637,18.248z"/>
				<path style="clip-path:url(#SVGID_6_);fill:#FFFFFF;" d="M10.997,18.248c-0.033,0-0.063,0-0.063,0.138
					c0,0,0.03,0.132,0.063,0.132c0.065,0,0.138-0.132,0.138-0.132C11.135,18.248,11.062,18.248,10.997,18.248L10.997,18.248z"/>
				<path style="clip-path:url(#SVGID_6_);fill:#FFFFFF;" d="M10.997,17.71c-0.033,0-0.063,0-0.063,0.138c0,0,0.03,0,0.063,0
					c0.065,0,0.138,0,0.138,0C11.135,17.71,11.062,17.71,10.997,17.71L10.997,17.71z"/>
				<path style="clip-path:url(#SVGID_6_);fill:#1A0095;" d="M9.25,16.233L9.25,16.233c0,0.269,0.001,0.269,0.1,0.401
					c0.102,0.145,0.255,0.269,0.39,0.269c0.167,0,0.234-0.124,0.375-0.269c0.102-0.132,0.135-0.132,0.135-0.401v-0.741h-1V16.233
					L9.25,16.233z"/>
				<path style="clip-path:url(#SVGID_6_);fill:#FFFFFF;" d="M10.022,15.694c-0.036,0-0.099,0-0.099,0
					c0,0.138,0.063,0.138,0.099,0.138c0.105,0,0.134,0,0.134-0.138C10.156,15.694,10.127,15.694,10.022,15.694L10.022,15.694z"/>
				<path style="clip-path:url(#SVGID_6_);fill:#FFFFFF;" d="M9.723,15.964c-0.069,0-0.134,0-0.134,0.131
					c0,0,0.066,0.138,0.134,0.138c0.062,0,0.099-0.138,0.099-0.138C9.821,15.964,9.785,15.964,9.723,15.964L9.723,15.964z"/>
				<path style="clip-path:url(#SVGID_6_);fill:#FFFFFF;" d="M10.022,16.233c-0.036,0-0.099,0.138-0.099,0.138
					c0,0.131,0.063,0.131,0.099,0.131c0.105,0,0.134,0,0.134-0.131C10.156,16.37,10.127,16.233,10.022,16.233L10.022,16.233z"/>
				<path style="clip-path:url(#SVGID_6_);fill:#FFFFFF;" d="M9.417,16.233c-0.03,0-0.102,0.138-0.102,0.138
					c0,0.131,0.072,0.131,0.102,0.131c0.066,0,0.134,0,0.134-0.131C9.552,16.37,9.483,16.233,9.417,16.233L9.417,16.233z"/>
				<path style="clip-path:url(#SVGID_6_);fill:#FFFFFF;" d="M9.417,15.694c-0.03,0-0.102,0-0.102,0
					c0,0.138,0.072,0.138,0.102,0.138c0.066,0,0.134,0,0.134-0.138C9.552,15.694,9.483,15.694,9.417,15.694L9.417,15.694z"/>
				<path style="clip-path:url(#SVGID_6_);fill:#1A0095;" d="M12.5,16.233L12.5,16.233c0,0.269,0.023,0.269,0.122,0.401
					c0.106,0.145,0.214,0.269,0.352,0.269c0.131,0,0.28-0.124,0.378-0.269c0.098-0.132,0.149-0.132,0.149-0.401v-0.741h-1V16.233
					L12.5,16.233z"/>
				<path style="clip-path:url(#SVGID_6_);fill:#FFFFFF;" d="M13.252,15.694c-0.036,0-0.105,0-0.105,0
					c0,0.138,0.069,0.138,0.105,0.138c0.066,0,0.132,0,0.132-0.138C13.384,15.694,13.318,15.694,13.252,15.694L13.252,15.694z"/>
				<path style="clip-path:url(#SVGID_6_);fill:#FFFFFF;" d="M12.95,15.964c-0.069,0-0.102,0-0.102,0.131
					c0,0,0.032,0.138,0.102,0.138c0.066,0,0.098-0.138,0.098-0.138C13.048,15.964,13.016,15.964,12.95,15.964L12.95,15.964z"/>
				<path style="clip-path:url(#SVGID_6_);fill:#FFFFFF;" d="M13.252,16.233c-0.036,0-0.105,0.138-0.105,0.138
					c0,0.131,0.069,0.131,0.105,0.131c0.066,0,0.132,0,0.132-0.131C13.384,16.37,13.318,16.233,13.252,16.233L13.252,16.233z"/>
				<path style="clip-path:url(#SVGID_6_);fill:#FFFFFF;" d="M12.681,16.233c-0.073,0-0.138,0.138-0.138,0.138
					c0,0.131,0.065,0.131,0.138,0.131c0.065,0,0.098,0,0.098-0.131C12.779,16.37,12.746,16.233,12.681,16.233L12.681,16.233z"/>
				<path style="clip-path:url(#SVGID_6_);fill:#FFFFFF;" d="M12.681,15.694c-0.073,0-0.138,0-0.138,0
					c0,0.138,0.065,0.138,0.138,0.138c0.065,0,0.098,0,0.098-0.138C12.779,15.694,12.746,15.694,12.681,15.694L12.681,15.694z"/>
				<path style="clip-path:url(#SVGID_6_);fill:#1A0095;" d="M10.75,14.355L10.75,14.355c0,0.125,0.036,0.256,0.178,0.401
					c0.063,0.131,0.237,0.131,0.368,0.131c0.171,0,0.247,0,0.346-0.131c0.102-0.145,0.109-0.276,0.109-0.401v-0.863h-1V14.355
					L10.75,14.355z"/>
				<path style="clip-path:url(#SVGID_6_);fill:#FFFFFF;" d="M11.637,13.678c0,0-0.102,0-0.102,0.132l0.102,0.138
					c0.066,0,0.134-0.138,0.134-0.138C11.771,13.678,11.703,13.678,11.637,13.678L11.637,13.678z"/>
				<path style="clip-path:url(#SVGID_6_);fill:#FFFFFF;" d="M11.299,13.948l-0.102,0.131l0.102,0.138
					c0.102,0,0.141-0.138,0.141-0.138S11.4,13.948,11.299,13.948L11.299,13.948z"/>
				<path style="clip-path:url(#SVGID_6_);fill:#FFFFFF;" d="M11.637,14.355c0,0-0.102,0-0.102,0.125h0.102c0.066,0,0.134,0,0.134,0
					C11.771,14.355,11.703,14.355,11.637,14.355L11.637,14.355z"/>
				<path style="clip-path:url(#SVGID_6_);fill:#FFFFFF;" d="M10.997,14.355c0,0-0.063,0-0.063,0.125h0.063c0.065,0,0.138,0,0.138,0
					C11.135,14.355,11.062,14.355,10.997,14.355L10.997,14.355z"/>
				<path style="clip-path:url(#SVGID_6_);fill:#FFFFFF;" d="M10.997,13.678c0,0-0.063,0-0.063,0.132l0.063,0.138
					c0.065,0,0.138-0.138,0.138-0.138C11.135,13.678,11.062,13.678,10.997,13.678L10.997,13.678z"/>
				<path style="clip-path:url(#SVGID_6_);fill:#FCFF2C;" d="M7.467,12.492l0.269-0.532c0,0,0.371,0.282,0.371,0.532H7.467
					L7.467,12.492z"/>
				<path style="clip-path:url(#SVGID_6_);fill:#FCFF2C;" d="M7.201,11.992l-0.072,0.5h0.338c0-0.5,0.269-0.4,0.269-0.4
					s0.338,0.15,0.371,0.4h0.335l-0.102-0.5H7.201L7.201,11.992z"/>
				<path style="clip-path:url(#SVGID_6_);" d="M8.442,12.492H8.108c-0.069-0.25-0.335-0.477-0.335-0.477s-0.27,0.028-0.27,0.428
					l-0.374,0.106l0.039-0.557h1.173L8.442,12.492L8.442,12.492z M7.736,11.992H7.201l-0.033,0.5h0.299
					C7.467,12.242,7.635,11.992,7.736,11.992L7.736,11.992z M7.802,11.992c0,0,0.305,0.25,0.305,0.5H8.25v-0.5H7.802L7.802,11.992z"
					/>
				<path style="clip-path:url(#SVGID_6_);fill:#FCFF2C;" d="M7,12.492h1.442c0.069,0,0.069,0.122,0.069,0.122s0,0.128-0.069,0.128
					H7v-0.14V12.492L7,12.492z"/>
				<path style="clip-path:url(#SVGID_6_);" d="M8.442,12.742H7.1l-0.033-0.128L7.1,12.492h1.343c0.069,0,0.102,0.122,0.102,0.122
					S8.511,12.742,8.442,12.742L8.442,12.742z M7.1,12.492L7.1,12.492h1.343h0.069H7.1L7.1,12.492z"/>
				<path style="clip-path:url(#SVGID_6_);fill:#FCFF2C;" d="M7.602,12.47c0-0.131,0.134-0.276,0.134-0.276s0.2,0.145,0.2,0.276
					H7.602L7.602,12.47z"/>
				<path style="clip-path:url(#SVGID_6_);" d="M7.937,12.602H7.602c-0.03-0.263,0.134-0.408,0.134-0.408s0.2,0.145,0.2,0.276
					V12.602L7.937,12.602z M7.736,12.194c0,0-0.102,0.145-0.102,0.276h0.269C7.904,12.339,7.736,12.194,7.736,12.194L7.736,12.194z"
					/>
				<polygon style="clip-path:url(#SVGID_6_);fill:#FCFF2C;" points="7.129,11.992 8.442,11.992 8.511,11.992 8.442,11.992 
					7.129,11.992 7.1,11.992 7.129,11.992 				"/>
				<path style="clip-path:url(#SVGID_6_);" d="M8.442,11.992H7.129c-0.03,0-0.03-0.125-0.03-0.125s0-0.125,0.03-0.125h1.313
					l0.069,0.125L8.442,11.992L8.442,11.992z M7.129,11.992L7.129,11.992h1.313l0,0H7.129L7.129,11.992z"/>
				<path style="clip-path:url(#SVGID_6_);fill:#FCFF2C;" d="M7.168,11.992h1.173c0.102,0,0.102,0,0.102,0s0,0-0.102,0H7.168H7.129
					H7.168L7.168,11.992z"/>
				<path style="clip-path:url(#SVGID_6_);" d="M8.341,11.992H7.168H7.1h0.069H8.341c0.102,0,0.102,0,0.102,0
					S8.442,11.992,8.341,11.992L8.341,11.992z M7.168,11.992L7.168,11.992h1.173h0.102H7.168L7.168,11.992z"/>
				<path style="clip-path:url(#SVGID_6_);fill:#FCFF2C;" d="M7.572,11.124h0.063l0,0h0.069l0,0h0.134l0,0h0.066l0,0h0.069v0.139
					l-0.069,0.124H7.602c-0.03,0-0.03-0.124-0.03-0.124V11.124L7.572,11.124z"/>
				<path style="clip-path:url(#SVGID_6_);" d="M7.904,11.387H7.572l-0.036-0.124v-0.139h0.099h0.039h0.03l0,0h0.134l0,0h0.066
					h-0.03h0.099l0.036,0.139L7.904,11.387L7.904,11.387z M7.635,11.124H7.572v0.139l0.331,0.124l0.033-0.124v-0.139H7.904l0,0
					H7.838H7.802H7.703h0.033H7.635L7.635,11.124L7.635,11.124z"/>
				<polygon style="clip-path:url(#SVGID_6_);fill:#FCFF2C;" points="8,11.492 8,11.992 7.602,11.992 7.635,11.492 8,11.492 				"/>
				<path style="clip-path:url(#SVGID_6_);" d="M7.937,11.992H7.602l0.033-0.5h0.269L7.937,11.992L7.937,11.992z M8,11.492H7.75
					v0.44L8,11.794V11.492L8,11.492z"/>
				<path style="clip-path:url(#SVGID_6_);fill:#FCFF2C;" d="M8,11.492L8,11.492L8,11.492L8,11.492L8,11.492h0.25l0,0l0,0l0,0H8.5
					v0.033c0,0.145-0.159,0.217-0.159,0.217H8.009c0,0-0.009-0.072-0.009-0.217V11.492L8,11.492z"/>
				<path style="clip-path:url(#SVGID_6_);" d="M8.341,11.742H7.973L8,11.525v-0.033h0.038L8,11.525v-0.033l0,0h0.209l0.041,0.033
					v-0.033l0,0H8.5v0.25H8.341L8.341,11.742z M8.038,11.387H7.937l0.036,0.138l0.368,0.145v-0.145v-0.138H8.278l0.063,0.138H8.209
					v-0.138H8.108l0.03,0.138H8.038V11.387L8.038,11.387z"/>
				<polygon style="clip-path:url(#SVGID_6_);fill:#FCFF2C;" points="8.341,11.669 8.341,11.932 8.009,11.932 8.038,11.669 				"/>
				<path style="clip-path:url(#SVGID_6_);" d="M8.341,11.932H8.009v-0.263h0.332V11.932L8.341,11.932z M8.341,11.669H8.038v0.263
					l0.303-0.138V11.669L8.341,11.669z"/>
				<path style="clip-path:url(#SVGID_6_);fill:#FCFF2C;" d="M7.168,11.387h0.099v0.138H7.3v-0.138h0.102v0.138h0.066v-0.138h0.105
					v0.138c0,0.145-0.036,0.145-0.069,0.145H7.201c-0.033,0-0.033,0-0.033-0.145V11.387L7.168,11.387z"/>
				<path style="clip-path:url(#SVGID_6_);" d="M7.503,11.669H7.168l-0.039-0.145v-0.138h0.138v0.138L7.3,11.387l0,0h0.102
					l0.03,0.138l0.036-0.138l0,0h0.105l0.03,0.282H7.503L7.503,11.669z M7.231,11.387H7.168v0.138l0.335,0.145l0.033-0.145v-0.138
					H7.467l0.036,0.138H7.402l-0.033-0.138H7.3l0.033,0.138H7.267L7.231,11.387L7.231,11.387z"/>
				<polygon style="clip-path:url(#SVGID_6_);fill:#FCFF2C;" points="7.503,11.669 7.503,11.932 7.201,11.932 7.231,11.669 				"/>
				<path style="clip-path:url(#SVGID_6_);" d="M7.536,11.932H7.201v-0.263h0.302L7.536,11.932L7.536,11.932z M7.503,11.669H7.231
					v0.263l0.272-0.138V11.669L7.503,11.669z"/>
				<polygon style="clip-path:url(#SVGID_6_);" points="7.736,11.525 7.802,11.525 7.802,11.669 7.736,11.669 7.736,11.525 				"/>
				<polygon style="clip-path:url(#SVGID_6_);" points="8.108,11.669 8.209,11.669 8.209,11.794 8.108,11.794 8.108,11.669 				"/>
				<polygon style="clip-path:url(#SVGID_6_);" points="7.3,11.669 7.369,11.669 7.369,11.794 7.3,11.794 7.3,11.669 				"/>
				<polygon style="clip-path:url(#SVGID_6_);fill:#FCFF2C;" points="11.098,11.124 11.197,11.124 11.197,11.124 11.266,11.124 
					11.266,11.124 11.365,11.124 11.365,11.124 11.4,11.124 11.4,11.124 11.535,11.124 11.535,11.262 11.47,11.387 11.168,11.387 
					11.098,11.262 11.098,11.124 				"/>
				<path style="clip-path:url(#SVGID_6_);" d="M11.47,11.492h-0.335L11,11.262v-0.021h0.197l0,0h0.069h-0.033h0.132H11.4l0,0l0,0
					h0.135l0.032,0.132L11.47,11.492L11.47,11.492z M11.197,11.124h-0.099l0.036,0.139l0.335,0.124l0.033-0.124v-0.139H11.4h0.04
					h-0.075h-0.03h-0.069h0.033H11.197L11.197,11.124L11.197,11.124z"/>
				<polygon style="clip-path:url(#SVGID_6_);fill:#FCFF2C;" points="11.5,11.492 11.5,11.992 11.168,11.992 11.197,11.492 
					11.5,11.492 				"/>
				<path style="clip-path:url(#SVGID_6_);" d="M11.502,11.992H11.25v-0.5h0.22L11.502,11.992L11.502,11.992z M11.44,11.492h-0.243
					l-0.03,0.493l0.302-0.112L11.44,11.492L11.44,11.492z"/>
				<path style="clip-path:url(#SVGID_6_);fill:#FCFF2C;" d="M11.535,11.387h0.069v0.138h0.033v-0.138h0.134v0.138h0.033v-0.138
					h0.098v0.138c0,0.145-0.032,0.145-0.032,0.145h-0.303c0,0-0.032,0-0.032-0.145V11.387L11.535,11.387z"/>
				<path style="clip-path:url(#SVGID_6_);" d="M11.87,11.669h-0.335l-0.033-0.145v-0.138h0.102v0.138l0.033-0.138l0,0h0.134v0.138
					l0.033-0.138l0,0h0.098l0.04,0.282H11.87L11.87,11.669z M11.604,11.387h-0.069v0.138l0.335,0.145v-0.145v-0.138h-0.066
					l0.036,0.138h-0.069l-0.033-0.138h-0.102l0.066,0.138h-0.099V11.387L11.604,11.387z"/>
				<polygon style="clip-path:url(#SVGID_6_);fill:#FCFF2C;" points="11.841,11.669 11.841,11.932 11.568,11.932 11.604,11.669 				
					"/>
				<path style="clip-path:url(#SVGID_6_);" d="M11.535,11.932l0.032-0.263h0.273l0.03,0.263H11.535L11.535,11.932z M11.841,11.669
					h-0.237v0.125h0.237V11.669L11.841,11.669z"/>
				<path style="clip-path:url(#SVGID_6_);fill:#FCFF2C;" d="M10.695,11.387h0.098v0.138h0.069v-0.138h0.102v0.138h0.033v-0.138
					h0.138v0.138c0,0.145-0.036,0.145-0.036,0.145h-0.335c0,0-0.069,0-0.069-0.145V11.387L10.695,11.387z"/>
				<path style="clip-path:url(#SVGID_6_);" d="M11.062,11.669h-0.299l-0.069-0.145v-0.138h0.098v0.138l0.069-0.138h-0.033h0.134
					l0.033,0.138v-0.138l0,0h0.138v0.282H11.062L11.062,11.669z M10.793,11.387h-0.098l0.036,0.138l0.331,0.145l0.036-0.145v-0.138
					h-0.102l0.036,0.138h-0.069v-0.138h-0.102l0.036,0.138h-0.105V11.387L10.793,11.387z"/>
				<rect x="10.764" y="11.669" style="clip-path:url(#SVGID_6_);fill:#FCFF2C;" width="0.299" height="0.263"/>
				<path style="clip-path:url(#SVGID_6_);" d="M11.062,11.932h-0.299v-0.263h0.299V11.932L11.062,11.932z M11.032,11.669h-0.269
					l0.03,0.263l0.239-0.138V11.669L11.032,11.669z"/>
				<path style="clip-path:url(#SVGID_6_);fill:#FCFF2C;" d="M10.997,12.492l0.302-0.532c0,0,0.338,0.282,0.305,0.532H10.997
					L10.997,12.492z"/>
				<path style="clip-path:url(#SVGID_6_);fill:#FCFF2C;" d="M10.764,11.992l-0.069,0.5h0.302c0-0.5,0.302-0.4,0.302-0.4
					s0.305,0.15,0.305,0.4h0.338l-0.072-0.5H10.764L10.764,11.992z"/>
				<path style="clip-path:url(#SVGID_6_);" d="M11.975,12.492h-0.371c0-0.25-0.305-0.477-0.305-0.477s-0.302,0.028-0.302,0.428
					l-0.302,0.106l0.036-0.557h1.14L11.975,12.492L11.975,12.492z M11.299,11.992h-0.535l-0.033,0.5h0.266
					C10.997,12.242,11.197,11.992,11.299,11.992L11.299,11.992z M11.335,11.992c0.065,0,0.302,0.25,0.302,0.5h0.266l-0.062-0.5
					H11.335L11.335,11.992z"/>
				<polygon style="clip-path:url(#SVGID_6_);fill:#FCFF2C;" points="10.695,12.492 11.975,12.492 12.005,12.614 11.975,12.742 
					10.695,12.742 10.629,12.614 10.695,12.492 				"/>
				<path style="clip-path:url(#SVGID_6_);" d="M11.975,12.742h-1.28l-0.066-0.128l0.066-0.122h1.28c0.03,0,0.03,0.122,0.03,0.122
					S12.005,12.742,11.975,12.742L11.975,12.742z M10.695,12.492L10.695,12.492h1.28l0,0H10.695L10.695,12.492z"/>
				<path style="clip-path:url(#SVGID_6_);fill:#FCFF2C;" d="M11.135,12.47c0-0.131,0.164-0.276,0.164-0.276
					s0.204,0.145,0.204,0.276H11.135L11.135,12.47z"/>
				<path style="clip-path:url(#SVGID_6_);" d="M11.502,12.602h-0.368c0-0.263,0.164-0.408,0.164-0.408s0.204,0.145,0.204,0.276
					V12.602L11.502,12.602z M11.299,12.194c0,0-0.131,0.145-0.131,0.276h0.302C11.47,12.339,11.299,12.194,11.299,12.194
					L11.299,12.194z"/>
				<path style="clip-path:url(#SVGID_6_);fill:#FCFF2C;" d="M10.695,11.992h1.208c0.073,0,0.073,0,0.073,0s0,0-0.073,0H10.695
					h-0.033H10.695L10.695,11.992z"/>
				<path style="clip-path:url(#SVGID_6_);" d="M11.903,11.992h-1.208l-0.066-0.125l0.066-0.125h1.208
					c0.073,0,0.102,0.125,0.102,0.125S11.975,11.992,11.903,11.992L11.903,11.992z M10.695,11.992L10.695,11.992h1.208
					c0.04,0,0.073,0,0.073,0H10.695L10.695,11.992z"/>
				<path style="clip-path:url(#SVGID_6_);fill:#FCFF2C;" d="M10.731,11.992h1.14h0.072H11.87H10.731c-0.036,0-0.036,0-0.036,0
					S10.695,11.992,10.731,11.992L10.731,11.992z"/>
				<path style="clip-path:url(#SVGID_6_);" d="M11.87,11.992h-1.14c-0.036,0-0.069,0-0.069,0s0.033,0,0.069,0H11.87
					c0.072,0,0.105,0,0.105,0S11.942,11.992,11.87,11.992L11.87,11.992z M10.731,11.992L10.731,11.992h1.14h0.032H10.731
					L10.731,11.992z"/>
				<polygon style="clip-path:url(#SVGID_6_);" points="11.299,11.525 11.335,11.525 11.335,11.669 11.299,11.669 11.299,11.525 
									"/>
				<polygon style="clip-path:url(#SVGID_6_);" points="11.67,11.669 11.738,11.669 11.738,11.794 11.67,11.794 11.67,11.669 				
					"/>
				<polygon style="clip-path:url(#SVGID_6_);" points="10.898,11.669 10.964,11.669 10.964,11.794 10.898,11.794 10.898,11.669 
									"/>
				<polygon style="clip-path:url(#SVGID_6_);fill:#FCFF2C;" points="14.628,11.124 14.697,11.124 14.697,11.124 14.762,11.124 
					14.762,11.124 14.864,11.124 14.864,11.124 14.93,11.124 14.93,11.124 15.032,11.124 15.032,11.262 14.963,11.387 
					14.657,11.387 14.628,11.262 14.628,11.124 				"/>
				<path style="clip-path:url(#SVGID_6_);" d="M14.963,11.387h-0.305l-0.063-0.124v-0.139h0.102l0,0h0.065h-0.033h0.135H14.9h0.03
					H14.9h0.132l0.033,0.139L14.963,11.387L14.963,11.387z M14.697,11.124h-0.069v0.139l0.335,0.124l0.069-0.124v-0.139H14.93h0.033
					h-0.098l0,0h-0.102h0.036H14.697L14.697,11.124L14.697,11.124z"/>
				<polygon style="clip-path:url(#SVGID_6_);fill:#FCFF2C;" points="15,11.492 15,11.992 14.657,11.992 14.697,11.492 				"/>
				<path style="clip-path:url(#SVGID_6_);" d="M14.999,11.992H14.75v-0.5h0.213L14.999,11.992L14.999,11.992z M15,11.492h-0.25
					v0.44L15,11.794V11.492L15,11.492z"/>
				<path style="clip-path:url(#SVGID_6_);fill:#FCFF2C;" d="M15.032,11.387H15.1v0.138h0.066v-0.138h0.098v0.138h0.073v-0.138
					h0.098v0.138c0,0.145-0.033,0.145-0.033,0.145h-0.338c-0.033,0-0.033,0-0.033-0.145V11.387L15.032,11.387z"/>
				<path style="clip-path:url(#SVGID_6_);" d="M15.402,11.669h-0.37l-0.033-0.145v-0.138H15.1l0.03,0.138l0.036-0.138H15.13h0.134
					l0.036,0.138l0.036-0.138h-0.036h0.134l0.033,0.282H15.402L15.402,11.669z M15.1,11.387h-0.069v0.138l0.37,0.145v-0.145v-0.138
					h-0.065v0.138h-0.073v-0.138h-0.098l0.036,0.138H15.1V11.387L15.1,11.387z"/>
				<polygon style="clip-path:url(#SVGID_6_);fill:#FCFF2C;" points="15.37,11.669 15.37,11.932 15.065,11.932 15.1,11.669 				"/>
				<path style="clip-path:url(#SVGID_6_);" d="M15.402,11.932h-0.338v-0.263h0.305L15.402,11.932L15.402,11.932z M15.337,11.669
					H15.1v0.263l0.237-0.138V11.669L15.337,11.669z"/>
				<path style="clip-path:url(#SVGID_6_);fill:#FCFF2C;" d="M14.191,11.387h0.065v0.138h0.102v-0.138h0.098v0.138h0.073v-0.138
					h0.098v0.138c0,0.145,0,0.145-0.033,0.145h-0.338c0,0-0.065,0-0.065-0.145V11.387L14.191,11.387z"/>
				<path style="clip-path:url(#SVGID_6_);" d="M14.595,11.669h-0.37l-0.066-0.145v-0.138h0.098l0.036,0.138l0.066-0.138l0,0h0.098
					l0.04,0.138l0.033-0.138h-0.033h0.131l0.03,0.282H14.595L14.595,11.669z M14.257,11.387h-0.065l0.033,0.138l0.37,0.145
					l0.033-0.145v-0.138H14.53l0.032,0.138h-0.105v-0.138h-0.098v0.138h-0.102V11.387L14.257,11.387z"/>
				<rect x="14.257" y="11.669" style="clip-path:url(#SVGID_6_);fill:#FCFF2C;" width="0.305" height="0.263"/>
				<path style="clip-path:url(#SVGID_6_);" d="M14.595,11.932h-0.338l-0.032-0.263h0.338L14.595,11.932L14.595,11.932z
					 M14.562,11.669h-0.305v0.263l0.305-0.138V11.669L14.562,11.669z"/>
				<path style="clip-path:url(#SVGID_6_);fill:#FCFF2C;" d="M14.497,12.492l0.302-0.532c0,0,0.331,0.282,0.331,0.532H14.497
					L14.497,12.492z"/>
				<path style="clip-path:url(#SVGID_6_);fill:#FCFF2C;" d="M14.224,11.992l-0.066,0.5h0.338c0-0.5,0.302-0.4,0.331-0.4
					c0,0,0.302,0.15,0.302,0.4h0.338l-0.066-0.5H14.224L14.224,11.992z"/>
				<path style="clip-path:url(#SVGID_6_);" d="M15.468,12.492H15.13c-0.03-0.25-0.302-0.477-0.331-0.477
					c0,0-0.269,0.152-0.269,0.428l-0.371,0.106l0.066-0.557h1.178L15.468,12.492L15.468,12.492z M14.799,11.992h-0.574l-0.033,0.5
					h0.305C14.497,12.242,14.697,11.992,14.799,11.992L14.799,11.992z M14.864,11.992c0.036,0,0.266,0.25,0.266,0.5h0.305
					l-0.065-0.5H14.864L14.864,11.992z"/>
				<path style="clip-path:url(#SVGID_6_);fill:#FCFF2C;" d="M14.158,12.492h1.31l0.033,0.122l-0.033,0.128h-1.31
					c-0.036,0-0.066-0.128-0.066-0.128S14.122,12.492,14.158,12.492L14.158,12.492z"/>
				<path style="clip-path:url(#SVGID_6_);" d="M15.468,12.742h-1.31c-0.036,0-0.066,0.01-0.066-0.128c0,0,0.03-0.122,0.066-0.122
					h1.31l0.032,0.11c0,0.138,0,0.14,0,0.14H15.468z M14.158,12.492L14.158,12.492h1.31h0.033H14.158L14.158,12.492z"/>
				<path style="clip-path:url(#SVGID_6_);fill:#FCFF2C;" d="M14.657,12.47c0-0.131,0.141-0.276,0.141-0.276s0.2,0.145,0.2,0.276
					H14.657L14.657,12.47z"/>
				<path style="clip-path:url(#SVGID_6_);" d="M15.032,12.602h-0.375c-0.03-0.263,0.141-0.408,0.141-0.408
					c0.03,0,0.233,0.145,0.233,0.276V12.602L15.032,12.602z M14.799,12.194c0,0-0.102,0.145-0.102,0.276h0.266
					C14.963,12.339,14.799,12.194,14.799,12.194L14.799,12.194z"/>
				<path style="clip-path:url(#SVGID_6_);fill:#FCFF2C;" d="M14.191,11.992h1.244c0.033,0,0.066,0,0.066,0s-0.033,0-0.066,0H14.191
					h-0.069H14.191L14.191,11.992z"/>
				<path style="clip-path:url(#SVGID_6_);" d="M15.435,11.992h-1.244c-0.069,0-0.069-0.125-0.069-0.125s0-0.125,0.069-0.125h1.244
					c0.066,0,0.066,0.125,0.066,0.125S15.501,11.992,15.435,11.992L15.435,11.992z M14.191,11.992L14.191,11.992h1.244
					c0.033,0,0.033,0,0.033,0H14.191L14.191,11.992z"/>
				<path style="clip-path:url(#SVGID_6_);fill:#FCFF2C;" d="M14.224,11.992h1.178h0.066h-0.066H14.224c-0.033,0-0.066,0-0.066,0
					S14.191,11.992,14.224,11.992L14.224,11.992z"/>
				<path style="clip-path:url(#SVGID_6_);" d="M15.402,11.992h-1.178c-0.066,0-0.102,0-0.102,0s0.036,0,0.102,0H15.402
					c0.066,0,0.099,0,0.099,0S15.468,11.992,15.402,11.992L15.402,11.992z M14.224,11.992L14.224,11.992h1.178h0.033H14.224
					L14.224,11.992z"/>
				<polygon style="clip-path:url(#SVGID_6_);" points="14.799,11.525 14.864,11.525 14.864,11.669 14.799,11.669 14.799,11.525 
									"/>
				<polygon style="clip-path:url(#SVGID_6_);" points="15.203,11.669 15.265,11.669 15.265,11.794 15.203,11.794 15.203,11.669 
									"/>
				<polygon style="clip-path:url(#SVGID_6_);" points="14.359,11.669 14.457,11.669 14.457,11.794 14.359,11.794 14.359,11.669 
									"/>
				<path style="clip-path:url(#SVGID_6_);fill:#FCFF2C;" d="M7.572,14.755h0.063l0,0h0.069l0,0h0.134l0,0h0.066l0,0h0.069v0.131
					H7.904H7.602c-0.03,0-0.03,0-0.03,0V14.755L7.572,14.755z"/>
				<path style="clip-path:url(#SVGID_6_);" d="M7.904,14.887H7.602H7.536v-0.131h0.099h0.039h0.03l0,0h0.134l0,0h0.066h-0.03h0.099
					l0.036,0.131H7.904L7.904,14.887z M7.635,14.755H7.572v0.131h0.331h0.033v-0.131H7.904l0,0l-0.066,0.131l-0.036-0.131H7.703
					h0.033l-0.102,0.131V14.755L7.635,14.755z"/>
				<polygon style="clip-path:url(#SVGID_6_);fill:#FCFF2C;" points="8,14.992 8,15.492 7.602,15.492 7.635,14.992 8,14.992 				"/>
				<path style="clip-path:url(#SVGID_6_);" d="M7.937,15.492H7.602l0.033-0.5h0.269L7.937,15.492L7.937,15.492z M8,14.992H7.75v0.5
					H8V14.992L8,14.992z"/>
				<polygon style="clip-path:url(#SVGID_6_);fill:#FCFF2C;" points="7.973,15.024 8.075,15.024 8.075,15.024 8.108,15.024 
					8.108,15.024 8.209,15.024 8.209,15.024 8.278,15.024 8.278,15.024 8.442,15.024 8.442,15.156 8.341,15.156 8.009,15.156 
					7.973,15.156 7.973,15.024 				"/>
				<path style="clip-path:url(#SVGID_6_);" d="M8.341,15.242H7.973H8v-0.217l0.106-0.138l0.017,0.138l0,0l0,0l0.094-0.138
					l0.094,0.138l0,0l0,0L8.5,14.887v0.355H8.341L8.341,15.242z M8.038,15.024H7.973v0.132h0.368l0,0v-0.132H8.278h0.063H8.209l0,0
					H8.108h0.03H8.075H8.038L8.038,15.024z"/>
				<polygon style="clip-path:url(#SVGID_6_);fill:#FCFF2C;" points="8.341,15.156 8.341,15.425 8.009,15.425 8.038,15.156 				"/>
				<path style="clip-path:url(#SVGID_6_);" d="M8.341,15.425H8.009v-0.269h0.332V15.425L8.341,15.425z M8.341,15.156H8.038v0.269
					h0.303V15.156L8.341,15.156z"/>
				<path style="clip-path:url(#SVGID_6_);fill:#FCFF2C;" d="M7.168,15.024h0.099l0,0H7.3l0,0h0.102l0,0h0.066l0,0h0.105v0.132
					H7.536H7.201c-0.033,0-0.033,0-0.033,0V15.024L7.168,15.024z"/>
				<path style="clip-path:url(#SVGID_6_);" d="M7.536,15.156H7.201H7.129v-0.132l0.138-0.138v0.138H7.3l0,0l0.102-0.138l0.03,0.138
					h0.072H7.467l0.105-0.138l0.03,0.27H7.536L7.536,15.156z M7.231,15.024H7.168v0.132h0.368l0,0v-0.132H7.503l0,0H7.402H7.369H7.3
					h0.033H7.267H7.231L7.231,15.024z"/>
				<polygon style="clip-path:url(#SVGID_6_);fill:#FCFF2C;" points="7.503,15.156 7.503,15.425 7.201,15.425 7.231,15.156 				"/>
				<path style="clip-path:url(#SVGID_6_);" d="M7.536,15.425H7.201v-0.269h0.302L7.536,15.425L7.536,15.425z M7.503,15.156H7.231
					v0.269h0.272V15.156L7.503,15.156z"/>
				<path style="clip-path:url(#SVGID_6_);fill:#FCFF2C;" d="M7.467,15.992l0.269-0.401c0,0,0.371,0.151,0.371,0.401H7.467
					L7.467,15.992z"/>
				<path style="clip-path:url(#SVGID_6_);fill:#FCFF2C;" d="M7.201,15.742l-0.072,0.25h0.338c0-0.25,0.269-0.401,0.269-0.401
					s0.371,0.151,0.371,0.401h0.335l-0.102-0.25H7.201L7.201,15.742z"/>
				<path style="clip-path:url(#SVGID_6_);" d="M8.442,15.992H8.108c-0.069-0.25-0.335-0.401-0.335-0.401s-0.27,0.151-0.27,0.401
					H7.129l0.039-0.25h1.173L8.442,15.992L8.442,15.992z M7.736,15.742H7.201l-0.033,0.25h0.299
					C7.467,15.742,7.635,15.742,7.736,15.742L7.736,15.742z M7.802,15.742c0,0,0.305,0,0.305,0.25h0.335l-0.102-0.25H7.802
					L7.802,15.742z"/>
				<path style="clip-path:url(#SVGID_6_);fill:#FCFF2C;" d="M7.129,15.992h1.313c0.069,0,0.069,0,0.069,0c0,0.25,0,0.25-0.069,0.25
					H7.129c-0.03,0-0.03,0-0.03-0.25C7.1,15.992,7.1,15.992,7.129,15.992L7.129,15.992z"/>
				<path style="clip-path:url(#SVGID_6_);" d="M8.442,16.242H7.129c-0.03,0-0.03,0-0.03-0.25c0,0,0,0,0.03,0h1.313
					c0.069,0,0.102,0,0.102,0C8.544,16.242,8.511,16.242,8.442,16.242L8.442,16.242z M7.25,15.992v0.25h1.192
					c0.069,0,0.069,0,0.069-0.25H7.25L7.25,15.992z"/>
				<path style="clip-path:url(#SVGID_6_);fill:#FCFF2C;" d="M7.602,16.095c0-0.263,0.171-0.401,0.171-0.401
					s0.164,0.138,0.164,0.401H7.602L7.602,16.095z"/>
				<path style="clip-path:url(#SVGID_6_);" d="M7.973,16.095H7.602c-0.03-0.263,0.134-0.401,0.134-0.401s0.2,0.138,0.2,0.401H7.973
					L7.973,16.095z M7.736,15.694c0,0.138-0.102,0.138-0.102,0.401h0.269C7.904,15.832,7.773,15.832,7.736,15.694L7.736,15.694z"/>
				<polygon style="clip-path:url(#SVGID_6_);fill:#FCFF2C;" points="7.129,15.492 8.442,15.492 8.511,15.492 8.442,15.492 
					7.129,15.492 7.1,15.492 7.129,15.492 				"/>
				<path style="clip-path:url(#SVGID_6_);" d="M8.442,15.492H7.129c-0.03,0-0.03,0-0.03,0s0,0,0.03,0H8.442h0.069H8.442
					L8.442,15.492z M7.25,15.492L7.25,15.492H8.5l0,0H7.25L7.25,15.492z"/>
				<path style="clip-path:url(#SVGID_6_);fill:#FCFF2C;" d="M7.168,15.492h1.173c0.102,0,0.102,0,0.102,0c0,0.25,0,0.25-0.102,0.25
					H7.168c0,0-0.039,0-0.039-0.25H7.168L7.168,15.492z"/>
				<path style="clip-path:url(#SVGID_6_);" d="M8.341,15.742H7.168c0,0-0.069,0-0.069-0.25h0.069h1.173c0.102,0,0.102,0,0.102,0
					C8.442,15.742,8.442,15.742,8.341,15.742L8.341,15.742z M7.25,15.492v0.25h1.091c0,0,0.102,0,0.102-0.25H7.25L7.25,15.492z"/>
				<polygon style="clip-path:url(#SVGID_6_);" points="7.736,15.024 7.802,15.024 7.802,15.156 7.736,15.156 7.736,15.024 				"/>
				<path style="clip-path:url(#SVGID_6_);" d="M8.137,15.287c0-0.131,0.072-0.131,0.072,0l0,0H8.137L8.137,15.287L8.137,15.287z"/>
				<path style="clip-path:url(#SVGID_6_);" d="M7.333,15.287c0-0.131,0.036-0.131,0.036,0l0,0H7.333L7.333,15.287L7.333,15.287z"/>
				<path style="clip-path:url(#SVGID_6_);fill:#FCFF2C;" d="M14.424,18.518h0.073h-0.04l0.04,0.131l0.033-0.131l0.065,0.131H14.53
					l0.065,0.145l0.063-0.145l0.04,0.145l-0.069,0.124c-0.033,0-0.066,0-0.098,0l-0.273-0.269v-0.131H14.424L14.424,18.518z"/>
				<path style="clip-path:url(#SVGID_6_);" d="M14.562,18.918H14.53l-0.273-0.269v-0.131h0.102h0.138h-0.04l0.04,0.131v-0.131
					l0.131,0.131h-0.066l0.066,0.145v-0.145l0.069,0.145L14.562,18.918L14.562,18.918z M14.359,18.518h-0.066l0.269,0.4h0.033
					l0.102-0.124l-0.069-0.145v0.145l-0.098-0.145h0.065l-0.098-0.131v0.131l-0.073-0.131h0.033H14.359L14.359,18.518z"/>
				<polygon style="clip-path:url(#SVGID_6_);fill:#FCFF2C;" points="14.497,18.918 14.158,19.319 13.922,18.918 14.293,18.649 				
					"/>
				<path style="clip-path:url(#SVGID_6_);" d="M14.158,19.319l-0.27-0.401l0.368-0.269l0.273,0.269L14.158,19.319L14.158,19.319z
					 M14.257,18.649l-0.335,0.269l0.237,0.401l0.338-0.401L14.257,18.649L14.257,18.649z"/>
				<path style="clip-path:url(#SVGID_6_);fill:#FCFF2C;" d="M14.53,18.992h0.065h-0.033h0.033h0.063h0.04l-0.04,0.17l0.04,0.141
					l0.032-0.117l0.069,0.143l-0.102,0.163c0,0,0,0-0.04,0l-0.2-0.385l0,0L14.53,18.992L14.53,18.992z"/>
				<path style="clip-path:url(#SVGID_6_);" d="M14.697,19.492h-0.04l-0.299-0.5h0.065h0.073h0.131h-0.066h0.066l0,0h0.122v0.25l0,0
					h-0.021l0.099,0.115L14.697,19.492L14.697,19.492z M14.497,18.992l-0.04,0.101l0.24,0.389l0,0l0.102-0.154l-0.069-0.13
					l-0.032,0.123l-0.04-0.158l0.04-0.171h-0.069l0,0H14.53h0.065H14.497L14.497,18.992z"/>
				<polygon style="clip-path:url(#SVGID_6_);fill:#FCFF2C;" points="14.657,19.463 14.457,19.595 14.224,19.319 14.457,19.056 
					14.657,19.463 				"/>
				<path style="clip-path:url(#SVGID_6_);" d="M14.457,19.595l-0.233-0.276l0.233-0.263l0.2,0.263L14.457,19.595L14.457,19.595z
					 M14.457,19.056l-0.2,0.263l0.2,0.276l0.171-0.276L14.457,19.056L14.457,19.056z"/>
				<polygon style="clip-path:url(#SVGID_6_);fill:#FCFF2C;" points="13.922,18.386 13.991,18.386 13.922,18.518 13.991,18.518 
					14.057,18.518 14.093,18.518 14.057,18.518 14.093,18.649 14.158,18.518 14.224,18.649 14.122,18.794 14.057,18.794 
					13.853,18.518 13.853,18.518 13.922,18.386 				"/>
				<path style="clip-path:url(#SVGID_6_);" d="M14.093,18.794h-0.036l-0.233-0.276l0,0l0.098-0.132h0.102l-0.073,0.132h0.073l0,0
					h0.098h-0.065l0.065,0.131l0.036-0.131l0.098,0.131L14.093,18.794L14.093,18.794z M13.922,18.386l-0.069,0.132l0.239,0.276l0,0
					l0.132-0.145l-0.066-0.131l-0.036,0.131l-0.065-0.131h0.036h-0.069l0,0h-0.102l0.069-0.132H13.922L13.922,18.386z"/>
				<polygon style="clip-path:url(#SVGID_6_);fill:#FCFF2C;" points="14.057,18.794 13.853,18.918 13.653,18.649 13.853,18.518 				
					"/>
				<path style="clip-path:url(#SVGID_6_);" d="M13.853,18.918l-0.233-0.124l0.233-0.276l0.204,0.276L13.853,18.918L13.853,18.918z
					 M13.853,18.518l-0.2,0.276l0.2,0.124l0.171-0.124L13.853,18.518L13.853,18.518z"/>
				<path style="clip-path:url(#SVGID_6_);fill:#FCFF2C;" d="M13.318,19.463c0.302-0.407,0.535-0.145,0.571-0.145
					c0,0,0.168,0.276-0.138,0.545L13.318,19.463L13.318,19.463z"/>
				<path style="clip-path:url(#SVGID_6_);fill:#FCFF2C;" d="M13.489,18.918l-0.371,0.276l0.2,0.27
					c0.302-0.407,0.535-0.145,0.535-0.145s0.204,0.276-0.066,0.545l0.204,0.27l0.302-0.407L13.489,18.918L13.489,18.918z"/>
				<path style="clip-path:url(#SVGID_6_);" d="M13.991,20.133l-0.24-0.308c0.273-0.269,0.102-0.583,0.102-0.583l0,0
					c0,0-0.03,0-0.164,0c-0.102,0-0.24,0.039-0.338,0.183l-0.27-0.25l0.407-0.39l0.804,0.937L13.991,20.133L13.991,20.133z
					 M13.889,19.319l0.033,0.145c0.03,0.131,0,0.262-0.098,0.4l0.167,0.27l0.302-0.407L13.889,19.319L13.889,19.319z M13.489,18.918
					l-0.371,0.276l0.233,0.27c0.138-0.27,0.436-0.27,0.502-0.145L13.489,18.918L13.489,18.918z"/>
				<path style="clip-path:url(#SVGID_6_);fill:#FCFF2C;" d="M13.081,19.248l0.943,0.994c0,0,0,0-0.033,0l-0.069,0.084l-0.906-0.979
					c0,0,0-0.112,0.032-0.112C13.048,19.097,13.048,19.11,13.081,19.248L13.081,19.248z"/>
				<path style="clip-path:url(#SVGID_6_);" d="M13.951,20.242h-0.063L13,19.319v-0.125l0.04-0.138l0.98,1.062
					c0,0,0.037,0.123,0.004,0.123H13.951L13.951,20.242z M13.048,19.242l0.903,0.991l0.04-0.118l-0.91-0.968l-0.065,0.096H13.048
					L13.048,19.242z"/>
				<path style="clip-path:url(#SVGID_6_);fill:#FCFF2C;" d="M13.449,19.463c0.171-0.145,0.338,0,0.338,0s0.066,0.131-0.098,0.4
					L13.449,19.463L13.449,19.463z"/>
				<path style="clip-path:url(#SVGID_6_);" d="M13.689,19.864l-0.24-0.269c0.171-0.276,0.338-0.131,0.338-0.131
					C13.824,19.463,13.853,19.595,13.689,19.864L13.689,19.864L13.689,19.864z M13.689,19.463c-0.036,0-0.135,0-0.24,0.131
					l0.24,0.269c0.134-0.269,0.098-0.4,0.098-0.4H13.689L13.689,19.463z"/>
				<path style="clip-path:url(#SVGID_6_);fill:#FCFF2C;" d="M13.62,18.742l0.88,0.853v0.147h-0.043L13.5,18.794v-0.052
					C13.5,18.742,13.587,18.742,13.62,18.742L13.62,18.742z"/>
				<path style="clip-path:url(#SVGID_6_);" d="M14.457,19.742h-0.033L13.5,18.794v-0.052h0.12l0.88,0.853v0.147H14.457
					L14.457,19.742z M13.587,18.657l-0.033,0.149l0.903,0.936h0.04L13.587,18.657L13.587,18.657z"/>
				<path style="clip-path:url(#SVGID_6_);fill:#FCFF2C;" d="M13.554,18.742l0.87,0.958l0,0c-0.065,0.138-0.04,0.151-0.106,0.013
					L13.5,18.918c0-0.124,0-0.177,0-0.177H13.554L13.554,18.742z"/>
				<path style="clip-path:url(#SVGID_6_);" d="M14.359,19.742h-0.066L13.5,18.918c0-0.124,0-0.177,0-0.177h0.054l0.903,1h-0.033
					H14.359L14.359,19.742z M13.554,18.742h-0.065l0.761,1.122v-0.138L13.554,18.742L13.554,18.742z"/>
				<path style="clip-path:url(#SVGID_6_);" d="M14.257,18.918c0.036-0.124,0.102,0,0.036,0h-0.069h-0.066H14.257L14.257,18.918z"/>
				<path style="clip-path:url(#SVGID_6_);" d="M14.457,19.319c0.04,0,0.073,0,0.073,0l-0.073,0.145l-0.098-0.145H14.457
					L14.457,19.319z"/>
				<path style="clip-path:url(#SVGID_6_);" d="M13.853,18.649c0,0,0.069,0,0,0.145l0,0h-0.066L13.853,18.649L13.853,18.649z"/>
				<polygon style="clip-path:url(#SVGID_6_);fill:#FCFF2C;" points="14.628,14.755 14.697,14.755 14.697,14.755 14.762,14.755 
					14.762,14.755 14.864,14.755 14.864,14.755 14.93,14.755 14.93,14.755 15.032,14.755 15.032,14.887 14.963,14.887 
					14.657,14.887 14.628,14.887 14.628,14.755 				"/>
				<path style="clip-path:url(#SVGID_6_);" d="M14.963,14.887h-0.335h-0.033v-0.131h0.102l0,0h0.065h-0.033h0.135H14.9h0.03H14.9
					h0.132l0.033,0.131H14.963L14.963,14.887z M14.697,14.755h-0.069v0.131h0.335h0.069v-0.131H14.93h0.033l-0.098,0.131v-0.131
					h-0.102h0.036l-0.102,0.131V14.755L14.697,14.755z"/>
				<polygon style="clip-path:url(#SVGID_6_);fill:#FCFF2C;" points="15,14.992 15,15.492 14.657,15.492 14.697,14.992 				"/>
				<path style="clip-path:url(#SVGID_6_);" d="M14.999,15.492H14.75v-0.5h0.213L14.999,15.492L14.999,15.492z M14.93,14.992h-0.18
					v0.5h0.213L14.93,14.992L14.93,14.992z"/>
				<path style="clip-path:url(#SVGID_6_);fill:#FCFF2C;" d="M15.032,15.024H15.1l0,0h0.066l0,0h0.098l0,0h0.073l0,0h0.098v0.132
					c0,0-0.033,0-0.065,0h-0.305c-0.033,0-0.033,0-0.033,0V15.024L15.032,15.024z"/>
				<path style="clip-path:url(#SVGID_6_);" d="M15.37,15.156h-0.338h-0.069v-0.132l0.138-0.138l0.03,0.138h0.036H15.13l0.134-0.138
					v0.138h0.073h-0.036l0.134-0.138v0.27H15.37L15.37,15.156z M15.1,15.024h-0.069v0.132h0.338h0.032v-0.132h-0.065l0,0h-0.073
					h-0.032h-0.066h0.036H15.1L15.1,15.024L15.1,15.024z"/>
				<polygon style="clip-path:url(#SVGID_6_);fill:#FCFF2C;" points="15.337,15.156 15.37,15.425 15.065,15.425 15.1,15.156 				"/>
				<path style="clip-path:url(#SVGID_6_);" d="M15.402,15.425h-0.338v-0.269h0.272L15.402,15.425L15.402,15.425z M15.337,15.156
					H15.1v0.269h0.237V15.156L15.337,15.156z"/>
				<path style="clip-path:url(#SVGID_6_);fill:#FCFF2C;" d="M14.191,15.024h0.065l0,0h0.102l0,0h0.098l0,0h0.073l0,0h0.098v0.132
					c0,0,0,0-0.033,0h-0.37h-0.033V15.024L14.191,15.024z"/>
				<path style="clip-path:url(#SVGID_6_);" d="M14.595,15.156h-0.37h-0.066v-0.132l0.098-0.138l0.036,0.138h0.066l0,0l0.098-0.138
					l0.04,0.138h0.033h-0.033l0.131-0.138l0.03,0.27H14.595L14.595,15.156z M14.257,15.024h-0.065l0.033,0.132h0.37h0.033v-0.132
					H14.53l0,0h-0.073l0,0h-0.098l0,0H14.257L14.257,15.024L14.257,15.024z"/>
				<rect x="14.257" y="15.156" style="clip-path:url(#SVGID_6_);fill:#FCFF2C;" width="0.305" height="0.269"/>
				<path style="clip-path:url(#SVGID_6_);" d="M14.224,15.425v-0.269h0.338l0.033,0.269H14.224L14.224,15.425z M14.53,15.156
					h-0.273v0.269h0.305L14.53,15.156L14.53,15.156z"/>
				<path style="clip-path:url(#SVGID_6_);fill:#FCFF2C;" d="M14.497,15.992l0.302-0.401c0,0,0.331,0.151,0.331,0.401H14.497
					L14.497,15.992z"/>
				<path style="clip-path:url(#SVGID_6_);fill:#FCFF2C;" d="M14.224,15.742l-0.066,0.25h0.338c0-0.25,0.302-0.401,0.302-0.401
					c0.03,0,0.302,0.151,0.331,0.401h0.305l-0.065-0.25H14.224L14.224,15.742z"/>
				<path style="clip-path:url(#SVGID_6_);" d="M15.468,15.992H15.13c-0.03-0.25-0.331-0.401-0.331-0.401s-0.269,0.151-0.269,0.401
					h-0.371l0.066-0.25h1.146L15.468,15.992L15.468,15.992z M14.762,15.742h-0.538l-0.033,0.25h0.305
					C14.497,15.742,14.697,15.742,14.762,15.742L14.762,15.742z M14.864,15.742c0.065,0,0.266,0,0.266,0.25h0.305l-0.065-0.25
					H14.864L14.864,15.742z"/>
				<path style="clip-path:url(#SVGID_6_);fill:#FCFF2C;" d="M14.158,15.992h1.31H15.5c0,0.25,0,0.25,0,0.25h-1.342
					c-0.036,0-0.066,0-0.066-0.25C14.093,15.992,14.122,15.992,14.158,15.992L14.158,15.992z"/>
				<path style="clip-path:url(#SVGID_6_);" d="M15.468,16.242h-1.31c-0.066,0-0.066,0-0.066-0.25c0,0,0,0,0.066,0h1.31H15.5
					c0,0.25,0,0.25,0,0.25H15.468z M14.25,15.992v0.25h1.218c0,0,0.033,0,0.033-0.25H14.25L14.25,15.992z"/>
				<path style="clip-path:url(#SVGID_6_);fill:#FCFF2C;" d="M14.657,16.095c0-0.263,0.141-0.401,0.141-0.401
					s0.164,0.138,0.164,0.401H14.657L14.657,16.095z"/>
				<path style="clip-path:url(#SVGID_6_);" d="M15.032,16.095h-0.375c-0.03-0.263,0.141-0.401,0.141-0.401
					C14.828,15.694,15.032,15.832,15.032,16.095L15.032,16.095L15.032,16.095z M14.799,15.694c0,0.138-0.141,0.138-0.141,0.401
					h0.305C14.963,15.832,14.799,15.832,14.799,15.694L14.799,15.694z"/>
				<path style="clip-path:url(#SVGID_6_);fill:#FCFF2C;" d="M14.158,15.492h1.277c0.033,0,0.066,0,0.066,0s-0.033,0-0.066,0H14.158
					h-0.036H14.158L14.158,15.492z"/>
				<path style="clip-path:url(#SVGID_6_);" d="M15.435,15.492h-1.277c-0.036,0-0.066,0-0.066,0s0.03,0,0.066,0H15.435
					c0.033,0,0.066,0,0.066,0S15.468,15.492,15.435,15.492L15.435,15.492z M14.25,15.492L14.25,15.492h1.185
					c0.033,0,0.033,0,0.033,0H14.25L14.25,15.492z"/>
				<path style="clip-path:url(#SVGID_6_);fill:#FCFF2C;" d="M14.224,15.492h1.178h0.066c0,0.25-0.033,0.25-0.033,0.25h-1.211
					c-0.066,0-0.066,0-0.066-0.25C14.158,15.492,14.158,15.492,14.224,15.492L14.224,15.492z"/>
				<path style="clip-path:url(#SVGID_6_);" d="M15.402,15.742h-1.178c-0.066,0-0.102,0-0.102-0.25c0,0,0.036,0,0.102,0h1.178h0.066
					c0,0.25-0.033,0.25-0.033,0.25H15.402z M14.25,15.492v0.25h1.152c0,0,0.033,0,0.033-0.25H14.25L14.25,15.492z"/>
				<polygon style="clip-path:url(#SVGID_6_);" points="14.762,15.024 14.864,15.024 14.864,15.156 14.762,15.156 14.762,15.024 
									"/>
				<path style="clip-path:url(#SVGID_6_);" d="M15.203,15.287c0-0.131,0.062-0.131,0.062,0l0,0H15.203L15.203,15.287L15.203,15.287
					z"/>
				<path style="clip-path:url(#SVGID_6_);" d="M14.359,15.287c0-0.131,0.098-0.131,0.098,0l0,0H14.359L14.359,15.287L14.359,15.287
					z"/>
				<path style="clip-path:url(#SVGID_6_);fill:#FCFF2C;" d="M7.904,18.794l0.069-0.145l0.036,0.145l0.066-0.145H8.009l0.099-0.131
					v0.131l0.102-0.131H8.108h0.102h0.132v0.131l-0.266,0.269c0,0-0.036,0-0.066,0L7.904,18.794L7.904,18.794z"/>
				<path style="clip-path:url(#SVGID_6_);" d="M8.038,18.918h-0.03l-0.105-0.124l0.033-0.145l0.102,0.145v-0.145h-0.03l0.066-0.131
					l0.063,0.131v-0.131h-0.03h0.102h0.132v0.131L8.038,18.918L8.038,18.918z M7.937,18.649l-0.033,0.145l0.134,0.124l0,0
					l0.24-0.269l-0.069-0.131H8.137h0.072l-0.072,0.131l-0.063-0.131l-0.036,0.131h0.069l-0.069,0.145L7.937,18.649L7.937,18.649z"
					/>
				<polygon style="clip-path:url(#SVGID_6_);fill:#FCFF2C;" points="8.341,18.649 8.711,18.918 8.442,19.319 8.108,18.918 				"/>
				<path style="clip-path:url(#SVGID_6_);" d="M8.442,19.319l-0.335-0.401l0.171-0.269l0.466,0.269L8.442,19.319L8.442,19.319z
					 M8.278,18.649l-0.171,0.269l0.335,0.401l0.269-0.401L8.278,18.649L8.278,18.649z"/>
				<polygon style="clip-path:url(#SVGID_6_);fill:#FCFF2C;" points="8.341,18.649 8.442,18.518 8.511,18.649 8.58,18.518 
					8.511,18.518 8.58,18.518 8.643,18.518 8.682,18.518 8.643,18.386 8.711,18.386 8.814,18.518 8.814,18.518 8.58,18.794 
					8.511,18.794 8.341,18.649 				"/>
				<path style="clip-path:url(#SVGID_6_);" d="M8.544,18.794H8.511l-0.17-0.145l0.102-0.131l0.102,0.131l0.036-0.131H8.511H8.58
					h0.063h0.039L8.61,18.386h0.102l0.102,0.132l0,0L8.544,18.794L8.544,18.794z M8.442,18.518l-0.102,0.131l0.203,0.145H8.58
					l0.233-0.276l-0.102-0.132H8.643l0.069,0.132H8.643H8.58H8.544H8.58l-0.036,0.131L8.442,18.518L8.442,18.518z"/>
				<polygon style="clip-path:url(#SVGID_6_);fill:#FCFF2C;" points="8.814,18.518 8.981,18.649 8.781,18.918 8.58,18.794 				"/>
				<path style="clip-path:url(#SVGID_6_);" d="M8.781,18.918l-0.2-0.124l0.2-0.276l0.2,0.131L8.781,18.918L8.781,18.918z
					 M8.781,18.518l-0.2,0.276l0.2,0.124l0.2-0.269L8.781,18.518L8.781,18.518z"/>
				<polygon style="clip-path:url(#SVGID_6_);fill:#FCFF2C;" points="7.773,19.333 7.874,19.201 7.904,19.322 7.937,19.163 
					7.904,18.992 7.937,18.992 8.009,18.992 8.075,18.992 8.009,18.992 8.108,18.992 8.209,19.107 8.209,19.107 7.937,19.492 
					7.904,19.492 7.773,19.333 				"/>
				<path style="clip-path:url(#SVGID_6_);" d="M7.904,19.463L7.904,19.463l-0.131-0.121l0.101-0.101H8l0,0v-0.25H7.937h0.102l0,0
					h-0.03h0.066l0.134,0.101l0,0L7.904,19.463L7.904,19.463z M7.874,19.194l-0.072,0.125l0.102,0.145l0.033-0.145l0.272-0.226
					l-0.134-0.101H8.038h0.069H8.038H7.937H7.904l0.033,0.17l-0.033,0.141L7.874,19.194L7.874,19.194z"/>
				<polygon style="clip-path:url(#SVGID_6_);fill:#FCFF2C;" points="8.209,19.056 8.341,19.319 8.137,19.595 7.937,19.319 				"/>
				<path style="clip-path:url(#SVGID_6_);" d="M8.137,19.595l-0.2-0.131l0.2-0.407l0.305,0.263L8.137,19.595L8.137,19.595z
					 M8.137,19.056l-0.164,0.407l0.164,0.131l0.204-0.276L8.137,19.056L8.137,19.056z"/>
				<path style="clip-path:url(#SVGID_6_);fill:#FCFF2C;" d="M8.882,19.864c-0.302-0.269-0.138-0.545-0.138-0.545
					s0.305-0.263,0.572,0.145L8.882,19.864L8.882,19.864z"/>
				<path style="clip-path:url(#SVGID_6_);fill:#FCFF2C;" d="M8.278,19.726l0.364,0.407l0.239-0.27
					c-0.302-0.269-0.102-0.545-0.102-0.545s0.269-0.263,0.535,0.145l0.2-0.27l-0.368-0.276L8.278,19.726L8.278,19.726z"/>
				<path style="clip-path:url(#SVGID_6_);" d="M8.643,20.133l-0.364-0.407l0.837-0.932l0.436,0.4l-0.236,0.231
					c-0.134-0.145-0.266-0.183-0.335-0.183c-0.167,0-0.2,0-0.2,0l0,0c0,0-0.2,0.314,0.102,0.583L8.643,20.133L8.643,20.133z
					 M8.711,19.319l-0.433,0.407l0.364,0.407l0.206-0.27c-0.138-0.138-0.167-0.269-0.167-0.4
					C8.711,19.463,8.711,19.319,8.711,19.319L8.711,19.319z M8.981,19.242c0.102,0,0.2,0.039,0.335,0.183l0.2-0.25L9.115,18.87
					l-0.335,0.372C8.781,19.242,8.882,19.242,8.981,19.242L8.981,19.242z"/>
				<path style="clip-path:url(#SVGID_6_);fill:#FCFF2C;" d="M8.61,20.242l0.942-1c0-0.25,0.036-0.25,0.036,0
					c0.033,0,0.033,0.155,0.033,0.155l-0.91,0.845H8.643c-0.033,0-0.063,0-0.063,0H8.61z"/>
				<path style="clip-path:url(#SVGID_6_);" d="M8.682,20.242H8.61c-0.03,0-0.03-0.123-0.03-0.123l0.875-1.07
					c0.072,0,0.044,0.007,0.044,0.145v0.125L8.682,20.242L8.682,20.242z M9.5,19.194l-0.901,0.939l0,0l0.061,0.138l-0.004-0.138
					L9.5,19.319V19.194L9.5,19.194L9.5,19.194z"/>
				<path style="clip-path:url(#SVGID_6_);fill:#FCFF2C;" d="M8.981,19.864c-0.2-0.269-0.132-0.4-0.132-0.4s0.165-0.145,0.332,0
					L8.981,19.864L8.981,19.864z"/>
				<path style="clip-path:url(#SVGID_6_);" d="M8.981,19.864H8.948c-0.167-0.269-0.134-0.4-0.134-0.4c0.069,0,0.2-0.145,0.403,0
					L8.981,19.864L8.981,19.864z M8.882,19.463c0,0-0.069,0.131,0.099,0.262l0.2-0.262C9.014,19.463,8.882,19.463,8.882,19.463
					L8.882,19.463L8.882,19.463z"/>
				<path style="clip-path:url(#SVGID_6_);fill:#FCFF2C;" d="M8,19.595l1.05-0.853H9v0.052l-0.791,0.948c-0.072,0-0.209,0-0.209,0
					V19.595L8,19.595z"/>
				<path style="clip-path:url(#SVGID_6_);" d="M8.137,19.742H8v-0.147l1.014-0.853H9v0.052L8.137,19.742L8.137,19.742z
					 M8.137,19.742L8.137,19.742L8.137,19.742L9,18.794v-0.052h0.05L8,19.595v0.147H8.137L8.137,19.742z"/>
				<path style="clip-path:url(#SVGID_6_);fill:#FCFF2C;" d="M8.209,19.742l0.873-1c0.033,0,0.167,0,0.167,0s0,0.052,0,0.177
					l-0.972,0.823H8.209L8.209,19.742L8.209,19.742z"/>
				<path style="clip-path:url(#SVGID_6_);" d="M8.313,19.864L8.226,19.7c-0.072,0-0.072,0,0,0l0.856-0.958H9.25
					c0,0,0,0.052,0,0.177L8.313,19.864L8.313,19.864z M8.278,19.742L8.278,19.742L8.278,19.742l0.903-1l0,0H9.115l-0.906,1l0,0
					H8.278L8.278,19.742z"/>
				<path style="clip-path:url(#SVGID_6_);" d="M8.278,18.918c0,0,0-0.124,0.063-0.124l0.102,0.124H8.341H8.278L8.278,18.918z"/>
				<path style="clip-path:url(#SVGID_6_);" d="M8.781,18.794c-0.069-0.145,0-0.145,0-0.145l0.069,0.145H8.814H8.781L8.781,18.794z"
					/>
				<polygon style="clip-path:url(#SVGID_6_);" points="8.108,19.319 8.137,19.319 8.209,19.319 8.209,19.463 8.108,19.319 				"/>
			</g>
		</g>
	</g>
	<g>
		<path d="M16,1.5c7.995,0,14.5,6.505,14.5,14.5S23.995,30.5,16,30.5S1.5,23.995,1.5,16S8.005,1.5,16,1.5 M16,0
			C7.163,0,0,7.163,0,16c0,8.837,7.163,16,16,16s16-7.163,16-16C32,7.163,24.837,0,16,0L16,0z"/>
	</g>
</g>
<g id="Ebene_1">
</g>
</svg>
