<?xml version="1.0" encoding="iso-8859-1"?>
<!-- Generator: Adobe Illustrator 20.0.0, SVG Export Plug-In . SVG Version: 6.00 Build 0)  -->
<svg version="1.1" xmlns="http://www.w3.org/2000/svg" xmlns:xlink="http://www.w3.org/1999/xlink" x="0px" y="0px"
	 viewBox="0 0 32 32" style="enable-background:new 0 0 32 32;" xml:space="preserve" width="32px" height="32px" class="br-symbol-library">
<g id="Russia">
	<g>
		<defs>
			<path id="SVGID_1_" d="M0.5,16C0.5,24.558,7.439,31.5,16.001,31.5C24.561,31.5,31.5,24.558,31.5,16
				c0-8.561-6.939-15.5-15.499-15.5C7.439,0.5,0.5,7.439,0.5,16"/>
		</defs>
		<clipPath id="SVGID_2_">
			<use xlink:href="#SVGID_1_"  style="overflow:visible;"/>
		</clipPath>
		<polygon style="clip-path:url(#SVGID_2_);fill:#FFFFFF;" points="-7.103,10.492 -6.985,0.358 39.106,0.454 38.988,10.492 		"/>
		<rect x="-7.068" y="21.242" style="clip-path:url(#SVGID_2_);fill:#AE161C;" width="46.25" height="10.25"/>
		<rect x="-7.068" y="10.492" style="clip-path:url(#SVGID_2_);fill:#426AB8;" width="46.25" height="10.75"/>
	</g>
	<path d="M16,1.5c7.995,0,14.5,6.505,14.5,14.5S23.995,30.5,16,30.5S1.5,23.995,1.5,16S8.005,1.5,16,1.5 M16,0C7.163,0,0,7.163,0,16
		s7.163,16,16,16c8.837,0,16-7.163,16-16S24.837,0,16,0L16,0z"/>
</g>
<g id="Ebene_1">
</g>
</svg>
