<?xml version="1.0" encoding="iso-8859-1"?>
<!-- Generator: Adobe Illustrator 20.0.0, SVG Export Plug-In . SVG Version: 6.00 Build 0)  -->
<svg version="1.1" xmlns="http://www.w3.org/2000/svg" xmlns:xlink="http://www.w3.org/1999/xlink" x="0px" y="0px"
	 viewBox="0 0 32 32" style="enable-background:new 0 0 32 32;" xml:space="preserve" width="32px" height="32px" class="br-symbol-library">
<g id="USA">
	<g>
		<defs>
			<circle id="SVGID_1_" cx="16" cy="16" r="15.5"/>
		</defs>
		<clipPath id="SVGID_2_">
			<use xlink:href="#SVGID_1_"  style="overflow:visible;"/>
		</clipPath>
		<g style="clip-path:url(#SVGID_2_);">
			<defs>
				<rect id="SVGID_3_" x="-5.5" y="0.492" width="53.25" height="31"/>
			</defs>
			<clipPath id="SVGID_4_">
				<use xlink:href="#SVGID_3_"  style="overflow:visible;"/>
			</clipPath>
			<rect x="-5.5" y="29.242" style="clip-path:url(#SVGID_4_);fill:#CB001C;" width="53.25" height="2.25"/>
			<rect x="-5.5" y="26.742" style="clip-path:url(#SVGID_4_);fill:#FFFFFF;" width="53.25" height="2.5"/>
			<rect x="-5.5" y="24.492" style="clip-path:url(#SVGID_4_);fill:#CB001C;" width="53.25" height="2.25"/>
			<rect x="-5.5" y="21.992" style="clip-path:url(#SVGID_4_);fill:#FFFFFF;" width="53.25" height="2.5"/>
			<rect x="-5.5" y="19.492" style="clip-path:url(#SVGID_4_);fill:#CB001C;" width="53.25" height="2.5"/>
			<rect x="-5.5" y="16.992" style="clip-path:url(#SVGID_4_);fill:#FFFFFF;" width="53.25" height="2.5"/>
			<rect x="-5.5" y="14.742" style="clip-path:url(#SVGID_4_);fill:#CB001C;" width="53.25" height="2.25"/>
			<rect x="-5.5" y="12.242" style="clip-path:url(#SVGID_4_);fill:#FFFFFF;" width="53.25" height="2.5"/>
			<rect x="-5.5" y="9.992" style="clip-path:url(#SVGID_4_);fill:#CB001C;" width="53.25" height="2.25"/>
			<rect x="-5.5" y="7.492" style="clip-path:url(#SVGID_4_);fill:#FFFFFF;" width="53.25" height="2.5"/>
			<rect x="-5.5" y="5.242" style="clip-path:url(#SVGID_4_);fill:#CB001C;" width="53.25" height="2.25"/>
			<rect x="-5.5" y="2.742" style="clip-path:url(#SVGID_4_);fill:#FFFFFF;" width="53.25" height="2.5"/>
			<rect x="-5.5" y="0.492" style="clip-path:url(#SVGID_4_);fill:#CB001C;" width="53.25" height="2.25"/>
			<rect x="-5.5" y="0.492" style="clip-path:url(#SVGID_4_);fill:#2A3560;" width="24.25" height="16.5"/>
			<polygon style="clip-path:url(#SVGID_4_);fill:#FFFFFF;" points="-3.406,2.317 -3.205,2.992 -2.494,2.992 -3.066,3.35 
				-2.864,3.85 -3.406,3.565 -3.908,3.828 -3.71,3.354 -4.282,2.992 -3.605,2.992 			"/>
			<polygon style="clip-path:url(#SVGID_4_);fill:#FFFFFF;" points="-3.406,5.055 -3.205,5.742 -2.494,5.742 -3.066,6.139 
				-2.864,6.81 -3.406,6.399 -3.908,6.808 -3.71,6.139 -4.282,5.742 -3.605,5.742 			"/>
			<polygon style="clip-path:url(#SVGID_4_);fill:#FFFFFF;" points="-3.406,7.95 -3.205,8.492 -2.494,8.492 -3.066,8.868 
				-2.864,9.526 -3.406,9.108 -3.908,9.513 -3.71,8.87 -4.282,8.492 -3.605,8.492 			"/>
			<polygon style="clip-path:url(#SVGID_4_);fill:#FFFFFF;" points="-3.406,10.554 -3.205,11.242 -2.494,11.242 -3.066,11.66 
				-2.864,12.342 -3.406,11.944 -3.908,12.348 -3.71,11.659 -4.282,11.242 -3.605,11.242 			"/>
			<polygon style="clip-path:url(#SVGID_4_);fill:#FFFFFF;" points="-3.406,13.45 -3.205,13.992 -2.494,13.992 -3.066,14.46 
				-2.864,15.163 -3.406,14.774 -3.908,15.184 -3.71,14.456 -4.282,13.992 -3.605,13.992 			"/>
			<polygon style="clip-path:url(#SVGID_4_);fill:#FFFFFF;" points="-1.44,3.817 -1.206,4.492 -0.565,4.492 -1.107,4.694 
				-0.902,5.477 -1.44,5.059 -1.949,5.454 -1.747,4.698 -2.289,4.492 -1.612,4.492 			"/>
			<polygon style="clip-path:url(#SVGID_4_);fill:#FFFFFF;" points="-1.44,6.561 -1.206,7.242 -0.565,7.242 -1.107,7.629 
				-0.902,8.169 -1.44,7.888 -1.949,8.164 -1.747,7.63 -2.289,7.242 -1.612,7.242 			"/>
			<polygon style="clip-path:url(#SVGID_4_);fill:#FFFFFF;" points="-1.44,9.318 -1.206,9.992 -0.565,9.992 -1.107,10.292 
				-0.902,10.981 -1.44,10.579 -1.949,10.992 -1.747,10.29 -2.289,9.992 -1.612,9.992 			"/>
			<polygon style="clip-path:url(#SVGID_4_);fill:#FFFFFF;" points="-1.44,12.068 -1.206,12.742 -0.565,12.742 -1.107,13.151 
				-0.902,13.834 -1.44,13.426 -1.949,13.837 -1.747,13.15 -2.289,12.742 -1.612,12.742 			"/>
			<polygon style="clip-path:url(#SVGID_4_);fill:#FFFFFF;" points="0.522,2.317 0.757,2.992 1.434,2.992 0.859,3.35 1.06,3.85 
				0.522,3.565 0.013,3.828 0.215,3.354 -0.327,2.992 0.32,2.992 			"/>
			<polygon style="clip-path:url(#SVGID_4_);fill:#FFFFFF;" points="0.522,5.055 0.757,5.742 1.434,5.742 0.859,6.139 1.06,6.81 
				0.522,6.399 0.013,6.808 0.215,6.139 -0.327,5.742 0.32,5.742 			"/>
			<polygon style="clip-path:url(#SVGID_4_);fill:#FFFFFF;" points="0.522,7.95 0.757,8.492 1.434,8.492 0.859,8.868 1.06,9.526 
				0.522,9.108 0.013,9.513 0.215,8.87 -0.327,8.492 0.32,8.492 			"/>
			<polygon style="clip-path:url(#SVGID_4_);fill:#FFFFFF;" points="0.522,10.554 0.757,11.242 1.434,11.242 0.859,11.66 
				1.06,12.342 0.522,11.944 0.013,12.348 0.215,11.659 -0.327,11.242 0.32,11.242 			"/>
			<polygon style="clip-path:url(#SVGID_4_);fill:#FFFFFF;" points="0.522,13.45 0.757,13.992 1.434,13.992 0.859,14.46 
				1.06,15.163 0.522,14.774 0.013,15.184 0.215,14.456 -0.327,13.992 0.32,13.992 			"/>
			<polygon style="clip-path:url(#SVGID_4_);fill:#FFFFFF;" points="2.514,3.817 2.715,4.492 3.357,4.492 2.818,4.694 3.022,5.477 
				2.514,5.059 1.943,5.454 2.177,4.698 1.668,4.492 2.309,4.492 			"/>
			<polygon style="clip-path:url(#SVGID_4_);fill:#FFFFFF;" points="2.514,6.561 2.715,7.242 3.357,7.242 2.818,7.629 3.022,8.169 
				2.514,7.888 1.943,8.164 2.177,7.63 1.668,7.242 2.309,7.242 			"/>
			<polygon style="clip-path:url(#SVGID_4_);fill:#FFFFFF;" points="2.514,9.318 2.715,9.992 3.357,9.992 2.818,10.292 
				3.022,10.981 2.514,10.579 1.943,10.992 2.177,10.29 1.668,9.992 2.309,9.992 			"/>
			<polygon style="clip-path:url(#SVGID_4_);fill:#FFFFFF;" points="2.514,12.068 2.715,12.742 3.357,12.742 2.818,13.151 
				3.022,13.834 2.514,13.426 1.943,13.837 2.177,13.15 1.668,12.742 2.309,12.742 			"/>
			<polygon style="clip-path:url(#SVGID_4_);fill:#FFFFFF;" points="4.476,2.317 4.648,2.992 5.355,2.992 4.783,3.35 4.982,3.85 
				4.476,3.565 3.938,3.828 4.139,3.354 3.597,2.992 4.275,2.992 			"/>
			<polygon style="clip-path:url(#SVGID_4_);fill:#FFFFFF;" points="4.476,5.055 4.648,5.742 5.355,5.742 4.783,6.139 4.982,6.81 
				4.476,6.399 3.938,6.808 4.139,6.139 3.597,5.742 4.275,5.742 			"/>
			<polygon style="clip-path:url(#SVGID_4_);fill:#FFFFFF;" points="4.476,7.95 4.648,8.492 5.355,8.492 4.783,8.868 4.982,9.526 
				4.476,9.108 3.938,9.513 4.139,8.87 3.597,8.492 4.275,8.492 			"/>
			<polygon style="clip-path:url(#SVGID_4_);fill:#FFFFFF;" points="4.476,10.554 4.648,11.242 5.355,11.242 4.783,11.66 
				4.982,12.342 4.476,11.944 3.938,12.348 4.139,11.659 3.597,11.242 4.275,11.242 			"/>
			<polygon style="clip-path:url(#SVGID_4_);fill:#FFFFFF;" points="4.476,13.45 4.648,13.992 5.355,13.992 4.783,14.46 
				4.982,15.163 4.476,14.774 3.938,15.184 4.139,14.456 3.597,13.992 4.275,13.992 			"/>
			<polygon style="clip-path:url(#SVGID_4_);fill:#FFFFFF;" points="6.438,3.817 6.636,4.492 7.284,4.492 6.742,4.694 7.01,5.477 
				6.438,5.059 5.896,5.454 6.098,4.698 5.593,4.492 6.237,4.492 			"/>
			<polygon style="clip-path:url(#SVGID_4_);fill:#FFFFFF;" points="6.438,6.561 6.636,7.242 7.284,7.242 6.742,7.629 7.01,8.169 
				6.438,7.888 5.896,8.164 6.098,7.63 5.593,7.242 6.237,7.242 			"/>
			<polygon style="clip-path:url(#SVGID_4_);fill:#FFFFFF;" points="6.438,9.318 6.636,9.992 7.284,9.992 6.742,10.292 7.01,10.981 
				6.438,10.579 5.896,10.992 6.098,10.29 5.593,9.992 6.237,9.992 			"/>
			<polygon style="clip-path:url(#SVGID_4_);fill:#FFFFFF;" points="6.438,12.068 6.636,12.742 7.284,12.742 6.742,13.151 
				7.01,13.834 6.438,13.426 5.896,13.837 6.098,13.15 5.593,12.742 6.237,12.742 			"/>
			<polygon style="clip-path:url(#SVGID_4_);fill:#FFFFFF;" points="8.401,2.317 8.569,2.992 9.279,2.992 8.705,3.35 8.91,3.85 
				8.401,3.565 7.895,3.828 8.061,3.354 7.519,2.992 8.196,2.992 			"/>
			<polygon style="clip-path:url(#SVGID_4_);fill:#FFFFFF;" points="8.401,5.055 8.569,5.742 9.279,5.742 8.705,6.139 8.91,6.81 
				8.401,6.399 7.895,6.808 8.061,6.139 7.519,5.742 8.196,5.742 			"/>
			<polygon style="clip-path:url(#SVGID_4_);fill:#FFFFFF;" points="8.401,7.95 8.569,8.492 9.279,8.492 8.705,8.868 8.91,9.526 
				8.401,9.108 7.895,9.513 8.061,8.87 7.519,8.492 8.196,8.492 			"/>
			<polygon style="clip-path:url(#SVGID_4_);fill:#FFFFFF;" points="8.401,10.554 8.569,11.242 9.279,11.242 8.705,11.66 
				8.91,12.342 8.401,11.944 7.895,12.348 8.061,11.659 7.519,11.242 8.196,11.242 			"/>
			<polygon style="clip-path:url(#SVGID_4_);fill:#FFFFFF;" points="8.401,13.45 8.569,13.992 9.279,13.992 8.705,14.46 
				8.91,15.163 8.401,14.774 7.895,15.184 8.061,14.456 7.519,13.992 8.196,13.992 			"/>
			<polygon style="clip-path:url(#SVGID_4_);fill:#FFFFFF;" points="10.363,3.817 10.564,4.492 11.238,4.492 10.7,4.694 
				10.872,5.477 10.363,5.059 9.821,5.454 10.026,4.698 9.517,4.492 10.158,4.492 			"/>
			<polygon style="clip-path:url(#SVGID_4_);fill:#FFFFFF;" points="10.363,6.561 10.564,7.242 11.238,7.242 10.7,7.629 
				10.872,8.169 10.363,7.888 9.821,8.164 10.026,7.63 9.517,7.242 10.158,7.242 			"/>
			<polygon style="clip-path:url(#SVGID_4_);fill:#FFFFFF;" points="10.363,9.318 10.564,9.992 11.238,9.992 10.7,10.292 
				10.872,10.981 10.363,10.579 9.821,10.992 10.026,10.29 9.517,9.992 10.158,9.992 			"/>
			<polygon style="clip-path:url(#SVGID_4_);fill:#FFFFFF;" points="10.363,12.068 10.564,12.742 11.238,12.742 10.7,13.151 
				10.872,13.834 10.363,13.426 9.821,13.837 10.026,13.15 9.517,12.742 10.158,12.742 			"/>
			<polygon style="clip-path:url(#SVGID_4_);fill:#FFFFFF;" points="12.321,2.317 12.526,2.992 13.204,2.992 12.626,3.35 
				12.828,3.85 12.321,3.565 11.813,3.828 11.985,3.354 11.476,2.992 12.121,2.992 			"/>
			<polygon style="clip-path:url(#SVGID_4_);fill:#FFFFFF;" points="12.321,5.055 12.526,5.742 13.204,5.742 12.626,6.139 
				12.828,6.81 12.321,6.399 11.813,6.808 11.985,6.139 11.476,5.742 12.121,5.742 			"/>
			<polygon style="clip-path:url(#SVGID_4_);fill:#FFFFFF;" points="12.321,7.95 12.526,8.492 13.204,8.492 12.626,8.868 
				12.828,9.526 12.321,9.108 11.813,9.513 11.985,8.87 11.476,8.492 12.121,8.492 			"/>
			<polygon style="clip-path:url(#SVGID_4_);fill:#FFFFFF;" points="12.321,10.554 12.526,11.242 13.204,11.242 12.626,11.66 
				12.828,12.342 12.321,11.944 11.813,12.348 11.985,11.659 11.476,11.242 12.121,11.242 			"/>
			<polygon style="clip-path:url(#SVGID_4_);fill:#FFFFFF;" points="12.321,13.45 12.526,13.992 13.204,13.992 12.626,14.46 
				12.828,15.163 12.321,14.774 11.813,15.184 11.985,14.456 11.476,13.992 12.121,13.992 			"/>
			<polygon style="clip-path:url(#SVGID_4_);fill:#FFFFFF;" points="14.288,3.817 14.486,4.492 15.166,4.492 14.621,4.694 
				14.793,5.477 14.288,5.059 13.779,5.454 13.947,4.698 13.442,4.492 14.083,4.492 			"/>
			<polygon style="clip-path:url(#SVGID_4_);fill:#FFFFFF;" points="14.288,6.561 14.486,7.242 15.166,7.242 14.621,7.629 
				14.793,8.169 14.288,7.888 13.779,8.164 13.947,7.63 13.442,7.242 14.083,7.242 			"/>
			<polygon style="clip-path:url(#SVGID_4_);fill:#FFFFFF;" points="14.288,9.318 14.486,9.992 15.166,9.992 14.621,10.292 
				14.793,10.981 14.288,10.579 13.779,10.992 13.947,10.29 13.442,9.992 14.083,9.992 			"/>
			<polygon style="clip-path:url(#SVGID_4_);fill:#FFFFFF;" points="14.288,12.068 14.486,12.742 15.166,12.742 14.621,13.151 
				14.793,13.834 14.288,13.426 13.779,13.837 13.947,13.15 13.442,12.742 14.083,12.742 			"/>
			<polygon style="clip-path:url(#SVGID_4_);fill:#FFFFFF;" points="16.243,2.317 16.448,2.992 17.195,2.992 16.55,3.35 
				16.752,3.85 16.243,3.565 15.737,3.828 15.939,3.354 15.4,2.992 16.045,2.992 			"/>
			<polygon style="clip-path:url(#SVGID_4_);fill:#FFFFFF;" points="16.243,5.055 16.448,5.742 17.195,5.742 16.55,6.139 
				16.752,6.81 16.243,6.399 15.737,6.808 15.939,6.139 15.4,5.742 16.045,5.742 			"/>
			<polygon style="clip-path:url(#SVGID_4_);fill:#FFFFFF;" points="16.243,7.95 16.448,8.492 17.195,8.492 16.55,8.868 
				16.752,9.526 16.243,9.108 15.737,9.513 15.939,8.87 15.4,8.492 16.045,8.492 			"/>
			<polygon style="clip-path:url(#SVGID_4_);fill:#FFFFFF;" points="16.243,10.554 16.448,11.242 17.195,11.242 16.55,11.66 
				16.752,12.342 16.243,11.944 15.737,12.348 15.939,11.659 15.4,11.242 16.045,11.242 			"/>
			<polygon style="clip-path:url(#SVGID_4_);fill:#FFFFFF;" points="16.243,13.45 16.448,13.992 17.195,13.992 16.55,14.46 
				16.752,15.163 16.243,14.774 15.737,15.184 15.939,14.456 15.4,13.992 16.045,13.992 			"/>
		</g>
	</g>
	<g>
		<path d="M16,1.5c7.995,0,14.5,6.505,14.5,14.5S23.995,30.5,16,30.5S1.5,23.995,1.5,16S8.005,1.5,16,1.5 M16,0
			C7.163,0,0,7.163,0,16c0,8.837,7.163,16,16,16s16-7.163,16-16C32,7.163,24.837,0,16,0L16,0z"/>
	</g>
</g>
<g id="Ebene_1">
</g>
</svg>
