<?xml version="1.0" encoding="UTF-8" standalone="no"?>
<!-- Generator: Adobe Illustrator 20.0.0, SVG Export Plug-In . SVG Version: 6.00 Build 0)  -->

<svg
   xmlns:dc="http://purl.org/dc/elements/1.1/"
   xmlns:cc="http://creativecommons.org/ns#"
   xmlns:rdf="http://www.w3.org/1999/02/22-rdf-syntax-ns#"
   xmlns:svg="http://www.w3.org/2000/svg"
   xmlns="http://www.w3.org/2000/svg"
   xmlns:sodipodi="http://sodipodi.sourceforge.net/DTD/sodipodi-0.dtd"
   xmlns:inkscape="http://www.inkscape.org/namespaces/inkscape"
   version="1.1"
   id="Ebene_1"
   x="0px"
   y="0px"
   viewBox="0 0 32 32"
   style="enable-background:new 0 0 32 32;"
   xml:space="preserve"
   width="32px"
   height="32px"
   class="br-symbol-library"
   sodipodi:docname="AlarmActive.svg"
   inkscape:version="0.92.2 (5c3e80d, 2017-08-06)"><metadata
     id="metadata10"><rdf:RDF><cc:Work
         rdf:about=""><dc:format>image/svg+xml</dc:format><dc:type
           rdf:resource="http://purl.org/dc/dcmitype/StillImage" /><dc:title></dc:title></cc:Work></rdf:RDF></metadata><defs
     id="defs8" /><sodipodi:namedview
     pagecolor="#ffffff"
     bordercolor="#666666"
     borderopacity="1"
     objecttolerance="10"
     gridtolerance="10"
     guidetolerance="10"
     inkscape:pageopacity="0"
     inkscape:pageshadow="2"
     inkscape:window-width="1920"
     inkscape:window-height="1018"
     id="namedview6"
     showgrid="false"
     inkscape:zoom="20.85965"
     inkscape:cx="20.680823"
     inkscape:cy="11.487835"
     inkscape:window-x="-8"
     inkscape:window-y="-8"
     inkscape:window-maximized="1"
     inkscape:current-layer="Alarm" /><g
     id="Alarm"><path
       id="Alarm_3_"
       d="M17.155,12.542h-2.31c-0.315,0-0.555,0.25-0.555,0.565v2.165c0,0.238,0.028,0.643,0.075,0.875l0.788,3.93   c0.048,0.233,0.28,0.465,0.52,0.465h0.678c0.237,0,0.485-0.232,0.533-0.465l0.792-3.95c0.048-0.233,0.115-0.617,0.115-0.855v-2.165   C17.79,12.792,17.47,12.542,17.155,12.542z M17.358,21.792h-2.635c-0.24,0-0.433,0.193-0.433,0.433v2.635   c0,0.238,0.193,0.432,0.433,0.432h2.635c0.238,0,0.432-0.195,0.432-0.432v-2.635C17.79,21.984,17.595,21.792,17.358,21.792z    M17.358,21.792h-2.635c-0.24,0-0.433,0.193-0.433,0.433v2.635c0,0.238,0.193,0.432,0.433,0.432h2.635   c0.238,0,0.432-0.195,0.432-0.432v-2.635C17.79,21.984,17.595,21.792,17.358,21.792z M17.155,12.542h-2.31   c-0.315,0-0.555,0.25-0.555,0.565v2.165c0,0.238,0.028,0.643,0.075,0.875l0.788,3.93c0.048,0.233,0.28,0.465,0.52,0.465h0.678   c0.237,0,0.485-0.232,0.533-0.465l0.792-3.95c0.048-0.233,0.115-0.617,0.115-0.855v-2.165C17.79,12.792,17.47,12.542,17.155,12.542   z M31.771,27.236L17.5,3.078c-0.307-0.537-0.88-0.87-1.5-0.87c-0.62,0-1.19,0.333-1.5,0.87L0.229,27.236   c-0.308,0.535-0.305,1.175,0.003,1.71c0.31,0.533,0.88,0.845,1.498,0.845h28.541c0.618,0,1.188-0.312,1.498-0.845   C32.076,28.411,32.078,27.771,31.771,27.236z M4.715,26.292L16,6.925l11.288,19.366H4.715z M17.358,21.792h-2.635   c-0.24,0-0.433,0.193-0.433,0.433v2.635c0,0.238,0.193,0.432,0.433,0.432h2.635c0.238,0,0.432-0.195,0.432-0.432v-2.635   C17.79,21.984,17.595,21.792,17.358,21.792z M14.29,13.106v2.165c0,0.238,0.028,0.643,0.075,0.875l0.788,3.93   c0.048,0.233,0.28,0.465,0.52,0.465h0.678c0.237,0,0.485-0.232,0.533-0.465l0.792-3.95c0.048-0.233,0.115-0.617,0.115-0.855v-2.165   c0-0.315-0.32-0.565-0.635-0.565h-2.31C14.53,12.542,14.29,12.792,14.29,13.106z"
       style="fill:#d80027;fill-opacity:1" /></g><g
     id="Ebene_1_1_" /></svg>