<?xml version="1.0" encoding="iso-8859-1"?>
<!-- Generator: Adobe Illustrator 20.0.0, SVG Export Plug-In . SVG Version: 6.00 Build 0)  -->
<svg version="1.1" id="Ebene_1" xmlns="http://www.w3.org/2000/svg" xmlns:xlink="http://www.w3.org/1999/xlink" x="0px" y="0px"
	 viewBox="0 0 32 32" style="enable-background:new 0 0 32 32;" xml:space="preserve" width="32px" height="32px" class="br-symbol-library">
<g id="AlarmHistory">
	<path d="M32,22.472v2.246h-8.543l-1.285-2.246C22.172,22.472,32,22.472,32,22.472z M10.782,13.738h-1.45
		c-0.2,0-0.295,0.193-0.295,0.392v1.36c0,0.15-0.01,0.449,0.02,0.594l0.467,2.513c0.03,0.147,0.177,0.382,0.327,0.382h0.424
		c0.152,0,0.332-0.234,0.362-0.382l0.524-2.571c0.027-0.145,0.122-0.387,0.122-0.537v-1.36
		C11.284,13.93,10.982,13.738,10.782,13.738z M11.284,19.75c0-0.15-0.122-0.272-0.272-0.272H9.309c-0.15,0-0.272,0.122-0.272,0.272
		v1.702c0,0.15,0.122,0.272,0.272,0.272h1.702c0.15,0,0.272-0.122,0.272-0.272V19.75H11.284z M11.284,19.75
		c0-0.15-0.122-0.272-0.272-0.272H9.309c-0.15,0-0.272,0.122-0.272,0.272v1.702c0,0.15,0.122,0.272,0.272,0.272h1.702
		c0.15,0,0.272-0.122,0.272-0.272V19.75H11.284z M10.782,13.738h-1.45c-0.2,0-0.295,0.193-0.295,0.392v1.36
		c0,0.15-0.01,0.449,0.02,0.594l0.467,2.513c0.03,0.147,0.177,0.382,0.327,0.382h0.424c0.152,0,0.332-0.234,0.362-0.382l0.524-2.571
		c0.027-0.145,0.122-0.387,0.122-0.537v-1.36C11.284,13.93,10.982,13.738,10.782,13.738z M19.97,23.01L11,7.825
		c-0.193-0.337-0.552-0.544-0.941-0.544S9.31,7.488,9.115,7.825L0.145,23.01c-0.195,0.337-0.192,0.791,0.002,1.125
		c0.195,0.337,0.552,0.584,0.941,0.584h17.938c0.389,0,0.746-0.247,0.941-0.584C20.162,23.801,20.165,23.347,19.97,23.01z
		 M2.963,22.472l7.096-12.172l7.093,12.173H2.963V22.472z M11.284,19.75c0-0.15-0.122-0.272-0.272-0.272H9.309
		c-0.15,0-0.272,0.122-0.272,0.272v1.702c0,0.15,0.122,0.272,0.272,0.272h1.702c0.15,0,0.272-0.122,0.272-0.272V19.75H11.284z
		 M9.037,14.13v1.36c0,0.15-0.01,0.449,0.02,0.594l0.467,2.513c0.03,0.147,0.177,0.382,0.327,0.382h0.424
		c0.152,0,0.332-0.234,0.362-0.382l0.524-2.571c0.027-0.145,0.122-0.387,0.122-0.537v-1.36c0-0.2-0.302-0.392-0.501-0.392h-1.45
		C9.133,13.738,9.037,13.93,9.037,14.13z M32,7.498v1.997H14.542l-1.285-1.997C13.257,7.498,32,7.498,32,7.498z M32,17.482v2.246
		H20.486l-1.285-2.246H32z M32,12.49v1.997H17.514l-1.285-1.997C16.229,12.49,32,12.49,32,12.49z"/>
</g>
<g id="Ebene_1_1_">
</g>
</svg>
