<?xml version="1.0" encoding="UTF-8" standalone="no"?>
<svg
   xmlns:dc="http://purl.org/dc/elements/1.1/"
   xmlns:cc="http://creativecommons.org/ns#"
   xmlns:rdf="http://www.w3.org/1999/02/22-rdf-syntax-ns#"
   xmlns:svg="http://www.w3.org/2000/svg"
   xmlns="http://www.w3.org/2000/svg"
   xmlns:sodipodi="http://sodipodi.sourceforge.net/DTD/sodipodi-0.dtd"
   xmlns:inkscape="http://www.inkscape.org/namespaces/inkscape"
   version="1.1"
   id="Ebene_1"
   x="0px"
   y="0px"
   viewBox="0 0 32 32"
   style="enable-background:new 0 0 32 32;"
   xml:space="preserve"
   width="32px"
   height="32px"
   class="br-symbol-library"
   sodipodi:docname="Folder.svg"
   inkscape:version="1.0.1 (3bc2e813f5, 2020-09-07)"><metadata
   id="metadata11"><rdf:RDF><cc:Work
       rdf:about=""><dc:format>image/svg+xml</dc:format><dc:type
         rdf:resource="http://purl.org/dc/dcmitype/StillImage" /></cc:Work></rdf:RDF></metadata><defs
   id="defs9" /><sodipodi:namedview
   pagecolor="#ffffff"
   bordercolor="#666666"
   borderopacity="1"
   objecttolerance="10"
   gridtolerance="10"
   guidetolerance="10"
   inkscape:pageopacity="0"
   inkscape:pageshadow="2"
   inkscape:window-width="3440"
   inkscape:window-height="1377"
   id="namedview7"
   showgrid="false"
   inkscape:zoom="11.136932"
   inkscape:cx="98.214172"
   inkscape:cy="1.2567554"
   inkscape:window-x="1912"
   inkscape:window-y="1072"
   inkscape:window-maximized="1"
   inkscape:current-layer="Ebene_1"
   inkscape:document-rotation="0" />
<g
   id="Package"
   transform="matrix(0,-1,-1,0,32,32)">
	<path
   d="m 32,29.292 c 0,0.736 -0.597,1.333 -1.333,1.333 H 1.333 C 0.597,30.625 0,30.028 0,29.292 V 10.708 C 0,9.972 0.597,9.375 1.333,9.375 H 30.666 C 31.403,9.375 32,9.972 32,10.708 Z M 29.295,4.125 H 15.513 L 15.051,2.683 C 14.815,1.986 14.028,1.375 13.295,1.375 H 6.628 c -0.733,0 -1.524,0.611 -1.755,1.308 L 4.406,4.125 H 2.628 C 1.895,4.125 1.25,4.684 1.25,5.418 v 2.707 h 29.5 V 5.418 c 0,-0.734 -0.722,-1.293 -1.455,-1.293 z"
   id="path2" />
</g>
<g
   id="Ebene_1_1_">
</g>
<text
   xml:space="preserve"
   style="font-style:normal;font-weight:normal;font-size:7.99974px;line-height:1.25;font-family:sans-serif;letter-spacing:1.2px;fill:#ffffff;fill-opacity:1;stroke:none;stroke-width:0.999967"
   x="-31.626629"
   y="8.2147388"
   id="text834"
   transform="matrix(0,-1.0000328,0.9999672,0,0,0)"><tspan
     id="tspan832"
     x="-31.626629"
     y="8.2147388"
     sodipodi:role="line"
     style="stroke-width:0.999967;">Folder</tspan></text></svg>
