<?xml version="1.0" encoding="iso-8859-1"?>
<!-- Generator: Adobe Illustrator 20.0.0, SVG Export Plug-In . SVG Version: 6.00 Build 0)  -->
<svg version="1.1" id="Ebene_1" xmlns="http://www.w3.org/2000/svg" xmlns:xlink="http://www.w3.org/1999/xlink" x="0px" y="0px"
	 viewBox="0 0 32 32" style="enable-background:new 0 0 32 32;" xml:space="preserve" width="32px" height="32px" class="br-symbol-library">
<g id="Down3">
	<path d="M15.176,5.238h-9.86C4.963,5.238,4.5,5.816,4.5,6.166v2.55c0,0.352,0.463,0.522,0.816,0.522h21.675
		c0.35,0,0.509-0.17,0.509-0.522v-2.55c0-0.35-0.159-0.928-0.509-0.928h-9.815H15.176z M4.911,11.988h22.215
		c0.35,0,0.462,0.345,0.247,0.623L16.407,26.577c-0.2,0.256-0.587,0.24-0.787-0.016L4.663,12.619
		C4.451,12.341,4.561,11.988,4.911,11.988z"/>
</g>
<g id="Ebene_1_1_">
</g>
</svg>
