<?xml version="1.0" encoding="iso-8859-1"?>
<!-- Generator: Adobe Illustrator 20.0.0, SVG Export Plug-In . SVG Version: 6.00 Build 0)  -->
<svg version="1.1" xmlns="http://www.w3.org/2000/svg" xmlns:xlink="http://www.w3.org/1999/xlink" x="0px" y="0px"
	 viewBox="0 0 32 32" style="enable-background:new 0 0 32 32;" xml:space="preserve" width="32px" height="32px" class="br-symbol-library">
<g id="Forward">
	<path id="Zur&#xFC;ck_3_" d="M16,0C7.165,0,0,7.163,0,16c0,8.838,7.165,16,16,16c8.835,0,16-7.162,16-16C32,7.163,24.835,0,16,0z
		 M24.838,16.42l-8.34,6.998c-0.277,0.23-0.445,0.125-0.445-0.238v-4.655H8.698c-0.36,0-0.645-0.277-0.645-0.637v-3.94
		c0-0.36,0.285-0.673,0.645-0.673h7.355V8.82c0-0.363,0.16-0.47,0.438-0.238l8.365,6.997C25.132,15.81,25.115,16.19,24.838,16.42z"
		/>
</g>
<g id="Ebene_1">
</g>
</svg>
