<svg id="Layer_1" data-name="Layer 1" xmlns="http://www.w3.org/2000/svg" viewBox="0 0 22 21"><path d="M11.2,9.84C14,9.84,17,8.92,17,7.2s-3-2.63-5.8-2.63S5.41,5.49,5.41,7.2,8.39,9.84,11.2,9.84Zm0-4.22c2.9,0,4.75.94,4.75,1.58S14.1,8.78,11.2,8.78,6.46,7.85,6.46,7.2,8.31,5.62,11.2,5.62ZM6.46,9.42a.52.52,0,0,0-.73.11,1.49,1.49,0,0,0-.32.94c0,.79.69,1.48,1.91,1.94A10.73,10.73,0,0,0,11,13h.24C14.06,13,17,12,17,10.26a1.39,1.39,0,0,0-.21-.72.53.53,0,0,0-.91.54.32.32,0,0,1,.07.2c0,.65-1.82,1.61-4.72,1.67a10.29,10.29,0,0,1-3.54-.52c-.74-.28-1.22-.67-1.22-1a.45.45,0,0,1,.11-.3A.52.52,0,0,0,6.46,9.42ZM16,12.54a.53.53,0,0,0-.15.73.42.42,0,0,1,.1.25c0,.65-1.85,1.59-4.75,1.59s-4.74-.94-4.74-1.59a.45.45,0,0,1,.09-.24.53.53,0,0,0-.88-.58,1.5,1.5,0,0,0-.26.82c0,1.72,3,2.64,5.79,2.64s5.8-.92,5.8-2.64a1.49,1.49,0,0,0-.27-.84A.52.52,0,0,0,16,12.54Z"/></svg>