<svg id="Layer_1" data-name="Layer 1" xmlns="http://www.w3.org/2000/svg" viewBox="0 0 22 21"><path d="M16.6,9.71V9.52a5.21,5.21,0,0,0-10.41,0v.19a1.09,1.09,0,0,0-.94,1.07v2.53a1.12,1.12,0,0,0,1.1,1.1H7.61a1.13,1.13,0,0,0,1.11-1.1V10.78a1.12,1.12,0,0,0-1.11-1.1H7.14V9.52a4.26,4.26,0,1,1,8.51,0v.16h-.47a1.11,1.11,0,0,0-1.1,1.1v2.53a1.12,1.12,0,0,0,1.1,1.1h.32c-.26.72-.89,1.45-2.65,1.58a1,1,0,0,0-.82-.48.95.95,0,1,0,0,1.89.91.91,0,0,0,.82-.5c2.46-.16,3.34-1.36,3.62-2.52a1.12,1.12,0,0,0,1.08-1.11V10.75a1.05,1.05,0,0,0-.95-1ZM7.77,10.78v2.53a.14.14,0,0,1-.16.15H6.35a.15.15,0,0,1-.16-.15V10.78a.16.16,0,0,1,.16-.16H7.61A.15.15,0,0,1,7.77,10.78Zm8.83,2.53a.14.14,0,0,1-.16.15H15.18a.15.15,0,0,1-.16-.15V10.78a.16.16,0,0,1,.16-.16h1.26a.15.15,0,0,1,.16.16Z"/></svg>