<?xml version="1.0" encoding="UTF-8" standalone="no"?>
<svg
   version="1.1"
   id="Ebene_1"
   x="0px"
   y="0px"
   viewBox="0 0 32 32"
   xml:space="preserve"
   width="32"
   height="32"
   class="br-symbol-library"
   sodipodi:docname="Large Checkmark.svg"
   inkscape:version="1.2.2 (732a01da63, 2022-12-09)"
   xmlns:inkscape="http://www.inkscape.org/namespaces/inkscape"
   xmlns:sodipodi="http://sodipodi.sourceforge.net/DTD/sodipodi-0.dtd"
   xmlns="http://www.w3.org/2000/svg"
   xmlns:svg="http://www.w3.org/2000/svg"
   xmlns:rdf="http://www.w3.org/1999/02/22-rdf-syntax-ns#"
   xmlns:cc="http://creativecommons.org/ns#"
   xmlns:dc="http://purl.org/dc/elements/1.1/"><metadata
   id="metadata13"><rdf:RDF><cc:Work
       rdf:about=""><dc:format>image/svg+xml</dc:format><dc:type
         rdf:resource="http://purl.org/dc/dcmitype/StillImage" /></cc:Work></rdf:RDF></metadata><defs
   id="defs11" /><sodipodi:namedview
   pagecolor="#ffffff"
   bordercolor="#666666"
   borderopacity="1"
   objecttolerance="10"
   gridtolerance="10"
   guidetolerance="10"
   inkscape:pageopacity="0"
   inkscape:pageshadow="2"
   inkscape:window-width="1920"
   inkscape:window-height="1017"
   id="namedview9"
   showgrid="false"
   inkscape:zoom="16"
   inkscape:cx="14.15625"
   inkscape:cy="18.375"
   inkscape:window-x="3832"
   inkscape:window-y="-8"
   inkscape:window-maximized="1"
   inkscape:current-layer="Ebene_1"
   inkscape:document-rotation="0"
   inkscape:showpageshadow="2"
   inkscape:pagecheckerboard="0"
   inkscape:deskcolor="#d1d1d1" />
<g
   id="File"
   transform="translate(-3.2502182,-2.182e-4)">
	<g
   id="g4">
		
	</g>
</g>
<g
   id="Ebene_1_1_"
   transform="translate(-3.2502182,-2.182e-4)">
</g>
<path
   id="rect482"
   style="fill:#000000;stroke-width:186.469;stroke-opacity:0.302222"
   d="m 27.339413,3.3997769 c -0.267117,-0.2663692 -0.698146,-0.2663692 -0.965259,0 L 11.935295,17.79828 a 0.68187509,0.67996938 0 0 1 -0.01653,0.01648 0.68187509,0.67996938 0 0 1 -0.87815,0.01648 l -0.01654,-0.01648 -5.3983827,-5.383297 c -0.267116,-0.266254 -0.698145,-0.266254 -0.965261,1.15e-4 l -4.46126751,4.448854 c -0.2671159,0.266371 -0.2647605,0.693849 0.00235,0.960214 L 10.99122,28.600196 c 0.267117,0.266381 0.693435,0.266383 0.96055,0 l 4.461379,-4.448906 c 0.03494,-0.03478 0.066,-0.07059 0.09181,-0.110416 l 0.0024,-0.0029 c 0.03784,-0.02496 0.0749,-0.05584 0.108304,-0.08914 L 31.798474,8.8084821 c 0.267116,-0.266366 0.269471,-0.693846 0.0024,-0.960217 z" /></svg>
