<?xml version="1.0" encoding="UTF-8" standalone="no"?>
<!-- Generator: Adobe Illustrator 20.0.0, SVG Export Plug-In . SVG Version: 6.00 Build 0)  -->

<svg
   version="1.1"
   id="Ebene_1"
   x="0px"
   y="0px"
   viewBox="0 0 32 32"
   style="enable-background:new 0 0 32 32;"
   xml:space="preserve"
   width="32px"
   height="32px"
   class="br-symbol-library"
   sodipodi:docname="Copy.svg"
   inkscape:version="1.2.2 (732a01da63, 2022-12-09)"
   xmlns:inkscape="http://www.inkscape.org/namespaces/inkscape"
   xmlns:sodipodi="http://sodipodi.sourceforge.net/DTD/sodipodi-0.dtd"
   xmlns="http://www.w3.org/2000/svg"
   xmlns:svg="http://www.w3.org/2000/svg"><defs
   id="defs575" /><sodipodi:namedview
   id="namedview573"
   pagecolor="#505050"
   bordercolor="#ffffff"
   borderopacity="1"
   inkscape:showpageshadow="0"
   inkscape:pageopacity="0"
   inkscape:pagecheckerboard="1"
   inkscape:deskcolor="#505050"
   showgrid="false"
   inkscape:zoom="11.313708"
   inkscape:cx="10.385631"
   inkscape:cy="9.9878833"
   inkscape:window-width="1920"
   inkscape:window-height="1017"
   inkscape:window-x="1912"
   inkscape:window-y="-8"
   inkscape:window-maximized="1"
   inkscape:current-layer="Ebene_1" />

<path
   id="path728"
   style="fill:#000000;stroke-width:0.8421"
   d="m 3.3323876,0.09879598 c -0.3073635,0 -0.5953876,0.3529352 -0.5953876,0.662829 V 26.442546 c 0,0.309053 0.2880241,0.603618 0.5953876,0.603618 H 6.1053809 V 23.256691 H 5.8948571 c -0.3494681,0 -0.6315714,-0.282106 -0.6315714,-0.631579 0,-0.349474 0.2821033,-0.631579 0.6315714,-0.631579 H 6.1053809 V 19.046164 H 5.8948571 c -0.3494681,0 -0.6315714,-0.282105 -0.6315714,-0.631579 0,-0.349473 0.2821033,-0.631578 0.6315714,-0.631578 H 6.1053809 V 14.625112 H 5.8948571 c -0.3494681,0 -0.6315714,-0.282106 -0.6315714,-0.631579 0,-0.349474 0.2821033,-0.631579 0.6315714,-0.631579 H 6.1053809 V 10.414585 H 5.8948571 c -0.3494681,0 -0.6315714,-0.282106 -0.6315714,-0.6315785 0,-0.3494723 0.2821033,-0.6315789 0.6315714,-0.6315789 H 6.1053809 V 6.2040591 H 5.8948571 c -0.3494681,0 -0.6315714,-0.2821066 -0.6315714,-0.6315789 0,-0.3494723 0.2821033,-0.6315789 0.6315714,-0.6315789 H 6.1053809 V 4.130046 c 0,-0.3098936 0.2880242,-0.6628289 0.5953876,-0.6628289 H 8.4293664 17.473666 V 0.09879598 Z M 18.611811,0.12840118 V 3.4672171 h 2.230236 1.080579 z M 8.384959,5.1514276 c -0.3073644,0 -0.5953876,0.3529345 -0.5953876,0.6628289 V 31.495177 c 0,0.309053 0.2880232,0.603619 0.5953876,0.603619 h 20.0968 c 0.309049,0 0.781241,-0.294566 0.781241,-0.603619 V 11.88827 h -6.355187 c -0.307366,0 -0.381575,-0.189303 -0.381575,-0.498356 V 5.1514276 Z m 15.279423,0.029605 v 5.0180924 c 0,0.307368 0.169604,0.521381 0.476968,0.521381 h 5.018032 z M 10.947428,9.9935328 h 8.420953 c 0.34947,0 0.631571,0.2821052 0.631571,0.6315792 0,0.349473 -0.282101,0.631579 -0.631571,0.631579 h -8.420953 c -0.349469,0 -0.631571,-0.282106 -0.631571,-0.631579 0,-0.349474 0.282102,-0.6315792 0.631571,-0.6315792 z m 0,4.2105262 h 15.157715 c 0.349469,0 0.631571,0.282105 0.631571,0.631579 0,0.349474 -0.282102,0.631579 -0.631571,0.631579 H 10.947428 c -0.349469,0 -0.631571,-0.282105 -0.631571,-0.631579 0,-0.349474 0.282102,-0.631579 0.631571,-0.631579 z m 0,4.210526 h 15.157715 c 0.349469,0 0.631571,0.282106 0.631571,0.631579 0,0.349474 -0.282102,0.631579 -0.631571,0.631579 H 10.947428 c -0.349469,0 -0.631571,-0.282105 -0.631571,-0.631579 0,-0.349473 0.282102,-0.631579 0.631571,-0.631579 z m 0,4.421053 h 15.157715 c 0.349469,0 0.631571,0.282105 0.631571,0.631579 0,0.349474 -0.282102,0.631579 -0.631571,0.631579 H 10.947428 c -0.349469,0 -0.631571,-0.282105 -0.631571,-0.631579 0,-0.349474 0.282102,-0.631579 0.631571,-0.631579 z m 0,4.210526 h 10.947239 c 0.34947,0 0.631571,0.282106 0.631571,0.631579 0,0.349474 -0.282101,0.631579 -0.631571,0.631579 H 10.947428 c -0.349469,0 -0.631571,-0.282105 -0.631571,-0.631579 0,-0.349473 0.282102,-0.631579 0.631571,-0.631579 z" />
</svg>
