<?xml version="1.0" encoding="UTF-8" standalone="no"?>
<!-- Created with Inkscape (http://www.inkscape.org/) -->

<svg
   width="8.4666662mm"
   height="8.4666662mm"
   viewBox="0 0 8.4666662 8.4666662"
   version="1.1"
   id="svg5"
   xml:space="preserve"
   inkscape:version="1.2.2 (732a01da63, 2022-12-09)"
   sodipodi:docname="Cut.svg"
   xmlns:inkscape="http://www.inkscape.org/namespaces/inkscape"
   xmlns:sodipodi="http://sodipodi.sourceforge.net/DTD/sodipodi-0.dtd"
   xmlns="http://www.w3.org/2000/svg"
   xmlns:svg="http://www.w3.org/2000/svg"><sodipodi:namedview
     id="namedview7"
     pagecolor="#505050"
     bordercolor="#ffffff"
     borderopacity="1"
     inkscape:showpageshadow="0"
     inkscape:pageopacity="0"
     inkscape:pagecheckerboard="1"
     inkscape:deskcolor="#505050"
     inkscape:document-units="mm"
     showgrid="false"
     inkscape:zoom="16.871996"
     inkscape:cx="14.787817"
     inkscape:cy="15.825039"
     inkscape:window-width="1920"
     inkscape:window-height="1017"
     inkscape:window-x="1912"
     inkscape:window-y="-8"
     inkscape:window-maximized="1"
     inkscape:current-layer="layer1" /><defs
     id="defs2" /><g
     inkscape:label="Layer 1"
     inkscape:groupmode="layer"
     id="layer1"><path
       id="path504"
       style="fill:#000000;stroke-width:0.018265"
       d="M 1.2094298,0.92612963 C 0.67004967,0.92036203 0.22169871,1.1985092 0.04120142,1.6801853 0.00621227,1.7735576 7.9668944e-5,1.8248412 1.0989437e-6,2.0452017 -8.2231056e-5,2.2791462 0.0044641,2.3139046 0.0511692,2.4475871 0.19193488,2.8504965 0.48602447,3.1743231 0.89045947,3.3718058 1.097286,3.4727983 1.1966791,3.5021426 1.513116,3.5559822 2.1451412,3.6635165 2.6646375,3.8308651 3.0528117,4.0517904 3.2382428,4.157326 3.3393067,4.226564 3.3246012,4.2386363 3.3206812,4.2418563 3.2684582,4.2773823 3.2083094,4.3173783 2.7992146,4.5894111 2.239077,4.7844272 1.513116,4.9079441 1.1913357,4.9626925 1.0950143,4.9911099 0.89311767,5.0907858 0.48713427,5.2912188 0.21287229,5.5882135 0.05980801,5.9916488 0.00423255,6.1381307 0.00127261,6.1565991 6.6564894e-4,6.4100498 1.1187894e-4,6.6412966 0.00565376,6.6898017 0.04120142,6.7844082 0.18864786,7.1768157 0.50346387,7.4320839 0.94760847,7.5191121 1.3106131,7.5902413 1.78572,7.4814133 2.1384305,7.2455165 2.7301377,6.8497767 2.9873186,6.1290483 2.7378289,5.5672424 L 2.7092544,5.5018463 3.3810852,5.1161435 4.0529166,4.7304407 5.4896115,5.4578041 c 0.7902279,0.3998604 1.5723145,0.7990255 1.737723,0.887517 0.1654088,0.088491 0.3319495,0.1723342 0.370803,0.1861784 0.095292,0.033953 0.3107018,0.032117 0.4319386,-0.00401 0.1581047,-0.047105 0.4365906,-0.2030384 0.4365906,-0.2442339 0,-0.00831 -0.7956537,-0.4708563 -1.7676265,-1.0283183 C 5.7270671,4.69748 4.9317307,4.2369985 4.9314137,4.2319623 4.9310962,4.2269301 5.726085,3.7665609 6.6983756,3.2089826 7.6706667,2.6514037 8.4666667,2.1888638 8.4666667,2.1806639 8.4666667,2.1573816 8.313301,2.0575331 8.1862388,1.9978221 8.1228465,1.9680336 8.0115632,1.9309301 7.939037,1.9157443 7.7259368,1.8711255 7.6483181,1.8942242 7.1994247,2.1326187 6.9889047,2.2444199 6.1948801,2.6504357 5.4344562,3.0348164 L 4.0515873,3.7334855 3.3837435,3.3497847 C 3.0165225,3.1389473 2.7139267,2.9641027 2.7105834,2.9607453 2.7072434,2.9573913 2.7210254,2.9209271 2.7418164,2.8800024 2.7979504,2.7695083 2.8338814,2.5944429 2.8341844,2.4275689 2.8353644,1.7802844 2.2964184,1.1497376 1.5948525,0.97684533 1.4628458,0.94431353 1.3339025,0.92746123 1.2094298,0.92612963 Z m -0.00665,0.69800197 c 0.1786363,3.87e-4 0.2145956,0.00643 0.3282734,0.053384 0.315715,0.1303894 0.5303001,0.3535225 0.6007273,0.6239311 0.054483,0.2091891 -0.019662,0.3859896 -0.2060016,0.4904697 -0.086106,0.048283 -0.1188158,0.055994 -0.2737827,0.061392 C 1.3545315,2.863665 1.1489668,2.777707 0.91903397,2.5483503 0.77104057,2.4007276 0.71330757,2.3021933 0.67914187,2.1386244 0.63849217,1.9440144 0.71537197,1.7877696 0.90308547,1.6808527 0.99820047,1.6266774 1.0116902,1.6237179 1.2027847,1.6241316 Z m 0.4226355,3.9804798 c 0.3723643,0 0.5900883,0.2399258 0.5070298,0.5585349 C 2.0547861,6.4610615 1.761318,6.7326982 1.4207476,6.8217773 1.3092337,6.8509495 1.1172312,6.8555095 1.0180477,6.8317859 0.93096427,6.8109583 0.79963217,6.7277265 0.74891647,6.6609566 0.67815177,6.56779 0.65335387,6.4487605 0.67914187,6.3253017 0.71329087,6.1618123 0.77100487,6.0634948 0.91903397,5.9155761 1.1332305,5.7015394 1.3528606,5.6046114 1.6254202,5.6046114 Z" /></g></svg>
