<?xml version="1.0" encoding="UTF-8" standalone="no"?>
<svg
   version="1.1"
   id="Ebene_1"
   x="0px"
   y="0px"
   viewBox="0 0 32 32"
   xml:space="preserve"
   width="32"
   height="32"
   class="br-symbol-library"
   sodipodi:docname="FileSelected.svg"
   inkscape:version="1.2.1 (9c6d41e410, 2022-07-14)"
   xmlns:inkscape="http://www.inkscape.org/namespaces/inkscape"
   xmlns:sodipodi="http://sodipodi.sourceforge.net/DTD/sodipodi-0.dtd"
   xmlns="http://www.w3.org/2000/svg"
   xmlns:svg="http://www.w3.org/2000/svg"
   xmlns:rdf="http://www.w3.org/1999/02/22-rdf-syntax-ns#"
   xmlns:cc="http://creativecommons.org/ns#"
   xmlns:dc="http://purl.org/dc/elements/1.1/"><metadata
   id="metadata13"><rdf:RDF><cc:Work
       rdf:about=""><dc:format>image/svg+xml</dc:format><dc:type
         rdf:resource="http://purl.org/dc/dcmitype/StillImage" /></cc:Work></rdf:RDF></metadata><defs
   id="defs11" /><sodipodi:namedview
   pagecolor="#ffffff"
   bordercolor="#666666"
   borderopacity="1"
   objecttolerance="10"
   gridtolerance="10"
   guidetolerance="10"
   inkscape:pageopacity="0"
   inkscape:pageshadow="2"
   inkscape:window-width="3440"
   inkscape:window-height="1377"
   id="namedview9"
   showgrid="false"
   inkscape:zoom="15.75"
   inkscape:cx="9.4920635"
   inkscape:cy="14.984127"
   inkscape:window-x="1912"
   inkscape:window-y="1072"
   inkscape:window-maximized="1"
   inkscape:current-layer="Ebene_1"
   inkscape:document-rotation="0"
   inkscape:showpageshadow="2"
   inkscape:pagecheckerboard="0"
   inkscape:deskcolor="#d1d1d1" />
<g
   id="File"
   transform="translate(-3.2502182,-2.182e-4)">
	<g
   id="g4">
		
	</g>
</g>
<g
   id="Ebene_1_1_"
   transform="translate(-3.2502182,-2.182e-4)">
</g>
<path
   id="path2"
   d="M 3.9570313,0 C 3.5920313,0 3.25,0.4191094 3.25,0.7871094 V 31.283203 C 3.25,31.650203 3.5920313,32 3.9570313,32 H 27.822266 C 28.190266,32 28.75,31.650203 28.75,31.283203 V 7.9999999 h -7.546875 c -0.368,0 -0.453125,-0.224797 -0.453125,-0.591797 V 0 Z M 22.101563,0.035156 v 5.9589846 c 0,0.365 0.201406,0.61914 0.566406,0.61914 h 5.958984 z m 0.253906,13.109375 c 0.101425,0 0.208586,0.04062 0.287109,0.119141 l 2.63086,2.595703 c 0.158681,0.153774 0.158681,0.410996 0,0.566406 L 13.621094,28.076172 c -0.07852,0.08179 -0.182095,0.119141 -0.285156,0.119141 -0.103061,0 -0.205316,-0.03735 -0.28711,-0.119141 L 10.439453,25.466797 C 10.279136,25.30648 10.025869,25.052846 9.8671879,24.902344 l -3.140625,-3.148438 c -0.158681,-0.160317 -0.158681,-0.413584 0,-0.572265 l 2.609375,-2.609375 c 0.0818,-0.08179 0.184048,-0.119141 0.287109,-0.119141 0.103061,0 0.206317,0.03735 0.283203,0.119141 l 3.1406251,3.140625 c 0.08179,0.07852 0.186319,0.117187 0.291016,0.117187 0.101425,0 0.20468,-0.0403 0.283203,-0.117187 l 8.449219,-8.449219 c 0.08179,-0.07852 0.183731,-0.119141 0.285156,-0.119141 z" /></svg>
