<?xml version="1.0" encoding="UTF-8" standalone="no"?>
<svg
   version="1.1"
   id="Ebene_1"
   x="0px"
   y="0px"
   viewBox="0 0 32 32"
   xml:space="preserve"
   width="32"
   height="32"
   class="br-symbol-library"
   sodipodi:docname="MultiSelect.svg"
   inkscape:version="1.2.2 (732a01da63, 2022-12-09)"
   xmlns:inkscape="http://www.inkscape.org/namespaces/inkscape"
   xmlns:sodipodi="http://sodipodi.sourceforge.net/DTD/sodipodi-0.dtd"
   xmlns="http://www.w3.org/2000/svg"
   xmlns:svg="http://www.w3.org/2000/svg"
   xmlns:rdf="http://www.w3.org/1999/02/22-rdf-syntax-ns#"
   xmlns:cc="http://creativecommons.org/ns#"
   xmlns:dc="http://purl.org/dc/elements/1.1/"><metadata
   id="metadata13"><rdf:RDF><cc:Work
       rdf:about=""><dc:format>image/svg+xml</dc:format><dc:type
         rdf:resource="http://purl.org/dc/dcmitype/StillImage" /></cc:Work></rdf:RDF></metadata><defs
   id="defs11" /><sodipodi:namedview
   pagecolor="#ffffff"
   bordercolor="#666666"
   borderopacity="1"
   objecttolerance="10"
   gridtolerance="10"
   guidetolerance="10"
   inkscape:pageopacity="0"
   inkscape:pageshadow="2"
   inkscape:window-width="1920"
   inkscape:window-height="1017"
   id="namedview9"
   showgrid="false"
   inkscape:zoom="1"
   inkscape:cx="36.5"
   inkscape:cy="10"
   inkscape:window-x="1912"
   inkscape:window-y="-8"
   inkscape:window-maximized="1"
   inkscape:current-layer="Ebene_1"
   inkscape:document-rotation="0"
   inkscape:showpageshadow="2"
   inkscape:pagecheckerboard="0"
   inkscape:deskcolor="#d1d1d1" />
<g
   id="File"
   transform="translate(-3.2502182,-2.182e-4)">
	<g
   id="g4">
		
	</g>
</g>
<g
   id="Ebene_1_1_"
   transform="translate(-3.2502182,-2.182e-4)">
</g>
<path
   id="path2"
   d="M 3.9570312 0 C 3.5920319 0 3.2499996 0.41911009 3.25 0.78710938 L 3.25 31.283203 C 3.2499999 31.650203 3.5920352 31.999996 3.9570312 32 L 27.822266 32 C 28.190263 32 28.75 31.650203 28.75 31.283203 L 28.75 8 L 21.203125 8 C 20.835124 7.9999993 20.749997 7.7752051 20.75 7.4082031 L 20.75 0 L 3.9570312 0 z M 22.101562 0.03515625 L 22.101562 5.9941406 C 22.101562 6.3591401 22.302969 6.6132807 22.667969 6.6132812 L 28.626953 6.6132812 L 22.101562 0.03515625 z M 22.105469 9.4003906 C 22.197163 9.4003906 22.289114 9.4336484 22.359375 9.5039062 L 24.894531 12.041016 C 25.035051 12.181526 25.035051 12.410268 24.894531 12.550781 L 24.431641 13.013672 L 22.359375 10.939453 C 22.218853 10.798938 21.992072 10.798938 21.851562 10.939453 L 13.701172 19.089844 A 0.35869911 0.35869911 0 0 1 13.193359 19.089844 L 10.150391 16.046875 C 10.009891 15.906379 9.7830926 15.906363 9.6425781 16.046875 L 7.5683594 18.121094 L 7.1054688 17.65625 C 6.964968 17.515753 6.9649538 17.288949 7.1054688 17.148438 L 9.6425781 14.613281 C 9.7830926 14.47276 10.009891 14.472776 10.150391 14.613281 L 13.193359 17.65625 A 0.35869911 0.35869911 0 0 0 13.701172 17.65625 L 21.851562 9.5039062 C 21.921824 9.4336474 22.013779 9.4003906 22.105469 9.4003906 z M 22.105469 12.748047 C 22.197163 12.748047 22.289115 12.781303 22.359375 12.851562 L 24.894531 15.388672 C 25.035051 15.529184 25.035051 15.757916 24.894531 15.898438 L 24.431641 16.361328 L 22.359375 14.287109 C 22.218853 14.146599 21.992072 14.146599 21.851562 14.287109 L 13.701172 22.4375 A 0.35869911 0.35869911 0 0 1 13.193359 22.4375 L 10.150391 19.394531 C 10.009891 19.254035 9.7830926 19.254019 9.6425781 19.394531 L 7.5683594 21.46875 L 7.1054688 21.003906 C 6.964968 20.8634 6.9649538 20.63856 7.1054688 20.498047 L 9.6425781 17.960938 C 9.7830926 17.820426 10.009891 17.820442 10.150391 17.960938 L 13.193359 21.003906 A 0.35869911 0.35869911 0 0 0 13.701172 21.003906 L 21.851562 12.851562 C 21.921824 12.78131 22.013779 12.748047 22.105469 12.748047 z M 22.105469 16.095703 C 22.197163 16.095703 22.289115 16.130912 22.359375 16.201172 L 24.894531 18.738281 C 25.035051 18.878793 25.035051 19.105572 24.894531 19.246094 L 16.236328 27.902344 L 13.701172 30.439453 C 13.56065 30.579975 13.333866 30.57996 13.193359 30.439453 L 7.1054688 24.351562 C 6.964968 24.211058 6.9649538 23.986226 7.1054688 23.845703 L 9.6425781 21.308594 C 9.7830926 21.168081 10.009891 21.168096 10.150391 21.308594 L 13.193359 24.351562 A 0.35869911 0.35869911 0 0 0 13.701172 24.351562 L 21.851562 16.201172 C 21.921824 16.13093 22.013779 16.095703 22.105469 16.095703 z " /></svg>
