<?xml version="1.0" encoding="UTF-8" standalone="no"?>
<svg
   viewBox="0 0 24 24"
   version="1.1"
   id="svg13"
   sodipodi:docname="NewDirectory - Copy.svg"
   inkscape:version="1.2.2 (732a01da63, 2022-12-09)"
   xml:space="preserve"
   xmlns:inkscape="http://www.inkscape.org/namespaces/inkscape"
   xmlns:sodipodi="http://sodipodi.sourceforge.net/DTD/sodipodi-0.dtd"
   xmlns="http://www.w3.org/2000/svg"
   xmlns:svg="http://www.w3.org/2000/svg"
   xmlns:rdf="http://www.w3.org/1999/02/22-rdf-syntax-ns#"
   xmlns:cc="http://creativecommons.org/ns#"
   xmlns:dc="http://purl.org/dc/elements/1.1/"
   xmlns:osb="http://www.openswatchbook.org/uri/2009/osb"><metadata
     id="metadata19"><rdf:RDF><cc:Work
         rdf:about=""><dc:format>image/svg+xml</dc:format><dc:type
           rdf:resource="http://purl.org/dc/dcmitype/StillImage" /></cc:Work></rdf:RDF></metadata><defs
     id="defs17"><linearGradient
       id="linearGradient846"
       osb:paint="solid"><stop
         style="stop-color:#000000;stop-opacity:1;"
         offset="0"
         id="stop844" /></linearGradient><symbol
       id="AddUser"><g
         id="AddUser_transform"
         transform="matrix(2.9842888,0,0,2.9842888,47.955709,64.282188)"><path
           id="path27082"
           d="m -10.707899,-22.044663 c -2.967942,0 -5.361494,2.106299 -5.361494,5.361412 0,3.446588 2.393552,5.36141 5.361494,5.36141 2.9679423,0 5.3613293,-2.393515 5.3613293,-5.36141 0,-2.967897 -2.393387,-5.361412 -5.3613293,-5.361412 z m -0.478788,2.010612 h 1.053234 c 0.2872206,0 0.2871402,0.382878 0.2871402,0.670094 v 1.531831 h 1.8191621 c 0.28722,0 0.574445,0.382878 0.574445,0.670094 v 1.053218 c 0,0.287215 -0.287225,0.478614 -0.574445,0.478614 h -1.8191621 v 1.72331 c 0,0.287216 8.04e-5,0.47878 -0.2871402,0.47878 h -1.053234 c -0.287219,0 -0.574445,-0.191564 -0.574445,-0.47878 v -1.72331 h -1.627513 c -0.287221,0 -0.574446,-0.191399 -0.574446,-0.478614 v -1.053218 c 0,-0.382954 0.287225,-0.670094 0.574446,-0.670094 h 1.627513 v -1.531831 c 0,-0.382955 0.287226,-0.670094 0.574445,-0.670094 z"
           style="stroke-width:0.957394" /></g></symbol></defs><sodipodi:namedview
     pagecolor="#ffffff"
     bordercolor="#666666"
     borderopacity="1"
     objecttolerance="10"
     gridtolerance="10"
     guidetolerance="10"
     inkscape:pageopacity="0"
     inkscape:pageshadow="2"
     inkscape:window-width="1920"
     inkscape:window-height="1017"
     id="namedview15"
     showgrid="false"
     inkscape:zoom="22.627417"
     inkscape:cx="8.2864076"
     inkscape:cy="13.744388"
     inkscape:window-x="3832"
     inkscape:window-y="-8"
     inkscape:window-maximized="1"
     inkscape:current-layer="svg13"
     inkscape:showpageshadow="0"
     inkscape:pagecheckerboard="1"
     inkscape:deskcolor="#d1d1d1" /><title
     id="title2" /><path
     id="path4200"
     style="fill:#000000;stroke-width:0.028103"
     d="m 18.75,1 c -2.906264,0 -5.25,2.0625324 -5.25,5.25 0,3.3749635 2.343736,5.25 5.25,5.25 C 21.656265,11.5 24,9.1562184 24,6.25 24,3.3437797 21.656265,1 18.75,1 Z m -0.46875,1.96875 h 1.03125 c 0.281252,0 0.28125,0.3750027 0.28125,0.65625 v 1.5 H 21.375 c 0.281251,0 0.5625,0.3750027 0.5625,0.65625 V 6.8125 c 0,0.2812463 -0.281249,0.46875 -0.5625,0.46875 h -1.78125 v 1.6875 c 0,0.2812473 2e-6,0.46875 -0.28125,0.46875 H 18.28125 C 18,9.4375 17.71875,9.2499973 17.71875,8.96875 V 7.28125 H 16.125 c -0.281252,0 -0.5625,-0.1875037 -0.5625,-0.46875 V 5.78125 c 0,-0.3749957 0.281248,-0.65625 0.5625,-0.65625 h 1.59375 v -1.5 c 0,-0.3749967 0.28125,-0.65625 0.5625,-0.65625 z M 2,3 A 2,2 0 0 0 0,5 V 12.484375 20 a 2,2 0 0 0 2,2 H 4 V 22.6875 22.980469 23 H 8 V 22.980469 22.6875 22 h 8 V 22.6875 22.980469 23 h 4 V 22.980469 22.6875 22 h 2 a 2,2 0 0 0 2,-2 V 13.525391 9.1210938 A 6,6 0 0 1 23,10.464844 V 20 c 0,0.37978 -0.211187,0.705617 -0.521484,0.875 C 22.336172,20.9527 22.174214,21 22,21 H 21 20 V 20 19 15 A 2,2 0 0 0 18,13 H 6 a 2,2 0 0 0 -2,2 v 5 1 H 2 C 1.446006,21 1,20.55399 1,20 V 14.96875 13 11.96875 8 H 9.7109375 L 11.710938,6 h 1.05664 A 6,6 0 0 1 12.896484,5 H 11.710938 L 9.7109375,3 H 5.5878906 Z M 2,4 H 4.8613281 9.3007812 L 10.800781,5.5 9.3007812,7 H 4.8613281 2.546875 2 1 V 6 5 C 1,4.4460096 1.4460096,4 2,4 Z M 2.5,5 V 6 6.00195 H 8.3027344 L 8.3007812,6 H 8.5 V 5 H 8.3007812 Z M 6,14 h 12 a 1,1 0 0 1 1,1 v 7 H 17 V 16 H 7 v 6 H 5 V 15 A 1,1 0 0 1 6,14 Z M 8.2402344,16.992188 8.25,17 H 16 v 4 H 8 v -4 h 0.1523438 z" /></svg>
