<?xml version="1.0" encoding="UTF-8" standalone="no"?>
<svg
   viewBox="0 0 24 24"
   version="1.1"
   id="svg13"
   sodipodi:docname="NewDirectory - Copy.svg"
   inkscape:version="1.2.2 (732a01da63, 2022-12-09)"
   xml:space="preserve"
   xmlns:inkscape="http://www.inkscape.org/namespaces/inkscape"
   xmlns:sodipodi="http://sodipodi.sourceforge.net/DTD/sodipodi-0.dtd"
   xmlns="http://www.w3.org/2000/svg"
   xmlns:svg="http://www.w3.org/2000/svg"
   xmlns:rdf="http://www.w3.org/1999/02/22-rdf-syntax-ns#"
   xmlns:cc="http://creativecommons.org/ns#"
   xmlns:dc="http://purl.org/dc/elements/1.1/"
   xmlns:osb="http://www.openswatchbook.org/uri/2009/osb"><metadata
     id="metadata19"><rdf:RDF><cc:Work
         rdf:about=""><dc:format>image/svg+xml</dc:format><dc:type
           rdf:resource="http://purl.org/dc/dcmitype/StillImage" /></cc:Work></rdf:RDF></metadata><defs
     id="defs17"><linearGradient
       id="linearGradient846"
       osb:paint="solid"><stop
         style="stop-color:#000000;stop-opacity:1;"
         offset="0"
         id="stop844" /></linearGradient><symbol
       id="AddUser"><g
         id="AddUser_transform"
         transform="matrix(2.9842888,0,0,2.9842888,47.955709,64.282188)"><path
           id="path27082"
           d="m -10.707899,-22.044663 c -2.967942,0 -5.361494,2.106299 -5.361494,5.361412 0,3.446588 2.393552,5.36141 5.361494,5.36141 2.9679423,0 5.3613293,-2.393515 5.3613293,-5.36141 0,-2.967897 -2.393387,-5.361412 -5.3613293,-5.361412 z m -0.478788,2.010612 h 1.053234 c 0.2872206,0 0.2871402,0.382878 0.2871402,0.670094 v 1.531831 h 1.8191621 c 0.28722,0 0.574445,0.382878 0.574445,0.670094 v 1.053218 c 0,0.287215 -0.287225,0.478614 -0.574445,0.478614 h -1.8191621 v 1.72331 c 0,0.287216 8.04e-5,0.47878 -0.2871402,0.47878 h -1.053234 c -0.287219,0 -0.574445,-0.191564 -0.574445,-0.47878 v -1.72331 h -1.627513 c -0.287221,0 -0.574446,-0.191399 -0.574446,-0.478614 v -1.053218 c 0,-0.382954 0.287225,-0.670094 0.574446,-0.670094 h 1.627513 v -1.531831 c 0,-0.382955 0.287226,-0.670094 0.574445,-0.670094 z"
           style="stroke-width:0.957394" /></g></symbol></defs><sodipodi:namedview
     pagecolor="#ffffff"
     bordercolor="#666666"
     borderopacity="1"
     objecttolerance="10"
     gridtolerance="10"
     guidetolerance="10"
     inkscape:pageopacity="0"
     inkscape:pageshadow="2"
     inkscape:window-width="1920"
     inkscape:window-height="1017"
     id="namedview15"
     showgrid="false"
     inkscape:zoom="22.627417"
     inkscape:cx="10.893864"
     inkscape:cy="13.744388"
     inkscape:window-x="1912"
     inkscape:window-y="-8"
     inkscape:window-maximized="1"
     inkscape:current-layer="svg13"
     inkscape:showpageshadow="0"
     inkscape:pagecheckerboard="1"
     inkscape:deskcolor="#d1d1d1" /><title
     id="title2" /><path
     id="path4200"
     style="fill:#000000;stroke-width:0.028103"
     d="M 18.75 0 C 15.843736 0 13.5 2.0625324 13.5 5.25 C 13.5 8.6249635 15.843736 10.5 18.75 10.5 C 21.656265 10.5 24 8.1562184 24 5.25 C 24 2.3437797 21.656265 0 18.75 0 z M 18.28125 1.96875 L 19.3125 1.96875 C 19.593752 1.96875 19.59375 2.3437527 19.59375 2.625 L 19.59375 4.125 L 21.375 4.125 C 21.656251 4.125 21.9375 4.5000027 21.9375 4.78125 L 21.9375 5.8125 C 21.9375 6.0937463 21.656251 6.28125 21.375 6.28125 L 19.59375 6.28125 L 19.59375 7.96875 C 19.59375 8.2499973 19.593752 8.4375 19.3125 8.4375 L 18.28125 8.4375 C 18 8.4375 17.71875 8.2499973 17.71875 7.96875 L 17.71875 6.28125 L 16.125 6.28125 C 15.843748 6.28125 15.5625 6.0937463 15.5625 5.8125 L 15.5625 4.78125 C 15.5625 4.4062543 15.843748 4.125 16.125 4.125 L 17.71875 4.125 L 17.71875 2.625 C 17.71875 2.2500033 18 1.96875 18.28125 1.96875 z M 2 2 A 2 2 0 0 0 0 4 L 0 11.484375 L 0 19 A 2 2 0 0 0 2 21 L 4 21 L 4 21.6875 L 4 21.980469 L 4 22 L 8 22 L 8 21.980469 L 8 21.6875 L 8 21 L 16 21 L 16 21.6875 L 16 21.980469 L 16 22 L 20 22 L 20 21.980469 L 20 21.6875 L 20 21 L 22 21 A 2 2 0 0 0 24 19 L 24 12.525391 L 24 8.1210938 A 6 6 0 0 1 23 9.4648438 L 23 19 C 23 19.37978 22.788813 19.705617 22.478516 19.875 C 22.336172 19.9527 22.174214 20 22 20 L 21 20 L 20 20 L 20 19 L 20 18 L 20 14 A 2 2 0 0 0 18 12 L 6 12 A 2 2 0 0 0 4 14 L 4 19 L 4 20 L 2 20 C 1.446006 20 1 19.55399 1 19 L 1 13.96875 L 1 12 L 1 10.96875 L 1 7 L 9.7109375 7 L 11.710938 5 L 12.767578 5 A 6 6 0 0 1 12.896484 4 L 11.710938 4 L 9.7109375 2 L 5.5878906 2 L 2 2 z M 2 3 L 4.8613281 3 L 9.3007812 3 L 10.800781 4.5 L 9.3007812 6 L 4.8613281 6 L 2.546875 6 L 2 6 L 1 6 L 1 5 L 1 4 C 1 3.4460096 1.4460096 3 2 3 z M 2.5 4 L 2.5 5 L 2.5 5.0019531 L 8.3027344 5.0019531 L 8.3007812 5 L 8.5 5 L 8.5 4 L 8.3007812 4 L 2.5 4 z M 6 13 L 18 13 A 1 1 0 0 1 19 14 L 19 21 L 17 21 L 17 15 L 7 15 L 7 21 L 5 21 L 5 14 A 1 1 0 0 1 6 13 z M 8.2402344 15.992188 L 8.25 16 L 16 16 L 16 20 L 8 20 L 8 16 L 8.1523438 16 L 8.2402344 15.992188 z " /></svg>
