<?xml version="1.0" encoding="UTF-8" standalone="no"?>
<!-- Generator: Adobe Illustrator 20.0.0, SVG Export Plug-In . SVG Version: 6.00 Build 0)  -->

<svg
   version="1.1"
   id="Ebene_1"
   x="0px"
   y="0px"
   viewBox="0 0 32 32"
   style="enable-background:new 0 0 32 32;"
   xml:space="preserve"
   width="32px"
   height="32px"
   class="br-symbol-library"
   sodipodi:docname="NewRecipe.svg"
   inkscape:version="1.2.2 (732a01da63, 2022-12-09)"
   xmlns:inkscape="http://www.inkscape.org/namespaces/inkscape"
   xmlns:sodipodi="http://sodipodi.sourceforge.net/DTD/sodipodi-0.dtd"
   xmlns="http://www.w3.org/2000/svg"
   xmlns:svg="http://www.w3.org/2000/svg"><defs
   id="defs22"><symbol
     id="AddUser"><g
       id="AddUser_transform"
       transform="matrix(2.9842888,0,0,2.9842888,47.955709,64.282188)"><path
         id="path27082"
         d="m -10.707899,-22.044663 c -2.967942,0 -5.361494,2.106299 -5.361494,5.361412 0,3.446588 2.393552,5.36141 5.361494,5.36141 2.9679423,0 5.3613293,-2.393515 5.3613293,-5.36141 0,-2.967897 -2.393387,-5.361412 -5.3613293,-5.361412 z m -0.478788,2.010612 h 1.053234 c 0.2872206,0 0.2871402,0.382878 0.2871402,0.670094 v 1.531831 h 1.8191621 c 0.28722,0 0.574445,0.382878 0.574445,0.670094 v 1.053218 c 0,0.287215 -0.287225,0.478614 -0.574445,0.478614 h -1.8191621 v 1.72331 c 0,0.287216 8.04e-5,0.47878 -0.2871402,0.47878 h -1.053234 c -0.287219,0 -0.574445,-0.191564 -0.574445,-0.47878 v -1.72331 h -1.627513 c -0.287221,0 -0.574446,-0.191399 -0.574446,-0.478614 v -1.053218 c 0,-0.382954 0.287225,-0.670094 0.574446,-0.670094 h 1.627513 v -1.531831 c 0,-0.382955 0.287226,-0.670094 0.574445,-0.670094 z"
         style="stroke-width:0.957394" /></g></symbol></defs><sodipodi:namedview
   id="namedview20"
   pagecolor="#505050"
   bordercolor="#ffffff"
   borderopacity="1"
   inkscape:showpageshadow="0"
   inkscape:pageopacity="0"
   inkscape:pagecheckerboard="1"
   inkscape:deskcolor="#505050"
   showgrid="false"
   inkscape:zoom="1.32"
   inkscape:cx="27.651515"
   inkscape:cy="21.969697"
   inkscape:window-width="1920"
   inkscape:window-height="1017"
   inkscape:window-x="1912"
   inkscape:window-y="-8"
   inkscape:window-maximized="1"
   inkscape:current-layer="Ebene_1" />
<g
   id="Recipe">
	<g
   id="g15">
		<path
   id="path13"
   d="M 3.9570312 0 C 3.592032 -1.4802944e-16 3.25 0.4191101 3.25 0.78710938 L 3.25 31.283203 C 3.25 31.650203 3.592032 32 3.9570312 32 L 27.822266 32 C 28.189264 32 28.75 31.650203 28.75 31.283203 L 28.75 10.832031 A 8 8 0 0 1 21.75 15 A 8 8 0 0 1 15.714844 12.25 L 7 12.25 C 6.5850008 12.25 6.25 11.915 6.25 11.5 C 6.25 11.085 6.5850008 10.75 7 10.75 L 14.705078 10.75 A 8 8 0 0 1 13.767578 7.25 L 7 7.25 C 6.5850008 7.25 6.25 6.9149992 6.25 6.5 C 6.25 6.0850008 6.5850008 5.75 7 5.75 L 13.855469 5.75 A 8 8 0 0 1 17.917969 0 L 3.9570312 0 z M 7 15.75 L 25 15.75 C 25.415 15.75 25.75 16.085 25.75 16.5 C 25.75 16.915 25.415 17.25 25 17.25 L 7 17.25 C 6.5850008 17.25 6.25 16.915 6.25 16.5 C 6.25 16.085 6.5850008 15.75 7 15.75 z M 7 21 L 25 21 C 25.415 21 25.75 21.335 25.75 21.75 C 25.75 22.165 25.415 22.5 25 22.5 L 7 22.5 C 6.5850008 22.5 6.25 22.165 6.25 21.75 C 6.25 21.335 6.5850008 21 7 21 z M 7 26 L 20 26 C 20.415 26 20.75 26.335 20.75 26.75 C 20.75 27.165 20.415 27.5 20 27.5 L 7 27.5 C 6.5850008 27.5 6.25 27.165 6.25 26.75 C 6.25 26.335 6.5850008 26 7 26 z " />
	</g>
</g><g
   id="use32530"
   transform="matrix(0.43749998,0,0,0.43750002,14.75,0.65863564)"><g
     id="g35269"
     transform="matrix(2.9842888,0,0,2.9842888,47.955709,64.282188)"><path
       id="path35267"
       d="m -10.707899,-22.044663 c -2.967942,0 -5.361494,2.106299 -5.361494,5.361412 0,3.446588 2.393552,5.36141 5.361494,5.36141 2.9679423,0 5.3613293,-2.393515 5.3613293,-5.36141 0,-2.967897 -2.393387,-5.361412 -5.3613293,-5.361412 z m -0.478788,2.010612 h 1.053234 c 0.2872206,0 0.2871402,0.382878 0.2871402,0.670094 v 1.531831 h 1.8191621 c 0.28722,0 0.574445,0.382878 0.574445,0.670094 v 1.053218 c 0,0.287215 -0.287225,0.478614 -0.574445,0.478614 h -1.8191621 v 1.72331 c 0,0.287216 8.04e-5,0.47878 -0.2871402,0.47878 h -1.053234 c -0.287219,0 -0.574445,-0.191564 -0.574445,-0.47878 v -1.72331 h -1.627513 c -0.287221,0 -0.574446,-0.191399 -0.574446,-0.478614 v -1.053218 c 0,-0.382954 0.287225,-0.670094 0.574446,-0.670094 h 1.627513 v -1.531831 c 0,-0.382955 0.287226,-0.670094 0.574445,-0.670094 z"
       style="stroke-width:0.957394" /></g></g>

</svg>
