<?xml version="1.0" encoding="iso-8859-1"?>
<!-- Generator: Adobe Illustrator 20.0.0, SVG Export Plug-In . SVG Version: 6.00 Build 0)  -->
<svg version="1.1" id="Ebene_1" xmlns="http://www.w3.org/2000/svg" xmlns:xlink="http://www.w3.org/1999/xlink" x="0px" y="0px"
	 viewBox="0 0 32 32" style="enable-background:new 0 0 32 32;" xml:space="preserve" width="32px" height="32px" class="br-symbol-library">
<g id="Package">
	<path d="M32,29.292c0,0.736-0.597,1.333-1.333,1.333H1.333C0.597,30.625,0,30.028,0,29.292V10.708c0-0.736,0.597-1.333,1.333-1.333
		h29.333c0.737,0,1.334,0.597,1.334,1.333V29.292z M29.295,4.125H15.513l-0.462-1.442c-0.236-0.697-1.023-1.308-1.756-1.308H6.628
		c-0.733,0-1.524,0.611-1.755,1.308L4.406,4.125H2.628c-0.733,0-1.378,0.559-1.378,1.293v2.707h29.5V5.418
		C30.75,4.684,30.028,4.125,29.295,4.125z"/>
</g>
<g id="Ebene_1_1_">
</g>
</svg>
