<?xml version="1.0" encoding="UTF-8" standalone="no"?>
<!-- Generator: Adobe Illustrator 20.0.0, SVG Export Plug-In . SVG Version: 6.00 Build 0)  -->

<svg
   version="1.1"
   id="Ebene_1"
   x="0px"
   y="0px"
   viewBox="0 0 32 32"
   style="enable-background:new 0 0 32 32;"
   xml:space="preserve"
   width="32px"
   height="32px"
   class="br-symbol-library"
   sodipodi:docname="Paste.svg"
   inkscape:version="1.2.2 (732a01da63, 2022-12-09)"
   xmlns:inkscape="http://www.inkscape.org/namespaces/inkscape"
   xmlns:sodipodi="http://sodipodi.sourceforge.net/DTD/sodipodi-0.dtd"
   xmlns="http://www.w3.org/2000/svg"
   xmlns:svg="http://www.w3.org/2000/svg"><defs
   id="defs922" /><sodipodi:namedview
   id="namedview920"
   pagecolor="#505050"
   bordercolor="#ffffff"
   borderopacity="1"
   inkscape:showpageshadow="0"
   inkscape:pageopacity="0"
   inkscape:pagecheckerboard="1"
   inkscape:deskcolor="#505050"
   showgrid="false"
   inkscape:zoom="22.627417"
   inkscape:cx="15.62264"
   inkscape:cy="17.147339"
   inkscape:window-width="1920"
   inkscape:window-height="1017"
   inkscape:window-x="1912"
   inkscape:window-y="-8"
   inkscape:window-maximized="1"
   inkscape:current-layer="Ebene_1" />

<path
   id="path913"
   style="stroke-width:0.547427"
   d="m 13.043931,0.00199429 c -0.342912,0.01634 -0.678851,0.13122 -0.989788,0.341073 -0.316683,0.213731 -0.660424,0.68943501 -0.709159,0.98130001 -0.07856,0.470181 0.02295,0.432417 -1.200261,0.432534 -0.929458,8.8e-5 -1.135825,0.01685 -1.3140292,0.106704 -0.3415266,0.172142 -0.3630893,0.2731 -0.3640601,1.684407 -9.611e-4,1.3689259 0.041269,1.6003053 0.3204487,1.7358526 0.1922816,0.093363 8.4993046,0.096979 8.6805576,0.00381 0.332421,-0.1708247 0.343158,-0.2197456 0.345099,-1.7148926 v -1.387158 l -0.176341,-0.198166 -0.178238,-0.200071 -1.219222,-0.01905 -1.219222,-0.02096 -0.03413,-0.161962 c -0.16807,-0.79319701 -0.605748,-1.29166201 -1.321615,-1.50529501 -0.20648,-0.06162 -0.414293,-0.08793 -0.62004,-0.07812 z M 6.1381661,1.8178753 c -1.1493211,0 -1.9775331,0.02587 -2.1767751,0.0686 -0.448124,0.09605 -0.795661,0.445247 -0.89119,0.895555 -0.09233,0.435383 -0.09422,23.8231507 -0.0019,24.2257237 0.0783,0.341445 0.298125,0.637916 0.589702,0.792662 0.217455,0.114943 0.386823,0.119022 5.519682,0.121948 l 5.295936,0.0019 v -0.48779 -0.487792 H 9.327489 c -3.922492,0 -5.16456,-0.0166 -5.220091,-0.07241 -0.105985,-0.106504 -0.105985,-23.8410257 0,-23.9475297 0.0522,-0.05239 0.44731,-0.07431 1.3955638,-0.07431 h 1.3235101 v 1.370009 c 0,1.6282651 0.051867,1.849933 0.5366095,2.3055787 0.5327986,0.5008437 0.2385321,0.4780387 5.9027036,0.45921 l 5.002034,-0.017149 0.250292,-0.1352861 c 0.347972,-0.1870287 0.62341,-0.4773977 0.790692,-0.8383918 0.135722,-0.2932407 0.141658,-0.3665475 0.142212,-1.7244208 v -1.41955 l 1.321614,0.0019 c 0.726109,4.88e-4 1.354012,0.02301 1.395563,0.04954 0.05912,0.03773 0.07888,1.225131 0.09101,5.4724141 l 0.01517,5.4266846 0.500582,0.03049 0.500583,0.03049 V 8.3573349 c -1.36e-4,-6.0232416 0.01559,-5.7440026 -0.352683,-6.1336016 -0.354419,-0.374975 -0.347272,-0.372865 -2.48964,-0.394425 -1.0795,-0.01083 -1.99856,-0.0053 -2.04215,0.01143 -0.06514,0.02507 -0.06567,0.09895 0.0019,0.415385 0.09961,0.466592 0.118432,2.8962505 0.02465,3.2354311 -0.03435,0.1242796 -0.133161,0.2820174 -0.219953,0.3506005 -0.15606,0.1237917 -0.214527,0.1238537 -5.06271,0.1238537 H 8.231521 L 8.0400102,5.7735592 7.8503956,5.5830156 7.8750456,3.8376353 c 0.0133,-0.95965 0.043945,-1.807061 0.070157,-1.882571 l 0.049299,-0.137192 z M 15.461518,14.439489 c -0.199323,0 -0.386814,0.230589 -0.386814,0.432534 v 16.735452 c 0,0.201397 0.187491,0.39252 0.386814,0.39252 h 13.032213 c 0.200415,0 0.506272,-0.191123 0.506272,-0.39252 V 18.829616 h -4.122222 c -0.199323,0 -0.2465,-0.122528 -0.2465,-0.323925 v -4.066202 z m 9.907364,0.01905 v 3.271635 c 0,0.2003 0.109749,0.339168 0.309073,0.339168 h 3.255683 z m -8.24634,3.136349 h 5.460901 c 0.226628,0 0.409568,0.183837 0.409568,0.411575 0,0.227737 -0.18294,0.411574 -0.409568,0.411574 h -5.460901 c -0.226627,0 -0.409568,-0.183837 -0.409568,-0.411574 0,-0.227738 0.182941,-0.411575 0.409568,-0.411575 z m 0,2.743829 h 9.829622 c 0.226628,0 0.409568,0.183837 0.409568,0.411575 0,0.227738 -0.18294,0.411574 -0.409568,0.411574 h -9.829622 c -0.226627,0 -0.409568,-0.183836 -0.409568,-0.411574 0,-0.227738 0.182941,-0.411575 0.409568,-0.411575 z m 0,2.74383 h 9.829622 c 0.226628,0 0.409568,0.183836 0.409568,0.411574 0,0.227738 -0.18294,0.411574 -0.409568,0.411574 h -9.829622 c -0.226627,0 -0.409568,-0.183836 -0.409568,-0.411574 0,-0.227738 0.182941,-0.411574 0.409568,-0.411574 z m 0,2.88102 h 9.829622 c 0.226628,0 0.409568,0.183836 0.409568,0.411574 0,0.227738 -0.18294,0.411575 -0.409568,0.411575 h -9.829622 c -0.226627,0 -0.409568,-0.183837 -0.409568,-0.411575 0,-0.227738 0.182941,-0.411574 0.409568,-0.411574 z m 0,2.743829 h 7.099172 c 0.226627,0 0.409567,0.183836 0.409567,0.411574 0,0.227738 -0.18294,0.411575 -0.409567,0.411575 h -7.099172 c -0.226627,0 -0.409568,-0.183837 -0.409568,-0.411575 0,-0.227738 0.182941,-0.411574 0.409568,-0.411574 z" />
</svg>
