<?xml version="1.0" encoding="UTF-8" standalone="no"?>
<!-- Created with Inkscape (http://www.inkscape.org/) -->

<svg
   width="8.4666662mm"
   height="8.4666662mm"
   viewBox="0 0 8.4666662 8.4666662"
   version="1.1"
   id="svg5"
   inkscape:version="1.2.2 (732a01da63, 2022-12-09)"
   sodipodi:docname="Rename.svg"
   xmlns:inkscape="http://www.inkscape.org/namespaces/inkscape"
   xmlns:sodipodi="http://sodipodi.sourceforge.net/DTD/sodipodi-0.dtd"
   xmlns="http://www.w3.org/2000/svg"
   xmlns:svg="http://www.w3.org/2000/svg">
  <sodipodi:namedview
     id="namedview7"
     pagecolor="#505050"
     bordercolor="#ffffff"
     borderopacity="1"
     inkscape:showpageshadow="0"
     inkscape:pageopacity="0"
     inkscape:pagecheckerboard="1"
     inkscape:deskcolor="#505050"
     inkscape:document-units="mm"
     showgrid="false"
     inkscape:zoom="8"
     inkscape:cx="29.3125"
     inkscape:cy="15.875"
     inkscape:window-width="1920"
     inkscape:window-height="1017"
     inkscape:window-x="1912"
     inkscape:window-y="-8"
     inkscape:window-maximized="1"
     inkscape:current-layer="layer1" />
  <defs
     id="defs2" />
  <g
     inkscape:label="Layer 1"
     inkscape:groupmode="layer"
     id="layer1">
    <path
       id="rect436"
       style="fill:#000000;stroke-width:0.261738"
       d="M 0.52916667 2.6458333 C 0.23600893 2.6458333 0 2.8818423 0 3.175 L 0 5.2916667 C 0 5.5848244 0.23600893 5.8208333 0.52916667 5.8208333 L 5.0270833 5.8208333 L 5.0270833 5.2916667 L 0.79375 5.2916667 C 0.64717114 5.2916667 0.52916667 5.1736622 0.52916667 5.0270833 L 0.52916667 3.4395833 C 0.52916667 3.2930045 0.64717114 3.175 0.79375 3.175 L 5.0270833 3.175 L 5.0270833 2.6458333 L 0.52916667 2.6458333 z M 6.0854167 2.6458333 L 6.0854167 3.175 L 7.6729167 3.175 C 7.8194955 3.175 7.9375 3.2930045 7.9375 3.4395833 L 7.9375 5.0270833 C 7.9375 5.1736622 7.8194955 5.2916667 7.6729167 5.2916667 L 6.0854167 5.2916667 L 6.0854167 5.8208333 L 7.9375 5.8208333 C 8.2306577 5.8208333 8.4666667 5.5848244 8.4666667 5.2916667 L 8.4666667 3.175 C 8.4666667 2.8818423 8.2306577 2.6458333 7.9375 2.6458333 L 6.0854167 2.6458333 z " />
    <path
       id="rect709"
       style="fill:#000000;stroke-width:0.205395"
       d="M 4.4979167 1.0583333 C 4.3513377 1.0583333 4.2333333 1.1763377 4.2333333 1.3229167 C 4.2333333 1.4694957 4.3513377 1.5875 4.4979167 1.5875 L 5.2916667 1.5875 L 5.2916667 6.8791667 L 4.4979167 6.8791667 C 4.3513377 6.8791667 4.2333333 6.997171 4.2333333 7.14375 C 4.2333333 7.290329 4.3513377 7.4083333 4.4979167 7.4083333 L 6.6145833 7.4083333 C 6.7611623 7.4083333 6.8791667 7.290329 6.8791667 7.14375 C 6.8791667 6.997171 6.7611623 6.8791667 6.6145833 6.8791667 L 5.8208333 6.8791667 L 5.8208333 1.5875 L 6.6145833 1.5875 C 6.7611623 1.5875 6.8791667 1.4694957 6.8791667 1.3229167 C 6.8791667 1.1763377 6.7611623 1.0583333 6.6145833 1.0583333 L 4.4979167 1.0583333 z " />
  </g>
</svg>
