<?xml version="1.0" encoding="iso-8859-1"?>
<!-- Generator: Adobe Illustrator 20.0.0, SVG Export Plug-In . SVG Version: 6.00 Build 0)  -->
<svg version="1.1" xmlns="http://www.w3.org/2000/svg" xmlns:xlink="http://www.w3.org/1999/xlink" x="0px" y="0px"
	 viewBox="0 0 32 32" style="enable-background:new 0 0 32 32;" xml:space="preserve" width="32px" height="32px" class="br-symbol-library">
<g id="Back">
	<path id="Vor_3_" d="M16,0C7.165,0,0,7.163,0,16c0,8.838,7.165,16,16,16c8.835,0,16-7.162,16-16C32,7.163,24.835,0,16,0z
		 M24.04,18.053c0,0.36-0.377,0.722-0.737,0.722H16.04v4.405c0,0.363-0.205,0.467-0.482,0.238l-8.39-6.998
		c-0.277-0.23-0.272-0.61,0.005-0.84l8.38-6.997C15.83,8.35,16.04,8.458,16.04,8.82v4.705h7.263c0.36,0,0.737,0.228,0.737,0.588
		V18.053z"/>
</g>
<g id="Ebene_1">
</g>
</svg>
