<?xml version="1.0" encoding="iso-8859-1"?>
<!-- Generator: Adobe Illustrator 20.0.0, SVG Export Plug-In . SVG Version: 6.00 Build 0)  -->
<svg version="1.1" id="Ebene_1" xmlns="http://www.w3.org/2000/svg" xmlns:xlink="http://www.w3.org/1999/xlink" x="0px" y="0px"
	 viewBox="0 0 32 32" style="enable-background:new 0 0 32 32;" xml:space="preserve" width="32px" height="32px" class="br-symbol-library">
<g id="Up1">
	<path d="M16.848,26.762h9.86c0.352,0,0.792-0.577,0.792-0.927v-2.55c0-0.352-0.439-0.523-0.792-0.523H5.033
		c-0.35,0-0.533,0.17-0.533,0.523v2.55c0,0.35,0.183,0.927,0.533,0.927h9.815H16.848z M27.113,20.011H4.898
		c-0.35,0-0.462-0.345-0.247-0.623L15.617,5.422c0.2-0.256,0.587-0.24,0.787,0.016L27.36,19.382
		C27.573,19.659,27.463,20.011,27.113,20.011z"/>
</g>
<g id="Ebene_1_1_">
</g>
</svg>
