<?xml version="1.0" encoding="iso-8859-1"?>
<!-- Generator: Adobe Illustrator 20.0.0, SVG Export Plug-In . SVG Version: 6.00 Build 0)  -->
<svg version="1.1" id="Ebene_1" xmlns="http://www.w3.org/2000/svg" xmlns:xlink="http://www.w3.org/1999/xlink" x="0px" y="0px"
	 viewBox="0 0 32 32" style="enable-background:new 0 0 32 32;" xml:space="preserve" width="32px" height="32px" class="br-symbol-library">
<g id="Diagnostics">
	<path d="M28.042,8.775c-1.153,0-2.182,0.503-2.906,1.292c0,0-0.658,0.686-0.914,1.812h-0.946c-1.316,0-2.634,0.9-3.525,2.408
		c-0.993,1.68-1.537,4.413-0.088,7.046c0.998,1.813,1.579,4.366,0.626,5.979c-0.681,1.152-2.103,1.737-4.225,1.737
		c-2.367,0-4.108-1.056-5.175-3.139c-0.806-1.573-0.965-3.199-0.965-3.403V19.41c0.248-0.01,0.489-0.021,0.762-0.035
		c3.236-0.367,4.365-3.38,4.831-4.345c0.099-0.206,0.087-0.449-0.035-0.645c-0.077-0.122-0.193-0.198-0.322-0.25
		c0.174-0.61,0.345-1.27,0.449-1.756l1.443-6.735c0.174-0.808,0.31-1.944,0.31-2.587c-0.001-1.288-1.198-2.337-2.671-2.337h-1.334
		c-0.737,0-1.334,0.626-1.334,1.363c0,0.739,0.598,1.365,1.334,1.365h1.322c-0.035,0.496-0.122,1.127-0.238,1.663L13,11.852
		c-0.136,0.625-0.404,1.516-0.61,2.26h-0.63c-0.203,0-0.397,0.045-0.523,0.203c-0.565,0.709-0.551,1.037-1.218,1.037H7.348
		c-0.675,0-0.662-0.327-1.225-1.034c-0.126-0.161-0.32-0.206-0.523-0.206H4.977c-0.211-0.744-0.476-1.654-0.608-2.274L2.924,5.121
		C2.81,4.585,2.723,3.944,2.688,3.448H4.01c0.737,0,1.334-0.626,1.334-1.365c0-0.737-0.598-1.363-1.334-1.363H2.676
		c-1.473,0-2.671,1.049-2.671,2.336c0,0.642,0.136,1.778,0.307,2.587l1.446,6.735c0.104,0.486,0.275,1.146,0.449,1.756
		c-0.129,0.052-0.246,0.129-0.322,0.25c-0.122,0.196-0.134,0.439-0.035,0.645c0.466,0.965,1.595,3.978,4.831,4.345
		c0,0,0.267,0.048,1.011,0.066v3.103l0.001,0.058c0.155,3.002,2.105,8.68,8.37,8.68c3.697,0,5.383-1.54,6.147-2.833
		c1.495-2.531,0.675-5.891-0.592-8.191c-0.997-1.81-0.626-3.684,0.054-4.834c0.533-0.901,1.205-1.311,1.603-1.311h1.067
		c0.564,1.507,2,2.587,3.699,2.587c2.185,0,3.963-1.776,3.963-3.96C32.006,10.55,30.228,8.775,28.042,8.775z M28.042,14.57
		c-1.012,0-1.833-0.823-1.833-1.833c0-1.012,0.821-1.835,1.833-1.835s1.835,0.823,1.835,1.835
		C29.877,13.747,29.055,14.57,28.042,14.57z"/>
</g>
<g id="Ebene_1_1_">
</g>
</svg>
