<?xml version="1.0" encoding="utf-8"?>
<!-- Generator: Adobe Illustrator 20.0.0, SVG Export Plug-In . SVG Version: 6.00 Build 0)  -->
<svg version="1.1" id="Ebene_1" xmlns="http://www.w3.org/2000/svg" xmlns:xlink="http://www.w3.org/1999/xlink" x="0px" y="0px"
	 viewBox="0 0 32 32" style="enable-background:new 0 0 32 32;" xml:space="preserve" width="32px" height="32px" class="br-symbol-library">
<g id="AddUser">
	<path d="M26.2,26.5c0,0.5,0,2.7,0,2.7c0,0.3-0.3,0.5-0.6,0.5H0.5c-0.3,0-0.5-0.2-0.5-0.5c0,0,0-2.2,0-2.7c0-1.2,0.3-1.7,1.2-2.2
		C1.9,23.8,6.8,21,9.2,20v-4.3C8.5,15.2,8,14.4,8,13.1c0-2.9,0-3.4,0-3.4c0-2.8,1.7-5.1,5.1-5.1s5.1,2.3,5.1,5.1v3.4
		c0,1.2-0.5,2-1,2.5V20c2.2,1,7.2,3.8,7.9,4.3C26.1,24.8,26.2,25.3,26.2,26.5z M32,7.9c0,3.1-2.5,5.6-5.6,5.6c-3.1,0-5.6-2-5.6-5.6
		c0-3.4,2.5-5.6,5.6-5.6C29.5,2.3,32,4.8,32,7.9z M29.8,7.4c0-0.3-0.3-0.7-0.6-0.7h-1.9V5.1c0-0.3,0-0.7-0.3-0.7h-1.1
		c-0.3,0-0.6,0.3-0.6,0.7v1.6h-1.7c-0.3,0-0.6,0.3-0.6,0.7v1.1C23,8.8,23.3,9,23.6,9h1.7v1.8c0,0.3,0.3,0.5,0.6,0.5h1.1
		c0.3,0,0.3-0.2,0.3-0.5V9h1.9c0.3,0,0.6-0.2,0.6-0.5L29.8,7.4L29.8,7.4z"/>
</g>
<g id="Ebene_1_1_">
</g>
</svg>
