<?xml version="1.0" encoding="utf-8"?>
<!-- Generator: Adobe Illustrator 20.0.0, SVG Export Plug-In . SVG Version: 6.00 Build 0)  -->
<svg version="1.1" id="Ebene_1" xmlns="http://www.w3.org/2000/svg" xmlns:xlink="http://www.w3.org/1999/xlink" x="0px" y="0px"
	 viewBox="0 0 32 32" style="enable-background:new 0 0 32 32;" xml:space="preserve" width="32px" height="32px" class="br-symbol-library">
<g id="Lock">
	<path id="Sperren_3_" d="M28.1,13.5h-1.6V7.3c0-3.8-3.6-7.3-7.4-7.3h-6.3C9.1,0,5.5,3.5,5.5,7.3v6.2H3.9c-0.5,0-0.9,0.3-0.9,0.7v17
		C3,31.6,3.4,32,3.9,32h24.2c0.4,0,0.9-0.4,0.9-0.8v-17C29,13.8,28.5,13.5,28.1,13.5z M17.2,22.6v3.2c0,0.3-0.3,0.7-0.7,0.7h-1.2
		c-0.3,0-0.6-0.4-0.6-0.7v-3.2c-0.8-0.4-1.2-1.2-1.2-2.1c0-1.4,1.1-2.5,2.5-2.5s2.5,1.1,2.5,2.5C18.5,21.4,18,22.2,17.2,22.6z
		 M21.5,13.5h-11V7.3c0-1.7,0.7-2.3,2.4-2.3H19c1.7,0,2.5,0.6,2.5,2.3V13.5z"/>
</g>
<g id="Ebene_1_1_">
</g>
</svg>
