<?xml version="1.0" encoding="utf-8"?>
<!-- Generator: Adobe Illustrator 20.0.0, SVG Export Plug-In . SVG Version: 6.00 Build 0)  -->
<svg version="1.1" id="Ebene_1" xmlns="http://www.w3.org/2000/svg" xmlns:xlink="http://www.w3.org/1999/xlink" x="0px" y="0px"
	 viewBox="0 0 32 32" style="enable-background:new 0 0 32 32;" xml:space="preserve" width="32px" height="32px" class="br-symbol-library">
<g id="User">
	<path id="user_11_" d="M30.5,24.6c-0.9-0.5-6.8-4-9.8-5.2v-5.3c1-0.6,1.5-1.6,1.5-3.1V6.9c0-3.4-2.1-6.3-6.2-6.3S9.8,3.5,9.8,6.9
		c0,0,0,0.7,0,4.2c0,1.5,0.5,2.5,1.5,3.1v5.2c-3,1.2-8.9,4.7-9.8,5.2C0.3,25.2,0,25.8,0,27.3c0,0.6,0,3.3,0,3.3
		c0,0.4,0.3,0.8,0.7,0.8h30.6c0.4,0,0.7-0.4,0.7-0.8c0,0,0-2.7,0-3.3C32,25.8,31.7,25.2,30.5,24.6z"/>
</g>
<g id="Ebene_1_1_">
</g>
</svg>
