<?xml version="1.0" encoding="utf-8"?>
<!-- Generator: Adobe Illustrator 20.0.0, SVG Export Plug-In . SVG Version: 6.00 Build 0)  -->
<svg version="1.1" id="Ebene_1" xmlns="http://www.w3.org/2000/svg" xmlns:xlink="http://www.w3.org/1999/xlink" x="0px" y="0px"
	 viewBox="0 0 32 32" style="enable-background:new 0 0 32 32;" xml:space="preserve" width="32px" height="32px" class="br-symbol-library">
<g id="UserGroup">
	<path d="M32,23.2v1.5c0,0.2-0.2,0.3-0.4,0.3h-5.2c0-0.2,0.1-0.2,0.1-0.4v-1.9c0-1.1-0.2-2-1.4-2.7c-0.1,0-0.2-0.1-0.3-0.2
		c-0.4-0.3-1.2-0.7-2-1.1c0,0,0,0,0,0v-1.3C22.2,17,22,16.6,22,15.9c0-1.6,0-1.9,0-1.9c0-1.5,1-2.8,2.9-2.8s2.9,1.3,2.9,2.8v1.9
		c0,0.7-0.2,1.1-0.8,1.4v2.4c0.8,0.3,1.7,0.8,2.6,1.3c0.9,0.5,1.6,0.9,1.8,1C31.9,22.2,32,22.5,32,23.2z M0.3,24.9h5.2
		c0-0.2,0-0.2,0-0.4v-1.9c0-1.1,0.2-2,1.4-2.7L7,19.9c0.4-0.2,1.2-0.7,2.2-1.2v-1.4C9.8,17,10,16.6,10,15.9V14c0-1.5-1-2.8-2.9-2.8
		S4.2,12.5,4.2,14c0,0,0,0.3,0,1.9c0,0.7,0.2,1.1,0.8,1.4v2.3c-0.8,0.3-1.7,0.8-2.6,1.3c-0.9,0.5-1.6,0.9-1.8,1
		C0.1,22.2,0,22.5,0,23.2v1.5C0,24.8,0.1,24.9,0.3,24.9z M24.4,21.1c-0.3-0.1-1.2-0.7-2.3-1.3c-1.2-0.6-2.4-1.3-3.4-1.7V15
		c0.5-0.4,1-0.9,1-1.8v-2.4c0-2-1.3-3.7-3.8-3.7s-3.8,1.6-3.8,3.7c0,0,0,0.4,0,2.4c0,0.9,0.5,1.4,1,1.8V18c-1,0.4-2.2,1.1-3.4,1.7
		c-1.1,0.6-2.1,1.2-2.4,1.3c-0.7,0.4-0.8,0.7-0.8,1.6c0,0.3,0,1.9,0,1.9c0,0.2,0.1,0.4,0.3,0.4h17.8c0.2,0,0.4-0.1,0.4-0.4
		c0,0,0-1.6,0-1.9C25.2,21.8,25.1,21.4,24.4,21.1z"/>
</g>
<g id="Ebene_1_1_">
</g>
</svg>
