<?xml version="1.0" encoding="iso-8859-1"?>
<!-- Generator: Adobe Illustrator 20.0.0, SVG Export Plug-In . SVG Version: 6.00 Build 0)  -->
<svg version="1.1" id="Ebene_1" xmlns="http://www.w3.org/2000/svg" xmlns:xlink="http://www.w3.org/1999/xlink" x="0px" y="0px"
	 viewBox="0 0 49.891 206.973" style="enable-background:new 0 0 49.891 206.973;" xml:space="preserve" class="br-symbol-library">
<g id="Needle2long">
	<g>
		<path d="M25.434,171.973c-5.514,0-10,4.486-10,10s4.486,10,10,10s10-4.486,10-10S30.948,171.973,25.434,171.973z M25.434,188.223
			c-3.448,0-6.25-2.802-6.25-6.25c0-3.445,2.802-6.25,6.25-6.25c3.445,0,6.25,2.805,6.25,6.25
			C31.684,185.42,28.879,188.223,25.434,188.223z"/>
		<path d="M33.727,158.708V2.3c0-1.822-0.607-2.3-2.43-2.3h-12.15c-1.823,0-4.17,0.478-4.17,2.3v156.58
			C5.727,162.64,0,171.563,0,181.973c0,13.807,11.41,25,25.218,25s24.674-11.193,24.674-25
			C49.89,171.4,42.977,162.36,33.727,158.708z M40.054,197.023c-3.925,3.998-9.195,6.199-14.838,6.199
			c-5.698,0-11.079-2.216-15.152-6.24c-4.074-4.025-6.317-9.356-6.317-15.01c0-8.933,4.845-16.45,12.639-19.619l2.34-0.95v-2.524
			V3.764c0-0.009,0.265-0.014,0.42-0.014h10.83v154.958v2.551l2.37,0.937c8.25,3.258,13.792,11.205,13.792,19.777
			C46.139,187.683,43.977,193.028,40.054,197.023z"/>
	</g>
</g>
<g id="Ebene_1_1_">
</g>
</svg>
