<svg id="Layer_1" data-name="Layer 1" xmlns="http://www.w3.org/2000/svg" viewBox="0 0 20.77 20.93"><path d="M16.94,8.91l-1.35-.23-.28-.61L16.09,7A.83.83,0,0,0,16,5.86L15.15,5a.83.83,0,0,0-1.09-.1l-1.12.77-.61-.27L12.1,4.07a.79.79,0,0,0-.78-.68H10.13a.9.9,0,0,0-.85.71L9,5.46l-.61.27L7.28,4.92A.81.81,0,0,0,6.2,5l-.85.84A.84.84,0,0,0,5.25,7L6,8.07l-.27.61L4.4,8.91a.84.84,0,0,0-.64.82v1.18a.89.89,0,0,0,.71.85L5.83,12l.27.61-.82,1.15a.85.85,0,0,0,.1,1.09l.85.84a.83.83,0,0,0,1.09.1L8.43,15l.61.28.24,1.35a.84.84,0,0,0,.85.71h1.19a.89.89,0,0,0,.84-.71l.24-1.35L13,15l1.12.78a.81.81,0,0,0,1.08-.1l.85-.84a.83.83,0,0,0,.1-1.09l-.78-1.12.27-.61L17,11.8a.84.84,0,0,0,.71-.85V9.76a1,1,0,0,0-.78-.85Zm-.3,1.87-1.49.27a.51.51,0,0,0-.38.3l-.47,1.12a.46.46,0,0,0,.07.48l.84,1.22-.64.64L13.35,14a.49.49,0,0,0-.48-.06l-1.15.5a.49.49,0,0,0-.3.38l-.27,1.49h-.92L10,14.78a.51.51,0,0,0-.3-.38l-1.12-.47a.49.49,0,0,0-.48.07l-1.22.85L6.2,14.2,7.05,13a.47.47,0,0,0,.06-.47l-.47-1.16a.49.49,0,0,0-.37-.3l-1.5-.27V9.86l1.5-.27a.47.47,0,0,0,.37-.3l.47-1.12a.48.48,0,0,0-.06-.48L6.2,6.47l.64-.64,1.22.85a.52.52,0,0,0,.48.07l1.15-.48A.47.47,0,0,0,10,5.9l.28-1.49h.91l.27,1.49a.5.5,0,0,0,.31.37l1.11.48a.51.51,0,0,0,.48-.07l1.22-.85.64.64-.84,1.22a.47.47,0,0,0-.07.48l.47,1.15a.52.52,0,0,0,.38.31l1.49.27Zm0,0"/><path d="M10.71,8.47a1.87,1.87,0,1,0,1.86,1.87,1.89,1.89,0,0,0-1.86-1.87Zm0,2.72a.85.85,0,1,1,.84-.85.84.84,0,0,1-.84.85Zm0,0"/></svg>