<svg id="Layer_1" data-name="Layer 1" xmlns="http://www.w3.org/2000/svg" viewBox="0 0 30 29"><path d="M15.13,6.83a7.33,7.33,0,1,0,7.33,7.33,7.33,7.33,0,0,0-7.33-7.33Zm0,13.58a6.26,6.26,0,1,1,6.25-6.25,6.28,6.28,0,0,1-6.25,6.25Zm0,0"/><path d="M14.42,18.09a.69.69,0,0,0,.35.61.71.71,0,0,0,.72,0,.71.71,0,0,0,0-1.23.71.71,0,0,0-.72,0,.7.7,0,0,0-.35.62Zm0,0"/><path d="M15.13,9.69A2.32,2.32,0,0,0,12.81,12a.54.54,0,1,0,1.07,0,1.25,1.25,0,1,1,2.5,0c0,.47-.89,1.29-1.53,1.68a.6.6,0,0,0-.25.47v1.78a.54.54,0,1,0,1.07,0v-1.5c.57-.43,1.78-1.39,1.78-2.43a2.32,2.32,0,0,0-2.32-2.32Zm0,0"/></svg>