<svg id="Layer_1" data-name="Layer 1" xmlns="http://www.w3.org/2000/svg" viewBox="0 0 22 21"><path d="M15.25,12.73V10.19a4.09,4.09,0,0,0-2.44-3.75,1.68,1.68,0,0,0-3.36,0A4.11,4.11,0,0,0,7,10.19v2.54a3.28,3.28,0,0,0-1.22,2.65.47.47,0,0,0,.46.46h3a2,2,0,0,0,3.85,0h3a.47.47,0,0,0,.46-.46,3.22,3.22,0,0,0-1.23-2.65Zm-4.12-7a.74.74,0,0,1,.64.37,4.48,4.48,0,0,0-.64-.06,4.62,4.62,0,0,0-.64.06.76.76,0,0,1,.64-.37Zm0,10.69a1,1,0,0,1-.94-.61h1.92a1.08,1.08,0,0,1-1,.61ZM6.74,14.92a2.29,2.29,0,0,1,1-1.61.44.44,0,0,0,.19-.37V10.19a3.21,3.21,0,0,1,6.41,0v2.75a.46.46,0,0,0,.18.37,2.3,2.3,0,0,1,1,1.61Zm0,0"/></svg>