<svg id="Layer_1" data-name="Layer 1" xmlns="http://www.w3.org/2000/svg" viewBox="0 0 22 21"><path d="M15.9,5.34H14.64V5.18a.78.78,0,0,0-.79-.79H9.12a.78.78,0,0,0-.78.79v.16H7.07A1.12,1.12,0,0,0,6,6.44v9.78a1.12,1.12,0,0,0,1.1,1.1H15.9A1.12,1.12,0,0,0,17,16.22V6.44a1.12,1.12,0,0,0-1.11-1.1Zm-2.2,0v1H9.28v-1Zm2.36,10.88a.15.15,0,0,1-.16.16H7.07a.15.15,0,0,1-.15-.16V6.44a.14.14,0,0,1,.15-.15H8.34v.15a.77.77,0,0,0,.78.79h4.73a.77.77,0,0,0,.79-.79V6.29H15.9a.14.14,0,0,1,.16.15v9.78Z"/><path d="M13.67,9.88,10.54,13,9.31,11.8a.47.47,0,0,0-.66,0,.47.47,0,0,0,0,.67L10.23,14a.44.44,0,0,0,.34.13.45.45,0,0,0,.35-.13l3.47-3.47a.45.45,0,0,0,0-.66A.56.56,0,0,0,13.67,9.88Z"/></svg>