<svg id="Layer_1" data-name="Layer 1" xmlns="http://www.w3.org/2000/svg" viewBox="0 0 200 200">
<path d="M100.24,16.17A85.73,85.73,0,1,0,186,101.9a85.85,85.85,0,0,0-85.73-85.73Zm0,158.91c-40.14,0-73.18-33-73.18-73.18s33-73.19,73.18-73.19,73.18,33,73.18,73.19-33,73.18-73.18,73.18Zm0,0"/>
<path d="M91.88,147.9a8.36,8.36,0,1,0,4.18-7.25,8.37,8.37,0,0,0-4.18,7.25Zm0,0"/>
<path d="M100.24,49.62A27.13,27.13,0,0,0,73.06,76.8a6.27,6.27,0,1,0,12.54,0,14.64,14.64,0,0,1,29.28,0c0,5.44-10.46,15.06-18,19.66A7.11,7.11,0,0,0,94,101.9v20.9a6.27,6.27,0,1,0,12.54,0V105.24c6.69-5,20.91-16.31,20.91-28.44a27.12,27.12,0,0,0-27.18-27.18Zm0,0"/>
</svg>