<svg id="Layer_1" data-name="Layer 1" xmlns="http://www.w3.org/2000/svg" viewBox="0 0 22 21"><path d="M16.86,9.69c-1.13-.93-2.73-2.31-4.79-4.08a1,1,0,0,0-1.29,0C8.73,7.38,7.12,8.76,6,9.69a1,1,0,0,0-.34.7.93.93,0,0,0,.93.93h.62V16a.7.7,0,0,0,.7.71H10a.7.7,0,0,0,.7-.71V13.32h1.41V16a.7.7,0,0,0,.7.71h2.11a.7.7,0,0,0,.71-.71V11.32h.62a.93.93,0,0,0,.92-.93,1,1,0,0,0-.33-.7Zm-.59.78h-.76a.7.7,0,0,0-.71.71V15.9H13V13.2a.7.7,0,0,0-.7-.7H10.58a.7.7,0,0,0-.7.7v2.73H8.05V11.18a.7.7,0,0,0-.7-.71H6.59c-.06,0-.09,0-.09-.08s0-.06,0-.08C7.66,9.38,9.26,8,11.31,6.23a.13.13,0,0,1,.2,0c2.05,1.77,3.66,3.15,4.78,4.08,0,0,0,0,0,0s0,.11-.05.11Zm0,0"/></svg>