<svg id="Layer_1" data-name="Layer 1" xmlns="http://www.w3.org/2000/svg" viewBox="0 0 22 21"><path d="M16.31,7,13.54,4.2a1,1,0,0,0-.79-.32H7.33A1.07,1.07,0,0,0,6.22,5V15.67a1.13,1.13,0,0,0,1.11,1.11h8.2a1.13,1.13,0,0,0,1.1-1.11V7.73A1.1,1.1,0,0,0,16.31,7Zm-.66.66s-.06,0-.12,0H13a.14.14,0,0,1-.15-.16V5a.15.15,0,0,0,0-.12s0,0,0,0Zm-.12,8.2H7.33a.15.15,0,0,1-.16-.16V5a.15.15,0,0,1,.16-.16h4.6a.32.32,0,0,0,0,.16V7.47A1.12,1.12,0,0,0,13,8.58h2.53a.27.27,0,0,0,.15,0v7.12A.14.14,0,0,1,15.53,15.83Z"/><path d="M13.32,13H8.9a.48.48,0,0,0,0,.95h4.42a.48.48,0,0,0,0-.95Zm0-2.52H8.9a.48.48,0,0,0,0,.95h4.42a.48.48,0,0,0,0-.95ZM8.9,8.89h1.26a.47.47,0,1,0,0-.94H8.9a.47.47,0,0,0,0,.94Z"/></svg>