<svg id="Layer_1" data-name="Layer 1" xmlns="http://www.w3.org/2000/svg" viewBox="0 0 200 200"><path d="M176.69,82,160,79.07l-3.34-7.53,9.62-13.8A10.24,10.24,0,0,0,165,44.36L154.53,33.9a10.24,10.24,0,0,0-13.38-1.25l-13.8,9.62-7.53-3.35-2.93-16.73a9.56,9.56,0,0,0-9.62-8.36H92.64c-5,0-9.2,3.76-10.46,8.78L79.25,39.34l-7.52,3.35-14.22-10A10.24,10.24,0,0,0,44.13,33.9L33.67,44.36a10.24,10.24,0,0,0-1.25,13.38L42,71.54l-3.35,7.53L22,82A10.37,10.37,0,0,0,14,92v14.64c0,5,3.76,9.2,8.78,10.45l16.73,2.93,3.34,7.53-10,14.22a10.24,10.24,0,0,0,1.25,13.38l10.46,10.45a10.24,10.24,0,0,0,13.38,1.26l13.8-9.62,7.52,3.34,2.93,16.73a10.41,10.41,0,0,0,10.46,8.78h14.63c5,0,9.2-3.76,10.46-8.78l2.93-16.73,7.52-3.34,13.8,9.62a10.24,10.24,0,0,0,13.38-1.26l10.46-10.45a10.24,10.24,0,0,0,1.25-13.38L157.46,128l3.34-7.53,16.73-2.93a10.41,10.41,0,0,0,8.78-10.45V92.45c-.84-5.44-4.6-9.62-9.62-10.45Zm-3.76,23-18.4,3.34a6,6,0,0,0-4.6,3.76l-5.86,13.8a5.91,5.91,0,0,0,.84,5.86l10.45,15.05-7.94,7.95-15-10.46a6,6,0,0,0-5.86-.83l-14.22,6.27a6,6,0,0,0-3.76,4.6l-3.35,18.4H93.89l-3.34-18.4a6,6,0,0,0-3.77-4.6L73,143.89a5.87,5.87,0,0,0-5.85.83L52.07,155.18l-7.94-8,10.45-15a6,6,0,0,0,.84-5.86L49.56,112.1a6,6,0,0,0-4.6-3.76L26.56,105V93.7L45,90.36a6,6,0,0,0,4.6-3.76l5.86-13.8a5.86,5.86,0,0,0-.84-5.86l-10.45-15,7.94-8L67.13,54.39a6,6,0,0,0,5.85.84L87.2,49.38A6,6,0,0,0,91,44.78l3.35-18.4H105.6L109,44.78a6,6,0,0,0,3.76,4.6l13.8,5.85a5.87,5.87,0,0,0,5.86-.84l15-10.45,7.94,8-10.45,15a6,6,0,0,0-.84,5.86L149.93,87a6,6,0,0,0,4.6,3.77l18.4,3.34Zm0,0"/><path d="M99.75,76.56a23,23,0,1,0,23,23,23.2,23.2,0,0,0-23-23Zm0,33.45A10.46,10.46,0,1,1,110.2,99.56,10.35,10.35,0,0,1,99.75,110Zm0,0"/></svg>