<svg id="Layer_1" data-name="Layer 1" xmlns="http://www.w3.org/2000/svg" viewBox="0 0 32 35"><path d="M12.1,14.8a4.26,4.26,0,1,0,4.26-4.26A4.26,4.26,0,0,0,12.1,14.8Zm0,0"/><path d="M18,20a.37.37,0,0,0-.37.37V21a.37.37,0,0,0,.37.37h6a.37.37,0,0,0,.37-.37v-.6a.37.37,0,0,0-.37-.37Zm2.92,3.65a.36.36,0,0,0,.36.36h2.76a.37.37,0,0,0,.37-.36v-.61a.37.37,0,0,0-.37-.36h-2.8a.36.36,0,0,0-.36.36v.61Zm-1.83-.61a.36.36,0,0,0-.36-.36H18a.37.37,0,0,0-.37.36v.61A.37.37,0,0,0,18,24h.73a.36.36,0,0,0,.36-.36ZM17.65,26.4a.37.37,0,0,0,.37.36h6a.37.37,0,0,0,.37-.36v-.61a.38.38,0,0,0-.37-.37H18a.38.38,0,0,0-.37.37ZM15,23.76a6.57,6.57,0,0,1,2.31-5,6.71,6.71,0,0,0-.93-.08,8.13,8.13,0,0,0-8.11,8.11h7.46a6.61,6.61,0,0,1-.73-3Zm0,0"/></svg>