<?xml version="1.0" encoding="iso-8859-1"?>
<!-- Generator: Adobe Illustrator 20.0.0, SVG Export Plug-In . SVG Version: 6.00 Build 0)  -->
<svg version="1.1" xmlns="http://www.w3.org/2000/svg" xmlns:xlink="http://www.w3.org/1999/xlink" x="0px" y="0px"
	 viewBox="0 0 32 32" style="enable-background:new 0 0 32 32;" xml:space="preserve" width="32px" height="32px" class="br-symbol-library">
<g id="China">
	<g>
		<defs>
			<circle id="SVGID_1_" cx="16" cy="16" r="15.5"/>
		</defs>
		<clipPath id="SVGID_2_">
			<use xlink:href="#SVGID_1_"  style="overflow:visible;"/>
		</clipPath>
		<g style="clip-path:url(#SVGID_2_);">
			<defs>
				<rect id="SVGID_3_" x="0.5" y="0.492" width="53.25" height="31"/>
			</defs>
			<clipPath id="SVGID_4_">
				<use xlink:href="#SVGID_3_"  style="overflow:visible;"/>
			</clipPath>
			<rect x="0.5" y="0.492" style="clip-path:url(#SVGID_4_);fill:#CB1D23;" width="53.25" height="31"/>
			<polygon style="clip-path:url(#SVGID_4_);fill:#F7DE29;" points="5.546,11.732 6.516,8.627 3.927,6.675 7.161,6.643 8.171,3.58 
				9.181,6.643 12.415,6.675 9.822,8.627 10.797,11.732 8.171,9.808 			"/>
			<polygon style="clip-path:url(#SVGID_4_);fill:#F7DE29;" points="14.606,13.413 15.715,13.817 16.454,12.942 16.389,14.084 
				17.464,14.561 16.389,14.794 16.254,16.008 15.649,14.995 14.504,15.262 15.24,14.39 			"/>
			<polygon style="clip-path:url(#SVGID_4_);fill:#F7DE29;" points="20.602,7.419 19.389,7.182 18.813,8.228 18.645,7.077 
				17.504,6.876 18.58,6.37 18.412,5.195 19.185,6.034 20.264,5.564 19.725,6.574 			"/>
			<polygon style="clip-path:url(#SVGID_4_);fill:#F7DE29;" points="18.073,12.742 18.444,11.648 17.464,10.992 18.678,10.992 
				19.014,9.91 19.389,10.992 20.632,10.992 19.622,11.648 20.024,12.767 19.014,12.015 			"/>
			<polygon style="clip-path:url(#SVGID_4_);fill:#F7DE29;" points="14.705,2.432 15.747,2.939 16.589,2.094 16.389,3.242 
				17.464,3.748 16.323,3.981 16.155,5.162 15.579,4.117 14.438,4.317 15.24,3.475 			"/>
		</g>
	</g>
	<g>
		<path d="M16,1.5c7.995,0,14.5,6.505,14.5,14.5S23.995,30.5,16,30.5S1.5,23.995,1.5,16S8.005,1.5,16,1.5 M16,0
			C7.163,0,0,7.163,0,16c0,8.837,7.163,16,16,16s16-7.163,16-16C32,7.163,24.837,0,16,0L16,0z"/>
	</g>
</g>
<g id="Ebene_1">
</g>
</svg>
