<?xml version="1.0" encoding="iso-8859-1"?>
<!-- Generator: Adobe Illustrator 20.0.0, SVG Export Plug-In . SVG Version: 6.00 Build 0)  -->
<svg version="1.1" xmlns="http://www.w3.org/2000/svg" xmlns:xlink="http://www.w3.org/1999/xlink" x="0px" y="0px"
	 viewBox="0 0 32 32" style="enable-background:new 0 0 32 32;" xml:space="preserve" width="32px" height="32px" class="br-symbol-library">
<g id="France">
	<g>
		<defs>
			<circle id="SVGID_1_" cx="16" cy="16" r="15.5"/>
		</defs>
		<clipPath id="SVGID_2_">
			<use xlink:href="#SVGID_1_"  style="overflow:visible;"/>
		</clipPath>
		<g style="clip-path:url(#SVGID_2_);">
			<defs>
				<rect id="SVGID_3_" x="0.5" y="0.492" width="31" height="31"/>
			</defs>
			<clipPath id="SVGID_4_">
				<use xlink:href="#SVGID_3_"  style="overflow:visible;"/>
			</clipPath>
			<rect x="0.5" y="0.492" style="clip-path:url(#SVGID_4_);fill:#323E95;" width="10.25" height="31"/>
			<rect x="10.75" y="0.492" style="clip-path:url(#SVGID_4_);fill:#F4F4F4;" width="10.25" height="31"/>
			<rect x="21" y="0.492" style="clip-path:url(#SVGID_4_);fill:#D80031;" width="10.5" height="31"/>
		</g>
	</g>
	<g>
		<path d="M16,1.5c7.995,0,14.5,6.505,14.5,14.5S23.995,30.5,16,30.5S1.5,23.995,1.5,16S8.005,1.5,16,1.5 M16,0
			C7.163,0,0,7.163,0,16c0,8.837,7.163,16,16,16s16-7.163,16-16C32,7.163,24.837,0,16,0L16,0z"/>
	</g>
</g>
<g id="Ebene_1">
</g>
</svg>
