<?xml version="1.0" encoding="utf-8"?>
<!-- Generator: Adobe Illustrator 20.0.0, SVG Export Plug-In . SVG Version: 6.00 Build 0)  -->
<svg version="1.1" id="Ebene_1" xmlns="http://www.w3.org/2000/svg" xmlns:xlink="http://www.w3.org/1999/xlink" x="0px" y="0px"
	 viewBox="0 0 32 32" style="enable-background:new 0 0 32 32;" xml:space="preserve" width="32px" height="32px" class="br-symbol-library">
<g id="FastRewindStop">
	<path d="M31.2,4.6L17.8,15v0V4.9c0-0.4-0.4-0.5-0.7-0.2L3.8,15V5.1c0-0.4-0.2-0.6-0.5-0.6H0.7C0.3,4.5,0,4.8,0,5.1v21.7
		c0,0.4,0.3,0.7,0.7,0.7h2.5c0.4,0,0.5-0.3,0.5-0.7v-9.9l13.3,10.4c0.3,0.2,0.7,0.1,0.7-0.2V16.9v0l13.4,10.4
		c0.3,0.2,0.8,0.1,0.8-0.2V4.9C32,4.5,31.5,4.4,31.2,4.6z"/>
</g>
<g id="Ebene_1_1_">
</g>
</svg>
