<?xml version="1.0" encoding="iso-8859-1"?>
<!-- Generator: Adobe Illustrator 20.0.0, SVG Export Plug-In . SVG Version: 6.00 Build 0)  -->
<svg version="1.1" xmlns="http://www.w3.org/2000/svg" xmlns:xlink="http://www.w3.org/1999/xlink" x="0px" y="0px"
	 viewBox="0 0 32 32" style="enable-background:new 0 0 32 32;" xml:space="preserve" width="32px" height="32px" class="br-symbol-library">
<g id="Add">
	<path id="Hinzuf&#xFC;gen_3_" d="M16,0C7.163,0,0,7.163,0,16c0,8.84,7.163,16,16,16c8.835,0,16-7.16,16-16C32,7.163,24.835,0,16,0z
		 M25.29,17.985c0,0.363-0.332,0.565-0.697,0.565H18.79v6.128c0,0.365-0.442,0.622-0.807,0.622h-3.967
		c-0.363,0-0.725-0.257-0.725-0.622V18.55H7.405c-0.362,0-0.615-0.202-0.615-0.565v-3.967c0-0.363,0.253-0.718,0.615-0.718h5.885
		V7.408c0-0.365,0.363-0.608,0.725-0.608h3.967c0.365,0,0.807,0.243,0.807,0.608V13.3h5.803c0.365,0,0.697,0.355,0.697,0.718V17.985
		z"/>
</g>
<g id="Ebene_1">
</g>
</svg>
