<?xml version="1.0" encoding="iso-8859-1"?>
<!-- Generator: Adobe Illustrator 20.0.0, SVG Export Plug-In . SVG Version: 6.00 Build 0)  -->
<svg version="1.1" xmlns="http://www.w3.org/2000/svg" xmlns:xlink="http://www.w3.org/1999/xlink" x="0px" y="0px"
	 viewBox="0 0 32 32" style="enable-background:new 0 0 32 32;" xml:space="preserve" width="32px" height="32px" class="br-symbol-library">
<g id="Character">
	<path id="Buchstaben_3_" d="M15.237,9.543l2.519,7.207h-5.308L15.237,9.543z M32,29.342C32,30.81,30.81,32,29.342,32H2.658
		C1.19,32,0,30.81,0,29.342V2.658C0,1.19,1.19,0,2.658,0h26.685C30.81,0,32,1.19,32,2.658V29.342z M27.508,25.99l-0.377-0.02
		c-0.022,0-0.525-0.035-1.165-0.718c-0.72-0.763-1.09-1.705-1.09-1.71L17.233,3.5H14.86L6.948,23.675
		c-0.005,0.01-0.445,0.885-0.935,1.38c-0.482,0.485-1.515,0.938-1.525,0.94L4.25,26.103v2.147h8V26h-0.452
		c-0.945,0-1.682-0.262-1.972-0.685c-0.193-0.283-0.2-0.74-0.015-1.222C10.295,22.82,11.008,21,11.37,20h7.39
		c0.393,1.25,1.173,3.245,1.387,3.838c0.19,0.525,0.122,1.19-0.173,1.61C19.743,25.783,19.398,26,18.953,26H18.75v2.25h8.75v-1.885
		L27.508,25.99z"/>
</g>
<g id="Ebene_1">
</g>
</svg>
