<?xml version="1.0" encoding="iso-8859-1"?>
<!-- Generator: Adobe Illustrator 20.0.0, SVG Export Plug-In . SVG Version: 6.00 Build 0)  -->
<svg version="1.1" xmlns="http://www.w3.org/2000/svg" xmlns:xlink="http://www.w3.org/1999/xlink" x="0px" y="0px"
	 viewBox="0 0 32 32" style="enable-background:new 0 0 32 32;" xml:space="preserve" width="32px" height="32px" class="br-symbol-library">
<g id="Cut">
	<path style="fill:#050507;" d="M16.438,16.9l-0.005-2.305c0.057-0.865-0.323-1.715-1.105-2.088l-1.21-0.56
		c-0.867-0.413-1.91-0.042-2.322,0.825l-0.598,1.258c-0.415,0.87-0.045,1.91,0.822,2.322l5.145,2.44c0,0,0.01,0.82,0.01,1.15
		c0,0.33,0.133,0.608,0.433,0.708c1.79,0.603,8.415,2.58,8.452,2.588c0.682,0.177,1.425,0.18,1.925-0.868
		C26.5,21.665,16.438,16.9,16.438,16.9z M15.133,15.865c-0.033,0.357-0.273,0.452-0.577,0.308c-0.688-0.327-2.16-1.01-2.16-1.01
		c-0.195-0.095-0.283-0.337-0.19-0.535l0.69-1.448c0.092-0.195,0.338-0.283,0.535-0.19l1.378,0.64c0.3,0.143,0.44,0.448,0.42,0.783
		C15.228,14.413,15.18,15.315,15.133,15.865z M18.505,19.93c-0.375,0-0.68-0.305-0.68-0.68c0-0.378,0.305-0.683,0.68-0.683
		c0.378,0,0.683,0.305,0.683,0.683C19.188,19.625,18.883,19.93,18.505,19.93z M26.06,15.26c-0.028,0.008-3.803,1.135-6.425,1.945
		c0.917,0.435,1.973,0.935,3.04,1.44c2.37-1.122,4.66-2.207,5.31-2.515C27.485,15.08,26.743,15.085,26.06,15.26z M17.015,21.325
		c-0.405-0.253-0.655-0.685-0.702-1.212l-4.293,2.035c-0.867,0.413-1.238,1.452-0.822,2.32l0.598,1.26
		c0.412,0.868,1.455,1.235,2.322,0.823l1.21-0.558c0.782-0.372,1.162-1.225,1.105-2.087l0.005-2.305
		C16.438,21.6,16.653,21.498,17.015,21.325z M14.808,24.87l-1.378,0.637c-0.197,0.095-0.443,0.008-0.535-0.188l-0.69-1.447
		c-0.092-0.197-0.005-0.443,0.19-0.535c0,0,1.473-0.682,2.16-1.01c0.305-0.145,0.545-0.05,0.577,0.307
		c0.048,0.55,0.095,1.452,0.095,1.452C15.248,24.42,15.108,24.728,14.808,24.87z M16.433,14.595
		c0.057-0.865-0.323-1.715-1.105-2.088l-1.21-0.56c-0.867-0.413-1.91-0.042-2.322,0.825l-0.598,1.258
		c-0.415,0.87-0.045,1.91,0.822,2.322l5.145,2.44c0,0,0.01,0.82,0.01,1.15c0,0.33,0.133,0.608,0.433,0.708
		c1.79,0.603,8.415,2.58,8.452,2.588c0.682,0.177,1.425,0.18,1.925-0.868C26.5,21.665,16.438,16.9,16.438,16.9L16.433,14.595z
		 M15.133,15.865c-0.033,0.357-0.273,0.452-0.577,0.308c-0.688-0.327-2.16-1.01-2.16-1.01c-0.195-0.095-0.283-0.337-0.19-0.535
		l0.69-1.448c0.092-0.195,0.338-0.283,0.535-0.19l1.378,0.64c0.3,0.143,0.44,0.448,0.42,0.783
		C15.228,14.413,15.18,15.315,15.133,15.865z M18.505,18.568c0.378,0,0.683,0.305,0.683,0.683c0,0.375-0.305,0.68-0.683,0.68
		c-0.375,0-0.68-0.305-0.68-0.68C17.825,18.873,18.13,18.568,18.505,18.568z M27.985,16.13c-0.5-1.05-1.242-1.045-1.925-0.87
		c-0.028,0.008-3.803,1.135-6.425,1.945c0.917,0.435,1.973,0.935,3.04,1.44C25.045,17.523,27.335,16.438,27.985,16.13z
		 M16.313,20.113l-4.293,2.035c-0.867,0.413-1.238,1.452-0.822,2.32l0.598,1.26c0.412,0.868,1.455,1.235,2.322,0.823l1.21-0.558
		c0.782-0.372,1.162-1.225,1.105-2.087l0.005-2.305c0,0,0.215-0.102,0.577-0.275C16.61,21.073,16.36,20.64,16.313,20.113z
		 M14.808,24.87l-1.378,0.637c-0.197,0.095-0.443,0.008-0.535-0.188l-0.69-1.447c-0.092-0.197-0.005-0.443,0.19-0.535
		c0,0,1.473-0.682,2.16-1.01c0.305-0.145,0.545-0.05,0.577,0.307c0.048,0.55,0.095,1.452,0.095,1.452
		C15.248,24.42,15.108,24.728,14.808,24.87z M29.815,6.5H25.5V1.993C25.5,0.823,24.665,0,23.495,0H2.263C1.093,0,0,0.823,0,1.993
		v21.232c0,1.17,1.093,2.025,2.263,2.025H6.5v4.688C6.5,31.075,7.508,32,8.725,32h21.09C31.033,32,32,31.075,32,29.938V8.563
		C32,7.423,31.033,6.5,29.815,6.5z M6.5,8.563V23.5H2.263c-0.202,0-0.513-0.072-0.513-0.275V1.993c0-0.202,0.31-0.243,0.513-0.243
		h21.232c0.202,0,0.255,0.04,0.255,0.243V6.5H8.725C7.508,6.5,6.5,7.423,6.5,8.563z M30.25,29.795c0,0.25-0.185,0.455-0.435,0.455
		H8.725c-0.253,0-0.475-0.205-0.475-0.455V8.705c0-0.253,0.223-0.455,0.475-0.455h21.09c0.25,0,0.435,0.203,0.435,0.455V29.795z
		 M16.433,14.595c0.057-0.865-0.323-1.715-1.105-2.088l-1.21-0.56c-0.867-0.413-1.91-0.042-2.322,0.825l-0.598,1.258
		c-0.415,0.87-0.045,1.91,0.822,2.322l5.145,2.44c0,0,0.01,0.82,0.01,1.15c0,0.33,0.133,0.608,0.433,0.708
		c1.79,0.603,8.415,2.58,8.452,2.588c0.682,0.177,1.425,0.18,1.925-0.868C26.5,21.665,16.438,16.9,16.438,16.9L16.433,14.595z
		 M15.133,15.865c-0.033,0.357-0.273,0.452-0.577,0.308c-0.688-0.327-2.16-1.01-2.16-1.01c-0.195-0.095-0.283-0.337-0.19-0.535
		l0.69-1.448c0.092-0.195,0.338-0.283,0.535-0.19l1.378,0.64c0.3,0.143,0.44,0.448,0.42,0.783
		C15.228,14.413,15.18,15.315,15.133,15.865z M18.505,18.568c0.378,0,0.683,0.305,0.683,0.683c0,0.375-0.305,0.68-0.683,0.68
		c-0.375,0-0.68-0.305-0.68-0.68C17.825,18.873,18.13,18.568,18.505,18.568z M26.06,15.26c-0.028,0.008-3.803,1.135-6.425,1.945
		c0.917,0.435,1.973,0.935,3.04,1.44c2.37-1.122,4.66-2.207,5.31-2.515C27.485,15.08,26.743,15.085,26.06,15.26z M16.313,20.113
		l-4.293,2.035c-0.867,0.413-1.238,1.452-0.822,2.32l0.598,1.26c0.412,0.868,1.455,1.235,2.322,0.823l1.21-0.558
		c0.782-0.372,1.162-1.225,1.105-2.087l0.005-2.305c0,0,0.215-0.102,0.577-0.275C16.61,21.073,16.36,20.64,16.313,20.113z
		 M14.808,24.87l-1.378,0.637c-0.197,0.095-0.443,0.008-0.535-0.188l-0.69-1.447c-0.092-0.197-0.005-0.443,0.19-0.535
		c0,0,1.473-0.682,2.16-1.01c0.305-0.145,0.545-0.05,0.577,0.307c0.048,0.55,0.095,1.452,0.095,1.452
		C15.248,24.42,15.108,24.728,14.808,24.87z"/>
</g>
<g id="Ebene_1">
</g>
</svg>
