<?xml version="1.0" encoding="iso-8859-1"?>
<!-- Generator: Adobe Illustrator 20.0.0, SVG Export Plug-In . SVG Version: 6.00 Build 0)  -->
<svg version="1.1" id="Ebene_1" xmlns="http://www.w3.org/2000/svg" xmlns:xlink="http://www.w3.org/1999/xlink" x="0px" y="0px"
	 viewBox="0 0 32 32" style="enable-background:new 0 0 32 32;" xml:space="preserve" width="32px" height="32px" class="br-symbol-library">
<g id="Delete">
	<path id="L&#xF6;schen_2_3_" d="M27.68,4.75h-6.805V2.335C20.875,0.983,19.803,0,18.45,0h-4.925c-1.352,0-2.4,0.983-2.4,2.335V4.75
		h-6.83c-0.337,0-0.67,0.325-0.67,0.663v1.232c0,0.338,0.333,0.605,0.67,0.605H27.68c0.34,0,0.695-0.267,0.695-0.605V5.413
		C28.375,5.075,28.02,4.75,27.68,4.75z M18.375,4.75h-4.75v-2.5h4.75V4.75z M26.195,8.5H5.525c-0.477,0-0.65,0.208-0.65,0.605
		v22.367c0,0,0.173,0.527,0.65,0.527h20.67c0.48,0,0.93-0.342,0.93-0.74V8.998C27.125,8.6,26.675,8.5,26.195,8.5z M11.125,27.568
		c0,0.053-0.007,0.105-0.025,0.155c-0.048,0.145-0.155,0.27-0.277,0.355c-0.018,0.012-0.042,0.035-0.065,0.055
		c-0.003,0.003-0.005,0.003-0.007,0.005c-0.015,0.012-0.032,0.025-0.045,0.03c-0.055,0.023-0.125,0.057-0.19,0.075
		c-0.02,0.005-0.042,0.007-0.065,0.007H8.978c-0.035,0-0.07-0.092-0.102-0.115c-0.065-0.045-0.122-0.132-0.167-0.197
		c-0.023-0.033-0.033-0.08-0.048-0.115c0-0.003-0.003-0.007,0-0.01c-0.031-0.073-0.036-0.16-0.036-0.245v-14.77
		c0-0.085,0.005-0.163,0.035-0.235c-0.003-0.003,0-0.003,0-0.005c0.012-0.03,0.025-0.06,0.045-0.087c0-0.003,0-0.005,0.003-0.008
		c0.012-0.02,0.028-0.037,0.043-0.053c0.035-0.047,0.078-0.087,0.128-0.122c0.025-0.018,0.05-0.015,0.078-0.018
		c0.007,0,0.015-0.005,0.022-0.008c0.073-0.03,0.155-0.013,0.24-0.013h1.232c0.06,0,0.128-0.01,0.188-0.002
		c0.018,0.003,0.035,0.008,0.053,0.015c0.035,0.015,0.1,0.02,0.132,0.043c0.107,0.075,0.202,0.17,0.258,0.285
		c0.007,0.018,0.015,0.038,0.02,0.055c0.018,0.05,0.025,0.1,0.025,0.153v14.77H11.125z M17.125,27.568
		c0,0.338-0.182,0.682-0.522,0.682h-1.23c-0.34,0-0.498-0.345-0.498-0.682v-14.77c0-0.338,0.158-0.548,0.498-0.548h1.23
		c0.34,0,0.522,0.21,0.522,0.548C17.125,12.798,17.125,27.568,17.125,27.568z M23.375,27.568c0,0.062-0.01,0.13-0.03,0.188
		c-0.008,0.018-0.012,0.035-0.02,0.053c-0.005,0.012-0.012,0.025-0.017,0.038c-0.003,0.007-0.007,0.018-0.015,0.025
		c-0.007,0.012-0.015,0.027-0.025,0.04c-0.045,0.065-0.103,0.123-0.168,0.168c-0.033,0.022-0.067,0.075-0.102,0.09
		c-0.072,0.03-0.155,0.082-0.24,0.082h-1.233c-0.02,0-0.042-0.002-0.065-0.007c-0.015-0.005-0.033-0.01-0.048-0.015
		c-0.045-0.02-0.087-0.042-0.127-0.06c-0.01-0.005-0.023-0.012-0.038-0.017c-0.003-0.003-0.003-0.002-0.005-0.005
		c-0.027-0.015-0.057-0.035-0.077-0.05c-0.11-0.075-0.202-0.19-0.25-0.32c-0.005-0.018-0.013-0.035-0.018-0.053
		c-0.015-0.05-0.023-0.102-0.023-0.155V12.8c0-0.053,0.008-0.105,0.023-0.153c0.043-0.147,0.143-0.272,0.268-0.357
		c0.033-0.022,0.075-0.01,0.11-0.025c0.02-0.008,0.04-0.013,0.063-0.015c0.06-0.008,0.123,0.002,0.188,0.002h1.232
		c0.085,0,0.17-0.017,0.243,0.013c0.035,0.015,0.067,0.02,0.1,0.043c0.065,0.045,0.123,0.093,0.168,0.158
		c0.012,0.018,0.022,0.033,0.033,0.05c0.01,0.015,0.017,0.033,0.025,0.05s0.015,0.037,0.02,0.055c0.02,0.058,0.03,0.118,0.03,0.18
		v14.767H23.375z M10.823,12.288c-0.033-0.022-0.083-0.007-0.117-0.025c-0.023-0.01-0.043-0.012-0.068-0.015
		c0.018,0.003,0.035,0.007,0.053,0.015c0.035,0.015,0.1,0.02,0.132,0.042c0.107,0.075,0.202,0.17,0.258,0.285
		C11.028,12.468,10.93,12.363,10.823,12.288z M10.823,28.078c-0.018,0.012-0.042,0.035-0.065,0.055
		c0.025-0.012,0.048-0.027,0.065-0.037c0.122-0.085,0.232-0.22,0.277-0.373C11.053,27.868,10.945,27.993,10.823,28.078z
		 M23.37,12.618c-0.005-0.018,0.005-0.038,0.005-0.055c0-0.003,0-0.003,0-0.005c0-0.015-0.04-0.03-0.05-0.045
		c-0.01-0.02-0.032-0.04-0.045-0.057c-0.045-0.065-0.11-0.123-0.175-0.168c-0.033-0.02-0.067-0.007-0.105-0.025
		c0.035,0.015,0.068,0.02,0.1,0.042c0.065,0.045,0.123,0.092,0.168,0.158c0.012,0.018,0.022,0.033,0.033,0.05
		c0.01,0.015,0.017,0.033,0.025,0.05s0.015,0.037,0.02,0.055c0.02,0.058,0.03,0.118,0.03,0.18
		C23.375,12.735,23.39,12.675,23.37,12.618z M23.308,27.845c0.008-0.01,0.012-0.023,0.018-0.033c0.008-0.018,0.015-0.038,0.02-0.058
		c-0.008,0.018-0.012,0.035-0.02,0.053C23.32,27.82,23.313,27.833,23.308,27.845z M23.1,28.078c-0.033,0.022-0.067,0.075-0.102,0.09
		c0.038-0.018,0.07-0.053,0.102-0.072c0.065-0.045,0.123-0.113,0.168-0.178c0.01-0.015,0.02-0.03,0.025-0.048
		c-0.007,0.012-0.015,0.027-0.025,0.04C23.223,27.975,23.165,28.033,23.1,28.078z M21.248,28.15c0.01,0.008,0.018,0.012,0.027,0.018
		c0.04,0.018,0.088,0.04,0.137,0.06c-0.045-0.02-0.087-0.042-0.127-0.06C21.275,28.163,21.263,28.155,21.248,28.15z"/>
</g>
<g id="Ebene_1_1_">
</g>
</svg>
