<?xml version="1.0" encoding="iso-8859-1"?>
<!-- Generator: Adobe Illustrator 20.0.0, SVG Export Plug-In . SVG Version: 6.00 Build 0)  -->
<svg version="1.1" id="Ebene_1" xmlns="http://www.w3.org/2000/svg" xmlns:xlink="http://www.w3.org/1999/xlink" x="0px" y="0px"
	 viewBox="0 0 32 32" style="enable-background:new 0 0 32 32;" xml:space="preserve" width="32px" height="32px" class="br-symbol-library">
<g id="Edit">
	<path d="M24.039,17.569v7.838c0,2.479-2.081,4.635-4.56,4.635H4.455C1.976,30.042,0,27.886,0,25.407V10.382
		c0-2.479,1.976-4.38,4.455-4.38H19.48c0.313,0,0.618,0.04,0.913,0.101l-2.396,2.403H4.455c-1.112,0-1.951,0.764-1.951,1.876v15.025
		c0,1.112,0.839,2.131,1.951,2.131H19.48c1.112,0,2.056-1.018,2.056-2.131v-5.348L24.039,17.569z M31.799,5.071l-2.911-2.913
		c-0.268-0.266-0.704-0.266-0.973,0L25.974,4.1l3.885,3.885L31.8,6.044C32.067,5.775,32.067,5.338,31.799,5.071z M15.169,22.54
		l-3.75-3.805l-2.192,5.603c-0.135,0.353,0.041,0.528,0.395,0.393L15.169,22.54z M28.686,9.157l-3.885-3.885L12.58,17.493
		l3.885,3.885L28.686,9.157z"/>
</g>
<g id="Ebene_1_1_">
</g>
</svg>
