<?xml version="1.0" encoding="iso-8859-1"?>
<!-- Generator: Adobe Illustrator 20.0.0, SVG Export Plug-In . SVG Version: 6.00 Build 0)  -->
<svg version="1.1" id="Ebene_1" xmlns="http://www.w3.org/2000/svg" xmlns:xlink="http://www.w3.org/1999/xlink" x="0px" y="0px"
	 viewBox="0 0 32 32" style="enable-background:new 0 0 32 32;" xml:space="preserve" width="32px" height="32px" class="br-symbol-library">
<g id="Favorite">
	<path d="M16.615,1.929l3.161,9.666c0.087,0.266,0.335,0.385,0.615,0.385h10.22c0.627,0,0.887,0.864,0.379,1.231l-8.266,6.012
		c-0.227,0.164-0.322,0.472-0.236,0.739l3.158,9.717c0.194,0.596-0.488,1.095-0.995,0.726l-8.273-6.014
		c-0.226-0.165-0.533-0.164-0.76,0.001l-8.273,6.008c-0.504,0.368-1.186-0.127-0.992-0.723l3.158-9.698
		c0.087-0.267-0.008-0.559-0.236-0.724L1.009,13.21c-0.508-0.367-0.248-1.231,0.379-1.231H11.61c0.28,0,0.528-0.119,0.615-0.385
		l3.161-9.696C15.579,1.303,16.421,1.334,16.615,1.929z"/>
</g>
<g id="Ebene_1_1_">
</g>
</svg>
