<?xml version="1.0" encoding="iso-8859-1"?>
<!-- Generator: Adobe Illustrator 20.0.0, SVG Export Plug-In . SVG Version: 6.00 Build 0)  -->
<svg version="1.1" xmlns="http://www.w3.org/2000/svg" xmlns:xlink="http://www.w3.org/1999/xlink" x="0px" y="0px"
	 viewBox="0 0 32 32" style="enable-background:new 0 0 32 32;" xml:space="preserve" width="32px" height="32px" class="br-symbol-library">
<g id="Help">
	<path id="Hilfe_3_" d="M16,0C7.165,0,0,7.163,0,16c0,8.838,7.165,16,16,16c8.835,0,16-7.162,16-16C32,7.163,24.835,0,16,0z
		 M18.54,25.872c0,0.36-0.292,0.653-0.652,0.653h-3.945c-0.36,0-0.652-0.292-0.652-0.653v-3.945c0-0.36,0.292-0.653,0.652-0.653
		h3.945c0.36,0,0.652,0.292,0.652,0.653V25.872z M19.723,15.78c-1.262,0.825-1.64,1.54-1.682,3.17
		c-0.005,0.18-0.15,0.325-0.327,0.325h-3.345c-0.09,0-0.328-0.247-0.328-0.335v-1.333c0-1.397,0.753-2.625,2.305-3.757
		c0.122-0.085,1.285-0.845,1.285-1.893c0-0.87-0.652-1.477-1.59-1.477c-1.335,0-2.08,0.69-2.152,1.967
		c-0.01,0.173-0.152,0.327-0.327,0.327h-3.518c-0.088,0-0.175-0.057-0.238-0.122c-0.06-0.062-0.092-0.162-0.088-0.25
		c0.183-3.548,2.488-5.587,6.325-5.587c2.912,0,6.048,1.578,6.048,5.045C22.09,14.182,21.558,14.62,19.723,15.78z"/>
</g>
<g id="Ebene_1">
</g>
</svg>
