<?xml version="1.0" encoding="iso-8859-1"?>
<!-- Generator: Adobe Illustrator 20.0.0, SVG Export Plug-In . SVG Version: 6.00 Build 0)  -->
<svg version="1.1" xmlns="http://www.w3.org/2000/svg" xmlns:xlink="http://www.w3.org/1999/xlink" x="0px" y="0px"
	 viewBox="0 0 32 32" style="enable-background:new 0 0 32 32;" xml:space="preserve" width="32px" height="32px class="br-symbol-library">
<g id="Information">
	<path id="Information_3_" d="M16,0C7.165,0,0,7.163,0,16c0,8.838,7.165,16,16,16c8.835,0,16-7.162,16-16C32,7.163,24.835,0,16,0z
		 M18.79,10.122c0,0.36-0.292,0.652-0.652,0.652h-2.695c-0.36,0-0.652-0.292-0.652-0.652V7.427c0-0.36,0.292-0.652,0.652-0.652
		h2.695c0.36,0,0.652,0.292,0.652,0.652V10.122z M21.29,24.49c0,0.36-0.36,0.785-0.717,0.785h-7.838
		c-0.36,0-0.695-0.425-0.695-0.785v-2.613c0-0.36,0.335-0.603,0.695-0.603h2.055v-5.25h-2.055c-0.36,0-0.695-0.317-0.695-0.677
		v-2.613c0-0.36,0.335-0.71,0.695-0.71h5.225c0.36,0,0.58,0.35,0.58,0.71v8.54h2.033c0.357,0,0.717,0.243,0.717,0.603V24.49z"/>
</g>
<g id="Ebene_1">
</g>
</svg>
