<?xml version="1.0" encoding="iso-8859-1"?>
<!-- Generator: Adobe Illustrator 20.0.0, SVG Export Plug-In . SVG Version: 6.00 Build 0)  -->
<svg version="1.1" xmlns="http://www.w3.org/2000/svg" xmlns:xlink="http://www.w3.org/1999/xlink" x="0px" y="0px"
	 viewBox="0 0 32 32" style="enable-background:new 0 0 32 32;" xml:space="preserve" width="32px" height="32px" class="br-symbol-library">
<g id="Insert">
	<path d="M27.02,19.443L21,23.903l-1.143,0.848L19.8,24.793c-0.12,0.087-0.222,0.065-0.257-0.042
		c-0.01-0.028-0.015-0.058-0.015-0.095l-0.005-3.383c-0.54-0.005-1.25-0.01-2.022,0.038c-2.148,0.14-4.798,0.715-5.76,3.007
		c0.033-2.347,0.878-3.952,2.01-5.05c0.887-0.865,1.952-1.415,2.942-1.768c0.275-0.098,0.548-0.183,0.808-0.25
		c0.87-0.235,1.61-0.323,2.017-0.353l-0.002-3.052c0-0.038,0.005-0.07,0.015-0.095c0.035-0.11,0.137-0.13,0.257-0.043l0.057,0.043
		L21,14.603l6.02,4.44C27.168,19.153,27.17,19.333,27.02,19.443z M29.795,6.5H25.5V1.993C25.5,0.823,24.645,0,23.475,0H2.243
		C1.073,0,0,0.823,0,1.993v21.232c0,1.17,1.073,2.025,2.243,2.025H6.5v4.688C6.5,31.075,7.488,32,8.705,32h21.09
		C31.013,32,32,31.075,32,29.938V8.563C32,7.423,31.013,6.5,29.795,6.5z M6.5,8.563V23.5H2.243c-0.202,0-0.493-0.072-0.493-0.275
		V1.993c0-0.202,0.29-0.243,0.493-0.243h21.232c0.202,0,0.275,0.04,0.275,0.243V6.5H8.705C7.488,6.5,6.5,7.423,6.5,8.563z
		 M30.25,29.795c0,0.25-0.205,0.455-0.455,0.455H8.705c-0.252,0-0.455-0.205-0.455-0.455V8.705c0-0.253,0.203-0.455,0.455-0.455
		h21.09c0.25,0,0.455,0.203,0.455,0.455V29.795z"/>
</g>
<g id="Ebene_1">
</g>
</svg>
