<?xml version="1.0" encoding="iso-8859-1"?>
<!-- Generator: Adobe Illustrator 20.0.0, SVG Export Plug-In . SVG Version: 6.00 Build 0)  -->
<svg version="1.1" id="Ebene_1" xmlns="http://www.w3.org/2000/svg" xmlns:xlink="http://www.w3.org/1999/xlink" x="0px" y="0px"
	 viewBox="0 0 32 32" style="enable-background:new 0 0 32 32;" xml:space="preserve" width="32px" height="32px" class="br-symbol-library">
<g id="Maximize">
	<path id="Maximieren_3_" d="M14.775,20.377l-3.25-3.25c-0.177-0.18-0.487-0.183-0.668,0l-5.543,5.54l-3.385-3.383
		c-0.177-0.178-0.357-0.115-0.39,0.138L0.004,31.499c-0.035,0.253,0.145,0.433,0.398,0.4l12.075-1.54
		c0.253-0.03,0.318-0.21,0.138-0.388l-3.383-3.385l5.543-5.543C14.955,20.862,14.955,20.556,14.775,20.377z M31.598,0.102
		l-12.075,1.54c-0.253,0.033-0.318,0.21-0.138,0.39l3.383,3.385l-5.543,5.54c-0.18,0.183-0.18,0.488,0,0.668l3.25,3.25
		c0.177,0.18,0.487,0.183,0.668,0.003l5.543-5.543l3.383,3.38c0.18,0.18,0.36,0.118,0.393-0.135l1.535-12.075
		C32.031,0.252,31.851,0.072,31.598,0.102z"/>
</g>
<g id="Ebene_1_1_">
</g>
</svg>
