<?xml version="1.0" encoding="iso-8859-1"?>
<!-- Generator: Adobe Illustrator 20.0.0, SVG Export Plug-In . SVG Version: 6.00 Build 0)  -->
<svg version="1.1" id="Ebene_1" xmlns="http://www.w3.org/2000/svg" xmlns:xlink="http://www.w3.org/1999/xlink" x="0px" y="0px"
	 viewBox="0 0 32 32" style="enable-background:new 0 0 32 32;" xml:space="preserve" width="32px" height="32px" class="br-symbol-library">
<g id="Minimize">
	<path id="Minimieren_3_" d="M14.506,16.993l-12.075,1.54c-0.253,0.033-0.315,0.21-0.138,0.39l3.385,3.383l-5.542,5.543
		c-0.182,0.18-0.18,0.487,0,0.665l3.248,3.25c0.18,0.18,0.487,0.182,0.667,0l5.545-5.54l3.38,3.383
		c0.18,0.177,0.358,0.115,0.393-0.138l1.538-12.073C14.936,17.144,14.759,16.964,14.506,16.993z M31.864,3.486l-3.248-3.253
		c-0.18-0.178-0.49-0.18-0.667,0l-5.545,5.543l-3.383-3.383c-0.177-0.18-0.355-0.115-0.39,0.137l-1.538,12.073
		c-0.033,0.253,0.147,0.433,0.4,0.403l12.075-1.54c0.253-0.033,0.315-0.21,0.138-0.39l-3.385-3.383l5.543-5.543
		C32.047,3.971,32.044,3.663,31.864,3.486z"/>
</g>
<g id="Ebene_1_1_">
</g>
</svg>
