<?xml version="1.0" encoding="iso-8859-1"?>
<!-- Generator: Adobe Illustrator 20.0.0, SVG Export Plug-In . SVG Version: 6.00 Build 0)  -->
<svg version="1.1" id="Ebene_1" xmlns="http://www.w3.org/2000/svg" xmlns:xlink="http://www.w3.org/1999/xlink" x="0px" y="0px"
	 viewBox="0 0 32 32" style="enable-background:new 0 0 32 32;" xml:space="preserve" width="32px" height="32px" class="br-symbol-library">
<g id="New">
	<path id="Neu_3_" d="M19.772,12.462h-6.165c-0.328,0-0.591-0.348-0.591-0.673V2.95H0.554C0.226,2.95,0,3.156,0,3.481v27.294
		c0,0.325,0.226,0.711,0.554,0.711h21.359c0.328,0,0.615-0.385,0.615-0.711V14.337C21.527,13.867,20.543,13.213,19.772,12.462z
		 M17.422,6.455c0-0.113,0.027-0.233,0.032-0.345l-3.187-3.221v7.715c0,0.325,0.198,0.608,0.526,0.608h4.035
		C17.93,9.959,17.422,8.207,17.422,6.455z M26.065,0.515c-3.277,0-5.932,2.656-5.932,5.932c0,3.279,2.656,5.935,5.932,5.935
		c3.277,0,5.935-2.656,5.935-5.935C32,3.171,29.342,0.515,26.065,0.515z M29.787,7.041c0,0.328-0.428,0.665-0.753,0.665h-1.75v1.71
		c0,0.325-0.297,0.543-0.625,0.543h-1.186c-0.325,0-0.441-0.217-0.441-0.543v-1.71H23.1c-0.325,0-0.571-0.338-0.571-0.665V5.854
		c0-0.325,0.246-0.651,0.571-0.651h1.932V3.481c0-0.325,0.116-0.531,0.441-0.531h1.186c0.328,0,0.625,0.206,0.625,0.531v1.722h1.75
		c0.325,0,0.753,0.326,0.753,0.651V7.041z"/>
</g>
<g id="Ebene_1_1_">
</g>
</svg>
