<?xml version="1.0" encoding="iso-8859-1"?>
<!-- Generator: Adobe Illustrator 20.0.0, SVG Export Plug-In . SVG Version: 6.00 Build 0)  -->
<svg version="1.1" id="Ebene_1" xmlns="http://www.w3.org/2000/svg" xmlns:xlink="http://www.w3.org/1999/xlink" x="0px" y="0px"
	 viewBox="0 0 32 32" style="enable-background:new 0 0 32 32;" xml:space="preserve" width="32px" height="32px" class="br-symbol-library">
<g id="Open">
	<path id="&#xD6;ffnen_3_" d="M26.221,10.734l-9.647-9.793c-0.258-0.258-0.68-0.248-0.938,0.01l-9.647,9.778
		c-0.258,0.258-0.171,0.675,0.193,0.675h5.973v9.838c0,0.365,0.278,0.828,0.643,0.828h6.613c0.365,0,0.682-0.464,0.682-0.828v-9.838
		h5.934C26.392,11.404,26.479,10.991,26.221,10.734z M31.266,24.55H0.891C0.526,24.55,0,24.848,0,25.21v6.037h32V25.21
		C32,24.848,31.631,24.55,31.266,24.55z M29.271,28.768h-1.984v-1.984h1.984V28.768z"/>
</g>
<g id="Ebene_1_1_">
</g>
</svg>
