<?xml version="1.0" encoding="iso-8859-1"?>
<!-- Generator: Adobe Illustrator 20.0.0, SVG Export Plug-In . SVG Version: 6.00 Build 0)  -->
<svg version="1.1" id="Ebene_1" xmlns="http://www.w3.org/2000/svg" xmlns:xlink="http://www.w3.org/1999/xlink" x="0px" y="0px"
	 viewBox="0 0 32 32" style="enable-background:new 0 0 32 32;" xml:space="preserve" width="32px" height="32px" class="br-symbol-library">
<g id="Pin">
	<path d="M21.399,21.879h-7.683l-1.335,9.635l-1.333-9.635H3.364c0-1.75,1.305-3.427,3.305-3.67v-0.022L7.184,6.88H6.721
		c-0.37,0-0.553-0.252-0.553-0.622v-1.13c0-0.37,0.183-0.748,0.553-0.748h5.263c-0.35,0.75-0.605,1.62-0.745,2.485
		c0,0.005-0.003,0.01-0.003,0.015c-0.007,0.038-0.012,0.098-0.017,0.133c-0.08,0.51-0.12,1.06-0.12,1.6
		c0,1.262,0.193,2.455,0.572,3.528c0.375,1.077,0.938,2.048,1.67,2.873c1.148,1.3,2.7,2.227,4.49,2.682
		c0.1,0.025,0.206,0.05,0.306,0.073l0.031,0.42v0.022c0.75,0.11,1.574,0.475,2.144,1.042C20.988,19.93,21.399,20.879,21.399,21.879z
		 M11.984,4.38c-0.35,0.75-0.605,1.62-0.745,2.485c0,0.005-0.003,0.015-0.003,0.015h0.003c0.14-0.75,0.395-1.695,0.745-2.445
		c0.003-0.012,0.01-0.055,0.018-0.055C12.002,4.379,11.984,4.379,11.984,4.38z M28.636,8.628c0,4.497-3.645,8.145-8.142,8.145
		c-0.818,0-1.608-0.098-2.353-0.288c-1.525-0.387-2.86-1.163-3.862-2.298c-0.61-0.688-1.097-1.507-1.427-2.452
		c-0.325-0.92-0.503-1.958-0.503-3.107c0-0.48,0.035-0.945,0.105-1.393c0.622-4.083,3.985-6.75,8.04-6.75
		C24.991,0.486,28.636,4.131,28.636,8.628z M26.161,5.688l-1.607-1.587c-0.047-0.048-0.112-0.073-0.175-0.073
		s-0.125,0.026-0.175,0.073l-5.165,5.165c-0.048,0.048-0.11,0.072-0.173,0.072c-0.065,0-0.127-0.025-0.177-0.072l-1.92-1.92
		c-0.047-0.05-0.112-0.072-0.175-0.072s-0.125,0.022-0.175,0.072l-1.595,1.595c-0.097,0.098-0.097,0.253,0,0.35l1.92,1.925
		c0.097,0.092,0.252,0.247,0.35,0.345l1.595,1.595c0.05,0.05,0.113,0.073,0.175,0.073s0.127-0.023,0.175-0.073l7.122-7.122
		C26.259,5.938,26.259,5.781,26.161,5.688z"/>
</g>
<g id="Ebene_1_1_">
</g>
</svg>
