<?xml version="1.0" encoding="iso-8859-1"?>
<!-- Generator: Adobe Illustrator 20.0.0, SVG Export Plug-In . SVG Version: 6.00 Build 0)  -->
<svg version="1.1" id="Ebene_1" xmlns="http://www.w3.org/2000/svg" xmlns:xlink="http://www.w3.org/1999/xlink" x="0px" y="0px"
	 viewBox="0 0 32 32" style="enable-background:new 0 0 32 32;" xml:space="preserve" width="32px" height="32px"class="br-symbol-library">
<g id="Pin2">
	<path d="M28.71,12.224l-8.935-8.935c-0.26-0.26-0.682-0.26-0.943,0L17.85,4.271c-0.26,0.26-0.26,0.682,0,0.943l0.411,0.411
		l-9.255,8.363c-1.62-1.241-3.947-1.124-5.43,0.358l2.389,2.389l3.609,3.609l-6.48,8.562l8.562-6.48l3.608,3.608l2.389,2.389
		c1.483-1.483,1.6-3.81,0.359-5.431l8.363-9.255l0.411,0.411c0.26,0.26,0.682,0.26,0.943,0l0.982-0.982
		C28.971,12.907,28.971,12.485,28.71,12.224z"/>
</g>
<g id="Ebene_1_1_">
</g>
</svg>
