<?xml version="1.0" encoding="iso-8859-1"?>
<!-- Generator: Adobe Illustrator 20.0.0, SVG Export Plug-In . SVG Version: 6.00 Build 0)  -->
<svg version="1.1" xmlns="http://www.w3.org/2000/svg" xmlns:xlink="http://www.w3.org/1999/xlink" x="0px" y="0px"
	 viewBox="0 0 32 32" style="enable-background:new 0 0 32 32;" xml:space="preserve" width="32px" height="32px" class="br-symbol-library">
<g id="ZoomOut">
	<path d="M31.799,27.929l-8.005-8.007c1.302-2.017,2.067-4.415,2.067-6.99c0-7.13-5.8-12.932-12.93-12.932C5.8,0,0,5.802,0,12.932
		c0,7.13,5.8,12.932,12.932,12.932c2.575,0,4.97-0.767,6.99-2.07l8.005,8.007c0.265,0.265,0.702,0.265,0.967,0l2.905-2.905
		C32.067,28.629,32.067,28.194,31.799,27.929z M12.932,21.757c-4.867,0-8.825-3.957-8.825-8.825c0-4.865,3.957-8.822,8.825-8.822
		c4.865,0,8.822,3.957,8.822,8.822C21.755,17.799,17.797,21.757,12.932,21.757z M18.289,12.204v1.44
		c0,0.362-0.402,0.655-0.767,0.655H8.34c-0.365,0-0.55-0.292-0.55-0.655v-1.44c0-0.362,0.185-0.655,0.55-0.655h9.182
		C17.887,11.549,18.289,11.842,18.289,12.204z"/>
</g>
<g id="Ebene_1">
</g>
</svg>
