<?xml version="1.0" encoding="iso-8859-1"?>
<!-- Generator: Adobe Illustrator 20.0.0, SVG Export Plug-In . SVG Version: 6.00 Build 0)  -->
<svg version="1.1" xmlns="http://www.w3.org/2000/svg" xmlns:xlink="http://www.w3.org/1999/xlink" x="0px" y="0px"
	 viewBox="0 0 32 32" style="enable-background:new 0 0 32 32;" xml:space="preserve" width="32px" height="32px" class="br-symbol-library">
<g id="Number">
	<path id="Ziffern_3_" d="M32,2.658C32,1.19,30.81,0,29.342,0H2.658C1.19,0,0,1.19,0,2.658v26.685C0,30.81,1.19,32,2.658,32h26.685
		C30.81,32,32,30.81,32,29.342V2.658z M23,28.25H9V25.5h1.483c2.982,0,3.517-0.672,3.517-2.89V8.25H9.5v-2.5h0.88
		c2.01,0,4.055-0.75,5.095-2.25h3.275v19.11c0,2.217,0.26,2.89,3.243,2.89H23V28.25z"/>
</g>
<g id="Ebene_1">
</g>
</svg>
