<?xml version="1.0" encoding="iso-8859-1"?>
<!-- Generator: Adobe Illustrator 20.0.0, SVG Export Plug-In . SVG Version: 6.00 Build 0)  -->
<svg version="1.1" xmlns="http://www.w3.org/2000/svg" xmlns:xlink="http://www.w3.org/1999/xlink" x="0px" y="0px"
	 viewBox="0 0 32 32" style="enable-background:new 0 0 32 32;" xml:space="preserve" width="32px" height="32px" class="br-symbol-library">
<g id="ZoomIn">
	<path d="M31.799,27.927l-8.005-8.005c1.302-2.02,2.067-4.415,2.067-6.99C25.862,5.8,20.062,0,12.932,0C5.8,0,0,5.8,0,12.932
		c0,7.13,5.8,12.932,12.932,12.932c2.575,0,4.97-0.767,6.99-2.072l8.005,8.007c0.265,0.267,0.703,0.267,0.968,0l2.905-2.902
		C32.067,28.629,32.067,28.194,31.799,27.927z M12.932,21.755c-4.867,0-8.825-3.957-8.825-8.822c0-4.867,3.957-8.825,8.825-8.825
		c4.865,0,8.822,3.957,8.822,8.825C21.755,17.797,17.797,21.755,12.932,21.755z M18.107,12.302v1.315c0,0.36-0.347,0.657-0.71,0.657
		h-3.29v3.28c0,0.362-0.287,0.72-0.65,0.72h-1.312c-0.36,0-0.538-0.357-0.538-0.72v-3.28h-3.4c-0.362,0-0.6-0.297-0.6-0.657v-1.315
		c0-0.36,0.238-0.528,0.6-0.528h3.4v-3.41c0-0.362,0.178-0.59,0.538-0.59h1.312c0.362,0,0.65,0.228,0.65,0.59v3.41h3.29
		C17.76,11.774,18.107,11.942,18.107,12.302z"/>
</g>
<g id="Ebene_1">
</g>
</svg>
