<?xml version="1.0" encoding="iso-8859-1"?>
<!-- Generator: Adobe Illustrator 20.0.0, SVG Export Plug-In . SVG Version: 6.00 Build 0)  -->
<svg version="1.1" xmlns="http://www.w3.org/2000/svg" xmlns:xlink="http://www.w3.org/1999/xlink" x="0px" y="0px"
	 viewBox="0 0 32 32" style="enable-background:new 0 0 32 31.999;" xml:space="preserve" width="32px" height="32px" class="br-symbol-library">
<g id="Close">
	<path id="Close_3_" d="M21.669,16.001L31.706,5.965c0.392-0.394,0.392-1.039,0-1.432l-4.234-4.234c-0.392-0.392-1.036-0.392-1.43,0
		L16.004,10.337L5.959,0.294c-0.394-0.392-1.038-0.392-1.43,0L0.295,4.53c-0.394,0.391-0.394,1.034,0,1.432l10.043,10.042
		l-10.04,10.04c-0.391,0.39-0.391,1.036,0,1.43l4.234,4.234c0.394,0.39,1.041,0.39,1.431,0l10.038-10.038l10.033,10.033
		c0.392,0.392,1.039,0.392,1.432,0l4.236-4.236c0.39-0.39,0.39-1.036,0-1.431L21.669,16.001z"/>
</g>
<g id="Ebene_1">
</g>
</svg>
