<?xml version="1.0" encoding="iso-8859-1"?>
<!-- Generator: Adobe Illustrator 20.0.0, SVG Export Plug-In . SVG Version: 6.00 Build 0)  -->
<svg version="1.1" xmlns="http://www.w3.org/2000/svg" xmlns:xlink="http://www.w3.org/1999/xlink" x="0px" y="0px"
	 viewBox="0 0 32 32" style="enable-background:new 0 0 32 32;" xml:space="preserve" width="32px" height="32px" class="br-symbol-library">
<g id="Copy">
	<path style="fill:#050507;" d="M24.325,17.5H21v-3.377c0-0.215-0.382-0.373-0.597-0.373H18.05c-0.217,0-0.55,0.158-0.55,0.373V17.5
		h-3.372c-0.215,0-0.378,0.328-0.378,0.545v2.352c0,0.215,0.163,0.602,0.378,0.602H17.5v3.368c0,0.217,0.333,0.382,0.55,0.382h2.353
		c0.215,0,0.597-0.165,0.597-0.382V21h3.325c0.215,0,0.425-0.387,0.425-0.602v-2.352C24.75,17.828,24.54,17.5,24.325,17.5z
		 M24.325,17.5H21v-3.377c0-0.215-0.382-0.373-0.597-0.373H18.05c-0.217,0-0.55,0.158-0.55,0.373V17.5h-3.372
		c-0.215,0-0.378,0.328-0.378,0.545v2.352c0,0.215,0.163,0.602,0.378,0.602H17.5v3.368c0,0.217,0.333,0.382,0.55,0.382h2.353
		c0.215,0,0.597-0.165,0.597-0.382V21h3.325c0.215,0,0.425-0.387,0.425-0.602v-2.352C24.75,17.828,24.54,17.5,24.325,17.5z
		 M29.795,6.5H25.5V1.993C25.5,0.823,24.645,0,23.475,0H2.243C1.073,0,0,0.823,0,1.993v21.232c0,1.17,1.073,2.025,2.243,2.025H6.5
		v4.688C6.5,31.075,7.488,32,8.705,32h21.09C31.013,32,32,31.075,32,29.938V8.563C32,7.423,31.013,6.5,29.795,6.5z M6.5,8.563V23.5
		H2.243c-0.202,0-0.493-0.072-0.493-0.275V1.993c0-0.202,0.29-0.243,0.493-0.243h21.232c0.202,0,0.275,0.04,0.275,0.243V6.5H8.705
		C7.488,6.5,6.5,7.423,6.5,8.563z M30.25,29.795c0,0.25-0.205,0.455-0.455,0.455H8.705c-0.252,0-0.455-0.205-0.455-0.455V8.705
		c0-0.253,0.203-0.455,0.455-0.455h21.09c0.25,0,0.455,0.203,0.455,0.455V29.795z M24.325,17.5H21v-3.377
		c0-0.215-0.382-0.373-0.597-0.373H18.05c-0.217,0-0.55,0.158-0.55,0.373V17.5h-3.372c-0.215,0-0.378,0.328-0.378,0.545v2.352
		c0,0.215,0.163,0.602,0.378,0.602H17.5v3.368c0,0.217,0.333,0.382,0.55,0.382h2.353c0.215,0,0.597-0.165,0.597-0.382V21h3.325
		c0.215,0,0.425-0.387,0.425-0.602v-2.352C24.75,17.828,24.54,17.5,24.325,17.5z"/>
</g>
<g id="Ebene_1">
</g>
</svg>
