<?xml version="1.0" encoding="UTF-8" standalone="no"?>
<svg
   version="1.1"
   id="Ebene_1"
   x="0px"
   y="0px"
   viewBox="0 0 32 32"
   xml:space="preserve"
   width="32"
   height="32"
   class="br-symbol-library"
   sodipodi:docname="Cancel.svg"
   inkscape:version="1.2.1 (9c6d41e410, 2022-07-14)"
   xmlns:inkscape="http://www.inkscape.org/namespaces/inkscape"
   xmlns:sodipodi="http://sodipodi.sourceforge.net/DTD/sodipodi-0.dtd"
   xmlns="http://www.w3.org/2000/svg"
   xmlns:svg="http://www.w3.org/2000/svg"
   xmlns:rdf="http://www.w3.org/1999/02/22-rdf-syntax-ns#"
   xmlns:cc="http://creativecommons.org/ns#"
   xmlns:dc="http://purl.org/dc/elements/1.1/"><metadata
   id="metadata13"><rdf:RDF><cc:Work
       rdf:about=""><dc:format>image/svg+xml</dc:format><dc:type
         rdf:resource="http://purl.org/dc/dcmitype/StillImage" /></cc:Work></rdf:RDF></metadata><defs
   id="defs11" /><sodipodi:namedview
   pagecolor="#ffffff"
   bordercolor="#666666"
   borderopacity="1"
   objecttolerance="10"
   gridtolerance="10"
   guidetolerance="10"
   inkscape:pageopacity="0"
   inkscape:pageshadow="2"
   inkscape:window-width="3440"
   inkscape:window-height="1377"
   id="namedview9"
   showgrid="false"
   inkscape:zoom="16"
   inkscape:cx="11"
   inkscape:cy="25.875"
   inkscape:window-x="1912"
   inkscape:window-y="1072"
   inkscape:window-maximized="1"
   inkscape:current-layer="Ebene_1"
   inkscape:document-rotation="0"
   inkscape:showpageshadow="2"
   inkscape:pagecheckerboard="0"
   inkscape:deskcolor="#d1d1d1" />
<g
   id="File"
   transform="translate(-3.2502182,-2.182e-4)">
	<g
   id="g4">
		
	</g>
</g>
<g
   id="Ebene_1_1_"
   transform="translate(-3.2502182,-2.182e-4)">
</g>
<path
   id="rect350"
   style="stroke-width:140.56;stroke-opacity:0.302222"
   d="M 5 0 C 2.2300056 0 0 2.2300056 0 5 L 0 27 C 0 29.769994 2.2300056 32 5 32 L 27 32 C 29.769994 32 32 29.769994 32 27 L 32 5 C 32 2.2300056 29.769994 0 27 0 L 5 0 z M 8.2578125 4 L 23.742188 4 L 16 11.742188 L 8.2578125 4 z M 4 8.2578125 L 11.742188 16 L 4 23.742188 L 4 8.2578125 z M 28 8.2578125 L 28 23.742188 L 20.257812 16 L 28 8.2578125 z M 16 20.257812 L 23.742188 28 L 8.2578125 28 L 16 20.257812 z " /></svg>
