<?xml version="1.0" encoding="UTF-8" standalone="no"?>
<svg
   xmlns:dc="http://purl.org/dc/elements/1.1/"
   xmlns:cc="http://creativecommons.org/ns#"
   xmlns:rdf="http://www.w3.org/1999/02/22-rdf-syntax-ns#"
   xmlns:svg="http://www.w3.org/2000/svg"
   xmlns="http://www.w3.org/2000/svg"
   xmlns:sodipodi="http://sodipodi.sourceforge.net/DTD/sodipodi-0.dtd"
   xmlns:inkscape="http://www.inkscape.org/namespaces/inkscape"
   height="1792"
   viewBox="0 0 1792 1792"
   width="1792"
   version="1.1"
   id="svg4"
   sodipodi:docname="ExportArchive.svg"
   inkscape:version="0.92.2 (5c3e80d, 2017-08-06)">
  <metadata
     id="metadata10">
    <rdf:RDF>
      <cc:Work
         rdf:about="">
        <dc:format>image/svg+xml</dc:format>
        <dc:type
           rdf:resource="http://purl.org/dc/dcmitype/StillImage" />
        <dc:title />
      </cc:Work>
    </rdf:RDF>
  </metadata>
  <defs
     id="defs8" />
  <sodipodi:namedview
     pagecolor="#ffffff"
     bordercolor="#666666"
     borderopacity="1"
     objecttolerance="10"
     gridtolerance="10"
     guidetolerance="10"
     inkscape:pageopacity="0"
     inkscape:pageshadow="2"
     inkscape:window-width="1920"
     inkscape:window-height="1058"
     id="namedview6"
     showgrid="false"
     inkscape:zoom="0.13169643"
     inkscape:cx="-1366.7797"
     inkscape:cy="896.00001"
     inkscape:window-x="1912"
     inkscape:window-y="-8"
     inkscape:window-maximized="1"
     inkscape:current-layer="g12" />
  <g
     transform="matrix(49.406401,0,0,49.406401,105.50088,109.91057)"
     id="g12"
     style="stroke-width:0.02024029">
    <title
       id="title7">Layer 1</title>
    <path
       style="clip-rule:evenodd;fill:#121313;fill-rule:evenodd;stroke-width:0.02024029"
       inkscape:connector-curvature="0"
       id="svg_1"
       d="m 8.624,21.336 h 2.015 c 1.402,-7.953 8.329,-14 16.684,-14 0.35,0 0.683,0.003 1.019,0.006 l -3.664,3.663 c -0.391,0.391 -0.391,1.023 0,1.414 0.195,0.195 0.451,0.293 0.707,0.293 0.256,0 0.512,-0.098 0.707,-0.293 L 32,6.356 26.093,0.293 c -0.391,-0.391 -1.023,-0.391 -1.414,0 -0.391,0.391 -0.391,1.023 0,1.414 L 28.31,5.338 C 27.992,5.337 27.69,5.335 27.365,5.335 17.895,5.336 10.066,12.271 8.624,21.336 Z" />
    <path
       style="clip-rule:evenodd;fill:#121313;fill-rule:evenodd;stroke-width:0.02024029"
       inkscape:connector-curvature="0"
       id="svg_2"
       d="m 29,15 c -0.552,0 -1,0.448 -1,1 V 30 H 2 V 10 h 9 C 11.552,10 12,9.552 12,9 12,8.448 11.552,8 11,8 H 10.97 2 C 0.896,8 0,8.896 0,10 v 20 c 0,1.104 0.896,2 2,2 h 26 c 1.104,0 2,-0.896 2,-2 V 16 c 0,-0.552 -0.448,-1 -1,-1 z" />
    <text
       style="font-size:5.24866343px;font-family:Helvetica, Arial, sans-serif;text-anchor:start;fill:#000000;stroke:#000000;stroke-width:0"
       xml:space="preserve"
       font-size="8"
       id="svg_10"
       y="21.586096"
       x="11.816423"
       fill-opacity="null"
       stroke-opacity="null">Export </text>
    <text
       style="font-size:7.57750988px;font-family:Helvetica, Arial, sans-serif;text-anchor:start;fill:#000000;stroke:#000000;stroke-width:0"
       xml:space="preserve"
       font-size="8"
       y="29.036102"
       x="2.3768301"
       fill-opacity="null"
       stroke-opacity="null"
       id="text823">Archive</text>
  </g>
</svg>
