<?xml version="1.0" encoding="UTF-8" standalone="no"?>
<!-- Generator: Adobe Illustrator 20.0.0, SVG Export Plug-In . SVG Version: 6.00 Build 0)  -->

<svg
   version="1.1"
   x="0px"
   y="0px"
   viewBox="0 0 32 32"
   style="enable-background:new 0 0 32 32;"
   xml:space="preserve"
   width="32px"
   height="32px"
   class="br-symbol-library"
   id="svg6"
   sodipodi:docname="CreateBackup.svg"
   inkscape:version="1.2.2 (732a01da63, 2022-12-09)"
   xmlns:inkscape="http://www.inkscape.org/namespaces/inkscape"
   xmlns:sodipodi="http://sodipodi.sourceforge.net/DTD/sodipodi-0.dtd"
   xmlns:xlink="http://www.w3.org/1999/xlink"
   xmlns="http://www.w3.org/2000/svg"
   xmlns:svg="http://www.w3.org/2000/svg"><defs
   id="defs10"><symbol
     id="AddUser"><g
       id="AddUser_transform"
       transform="matrix(2.9842888,0,0,2.9842888,47.955709,64.282188)"><path
         id="path27082"
         d="m -10.707899,-22.044663 c -2.967942,0 -5.361494,2.106299 -5.361494,5.361412 0,3.446588 2.393552,5.36141 5.361494,5.36141 2.9679423,0 5.3613293,-2.393515 5.3613293,-5.36141 0,-2.967897 -2.393387,-5.361412 -5.3613293,-5.361412 z m -0.478788,2.010612 h 1.053234 c 0.2872206,0 0.2871402,0.382878 0.2871402,0.670094 v 1.531831 h 1.8191621 c 0.28722,0 0.574445,0.382878 0.574445,0.670094 v 1.053218 c 0,0.287215 -0.287225,0.478614 -0.574445,0.478614 h -1.8191621 v 1.72331 c 0,0.287216 8.04e-5,0.47878 -0.2871402,0.47878 h -1.053234 c -0.287219,0 -0.574445,-0.191564 -0.574445,-0.47878 v -1.72331 h -1.627513 c -0.287221,0 -0.574446,-0.191399 -0.574446,-0.478614 v -1.053218 c 0,-0.382954 0.287225,-0.670094 0.574446,-0.670094 h 1.627513 v -1.531831 c 0,-0.382955 0.287226,-0.670094 0.574445,-0.670094 z"
         style="stroke-width:0.957394" /></g></symbol></defs><sodipodi:namedview
   id="namedview8"
   pagecolor="#505050"
   bordercolor="#ffffff"
   borderopacity="1"
   inkscape:showpageshadow="0"
   inkscape:pageopacity="0"
   inkscape:pagecheckerboard="1"
   inkscape:deskcolor="#505050"
   showgrid="false"
   inkscape:zoom="13.078125"
   inkscape:cx="-2.7144564"
   inkscape:cy="15.827957"
   inkscape:window-width="1920"
   inkscape:window-height="1017"
   inkscape:window-x="1912"
   inkscape:window-y="-8"
   inkscape:window-maximized="1"
   inkscape:current-layer="svg6" />
<g
   id="Server">
	<path
   id="path2"
   d="M 2.6582031 0 C 1.1902061 0 1.1842367e-15 1.1902061 0 2.6582031 L 0 29.34375 C 0 30.810748 1.1902061 32 2.6582031 32 L 29.34375 32 C 30.810748 32 32 30.809793 32 29.341797 L 32 10.832031 A 8 8 0 0 1 30.751953 12.533203 L 30.751953 29.341797 L 30.75 29.341797 C 30.75 30.117795 30.118795 30.75 29.341797 30.75 L 2.6582031 30.75 C 1.8822047 30.75 1.25 30.118795 1.25 29.341797 L 1.25 2.6582031 C 1.25 1.8822047 1.8812047 1.25 2.6582031 1.25 L 19.464844 1.25 A 8 8 0 0 1 21.167969 0 L 2.6582031 0 z M 4 2.5 C 3.3100014 2.5 2.75 3.0600014 2.75 3.75 L 2.75 8.5 C 2.75 9.1899986 3.3100014 9.75 4 9.75 L 17.509766 9.75 A 8 8 0 0 1 17 7 A 8 8 0 0 1 18.400391 2.5 L 4 2.5 z M 4 12.25 C 3.3100014 12.25 2.75 12.810002 2.75 13.5 L 2.75 18.25 C 2.75 18.939998 3.3100014 19.5 4 19.5 L 28 19.5 C 28.689998 19.5 29.25 18.939998 29.25 18.25 L 29.25 13.771484 A 8 8 0 0 1 26.5 14.839844 L 26.5 15.75 L 24.5 15.75 L 24.5 14.964844 A 8 8 0 0 1 18.964844 12.25 L 4 12.25 z M 4 22 C 3.3100014 22 2.75 22.560002 2.75 23.25 L 2.75 28 C 2.75 28.689998 3.3100014 29.25 4 29.25 L 28 29.25 C 28.689998 29.25 29.25 28.689998 29.25 28 L 29.25 23.25 C 29.25 22.560002 28.689998 22 28 22 L 4 22 z M 24.5 23.5 L 26.5 23.5 L 26.5 25.5 L 24.5 25.5 L 24.5 23.5 z " />
</g>
<g
   id="Ebene_1">
</g>
<use
   xlink:href="#AddUser"
   id="use141"
   transform="matrix(0.43749998,0,0,0.43749997,18,0.65863559)" /></svg>
