<?xml version="1.0" encoding="UTF-8" standalone="no"?>
<!-- Generator: Adobe Illustrator 20.0.0, SVG Export Plug-In . SVG Version: 6.00 Build 0)  -->

<svg
   version="1.1"
   x="0px"
   y="0px"
   viewBox="0 0 32 32"
   style="enable-background:new 0 0 32 32;"
   xml:space="preserve"
   width="32px"
   height="32px"
   class="br-symbol-library"
   id="svg6"
   sodipodi:docname="RestoreBackup.svg"
   inkscape:version="1.2.2 (732a01da63, 2022-12-09)"
   xmlns:inkscape="http://www.inkscape.org/namespaces/inkscape"
   xmlns:sodipodi="http://sodipodi.sourceforge.net/DTD/sodipodi-0.dtd"
   xmlns="http://www.w3.org/2000/svg"
   xmlns:svg="http://www.w3.org/2000/svg"><defs
   id="defs10" /><sodipodi:namedview
   id="namedview8"
   pagecolor="#505050"
   bordercolor="#ffffff"
   borderopacity="1"
   inkscape:showpageshadow="0"
   inkscape:pageopacity="0"
   inkscape:pagecheckerboard="1"
   inkscape:deskcolor="#505050"
   showgrid="false"
   inkscape:zoom="8"
   inkscape:cx="42.6875"
   inkscape:cy="17.5"
   inkscape:window-width="1920"
   inkscape:window-height="1017"
   inkscape:window-x="1912"
   inkscape:window-y="-8"
   inkscape:window-maximized="1"
   inkscape:current-layer="svg6" />
<g
   id="Server">
	<path
   id="path2"
   d="M 2.6582031 0 C 1.1902091 0 2.3684734e-15 1.1902091 0 2.6582031 L 0 29.34375 C 0 30.810746 1.1902091 32 2.6582031 32 L 29.34375 32 C 30.810746 32 32 30.809789 32 29.341797 L 32 2.6582031 C 32 1.1902091 30.809789 2.3684734e-15 29.341797 0 L 2.6582031 0 z M 2.6582031 1.25 L 29.34375 1.25 C 30.119746 1.25 30.751953 1.8812063 30.751953 2.6582031 L 30.751953 29.341797 L 30.75 29.341797 C 30.75 30.117793 30.118793 30.75 29.341797 30.75 L 2.6582031 30.75 C 1.8822063 30.75 1.25 30.118793 1.25 29.341797 L 1.25 2.6582031 C 1.25 1.8822063 1.8812063 1.25 2.6582031 1.25 z M 4 2.5 C 3.3100028 2.5 2.75 3.0600028 2.75 3.75 L 2.75 8.5 C 2.75 9.1899972 3.3100028 9.75 4 9.75 L 8.2949219 9.75 A 10 10 0 0 1 16 6.0996094 A 10 10 0 0 1 22.533203 8.5566406 L 22.582031 8.5078125 L 23.552734 7.5410156 L 23.908203 7.5332031 L 24.265625 7.5253906 L 24.488281 7.7773438 L 24.708984 8.0253906 L 24.708984 9.75 L 28 9.75 C 28.689996 9.75 29.25 9.1899972 29.25 8.5 L 29.25 3.75 C 29.25 3.0600028 28.689996 2.5 28 2.5 L 4 2.5 z M 24.5 4 L 26.5 4 L 26.5 6 L 24.5 6 L 24.5 4 z M 4 12.25 C 3.3100028 12.25 2.75 12.810004 2.75 13.5 L 2.75 18.25 C 2.75 18.939996 3.3100028 19.5 4 19.5 L 6.6230469 19.5 A 10 10 0 0 1 6 16.099609 A 10 10 0 0 1 6.7910156 12.25 L 4 12.25 z M 14.681641 12.25 A 4 4 0 0 0 12 16 A 4 4 0 0 0 12.046875 16.337891 L 14.855469 16.337891 L 15.078125 16.451172 L 15.302734 16.568359 L 15.380859 16.716797 L 15.458984 16.863281 L 15.458984 17.150391 L 15.458984 17.4375 L 14.121094 18.78125 L 13.699219 19.207031 A 4 4 0 0 0 14.099609 19.5 L 17.900391 19.5 A 4 4 0 0 0 20 16 A 4 4 0 0 0 19.96875 15.746094 L 17.060547 15.746094 L 16.837891 15.632812 L 16.615234 15.515625 L 16.535156 15.369141 L 16.457031 15.222656 L 16.457031 14.935547 L 16.457031 14.648438 L 17.794922 13.302734 L 18.328125 12.765625 A 4 4 0 0 0 17.382812 12.25 L 14.681641 12.25 z M 25.208984 12.25 A 10 10 0 0 1 25.697266 13.75 L 26.5 13.75 L 26.5 15.75 L 25.974609 15.75 A 10 10 0 0 1 26 16.099609 A 10 10 0 0 1 25.376953 19.5 L 28 19.5 C 28.689996 19.5 29.25 18.939996 29.25 18.25 L 29.25 13.5 C 29.25 12.810004 28.689996 12.25 28 12.25 L 25.208984 12.25 z M 4 22 C 3.3100028 22 2.75 22.560004 2.75 23.25 L 2.75 28 C 2.75 28.689996 3.3100028 29.25 4 29.25 L 28 29.25 C 28.689996 29.25 29.25 28.689996 29.25 28 L 29.25 23.25 C 29.25 22.560004 28.689996 22 28 22 L 24.042969 22 A 10 10 0 0 1 16 26.099609 A 10 10 0 0 1 9.375 23.537109 L 9.3339844 23.578125 L 8.3632812 24.544922 L 8.0097656 24.552734 L 7.6503906 24.558594 L 7.4277344 24.308594 L 7.2070312 24.060547 L 7.2070312 22 L 4 22 z M 24.5 23.5 L 26.5 23.5 L 26.5 25.5 L 24.5 25.5 L 24.5 23.5 z " />
</g>
<g
   id="Ebene_1">
</g>
<path
   style="fill:#000000;stroke-width:0.0523063"
   d="m 15.430172,23.962044 -0.543678,-0.03773 -0.42364,-0.08492 -0.423642,-0.08493 -0.53042,-0.17657 -0.530419,-0.17657 L 12.51286,23.167364 12.047348,22.933402 11.575371,22.617475 11.103395,22.301549 10.643869,21.87447 10.184343,21.447389 9.510802,22.126659 8.83726,22.80593 8.671783,22.839049 8.506306,22.872168 8.318923,22.780248 8.13154,22.688328 8.06654,22.557515 8.00154,22.426702 8.00077,20.030234 8,17.633765 l 0.07612,-0.147321 0.07612,-0.147321 0.18014,-0.08554 0.18014,-0.08554 h 2.328563 2.328564 l 0.129101,0.04912 0.129102,0.04912 0.109596,0.117722 0.109597,0.117722 v 0.235378 0.235378 l -0.915032,0.920828 -0.915033,0.92083 v 0.05757 0.05757 l 0.350314,0.327936 0.350314,0.327937 0.427563,0.278899 0.427563,0.2789 0.254803,0.110371 0.254802,0.110372 0.339869,0.1215 0.339868,0.121498 0.410822,0.08298 0.410822,0.08298 0.63493,-8e-6 0.63493,-9e-6 0.408091,-0.07814 0.408093,-0.07814 0.402366,-0.134543 0.402367,-0.134544 0.431018,-0.228734 0.43102,-0.228735 0.327151,-0.248956 0.32715,-0.248957 0.342391,-0.345021 0.342391,-0.345021 0.239304,-0.338122 0.239303,-0.338122 0.184328,-0.340113 0.184328,-0.340112 0.168161,-0.523251 0.168162,-0.52325 0.07553,-0.21936 0.07553,-0.21936 0.101607,-0.129265 0.101607,-0.129265 0.225456,-0.109219 0.225454,-0.10922 h 0.280709 0.280708 l 0.230359,0.111595 0.230356,0.111593 0.149608,0.206676 0.149607,0.206675 0.03437,0.229291 0.03435,0.229291 -0.06465,0.276559 -0.06465,0.276559 -0.128735,0.418601 -0.128735,0.4186 -0.278378,0.575575 -0.27838,0.575576 -0.312087,0.470925 -0.312087,0.470925 -0.447649,0.475679 -0.447649,0.475678 -0.356371,0.291768 -0.356372,0.291768 -0.45387,0.285152 -0.453868,0.285152 -0.550003,0.241043 -0.550003,0.241044 -0.477155,0.134255 -0.477157,0.134253 -0.505392,0.07203 -0.505391,0.07203 -0.366013,0.01917 -0.366013,0.01917 z M 8.810453,15.524626 8.65359,15.455056 8.514858,15.324563 8.376124,15.19407 8.286664,15.020955 8.197204,14.84784 8.222424,14.398947 8.247634,13.950053 8.405642,13.478937 8.563649,13.007821 8.803732,12.507288 9.043816,12.006756 9.337748,11.565628 9.631679,11.124501 9.953088,10.759183 10.274495,10.393866 10.535933,10.148945 10.797372,9.904026 11.006521,9.73511 11.215671,9.566195 11.633973,9.292068 12.052274,9.017941 12.429723,8.828669 12.807172,8.639394 13.14056,8.513818 13.473947,8.388241 13.874834,8.27818 14.275721,8.16812 14.784911,8.08406 15.294102,8 h 0.705883 0.705883 l 0.497354,0.08215 0.497354,0.08215 0.469967,0.135744 0.469966,0.135744 0.444445,0.189667 0.444444,0.189669 0.444445,0.260707 0.444444,0.260709 0.183007,0.132656 0.183006,0.132657 0.365591,0.316559 0.365591,0.316557 0.110993,0.117731 0.110993,0.117732 h 0.07171 0.07171 l 0.663021,-0.662024 0.663021,-0.662022 0.243928,-0.0052 0.243929,-0.0052 0.152601,0.170882 0.152602,0.170882 v 2.434887 2.434887 l -0.07897,0.152826 -0.07897,0.152825 -0.100596,0.05388 -0.100597,0.05388 H 21.203446 18.76604 l -0.152716,-0.07903 -0.152715,-0.07903 -0.05384,-0.100668 -0.05384,-0.100669 v -0.196359 -0.19636 l 0.915033,-0.920829 0.915033,-0.920829 v -0.05757 -0.05757 l -0.334202,-0.312855 -0.334202,-0.312853 -0.43704,-0.289602 -0.43704,-0.289603 -0.359786,-0.16208 -0.359786,-0.162081 -0.346098,-0.100368 -0.346096,-0.100369 -0.367248,-0.06305 -0.367249,-0.06305 -0.73079,0.02528 -0.730791,0.02529 -0.521647,0.137948 -0.521648,0.137951 -0.524105,0.256817 -0.524103,0.256818 -0.366013,0.274688 -0.366013,0.274688 -0.374307,0.387441 -0.374308,0.387441 -0.243387,0.363022 -0.243387,0.363021 -0.22826,0.48401 -0.228258,0.484008 -0.138624,0.497088 -0.138623,0.497088 -0.125112,0.1647 -0.125113,0.1647 -0.227081,0.110006 -0.22708,0.110007 -0.284145,-0.002 -0.284145,-0.002 z"
   id="path6878" /></svg>
