<?xml version="1.0" encoding="UTF-8" standalone="no"?>
<svg
   xmlns:dc="http://purl.org/dc/elements/1.1/"
   xmlns:cc="http://creativecommons.org/ns#"
   xmlns:rdf="http://www.w3.org/1999/02/22-rdf-syntax-ns#"
   xmlns:svg="http://www.w3.org/2000/svg"
   xmlns="http://www.w3.org/2000/svg"
   xmlns:sodipodi="http://sodipodi.sourceforge.net/DTD/sodipodi-0.dtd"
   xmlns:inkscape="http://www.inkscape.org/namespaces/inkscape"
   width="36"
   height="31"
   viewBox="0 0 36 31"
   version="1.1"
   id="svg8634"
   inkscape:version="1.0 (4035a4fb49, 2020-05-01)"
   sodipodi:docname="Reset.svg">
  <defs
     id="defs8628" />
  <sodipodi:namedview
     id="base"
     pagecolor="#ffffff"
     bordercolor="#666666"
     borderopacity="1.0"
     inkscape:pageopacity="0.0"
     inkscape:pageshadow="2"
     inkscape:zoom="11.2"
     inkscape:cx="10.069809"
     inkscape:cy="17.409573"
     inkscape:document-units="mm"
     inkscape:current-layer="layer1"
     showgrid="false"
     fit-margin-top="0"
     fit-margin-left="0"
     fit-margin-right="0"
     fit-margin-bottom="0"
     inkscape:window-width="1920"
     inkscape:window-height="1001"
     inkscape:window-x="-9"
     inkscape:window-y="-9"
     inkscape:window-maximized="1"
     inkscape:document-rotation="0" />
  <metadata
     id="metadata8631">
    <rdf:RDF>
      <cc:Work
         rdf:about="">
        <dc:format>image/svg+xml</dc:format>
        <dc:type
           rdf:resource="http://purl.org/dc/dcmitype/StillImage" />
        <dc:title></dc:title>
      </cc:Work>
    </rdf:RDF>
  </metadata>
  <g
     inkscape:label="Layer 1"
     inkscape:groupmode="layer"
     id="layer1"
     transform="matrix(3.5,0,0,3.5,-23.09787,-28.661228)">
    <rect
       style="fill:#ffa500;fill-opacity:1;stroke:none;stroke-width:0.689845"
       id="rect831"
       width="10.285714"
       height="8.8571424"
       x="6.5993915"
       y="8.1889219"
       ry="0"
       rx="0" />
    <path
       id="path3768"
       style="color:#000000;text-indent:0;text-transform:none;fill:#ffffff;stroke-width:0.566537"
       inkscape:connector-curvature="0"
       d="m 9.2422762,10.117647 0.8395688,0.651675 c 0.441545,-0.361728 1.008589,-0.581456 1.624489,-0.581456 1.391983,0 2.535914,1.117646 2.535914,2.477443 0,1.359889 -1.144022,2.452185 -2.535914,2.452185 -1.091212,0 -2.0289539,-0.670064 -2.3835511,-1.615165 l 0.9085751,-0.216284 c 0.243149,0.560162 0.806613,0.946592 1.474976,0.946592 0.894691,0 1.604429,-0.693328 1.604429,-1.567435 0,-0.874062 -0.709691,-1.592695 -1.604429,-1.592695 -0.331955,0 -0.63697,0.100415 -0.891324,0.26966 l 0.83094,0.646057 -2.4037014,0.43539 v -2.30612 z"
       background-color="#ffa500" />
  </g>
</svg>
