<?xml version="1.0" encoding="utf-8"?>
<!-- Generator: Adobe Illustrator 20.0.0, SVG Export Plug-In . SVG Version: 6.00 Build 0)  -->
<svg version="1.1" id="Ebene_1" xmlns="http://www.w3.org/2000/svg" xmlns:xlink="http://www.w3.org/1999/xlink" x="0px" y="0px"
	 viewBox="0 0 32 32" style="enable-background:new 0 0 32 32;" xml:space="preserve" width="32px" height="32px" class="br-symbol-library">
<style type="text/css">
	.st0{opacity:0.5;enable-background:new    ;}
</style>
<g id="Max">
	<g>
		<path class="st0" d="M15,2.3H17c8.4,0.5,15,7.5,15,16c0,1.1-0.1,2.3-0.3,3.3l-2.9-0.8c0.2-0.8,0.2-1.6,0.2-2.5c0-7.2-5.8-13-13-13
			s-13,5.8-13,13c0,3.6,1.5,6.9,3.9,9.2l-2.1,2.1C1.8,26.8,0,22.7,0,18.3C0,9.8,6.6,2.8,15,2.3z"/>
		<path d="M31.1,23.6c-0.8,2.3-2.1,4.4-3.9,6.2l-2.1-2.1c1.4-1.3,2.4-3,3.1-4.8L31.1,23.6z M12.5,18.4c0,1.9,1.6,3.5,3.5,3.5
			c0.7,0,1.3-0.2,1.9-0.6l5.8,3.6c0.5,0.3,1.1,0.1,1.4-0.3l0.5-0.8c0.3-0.5,0.1-1.1-0.3-1.4l-5.8-3.6c0-0.1,0-0.3,0-0.4
			c0-1.9-1.6-3.5-3.5-3.5C14.1,14.9,12.5,16.4,12.5,18.4z"/>
	</g>
</g>
<g id="Ebene_1_1_">
</g>
</svg>
