<?xml version="1.0" encoding="UTF-8" standalone="no"?>
<svg
   xmlns:dc="http://purl.org/dc/elements/1.1/"
   xmlns:cc="http://creativecommons.org/ns#"
   xmlns:rdf="http://www.w3.org/1999/02/22-rdf-syntax-ns#"
   xmlns:svg="http://www.w3.org/2000/svg"
   xmlns="http://www.w3.org/2000/svg"
   xmlns:xlink="http://www.w3.org/1999/xlink"
   xmlns:sodipodi="http://sodipodi.sourceforge.net/DTD/sodipodi-0.dtd"
   xmlns:inkscape="http://www.inkscape.org/namespaces/inkscape"
   id="Layer_1"
   style="enable-background:new 0 0 128 128;"
   version="1.1"
   viewBox="0 0 128 128"
   xml:space="preserve"
   sodipodi:docname="Menu.svg"
   inkscape:version="0.92.2 (5c3e80d, 2017-08-06)"><metadata
     id="metadata19"><rdf:RDF><cc:Work
         rdf:about=""><dc:format>image/svg+xml</dc:format><dc:type
           rdf:resource="http://purl.org/dc/dcmitype/StillImage" /></cc:Work></rdf:RDF></metadata><defs
     id="defs17"><linearGradient
       inkscape:collect="always"
       id="linearGradient821"><stop
         style="stop-color:#cd2d2c;stop-opacity:1;"
         offset="0"
         id="stop817" /><stop
         style="stop-color:#cd2d2c;stop-opacity:0;"
         offset="1"
         id="stop819" /></linearGradient><linearGradient
       inkscape:collect="always"
       xlink:href="#linearGradient821"
       id="linearGradient823"
       x1="23.5"
       y1="64"
       x2="104.5"
       y2="64"
       gradientUnits="userSpaceOnUse" /></defs><sodipodi:namedview
     pagecolor=""
     bordercolor="#666666"
     borderopacity="1"
     objecttolerance="10"
     gridtolerance="10"
     guidetolerance="10"
     inkscape:pageopacity="0"
     inkscape:pageshadow="2"
     inkscape:window-width="1920"
     inkscape:window-height="1028"
     id="namedview15"
     showgrid="false"
     inkscape:zoom="1.84375"
     inkscape:cx="-232.40678"
     inkscape:cy="-25.973949"
     inkscape:window-x="1912"
     inkscape:window-y="1072"
     inkscape:window-maximized="1"
     inkscape:current-layer="Layer_1" /><style
     type="text/css"
     id="style2" /><circle
     cx="64"
     cy="64"
     r="64"
     id="circle4" /><g
     id="g12"
     style="stroke:url(#linearGradient823);stroke-opacity:0"><path
       class="st0"
       d="M103,29H25c-0.6,0-1,0.4-1,1v12c0,0.6,0.4,1,1,1h78c0.6,0,1-0.4,1-1V30C104,29.4,103.6,29,103,29z"
       id="path6"
       style="fill:#ffffff;fill-opacity:1;stroke:url(#linearGradient823);stroke-opacity:0" /><path
       class="st0"
       d="M103,57H25c-0.6,0-1,0.4-1,1v12c0,0.6,0.4,1,1,1h78c0.6,0,1-0.4,1-1V58C104,57.4,103.6,57,103,57z"
       id="path8"
       style="fill:#ffffff;fill-opacity:1;stroke:url(#linearGradient823);stroke-opacity:0" /><path
       class="st0"
       d="M103,85H25c-0.6,0-1,0.4-1,1v12c0,0.6,0.4,1,1,1h78c0.6,0,1-0.4,1-1V86C104,85.4,103.6,85,103,85z"
       id="path10"
       style="fill:#ffffff;fill-opacity:1;stroke:url(#linearGradient823);stroke-opacity:0" /></g></svg>