<?xml version="1.0" encoding="utf-8"?>
<!-- Generator: Adobe Illustrator 20.0.0, SVG Export Plug-In . SVG Version: 6.00 Build 0)  -->
<svg version="1.1" id="Ebene_1" xmlns="http://www.w3.org/2000/svg" xmlns:xlink="http://www.w3.org/1999/xlink" x="0px" y="0px"
	 viewBox="0 0 32 32" style="enable-background:new 0 0 32 32;" xml:space="preserve" width="32px" height="32px" class="br-symbol-library">
<g id="Off">
	<path d="M16,0C8.1,0,1.7,6.4,1.7,14.3c0,5.3,2.8,9.8,7.1,12.3c0.8,0.5,1.8,0.7,1.8-0.4v-2.5c0-1-0.6-1.2-0.9-1.4
		c-2.3-1.9-3.8-4.7-3.8-7.9C5.8,8.7,10.4,4.1,16,4.1c5.6,0,10.2,4.6,10.2,10.2c0,3.2-1.5,6.1-3.8,8c-0.3,0.2-0.9,0.3-0.9,1.4v2.4
		c0,1.1,0.8,1.1,1.8,0.5c4.2-2.5,7-7.1,7-12.3C30.3,6.4,23.9,0,16,0z M17.3,18.5h-2.7c-0.7,0-1.3,0.5-1.3,1.2v10.9
		c0,0.7,0.6,1.4,1.3,1.4h2.7c0.7,0,1.4-0.6,1.4-1.4V19.7C18.8,19,18.1,18.5,17.3,18.5z"/>
</g>
<g id="Ebene_1_1_">
</g>
</svg>
