<?xml version="1.0" encoding="utf-8"?>
<!-- Generator: Adobe Illustrator 20.0.0, SVG Export Plug-In . SVG Version: 6.00 Build 0)  -->
<svg version="1.1" id="Ebene_1" xmlns="http://www.w3.org/2000/svg" xmlns:xlink="http://www.w3.org/1999/xlink" x="0px" y="0px"
	 viewBox="0 0 32 32" style="enable-background:new 0 0 32 32;" xml:space="preserve" width="32px" height="32px" class="br-symbol-library">
<g id="Restart">
	<path d="M31.4,11.1l-3.7,1.7c0,0.2,0.1,0.3,0.1,0.3h4C31.7,13.1,31.6,11.8,31.4,11.1z M29.8,22.5l-9.1,0c-0.4,0-0.5,0.2-0.3,0.5
		l2,2.8c-2,1.3-3.7,1.9-6.4,1.9v0c-6.5,0-11.9-5.3-11.9-11.9c0-3,1.1-5.7,2.9-7.7L4.2,5.3c-2.5,2.8-4.1,6.5-4.1,10.6
		c0,8.8,6.7,15.9,15.9,15.9v0c2.7,0,6-0.9,8.7-2.6l0.1,0l2,2.7c0.2,0.3,0.5,0.2,0.6-0.1l2.9-8.5C30.4,22.8,30.2,22.5,29.8,22.5z
		 M11.1,0.8l1.5,3.7c0.7-0.2,1.5-0.4,2.2-0.4V0C13.6,0.1,12.3,0.4,11.1,0.8z M17.6,0v4c0.5,0.1,1.1,0.2,1.7,0.4l1.6-3.7
		C19.8,0.3,18.6,0.1,17.6,0z M28.5,5.9l-2.8,2.8C25.8,9,26,9.3,26.2,9.6L29.9,8C29.5,7.3,29,6.6,28.5,5.9z M9,1.6
		C7.7,2.3,6.6,3,5.5,4l2.8,2.8C9,6.2,9.7,5.7,10.5,5.3L9,1.6z M23.6,1.8L22,5.5c0.4,0.2,0.8,0.5,1.2,0.8L26,3.5
		C25.3,2.8,24.4,2.3,23.6,1.8z"/>
</g>
<g id="Ebene_1_1_">
</g>
</svg>
