<?xml version="1.0" encoding="iso-8859-1"?>
<!-- Generator: Adobe Illustrator 20.0.0, SVG Export Plug-In . SVG Version: 6.00 Build 0)  -->
<svg version="1.1" xmlns="http://www.w3.org/2000/svg" xmlns:xlink="http://www.w3.org/1999/xlink" x="0px" y="0px"
	 viewBox="0 0 32 32" style="enable-background:new 0 0 32 32;" xml:space="preserve" width="32px" height="32px" class="br-symbol-library">
<g id="Server">
	<path d="M28,2.5H4c-0.69,0-1.25,0.56-1.25,1.25V8.5c0,0.69,0.56,1.25,1.25,1.25h24c0.69,0,1.25-0.56,1.25-1.25V3.75
		C29.25,3.06,28.69,2.5,28,2.5z M26.5,6h-2V4h2V6z M28,12.25H4c-0.69,0-1.25,0.56-1.25,1.25v4.75c0,0.69,0.56,1.25,1.25,1.25h24
		c0.69,0,1.25-0.56,1.25-1.25V13.5C29.25,12.81,28.69,12.25,28,12.25z M26.5,15.75h-2v-2h2V15.75z M28,22H4
		c-0.69,0-1.25,0.56-1.25,1.25V28c0,0.69,0.56,1.25,1.25,1.25h24c0.69,0,1.25-0.56,1.25-1.25v-4.75C29.25,22.56,28.69,22,28,22z
		 M26.5,25.5h-2v-2h2V25.5z M29.342,0H2.658C1.19,0,0,1.19,0,2.658v26.685C0,30.81,1.19,32,2.658,32h26.685
		C30.81,32,32,30.81,32,29.342V2.658C32,1.19,30.81,0,29.342,0z M30.75,29.342c0,0.776-0.631,1.408-1.408,1.408H2.658
		c-0.776,0-1.408-0.631-1.408-1.408V2.658c0-0.776,0.631-1.408,1.408-1.408h26.685c0.776,0,1.408,0.631,1.408,1.408V29.342z"/>
</g>
<g id="Ebene_1">
</g>
</svg>
