<?xml version="1.0" encoding="utf-8"?>
<!-- Generator: Adobe Illustrator 20.0.0, SVG Export Plug-In . SVG Version: 6.00 Build 0)  -->
<svg version="1.1" id="Ebene_1" xmlns="http://www.w3.org/2000/svg" xmlns:xlink="http://www.w3.org/1999/xlink" x="0px" y="0px"
	 viewBox="0 0 32 32" style="enable-background:new 0 0 32 32;" xml:space="preserve" width="32px" height="32px" class="br-symbol-library">
<g id="Tool">
	<path id="suitcase_2_" d="M20.9,2.1H10.6c-2.2,0-4,1-4,4h2.6c0-1,0.6-1,1.3-1h10.3c0.7,0,1.3,0,1.3,1h2.7C24.8,3.1,23,2.1,20.9,2.1
		z M32,12.6v13.5c0,2.2-1.8,4-4,4h-0.9l-6.1-5.8c0.7-2.2-0.3-4.6-2.4-5.7c-1.6-0.9-3.3-0.9-4.9,0.2l4.2,2.1l-2.2,3.8l-4.1-2
		c-0.1,2,0.9,3.4,2.5,4.3c1.3,0.7,2.8,0.8,4.1,0.3l2.9,2.7H4c-2.2,0-4-1.8-4-4V12.6h11.5v0.7c0,1,0.7,1.8,1.7,1.8h5.5
		c1,0,1.7-0.8,1.7-1.8v-0.7H32z M32,10.3v1H19v1.5c0,0.4-0.4,0.8-0.8,0.8h-4.4c-0.4,0-0.8-0.4-0.8-0.8v-1.5H0v-1c0-2.2,1.8-4,4-4h24
		C30.2,6.4,32,8.1,32,10.3z"/>
</g>
<g id="Ebene_1_1_">
</g>
</svg>
