<?xml version="1.0" encoding="UTF-8" standalone="no"?>
<!-- Generator: Adobe Illustrator 20.0.0, SVG Export Plug-In . SVG Version: 6.00 Build 0)  -->

<svg
   xmlns:dc="http://purl.org/dc/elements/1.1/"
   xmlns:cc="http://creativecommons.org/ns#"
   xmlns:rdf="http://www.w3.org/1999/02/22-rdf-syntax-ns#"
   xmlns:svg="http://www.w3.org/2000/svg"
   xmlns="http://www.w3.org/2000/svg"
   xmlns:sodipodi="http://sodipodi.sourceforge.net/DTD/sodipodi-0.dtd"
   xmlns:inkscape="http://www.inkscape.org/namespaces/inkscape"
   version="1.1"
   id="Ebene_1"
   x="0px"
   y="0px"
   viewBox="0 0 32 30.926579"
   xml:space="preserve"
   width="32"
   height="30.926579"
   class="br-symbol-library"
   sodipodi:docname="UserGroup.svg"
   inkscape:version="0.92.2 (5c3e80d, 2017-08-06)"><metadata
     id="metadata11"><rdf:RDF><cc:Work
         rdf:about=""><dc:format>image/svg+xml</dc:format><dc:type
           rdf:resource="http://purl.org/dc/dcmitype/StillImage" /></cc:Work></rdf:RDF></metadata><defs
     id="defs9" /><sodipodi:namedview
     pagecolor="#ffffff"
     bordercolor="#666666"
     borderopacity="1"
     objecttolerance="10"
     gridtolerance="10"
     guidetolerance="10"
     inkscape:pageopacity="0"
     inkscape:pageshadow="2"
     inkscape:window-width="2560"
     inkscape:window-height="1028"
     id="namedview7"
     showgrid="false"
     inkscape:zoom="14.75"
     inkscape:cx="48.715286"
     inkscape:cy="18.17249"
     inkscape:window-x="3832"
     inkscape:window-y="-8"
     inkscape:window-maximized="1"
     inkscape:current-layer="Ebene_1" /><g
     id="UserGroup"
     transform="translate(34.621084,-7.6933984)" /><g
     id="Ebene_1_1_"
     transform="translate(34.621084,-1.6933984)" /><g
     id="g985"
     transform="translate(33.59375,-1.2851562)"><path
       id="path2"
       d="m -17.693359,1.2851562 c -2.5,0 -3.800782,1.5992188 -3.800782,3.6992188 v 2.4003906 c 0,0.9 0.5,1.3988282 1,1.7988282 v 3.0000002 c -1,0.4 -2.20039,1.101172 -3.40039,1.701172 -1.1,0.6 -2.098438,1.198828 -2.398438,1.298828 -0.7,0.4 -0.800781,0.701562 -0.800781,1.601562 v 1.898438 c 0,0.2 0.100781,0.40039 0.300781,0.40039 h 4.007813 c 0.555219,-0.917418 1.311099,-1.726762 2.277344,-2.310546 3.347781,-2.022289 7.673265,-0.989983 9.74414,2.310546 h 1.7695314 c 0.2,0 0.4003906,-0.10039 0.4003906,-0.40039 v -1.898438 c 0.2,-0.8 0.1003906,-1.2 -0.5996094,-1.5 -0.3,-0.1 -1.2007816,-0.700781 -2.3007816,-1.300781 -1.2,-0.6 -2.40039,-1.299219 -3.40039,-1.699219 V 9.1835938 c 0.5,-0.4000001 1,-0.8988282 1,-1.7988282 V 4.984375 c 0,-2 -1.298828,-3.6992187 -3.798828,-3.6992188 z m -8.800782,4.0996094 c -1.9,0 -2.90039,1.2988282 -2.90039,2.7988282 v 1.9003902 c 0,0.7 0.200781,1.100391 0.800781,1.400391 v 2.300781 c -0.8,0.3 -1.699609,0.798828 -2.599609,1.298828 -0.9,0.5 -1.600782,0.9 -1.800782,1 -0.5,0.3 -0.599609,0.600782 -0.599609,1.300782 v 1.5 c 0,0.1 0.100781,0.199218 0.300781,0.199218 h 5.199219 v -0.40039 -1.898438 c 0,-1.1 0.200391,-2.001172 1.400391,-2.701172 h 0.09961 c 0.4,-0.2 1.199219,-0.699218 2.199219,-1.199218 v -1.400391 c 0.6,-0.3 0.800781,-0.700391 0.800781,-1.400391 V 8.1835938 c 0,-1.5 -1.000391,-2.7988282 -2.900392,-2.7988282 z m 17.8007816,0 c -1.8999996,0 -2.9003906,1.2988282 -2.9003906,2.7988282 v 1.9003902 c 0,0.7 0.200781,1.1 0.800781,1.5 v 1.300782 c 0.8000003,0.4 1.6000002,0.799609 2.0000002,1.099609 0.1000001,0.1 0.1988282,0.199219 0.2988282,0.199219 1.2,0.7 1.4003906,1.601172 1.4003906,2.701172 v 1.90039 c 0,0.2 -0.099609,0.198438 -0.099609,0.398438 h 5.1992188 c 0.2,0 0.4003906,-0.09883 0.4003906,-0.298828 v -1.5 c 0,-0.7 -0.099609,-1.001172 -0.5996094,-1.201172 -0.2,-0.1 -0.9007812,-0.5 -1.8007812,-1 -0.9,-0.5 -1.7996094,-0.998828 -2.5996094,-1.298828 v -2.400391 c 0.6,-0.3 0.8007812,-0.700391 0.8007812,-1.400391 V 8.1835938 c 0,-1.5 -1.0003906,-2.7988282 -2.900391,-2.7988282 z"
       inkscape:connector-curvature="0" /><path
       id="path2-1"
       d="m -23.135708,23.927279 c -0.217896,-2.297153 0.789384,-5.006753 3.045953,-6.368092 3.049287,-1.839229 7.003822,-0.872273 8.842746,2.176512 1.8397276,3.048989 0.871232,7.032277 -2.177652,8.871604 -2.324568,1.402361 -5.103452,1.284661 -7.206347,-0.361376 l -1.461733,0.881828 -0.0549,0.03313 -1.577718,-0.696351 -0.419463,1.726362 -1.714461,-0.420804 -0.206124,1.754298 -1.063308,0.641469 c -0.003,0.0018 -0.003,0.0018 -0.0051,0.003 l -0.04783,-0.07867 c -0.366451,0.197698 -0.240079,0.09742 -0.284899,0.08633 l -2.958255,-0.63769 c -0.24227,-0.05995 -0.4104,-0.291379 -0.350753,-0.534155 l 0.84694,-2.932675 c 0.01119,-0.04522 -0.146627,0.02628 0.199258,-0.206088 l 0.01752,0.02961 c 0.0016,-0.0013 0.0015,-9.29e-4 0.0031,-0.0022 z m 7.519131,-1.340818 c 0.474958,0.787275 1.497331,1.040262 2.284207,0.565213 0.786867,-0.475065 1.040162,-1.496928 0.565213,-2.284209 -0.474958,-0.787275 -1.497332,-1.040262 -2.284208,-0.565212 -0.786867,0.475065 -1.040261,1.497331 -0.565212,2.284208 z"
       inkscape:connector-curvature="0" /></g></svg>