<svg id="Layer_1" data-name="Layer 1" xmlns="http://www.w3.org/2000/svg" viewBox="0 0 26.64 25.89"><defs><style>.cls-1{fill:#7c7d7f;}</style></defs><path class="cls-1" d="M15.14,18.24H9.6a.13.13,0,0,1-.15-.14V8.91a.13.13,0,0,1,.15-.14h4.16v2.15a1,1,0,0,0,1,1h2.15v.52a.43.43,0,0,0,.86,0V10.63a.55.55,0,0,0-.11-.31L15.37,8a.43.43,0,0,0-.32-.12H9.6a1,1,0,0,0-1,1V18.1a1,1,0,0,0,1,1h5.54a.45.45,0,0,0,.43-.44.44.44,0,0,0-.43-.43Zm1.78-7.41v.23H14.77a.13.13,0,0,1-.15-.14V8.77h.26Zm0,0"/><path class="cls-1" d="M19,15.63l-1.44-1.44a.42.42,0,0,0-.6,0,.43.43,0,0,0,0,.61l.69.69H14.19a.44.44,0,0,0-.43.43.47.47,0,0,0,.43.46h3.42l-.69.69a.41.41,0,0,0,.32.71.4.4,0,0,0,.31-.11L19,16.23a.53.53,0,0,0,0-.6Zm0,0"/></svg>