<?xml version="1.0" encoding="UTF-8" standalone="no"?>
<svg
   xmlns:dc="http://purl.org/dc/elements/1.1/"
   xmlns:cc="http://creativecommons.org/ns#"
   xmlns:rdf="http://www.w3.org/1999/02/22-rdf-syntax-ns#"
   xmlns:svg="http://www.w3.org/2000/svg"
   xmlns="http://www.w3.org/2000/svg"
   xmlns:sodipodi="http://sodipodi.sourceforge.net/DTD/sodipodi-0.dtd"
   xmlns:inkscape="http://www.inkscape.org/namespaces/inkscape"
   height="341.4646"
   viewBox="0 0 298.47037 341.46459"
   width="298.47037"
   version="1.1"
   id="svg4"
   sodipodi:docname="Audit.svg"
   inkscape:version="0.92.2 (5c3e80d, 2017-08-06)">
  <metadata
     id="metadata10">
    <rdf:RDF>
      <cc:Work
         rdf:about="">
        <dc:format>image/svg+xml</dc:format>
        <dc:type
           rdf:resource="http://purl.org/dc/dcmitype/StillImage" />
        <dc:title />
      </cc:Work>
    </rdf:RDF>
  </metadata>
  <defs
     id="defs8" />
  <sodipodi:namedview
     pagecolor="#ffffff"
     bordercolor="#666666"
     borderopacity="1"
     objecttolerance="10"
     gridtolerance="10"
     guidetolerance="10"
     inkscape:pageopacity="0"
     inkscape:pageshadow="2"
     inkscape:window-width="1920"
     inkscape:window-height="1058"
     id="namedview6"
     showgrid="false"
     inkscape:zoom="2.1071429"
     inkscape:cx="160.28215"
     inkscape:cy="106.15164"
     inkscape:window-x="1912"
     inkscape:window-y="-8"
     inkscape:window-maximized="1"
     inkscape:current-layer="svg4" />
  <g
     id="g932"
     transform="matrix(0.78356224,0,0,0.78356224,-70.119638,-51.722943)"
     style="stroke-width:1.27622283">
    <g
       id="g2422"
       style="stroke-width:1.27622283">
      <path
         style="opacity:1;stroke-width:1.27622283"
         inkscape:connector-curvature="0"
         id="svg_4"
         d="m 97.103516,88.822266 c -4.21,0 -7.615235,3.453031 -7.615235,7.707031 V 494.09961 c 0,4.254 3.405235,7.69531 7.615235,7.69531 H 405.60742 c 4.21,0 7.61524,-3.44131 7.61524,-7.69531 V 96.529297 c 0,-4.254 -3.40424,-7.707031 -7.61524,-7.707031 z M 121.18164,109.92188 H 383.41797 V 448.2832 H 121.18164 Z" />
      <path
         style="opacity:1;stroke-width:1.27622283"
         inkscape:connector-curvature="0"
         d="m 291.704,73.483 v 16.216 c 0,4.131 -3.352,7.473 -7.473,7.473 H 220.37 c -4.121,0 -7.473,-3.341 -7.473,-7.473 V 73.483 c 0,-0.673 0.085,-1.334 0.267,-1.954 0.854,-3.181 3.758,-5.519 7.206,-5.519 h 63.861 c 3.448,0 6.352,2.338 7.206,5.519 0.182,0.619 0.267,1.281 0.267,1.954 z"
         id="svg_10" />
      <path
         style="opacity:1;stroke-width:1.27622283"
         inkscape:connector-curvature="0"
         d="m 291.704,73.483 v 16.216 c 0,4.131 -3.352,7.473 -7.473,7.473 H 220.37 c -4.121,0 -7.473,-3.341 -7.473,-7.473 V 73.483 c 0,-0.673 0.085,-1.334 0.267,-1.954 0.854,-3.181 3.758,-5.519 7.206,-5.519 h 63.861 c 3.448,0 6.352,2.338 7.206,5.519 0.182,0.619 0.267,1.281 0.267,1.954 z"
         id="svg_11" />
      <path
         style="opacity:1;stroke-width:1.27622283"
         inkscape:connector-curvature="0"
         d="m 291.704,73.483 v 16.216 c 0,4.131 -3.352,7.473 -7.473,7.473 H 220.37 c -4.121,0 -7.473,-3.341 -7.473,-7.473 V 73.483 c 0,-0.673 0.085,-1.334 0.267,-1.954 h 78.273 c 0.182,0.619 0.267,1.281 0.267,1.954 z"
         id="svg_12" />
      <path
         style="opacity:1;stroke-width:1.27622283"
         inkscape:connector-curvature="0"
         d="m 312.628,89.122 v 28.845 c 0,1.964 -1.676,3.555 -3.779,3.555 -2.028,0 -3.672,-1.516 -3.758,-3.416 -0.032,0 -0.064,0.011 -0.107,0.011 h -5.242 c -0.075,1.89 -1.719,3.405 -3.758,3.405 -2.039,0 -3.683,-1.516 -3.758,-3.405 h -5.348 c -0.075,1.89 -1.729,3.405 -3.768,3.405 -2.028,0 -3.683,-1.516 -3.758,-3.405 h -5.348 c -0.075,1.89 -1.719,3.405 -3.768,3.405 -2.028,0 -3.672,-1.516 -3.747,-3.405 h -5.348 c -0.085,1.89 -1.729,3.405 -3.768,3.405 -2.028,0 -3.683,-1.516 -3.758,-3.405 h -5.348 c -0.075,1.89 -1.729,3.405 -3.768,3.405 -2.028,0 -3.672,-1.516 -3.758,-3.405 h -5.348 c -0.075,1.89 -1.719,3.405 -3.758,3.405 -2.039,0 -3.683,-1.516 -3.758,-3.405 h -5.348 c -0.096,1.89 -1.729,3.405 -3.768,3.405 -2.028,0 -3.683,-1.516 -3.758,-3.405 h -5.348 c -0.085,1.89 -1.729,3.405 -3.768,3.405 -2.028,0 -3.672,-1.516 -3.747,-3.405 h -5.252 c -0.032,0 -0.064,-0.011 -0.107,-0.011 -0.075,1.9 -1.719,3.416 -3.758,3.416 -2.092,0 -3.779,-1.591 -3.779,-3.555 V 89.122 Z"
         id="svg_13" />
      <path
         style="opacity:1;stroke-width:1.27622283"
         inkscape:connector-curvature="0"
         d="m 312.628,82.77 v 34.29 c 0,1.964 -1.644,3.555 -3.694,3.555 -1.986,0 -3.598,-1.516 -3.672,-3.416 -0.032,0 -0.064,0.011 -0.107,0.011 h -5.124 c -0.075,1.89 -1.687,3.405 -3.683,3.405 -1.986,0 -3.598,-1.516 -3.672,-3.405 h -5.231 c -0.075,1.89 -1.687,3.405 -3.683,3.405 -1.986,0 -3.598,-1.516 -3.672,-3.405 h -5.231 c -0.075,1.89 -1.687,3.405 -3.683,3.405 -1.986,0 -3.598,-1.516 -3.672,-3.405 h -5.231 c -0.075,1.89 -1.687,3.405 -3.683,3.405 -1.986,0 -3.598,-1.516 -3.672,-3.405 h -5.231 c -0.075,1.89 -1.687,3.405 -3.683,3.405 -1.986,0 -3.598,-1.516 -3.672,-3.405 h -5.231 c -0.075,1.89 -1.687,3.405 -3.683,3.405 -1.986,0 -3.598,-1.516 -3.672,-3.405 h -5.231 c -0.085,1.89 -1.687,3.405 -3.683,3.405 -1.986,0 -3.598,-1.516 -3.672,-3.405 h -5.231 c -0.085,1.89 -1.687,3.405 -3.683,3.405 -1.986,0 -3.598,-1.516 -3.672,-3.405 h -5.135 c -0.032,0 -0.064,-0.011 -0.096,-0.011 -0.075,1.9 -1.687,3.416 -3.683,3.416 -2.039,0 -3.694,-1.591 -3.694,-3.555 V 82.77 c 0,-2.861 3.352,-5.188 7.473,-5.188 h 105.719 c 4.128,0 7.47,2.327 7.47,5.188 z"
         id="svg_14" />
      <path
         style="opacity:1;stroke-width:1.27622283"
         inkscape:connector-curvature="0"
         d="m 312.628,82.77 v 6.053 c 0,-2.861 -3.341,-5.188 -7.473,-5.188 H 199.436 c -4.121,0 -7.473,2.327 -7.473,5.188 V 82.77 c 0,-2.861 3.352,-5.188 7.473,-5.188 h 105.719 c 4.131,0 7.473,2.327 7.473,5.188 z"
         id="svg_15" />
      <rect
         style="opacity:1;stroke-width:1.27622283"
         height="6.8319998"
         width="120.665"
         x="191.963"
         y="101.548"
         id="svg_16" />
      <rect
         style="opacity:1;stroke-width:1.27622283"
         height="113.211"
         width="76.336998"
         x="143.896"
         y="155.45399"
         id="svg_17" />
      <rect
         style="opacity:1;stroke-width:1.27622283"
         height="7.1160002"
         width="119.68"
         x="241.58099"
         y="155.45399"
         id="svg_18" />
      <rect
         style="opacity:1;stroke-width:1.27622283"
         height="7.1160002"
         width="119.68"
         x="241.58099"
         y="170.586"
         id="svg_19" />
      <rect
         style="opacity:1;stroke-width:1.27622283"
         height="7.1160002"
         width="119.68"
         x="241.58099"
         y="185.718"
         id="svg_20" />
      <rect
         style="opacity:1;stroke-width:1.27622283"
         height="7.1160002"
         width="119.68"
         x="241.58099"
         y="200.851"
         id="svg_21" />
      <rect
         style="opacity:1;stroke-width:1.27622283"
         height="7.1160002"
         width="119.68"
         x="241.58099"
         y="215.983"
         id="svg_22" />
      <rect
         style="opacity:1;stroke-width:1.27622283"
         height="7.1160002"
         width="119.68"
         x="241.58099"
         y="231.116"
         id="svg_23" />
      <rect
         style="opacity:1;stroke-width:1.27622283"
         height="7.1160002"
         width="119.68"
         x="241.58099"
         y="246.248"
         id="svg_24" />
      <rect
         style="opacity:1;stroke-width:1.27622283"
         height="7.1160002"
         width="119.68"
         x="241.58099"
         y="261.38101"
         id="svg_25" />
      <rect
         style="opacity:1;stroke-width:1.27622283"
         height="7.1160002"
         width="217.36501"
         x="143.896"
         y="295.858"
         id="svg_26" />
      <rect
         style="opacity:1;stroke-width:1.27622283"
         height="7.1160002"
         width="217.36501"
         x="143.896"
         y="310.98999"
         id="svg_27" />
      <rect
         style="opacity:1;stroke-width:1.27622283"
         height="7.1160002"
         width="217.36501"
         x="143.896"
         y="326.12299"
         id="svg_28" />
      <rect
         style="opacity:1;stroke-width:1.27622283"
         height="7.1160002"
         width="217.36501"
         x="143.896"
         y="341.255"
         id="svg_29" />
      <rect
         style="opacity:1;stroke-width:1.27622283"
         height="3.5580001"
         width="242.36301"
         x="131.397"
         y="432.582"
         id="svg_31" />
      <polygon
         style="opacity:1;stroke-width:1.27622283"
         points="317.55,389.49 296.433,401.002 307.937,379.881 "
         id="svg_33" />
      <path
         style="opacity:1;stroke-width:1.27622283"
         inkscape:connector-curvature="0"
         d="m 393.831,319.056 -71.442,71.442 c -2.318,2.318 -10.794,4.384 -12.637,2.54 l -5.356,-5.356 c -1.843,-1.843 0.222,-10.319 2.54,-12.637 l 71.442,-71.442 c 2.318,-2.318 5.687,-2.699 7.53,-0.855 l 8.771,8.771 c 1.851,1.85 1.47,5.219 -0.848,7.537 z"
         id="svg_34" />
      <path
         style="opacity:1;stroke-width:1.27622283"
         inkscape:connector-curvature="0"
         d="m 309.864,393.136 c -0.045,-0.03 -0.076,-0.06 -0.113,-0.098 l -5.352,-5.352 c -1.849,-1.849 0.219,-10.319 2.536,-12.636 l 71.449,-71.449 c 2.318,-2.318 5.684,-2.695 7.526,-0.853 l 5.563,5.563 c -1.842,-1.842 -5.209,-1.464 -7.526,0.853 l -71.449,71.449 c -2.272,2.272 -4.303,10.478 -2.634,12.523 z"
         id="svg_35" />
      <path
         style="opacity:1;stroke-width:1.27622283"
         inkscape:connector-curvature="0"
         d="m 468.867,248.069 -69.723,69.723 c -2.156,2.156 -5.791,2.02 -8.122,-0.312 l -11.067,-11.067 c -2.331,-2.331 -2.468,-5.966 -0.312,-8.122 l 69.723,-69.723 c 2.162,-2.162 5.797,-2.025 8.128,0.306 l 11.067,11.067 c 2.331,2.331 2.468,5.965 0.306,8.128 z"
         id="svg_36" />
      <path
         style="opacity:1;stroke-width:1.27622283"
         inkscape:connector-curvature="0"
         d="m 385.947,312.403 -5.994,-5.994 c -2.325,-2.325 -2.461,-5.964 -0.31,-8.115 l 69.727,-69.727 c 2.159,-2.159 5.797,-2.023 8.122,0.302 l 5.994,5.994 c -2.333,-2.333 -5.964,-2.461 -8.122,-0.302 l -69.727,69.727 c -2.151,2.152 -2.023,5.783 0.31,8.115 z"
         id="svg_37" />
      <path
         style="opacity:1;stroke-width:1.27622283"
         inkscape:connector-curvature="0"
         d="m 185.953,367.208 c -18.052,0 -32.688,14.636 -32.688,32.688 0,18.052 14.636,32.688 32.688,32.688 18.063,0 32.699,-14.636 32.699,-32.688 0,-18.052 -14.636,-32.688 -32.699,-32.688 z m 0,57.306 c -13.59,0 -24.618,-11.017 -24.618,-24.618 0,-13.601 11.028,-24.628 24.618,-24.628 13.601,0 24.628,11.028 24.628,24.628 0,13.6 -11.028,24.618 -24.628,24.618 z"
         id="svg_39" />
      <circle
         style="opacity:1;stroke-width:1.27622283"
         cx="185.957"
         cy="399.892"
         r="14.252"
         id="svg_40" />
    </g>
  </g>
  <text
     xml:space="preserve"
     style="font-style:normal;font-variant:normal;font-weight:normal;font-stretch:normal;font-size:58.50682831px;line-height:1;font-family:'Vladimir Script';-inkscape-font-specification:'Vladimir Script, Normal';font-variant-ligatures:normal;font-variant-caps:normal;font-variant-numeric:normal;font-feature-settings:normal;text-align:start;letter-spacing:0px;word-spacing:0px;writing-mode:lr-tb;text-anchor:start;fill-opacity:1;"
     x="95.422157"
     y="284.40268"
     id="text844"><tspan
       sodipodi:role="line"
       id="tspan842"
       x="95.422157"
       y="284.40268"
       style="">Audit</tspan></text>
</svg>
