<?xml version="1.0" encoding="utf-8"?>
<!-- Generator: Adobe Illustrator 20.0.0, SVG Export Plug-In . SVG Version: 6.00 Build 0)  -->
<svg version="1.1" id="Ebene_1" xmlns="http://www.w3.org/2000/svg" xmlns:xlink="http://www.w3.org/1999/xlink" x="0px" y="0px"
	 viewBox="0 0 32 32" style="enable-background:new 0 0 32 32;" xml:space="preserve" width="32px" height="32px" class="br-symbol-library">
<g id="Remote3">
	<path d="M27.4,18.5l-1.5-0.9c-0.1,0.1-0.3,0.1-0.4,0.2l-0.4,1.7L24.8,20c-0.2,1.2-0.5,2.2-0.9,3h-2.7c0.2-0.7,0.3-1.4,0.4-2.3
		c-0.3,0-0.6,0-0.9-0.1l-1-0.1l-0.1-0.5c-0.1,1.2-0.3,2.2-0.6,3h-4.3v-3.7h4.7l-0.4-1.5c-0.1-0.1-0.3-0.1-0.4-0.2l-1.5,0.9l-0.9,0.5
		l-0.8-0.6c-0.8-0.6-1.4-1.3-2-2l-0.6-0.8v1.6H7.9C8,16,8.3,14.8,8.6,13.8h4.3v1.8l0.5-0.8l0.9-1.5c-0.1-0.1-0.1-0.3-0.2-0.4
		l-1.7-0.4l-1-0.2l-0.1-0.5H9.5c0.5-1,1.1-1.7,1.6-2.3c0-0.3,0-0.7,0.1-1l0.1-1l1-0.2l1.7-0.4c0.1-0.1,0.1-0.3,0.2-0.4l-0.9-1.5l0,0
		C6,4.8,0.1,10.8,0.1,18.3C0.1,25.8,6.3,32,13.8,32c7.5,0,13.5-5.9,13.7-13.3L27.4,18.5z M9.4,8.2C8.7,9,7.9,10.3,7.2,11.5H5.1
		C6.2,10.1,7.7,8.9,9.4,8.2z M3.8,13.8h2.6c-0.3,1-0.5,2.2-0.5,3.5H2.8C2.9,16,3.3,14.8,3.8,13.8z M3.8,23c-0.5-1-0.9-2.2-1-3.7h3
		C6,20.8,6.1,22,6.4,23H3.8z M5.1,25.2h2.1c0.6,1.5,1.4,2.5,2.1,3.3C7.7,27.8,6.3,26.7,5.1,25.2z M12.9,28.6
		c-0.7-0.4-2.2-1.4-3.3-3.4h3.3V28.6z M12.9,23H8.6c-0.3-1-0.6-2.2-0.7-3.7h4.9C12.9,19.3,12.9,23,12.9,23z M14.8,28.6v-3.4h3.3
		C17,27.2,15.3,28.2,14.8,28.6z M18.3,28.6c0.8-0.8,1.5-1.8,2.2-3.3h2.1C21.5,26.7,20,27.8,18.3,28.6z M31.8,10.9
		c0.1-0.4,0.1-0.8,0.1-1.2c0-0.4,0-0.8-0.1-1.2l-2.5-0.6c-0.2-0.6-0.4-1.2-0.7-1.7l1.4-2.2c-0.5-0.7-1.1-1.2-1.8-1.8l-2.2,1.3
		c-0.5-0.3-1.1-0.6-1.7-0.7l-0.6-2.5C23.1,0,22.7,0,22.3,0c-0.4,0-0.8,0-1.2,0.1l-0.6,2.5c-0.6,0.2-1.2,0.4-1.7,0.7L16.4,2
		c-0.7,0.5-1.2,1.1-1.8,1.8l0.5,0.8L16,6c-0.3,0.5-0.6,1.1-0.7,1.7l-2.4,0.6l-0.1,0c-0.1,0.4-0.1,0.8-0.1,1.2c0,0.4,0,0.8,0.1,1.2
		l0.1,0l2,0.5l0.4,0.1c0,0,0,0,0,0c0.2,0.5,0.4,1.2,0.7,1.7l-0.3,0.5l-0.8,1.4l-0.2,0.4c0.1,0.1,0.2,0.2,0.2,0.3
		c0.5,0.6,1,1.1,1.5,1.5l2.2-1.4c0.3,0.2,0.7,0.4,1,0.5c0.2,0.1,0.5,0.2,0.7,0.2l0.6,2.5c0.4,0.1,0.8,0.1,1.2,0.1
		c0.4,0,0.8,0,1.2-0.1l0.5-1.9l0.2-0.6c0.2-0.1,0.4-0.1,0.7-0.2c0.4-0.1,0.7-0.3,1.1-0.5l1.6,1l0.6,0.4c0.7-0.5,1.2-1.1,1.8-1.8
		l-1.4-2.2c0.3-0.5,0.6-1.1,0.7-1.7L31.8,10.9z M25.4,10.8c-0.5,1.3-1.7,2.2-3.2,2.2c-1.9,0-3.4-1.5-3.4-3.4c0-0.2,0-0.4,0.1-0.7
		c0-0.1,0.1-0.3,0.1-0.4c0.3-0.9,1-1.7,1.9-2c0.4-0.2,0.8-0.2,1.3-0.2c1.9,0,3.4,1.5,3.4,3.4C25.6,10.1,25.6,10.5,25.4,10.8z
		 M12.8,15.6L12.8,15.6L12.8,15.6L12.8,15.6z M12.8,15.6L12.8,15.6L12.8,15.6L12.8,15.6z M12.8,15.6L12.8,15.6L12.8,15.6L12.8,15.6z
		"/>
</g>
<g id="Ebene_1_1_">
</g>
</svg>
