<?xml version="1.0" encoding="utf-8"?>
<!-- Generator: Adobe Illustrator 20.0.0, SVG Export Plug-In . SVG Version: 6.00 Build 0)  -->
<svg version="1.1" id="Ebene_1" xmlns="http://www.w3.org/2000/svg" xmlns:xlink="http://www.w3.org/1999/xlink" x="0px" y="0px"
	 viewBox="0 0 32 32" style="enable-background:new 0 0 32 32;" xml:space="preserve" width="32px" height="32px" class="br-symbol-library">
<g id="Robot">
	<path id="Roboter_pfade_3_" d="M0.8,10.4L0,12.3l3.6,1.7l0.8-1.8L0.8,10.4z M6.2,3.7c-0.8-0.3-1.6,0-2,0.7c-0.3,0.8,0,1.6,0.7,2
		c0.8,0.3,1.6,0,2-0.7C7.3,4.9,7,4,6.2,3.7z M7,2.1C5.4,1.3,3.5,2,2.7,3.6l0,0l0,0c0,0,0,0,0,0.1C2.6,3.9,2.5,4.1,2.5,4.3l-1.8,5
		l5,2.3l2.6-4.6c0.1-0.2,0.2-0.3,0.3-0.5c0,0,0-0.1,0-0.1l0-0.1h0C9.3,4.7,8.6,2.8,7,2.1z M7.9,6.1C7.3,7.3,5.8,7.9,4.6,7.3
		C3.3,6.8,2.8,5.3,3.3,4c0.6-1.3,2.1-1.8,3.3-1.2S8.5,4.8,7.9,6.1z M6.2,3.7c-0.8-0.3-1.6,0-2,0.7c-0.3,0.8,0,1.6,0.7,2
		c0.8,0.3,1.6,0,2-0.7C7.3,4.9,7,4,6.2,3.7z M6.2,3.7c-0.8-0.3-1.6,0-2,0.7c-0.3,0.8,0,1.6,0.7,2c0.8,0.3,1.6,0,2-0.7
		C7.3,4.9,7,4,6.2,3.7z M26.8,2.1c-1.7,0-3,1.3-3,3s1.3,3,3,3c1.7,0,3-1.3,3-3S28.5,2.1,26.8,2.1z M26.8,0.1
		C26.8,0.1,26.8,0.1,26.8,0.1L26.8,0.1l-0.3,0c-0.1,0-0.2,0-0.4,0L8.1,1.6c1.6,1.1,2.2,3.3,1.4,5.1l0,0l0,0c0,0,0,0,0,0.1
		C9.4,7.1,9.2,7.3,9.1,7.5L8.5,8.5L26.2,10c0.1,0,0.2,0,0.3,0l0.2,0v0c0,0,0.1,0,0.1,0c2.8,0,5-2.2,5-5C31.8,2.3,29.6,0.1,26.8,0.1z
		 M26.8,9c-2.2,0-4-1.8-4-4c0-2.2,1.8-4,4-4c2.2,0,4,1.8,4,4C30.8,7.3,29,9,26.8,9z M26.8,2.1c-1.7,0-3,1.3-3,3s1.3,3,3,3
		c1.7,0,3-1.3,3-3S28.5,2.1,26.8,2.1z M26.8,2.1c-1.7,0-3,1.3-3,3s1.3,3,3,3c1.7,0,3-1.3,3-3S28.5,2.1,26.8,2.1z M31,27.4h-3.4
		l3.1-17.8c-1,0.9-2.4,1.4-3.8,1.4c0,0-0.6-0.1-0.9-0.1l-5-0.4l-4.5,16.9H13c-0.6,0-1,0.4-1,1v2.5c0,0.6,0.4,1,1,1h18
		c0.6,0,1-0.5,1-1v-2.5C32,27.9,31.5,27.4,31,27.4z"/>
</g>
<g id="Ebene_1_1_">
</g>
</svg>
