<?xml version="1.0" encoding="iso-8859-1"?>
<!-- Generator: Adobe Illustrator 20.0.0, SVG Export Plug-In . SVG Version: 6.00 Build 0)  -->
<svg version="1.1" xmlns="http://www.w3.org/2000/svg" xmlns:xlink="http://www.w3.org/1999/xlink" x="0px" y="0px"
	 viewBox="0 0 32 32" style="enable-background:new 0 0 32 32;" xml:space="preserve" width="32px" height="32px" class="br-symbol-library">
<g id="Settings">
	<path id="Einstellungen_3_" d="M31.852,18.06C31.94,17.385,32,16.7,32,16c0-0.7-0.06-1.385-0.148-2.06l-4.227-1.057
		c-0.275-1.027-0.678-2-1.197-2.9l2.24-3.732c-0.845-1.095-1.822-2.072-2.917-2.917l-3.732,2.24c-0.9-0.52-1.872-0.923-2.9-1.198
		L18.06,0.148C17.385,0.06,16.7,0,16,0s-1.385,0.06-2.06,0.148l-1.058,4.227c-1.027,0.275-2,0.678-2.9,1.198l-3.73-2.24
		C5.158,4.175,4.178,5.155,3.335,6.25l2.24,3.73c-0.522,0.9-0.928,1.872-1.2,2.902L0.147,13.94C0.06,14.615,0,15.3,0,16
		c0,0.7,0.06,1.385,0.147,2.06l4.228,1.058c0.272,1.027,0.678,2.003,1.2,2.9L3.333,25.75c0.845,1.095,1.822,2.073,2.917,2.918
		l3.73-2.24c0.902,0.52,1.875,0.923,2.902,1.197l1.058,4.228C14.615,31.94,15.3,32,16,32s1.385-0.06,2.06-0.147l1.057-4.228
		c1.03-0.275,2.003-0.677,2.903-1.2l3.732,2.24c1.092-0.842,2.072-1.823,2.915-2.918l-2.24-3.73c0.52-0.9,0.922-1.872,1.197-2.9
		L31.852,18.06z M16,21.598c-3.09,0-5.598-2.507-5.598-5.598c0-3.09,2.508-5.597,5.598-5.597S21.598,12.91,21.598,16
		C21.598,19.09,19.09,21.598,16,21.598z"/>
</g>
<g id="Ebene_1">
</g>
</svg>
