<?xml version="1.0" encoding="utf-8"?>
<!-- Generator: Adobe Illustrator 20.0.0, SVG Export Plug-In . SVG Version: 6.00 Build 0)  -->
<svg version="1.1" id="Ebene_1" xmlns="http://www.w3.org/2000/svg" xmlns:xlink="http://www.w3.org/1999/xlink" x="0px" y="0px"
	 viewBox="0 0 32 32" style="enable-background:new 0 0 32 32;" xml:space="preserve" width="32px" height="32px" class="br-symbol-library">
<g id="UnHide">
	<path d="M16,7.2c-10.6,0-16,9.6-16,9.6s7.6,8,16,8c8.4,0,16-8,16-8S26.6,7.2,16,7.2z M15.1,17.2L14.3,18c-0.6-0.4-1-0.9-1.3-1.6
		l0.9-0.9C14,16.2,14.4,16.9,15.1,17.2z M3,16.8c0.9-0.8,2.5-2,4.5-3c-0.1,0.5-0.1,1-0.1,1.5c0,2.3,0.9,4.5,2.5,6
		C6.7,19.9,4.2,17.9,3,16.8z M16,21.7c-3.6,0-6.4-2.9-6.4-6.4c0-0.9,0.2-1.8,0.6-2.7c1.1-0.4,2.2-0.7,3.4-0.9
		c-1.1,0.8-1.9,2.1-1.9,3.6c0,2.4,1.9,4.3,4.3,4.3c2.4,0,4.3-1.9,4.3-4.3c0-1.5-0.7-2.8-1.9-3.6c1.2,0.2,2.3,0.5,3.4,0.8
		c0.4,0.8,0.6,1.7,0.6,2.7C22.4,18.8,19.6,21.7,16,21.7z M22.1,21.4c1.6-1.6,2.6-3.7,2.6-6.1c0-0.6-0.1-1.1-0.2-1.6
		c2.3,1.1,4.1,2.3,5,3.2C28.2,17.9,25.5,20,22.1,21.4z"/>
</g>
<g id="Ebene_1_1_">
</g>
</svg>
