<svg id="Layer_1" data-name="Layer 1" xmlns="http://www.w3.org/2000/svg" viewBox="0 0 200 200"><path d="M182.52,146.35,118.12,30.93a20.9,20.9,0,0,0-18.4-10.45,21.78,21.78,0,0,0-18.4,10.45L16.92,146.35a22.33,22.33,0,0,0,0,21.75c3.76,6.69,10.87,11.29,18.4,11.29h128.8a20.85,20.85,0,0,0,18.4-11.29,22.38,22.38,0,0,0,0-21.75Zm-10.87,15.89a8.81,8.81,0,0,1-7.53,4.6H35.32a8.8,8.8,0,0,1-7.53-4.6,9.84,9.84,0,0,1,0-9.61L92.19,37.21a8.85,8.85,0,0,1,15,0l64.41,115.42a9.83,9.83,0,0,1,0,9.61Zm0,0" style="fill:#fff"/><path d="M91.35,141.75a8.37,8.37,0,1,0,4.19-7.24,8.38,8.38,0,0,0-4.19,7.24Zm0,0" style="fill:#fff"/><path d="M99.72,118.75a6.43,6.43,0,0,0,6.27-6.27V74.84a6.28,6.28,0,0,0-12.55,0v37.64a6.43,6.43,0,0,0,6.28,6.27Zm0,0" style="fill:#fff"/></svg>