<?xml version="1.0" encoding="UTF-8" standalone="no"?>
<svg
   width="32"
   height="32"
   version="1.1"
   id="svg37"
   viewBox="0 2.7755576e-17 32 32"
   sodipodi:docname="NewReport.svg"
   inkscape:version="1.2.2 (732a01da63, 2022-12-09)"
   xmlns:inkscape="http://www.inkscape.org/namespaces/inkscape"
   xmlns:sodipodi="http://sodipodi.sourceforge.net/DTD/sodipodi-0.dtd"
   xmlns:xlink="http://www.w3.org/1999/xlink"
   xmlns="http://www.w3.org/2000/svg"
   xmlns:svg="http://www.w3.org/2000/svg"
   xmlns:rdf="http://www.w3.org/1999/02/22-rdf-syntax-ns#"
   xmlns:cc="http://creativecommons.org/ns#"
   xmlns:dc="http://purl.org/dc/elements/1.1/">
  <sodipodi:namedview
     id="namedview560"
     pagecolor="#505050"
     bordercolor="#ffffff"
     borderopacity="1"
     inkscape:showpageshadow="0"
     inkscape:pageopacity="0"
     inkscape:pagecheckerboard="1"
     inkscape:deskcolor="#505050"
     showgrid="false"
     inkscape:zoom="11.317928"
     inkscape:cx="10.249226"
     inkscape:cy="11.486202"
     inkscape:window-width="1920"
     inkscape:window-height="1017"
     inkscape:window-x="1912"
     inkscape:window-y="-8"
     inkscape:window-maximized="1"
     inkscape:current-layer="svg37" />
  <metadata
     id="metadata43">
    <rdf:RDF>
      <cc:Work
         rdf:about="">
        <dc:format>image/svg+xml</dc:format>
        <dc:type
           rdf:resource="http://purl.org/dc/dcmitype/StillImage" />
        <dc:title />
      </cc:Work>
    </rdf:RDF>
  </metadata>
  <defs
     id="defs41">
    <symbol
       id="AddUser">
      <g
         id="AddUser_transform"
         transform="matrix(2.9842888,0,0,2.9842888,47.955709,64.282188)">
        <path
           id="path27082"
           d="m -10.707899,-22.044663 c -2.967942,0 -5.361494,2.106299 -5.361494,5.361412 0,3.446588 2.393552,5.36141 5.361494,5.36141 2.9679423,0 5.3613293,-2.393515 5.3613293,-5.36141 0,-2.967897 -2.393387,-5.361412 -5.3613293,-5.361412 z m -0.478788,2.010612 h 1.053234 c 0.2872206,0 0.2871402,0.382878 0.2871402,0.670094 v 1.531831 h 1.8191621 c 0.28722,0 0.574445,0.382878 0.574445,0.670094 v 1.053218 c 0,0.287215 -0.287225,0.478614 -0.574445,0.478614 h -1.8191621 v 1.72331 c 0,0.287216 8.04e-5,0.47878 -0.2871402,0.47878 h -1.053234 c -0.287219,0 -0.574445,-0.191564 -0.574445,-0.47878 v -1.72331 h -1.627513 c -0.287221,0 -0.574446,-0.191399 -0.574446,-0.478614 v -1.053218 c 0,-0.382954 0.287225,-0.670094 0.574446,-0.670094 h 1.627513 v -1.531831 c 0,-0.382955 0.287226,-0.670094 0.574445,-0.670094 z"
           style="stroke-width:0.957394" />
      </g>
    </symbol>
  </defs>
  <g
     id="g909"
     transform="scale(0.10666667)">
    <path
       id="svg_8"
       style="stroke-width:4.83871"
       d="M 4.8339842 2.6020852e-16 C 2.1630191 2.6020852e-16 0 2.1630191 0 4.8339842 L 0 295.16601 C 0 297.84181 2.1630191 299.99999 4.8339842 299.99999 L 295.16601 299.99999 C 297.83697 299.99999 299.99999 297.84181 299.99999 295.16601 L 299.99999 101.55029 A 74.999998 74.999998 0 0 1 290.31371 115.48462 L 290.31371 290.31371 L 9.686279 290.31371 L 9.686279 48.394774 L 161.57226 48.394774 A 74.999998 74.999998 0 0 1 164.57519 38.708495 L 9.686279 38.708495 L 9.686279 9.686279 L 184.51538 9.686279 A 74.999998 74.999998 0 0 1 198.4497 2.6020852e-16 L 4.8339842 2.6020852e-16 z M 270.62987 2.6020852e-16 A 74.999998 74.999998 0 0 1 284.32616 9.686279 L 290.31371 9.686279 L 290.31371 15.673828 A 74.999998 74.999998 0 0 1 299.99999 29.370116 L 299.99999 4.8339842 C 299.99999 2.1630191 297.83697 2.6020852e-16 295.16601 2.6020852e-16 L 270.62987 2.6020852e-16 z " />
    <circle
       id="svg_9"
       r="4.8387098"
       cy="24.193548"
       cx="24.193548"
       style="stroke-width:4.83871" />
    <circle
       id="svg_10"
       r="4.8387098"
       cy="24.193548"
       cx="43.548386"
       style="stroke-width:4.83871" />
    <circle
       id="svg_11"
       r="4.8387098"
       cy="24.193548"
       cx="62.903225"
       style="stroke-width:4.83871" />
    <circle
       id="svg_12"
       r="4.8387098"
       cy="174.19354"
       cx="275.80646"
       style="stroke-width:4.83871" />
    <circle
       id="svg_13"
       r="4.8387098"
       cy="193.54839"
       cx="275.80646"
       style="stroke-width:4.83871" />
    <circle
       id="svg_14"
       r="4.8387098"
       cy="212.90323"
       cx="275.80646"
       style="stroke-width:4.83871" />
    <circle
       id="svg_15"
       r="4.8387098"
       cy="232.25807"
       cx="275.80646"
       style="stroke-width:4.83871" />
    <circle
       id="svg_16"
       r="4.8387098"
       cy="251.6129"
       cx="275.80646"
       style="stroke-width:4.83871" />
    <path
       id="svg_17"
       d="m 101.6129,77.419355 c -45.358061,0 -82.258061,36.900005 -82.258061,82.258065 0,45.35806 36.9,82.25806 82.258061,82.25806 45.35807,0 82.25807,-36.9 82.25807,-82.25806 0,-45.35806 -36.9,-82.258065 -82.25807,-82.258065 z m -4.838706,9.924194 v 68.850001 l -65.317742,21.77419 c -1.529033,-5.85967 -2.424194,-11.96613 -2.424194,-18.29032 0,-38.38548 29.975807,-69.82742 67.741936,-72.333871 z M 101.6129,232.25807 c -30.295158,0 -56.283868,-18.67259 -67.141932,-45.10162 l 66.116132,-22.03548 53.49193,44.57419 C 140.85,223.5629 122.24516,232.25807 101.6129,232.25807 Z m 58.65484,-30.00484 -53.81613,-44.84516 V 87.343549 c 37.76613,2.506451 67.74194,33.948391 67.74194,72.333871 0,15.91452 -5.20645,30.6 -13.92581,42.57581 z"
       style="stroke-width:4.83871" />
    <circle
       id="svg_18"
       r="4.8387098"
       cy="140.32259"
       cx="120.96774"
       style="stroke-width:4.83871" />
    <circle
       id="svg_19"
       r="4.8387098"
       cy="140.32259"
       cx="140.32259"
       style="stroke-width:4.83871" />
    <circle
       id="svg_20"
       r="4.8387098"
       cy="140.32259"
       cx="159.67741"
       style="stroke-width:4.83871" />
    <path
       id="svg_25"
       d="m 62.903226,266.12903 h -9.677419 c -2.670968,0 -4.83871,2.16291 -4.83871,4.83871 0,2.67581 2.167742,4.83871 4.83871,4.83871 h 9.677419 c 2.670968,0 4.83871,-2.1629 4.83871,-4.83871 0,-2.6758 -2.167742,-4.83871 -4.83871,-4.83871 z"
       style="stroke-width:4.83871" />
    <path
       id="svg_26"
       d="m 91.935484,266.12903 h -9.677419 c -2.670968,0 -4.83871,2.16291 -4.83871,4.83871 0,2.67581 2.167742,4.83871 4.83871,4.83871 h 9.677419 c 2.670968,0 4.83871,-2.1629 4.83871,-4.83871 0,-2.6758 -2.167742,-4.83871 -4.83871,-4.83871 z"
       style="stroke-width:4.83871" />
    <path
       id="svg_27"
       d="m 120.96774,266.12903 h -9.67742 c -2.67096,0 -4.83871,2.16291 -4.83871,4.83871 0,2.67581 2.16775,4.83871 4.83871,4.83871 h 9.67742 c 2.67097,0 4.83871,-2.1629 4.83871,-4.83871 0,-2.6758 -2.16774,-4.83871 -4.83871,-4.83871 z"
       style="stroke-width:4.83871" />
    <path
       id="svg_28"
       d="m 150,266.12903 h -9.67742 c -2.67097,0 -4.83871,2.16291 -4.83871,4.83871 0,2.67581 2.16774,4.83871 4.83871,4.83871 H 150 c 2.67097,0 4.83871,-2.1629 4.83871,-4.83871 0,-2.6758 -2.16774,-4.83871 -4.83871,-4.83871 z"
       style="stroke-width:4.83871" />
    <path
       id="svg_29"
       d="M 256.45161,169.35484 H 198.3871 c -2.67097,0 -4.83871,2.1629 -4.83871,4.83871 0,2.67581 2.16774,4.83871 4.83871,4.83871 h 58.06451 c 2.67097,0 4.83871,-2.1629 4.83871,-4.83871 0,-2.67581 -2.16774,-4.83871 -4.83871,-4.83871 z"
       style="stroke-width:4.83871" />
    <path
       id="svg_30"
       d="M 256.45161,188.70968 H 198.3871 c -2.67097,0 -4.83871,2.1629 -4.83871,4.83871 0,2.6758 2.16774,4.83871 4.83871,4.83871 h 58.06451 c 2.67097,0 4.83871,-2.16291 4.83871,-4.83871 0,-2.67581 -2.16774,-4.83871 -4.83871,-4.83871 z"
       style="stroke-width:4.83871" />
    <path
       id="svg_31"
       d="M 256.45161,208.06452 H 198.3871 c -2.67097,0 -4.83871,2.1629 -4.83871,4.83871 0,2.6758 2.16774,4.83871 4.83871,4.83871 h 58.06451 c 2.67097,0 4.83871,-2.16291 4.83871,-4.83871 0,-2.67581 -2.16774,-4.83871 -4.83871,-4.83871 z"
       style="stroke-width:4.83871" />
    <path
       id="svg_32"
       d="M 256.45161,227.41936 H 198.3871 c -2.67097,0 -4.83871,2.1629 -4.83871,4.83871 0,2.6758 2.16774,4.83871 4.83871,4.83871 h 58.06451 c 2.67097,0 4.83871,-2.16291 4.83871,-4.83871 0,-2.67581 -2.16774,-4.83871 -4.83871,-4.83871 z"
       style="stroke-width:4.83871" />
    <path
       id="svg_33"
       d="M 256.45161,246.77419 H 198.3871 c -2.67097,0 -4.83871,2.16291 -4.83871,4.83871 0,2.67581 2.16774,4.83871 4.83871,4.83871 h 58.06451 c 2.67097,0 4.83871,-2.1629 4.83871,-4.83871 0,-2.6758 -2.16774,-4.83871 -4.83871,-4.83871 z"
       style="stroke-width:4.83871" />
  </g>
  <use
     xlink:href="#AddUser"
     id="use708"
     transform="matrix(0.43749998,0,0,0.43749998,18,0.65863558)" />
</svg>
