<?xml version="1.0" encoding="UTF-8" standalone="no"?>
<svg
   width="32"
   height="32"
   version="1.1"
   id="svg37"
   viewBox="0 2.7755576e-17 32 32"
   sodipodi:docname="View.svg"
   inkscape:version="1.2.2 (732a01da63, 2022-12-09)"
   xmlns:inkscape="http://www.inkscape.org/namespaces/inkscape"
   xmlns:sodipodi="http://sodipodi.sourceforge.net/DTD/sodipodi-0.dtd"
   xmlns="http://www.w3.org/2000/svg"
   xmlns:svg="http://www.w3.org/2000/svg"
   xmlns:rdf="http://www.w3.org/1999/02/22-rdf-syntax-ns#"
   xmlns:cc="http://creativecommons.org/ns#"
   xmlns:dc="http://purl.org/dc/elements/1.1/">
  <sodipodi:namedview
     id="namedview560"
     pagecolor="#505050"
     bordercolor="#ffffff"
     borderopacity="1"
     inkscape:showpageshadow="0"
     inkscape:pageopacity="0"
     inkscape:pagecheckerboard="1"
     inkscape:deskcolor="#505050"
     showgrid="false"
     inkscape:zoom="16"
     inkscape:cx="17.78125"
     inkscape:cy="22.3125"
     inkscape:window-width="1920"
     inkscape:window-height="1017"
     inkscape:window-x="3832"
     inkscape:window-y="-8"
     inkscape:window-maximized="1"
     inkscape:current-layer="svg37" />
  <metadata
     id="metadata43">
    <rdf:RDF>
      <cc:Work
         rdf:about="">
        <dc:format>image/svg+xml</dc:format>
        <dc:type
           rdf:resource="http://purl.org/dc/dcmitype/StillImage" />
        <dc:title />
      </cc:Work>
    </rdf:RDF>
  </metadata>
  <defs
     id="defs41">
    <symbol
       id="AddUser">
      <g
         id="AddUser_transform"
         transform="matrix(2.9842888,0,0,2.9842888,47.955709,64.282188)">
        <path
           id="path27082"
           d="m -10.707899,-22.044663 c -2.967942,0 -5.361494,2.106299 -5.361494,5.361412 0,3.446588 2.393552,5.36141 5.361494,5.36141 2.9679423,0 5.3613293,-2.393515 5.3613293,-5.36141 0,-2.967897 -2.393387,-5.361412 -5.3613293,-5.361412 z m -0.478788,2.010612 h 1.053234 c 0.2872206,0 0.2871402,0.382878 0.2871402,0.670094 v 1.531831 h 1.8191621 c 0.28722,0 0.574445,0.382878 0.574445,0.670094 v 1.053218 c 0,0.287215 -0.287225,0.478614 -0.574445,0.478614 h -1.8191621 v 1.72331 c 0,0.287216 8.04e-5,0.47878 -0.2871402,0.47878 h -1.053234 c -0.287219,0 -0.574445,-0.191564 -0.574445,-0.47878 v -1.72331 h -1.627513 c -0.287221,0 -0.574446,-0.191399 -0.574446,-0.478614 v -1.053218 c 0,-0.382954 0.287225,-0.670094 0.574446,-0.670094 h 1.627513 v -1.531831 c 0,-0.382955 0.287226,-0.670094 0.574445,-0.670094 z"
           style="stroke-width:0.957394" />
      </g>
    </symbol>
  </defs>
  <path
     id="circle395"
     style="fill:#000000;stroke-width:173.425;stroke-opacity:0.302222"
     d="M 15.982422 8 A 24.151833 31.606463 0 0 0 0 15.998047 A 24.151833 31.606463 0 0 0 15.982422 24 A 24.151833 31.606463 0 0 0 32 15.958984 A 24.151833 31.606463 0 0 0 15.982422 8 z M 15.984375 9 A 21.887593 27.655663 0 0 1 30.5 15.964844 A 21.887593 27.655663 0 0 1 15.984375 23 A 21.887593 27.655663 0 0 1 1.5 15.998047 A 21.887593 27.655663 0 0 1 15.984375 9 z " />
  <path
     id="path564"
     style="fill:#000000;stroke-width:130.4;stroke-opacity:0.302222"
     d="M 16 8 A 8 8 0 0 0 8 16 A 8 8 0 0 0 16 24 A 8 8 0 0 0 24 16 A 8 8 0 0 0 16 8 z M 16 9 A 7 7 0 0 1 23 16 A 7 7 0 0 1 16 23 A 7 7 0 0 1 9 16 A 7 7 0 0 1 16 9 z " />
  <circle
     style="fill:#000000;stroke-width:81.5;stroke-opacity:0.302222"
     id="circle589"
     cx="16"
     cy="16"
     r="5" />
</svg>
