<?xml version="1.0" encoding="UTF-8" standalone="no"?>
<svg
   height="32px"
   version="1.1"
   viewBox="0 0 32 32"
   width="32px"
   id="svg1757"
   sodipodi:docname="XML.svg"
   inkscape:version="1.2.1 (9c6d41e410, 2022-07-14)"
   xmlns:inkscape="http://www.inkscape.org/namespaces/inkscape"
   xmlns:sodipodi="http://sodipodi.sourceforge.net/DTD/sodipodi-0.dtd"
   xmlns="http://www.w3.org/2000/svg"
   xmlns:svg="http://www.w3.org/2000/svg">
  <sodipodi:namedview
     id="namedview1759"
     pagecolor="#ffffff"
     bordercolor="#666666"
     borderopacity="1.0"
     inkscape:showpageshadow="2"
     inkscape:pageopacity="0.0"
     inkscape:pagecheckerboard="0"
     inkscape:deskcolor="#d1d1d1"
     showgrid="false"
     inkscape:zoom="31.3125"
     inkscape:cx="35.688623"
     inkscape:cy="16"
     inkscape:window-width="3440"
     inkscape:window-height="1377"
     inkscape:window-x="1912"
     inkscape:window-y="1072"
     inkscape:window-maximized="1"
     inkscape:current-layer="svg1757" />
  <title
     id="title1748" />
  <desc
     id="desc1750" />
  <defs
     id="defs1752" />
  <path
     d="m 21,26 v 2.002578 C 21,29.109075 20.105724,30 19.002578,30 H 3.9974219 C 2.8909254,30 2,29.101288 2,27.99267 V 5.0073299 C 2,3.8983383 2.8992496,3 4.0085302,3 H 14 V 9.0018986 C 14,10.113294 14.898081,11 16.005919,11 H 21 v 2 H 12.006848 C 10.346212,13 9,14.342264 9,15.998786 v 7.002428 C 9,24.657398 10.335992,26 12.006848,26 Z M 15,3 V 8.9970707 C 15,9.5509732 15.450975,10 15.990778,10 H 21 Z"
     id="document-file-pdf"
     style="fill-rule:evenodd"
     sodipodi:nodetypes="csssssscssccssssccsscc" />
  <text
     xml:space="preserve"
     style="font-size:10.6667px;line-height:1.25;font-family:ABBvoice;-inkscape-font-specification:ABBvoice"
     x="9.6916857"
     y="23.185629"
     id="text3120-0-0"><tspan
       sodipodi:role="line"
       id="tspan3118-0-1"
       x="9.6916857"
       y="23.185629">XML</tspan></text>
</svg>
