<?xml version="1.0" encoding="iso-8859-1"?>
<!-- Generator: Adobe Illustrator 20.0.0, SVG Export Plug-In . SVG Version: 6.00 Build 0)  -->
<svg version="1.1" id="Ebene_1" xmlns="http://www.w3.org/2000/svg" xmlns:xlink="http://www.w3.org/1999/xlink" x="0px" y="0px"
	 viewBox="0 0 32 32" style="enable-background:new 0 0 32 32;" xml:space="preserve" width="32px" height="32px" class="br-symbol-library">
<g id="Acknowledge">
	<path d="M13.408,17.114H11.99c-0.2,0-0.388,0.08-0.388,0.28v1.362c0,0.15,0.035,0.45,0.065,0.595l0.493,2.572
		c0.03,0.147,0.2,0.44,0.35,0.44h0.425c0.152,0,0.333-0.292,0.362-0.44l0.477-2.602c0.028-0.145,0.077-0.415,0.077-0.565v-0.99
		C13.602,17.556,13.542,17.364,13.408,17.114z M13.852,23.137c0-0.151-0.122-0.273-0.272-0.273h-1.706
		c-0.15,0-0.272,0.122-0.272,0.273v1.705c0,0.151,0.122,0.273,0.272,0.273h1.705c0.15,0,0.272-0.122,0.272-0.273L13.852,23.137
		L13.852,23.137z M13.852,23.137c0-0.151-0.122-0.273-0.272-0.273h-1.706c-0.15,0-0.272,0.122-0.272,0.273v1.705
		c0,0.151,0.122,0.273,0.272,0.273h1.705c0.15,0,0.272-0.122,0.272-0.273L13.852,23.137L13.852,23.137z M13.408,17.114H11.99
		c-0.2,0-0.388,0.08-0.388,0.28v1.362c0,0.15,0.035,0.45,0.065,0.595l0.493,2.572c0.03,0.147,0.2,0.44,0.35,0.44h0.425
		c0.152,0,0.333-0.292,0.362-0.44l0.477-2.602c0.028-0.145,0.077-0.415,0.077-0.565v-0.99
		C13.602,17.556,13.542,17.364,13.408,17.114z M13.408,17.114H11.99c-0.2,0-0.388,0.08-0.388,0.28v1.362
		c0,0.15,0.035,0.45,0.065,0.595l0.493,2.572c0.03,0.147,0.2,0.44,0.35,0.44h0.425c0.152,0,0.333-0.292,0.362-0.44l0.477-2.602
		c0.028-0.145,0.077-0.415,0.077-0.565v-0.99C13.602,17.556,13.542,17.364,13.408,17.114z M13.852,23.137
		c0-0.151-0.122-0.273-0.272-0.273h-1.706c-0.15,0-0.272,0.122-0.272,0.273v1.705c0,0.151,0.122,0.273,0.272,0.273h1.705
		c0.15,0,0.272-0.122,0.272-0.273L13.852,23.137L13.852,23.137z M22.646,26.289l-3.1-5.247c-1.142-0.175-2.21-0.54-3.157-1.073
		l3.435,5.895H5.609l6.705-11.5c-0.162-0.737-0.244-1.517-0.244-2.335c0-0.455,0.03-0.902,0.09-1.34
		c-0.158,0.093-0.293,0.225-0.388,0.39l-8.985,15.21c-0.195,0.338-0.193,0.847,0.002,1.182c0.195,0.337,0.552,0.642,0.943,0.642
		h17.968c0.39,0,0.747-0.305,0.943-0.642C22.837,27.137,22.84,26.626,22.646,26.289z M13.408,17.114H11.99
		c-0.2,0-0.388,0.08-0.388,0.28v1.362c0,0.15,0.035,0.45,0.065,0.595l0.493,2.572c0.03,0.147,0.2,0.44,0.35,0.44h0.425
		c0.152,0,0.333-0.292,0.362-0.44l0.477-2.602c0.028-0.145,0.077-0.415,0.077-0.565v-0.99
		C13.602,17.556,13.542,17.364,13.408,17.114z M13.852,23.137c0-0.151-0.122-0.273-0.272-0.273h-1.706
		c-0.15,0-0.272,0.122-0.272,0.273v1.705c0,0.151,0.122,0.273,0.272,0.273h1.705c0.15,0,0.272-0.122,0.272-0.273L13.852,23.137
		L13.852,23.137z M13.852,23.137c0-0.151-0.122-0.273-0.272-0.273h-1.706c-0.15,0-0.272,0.122-0.272,0.273v1.705
		c0,0.151,0.122,0.273,0.272,0.273h1.705c0.15,0,0.272-0.122,0.272-0.273L13.852,23.137L13.852,23.137z M13.408,17.114H11.99
		c-0.2,0-0.388,0.08-0.388,0.28v1.362c0,0.15,0.035,0.45,0.065,0.595l0.493,2.572c0.03,0.147,0.2,0.44,0.35,0.44h0.425
		c0.152,0,0.333-0.292,0.362-0.44l0.477-2.602c0.028-0.145,0.077-0.415,0.077-0.565v-0.99
		C13.602,17.556,13.542,17.364,13.408,17.114z M21.215,3.887c-4.055,0-7.418,2.667-8.04,6.75c-0.07,0.447-0.105,0.913-0.105,1.393
		c0,1.15,0.177,2.188,0.503,3.107c0.33,0.945,0.818,1.765,1.427,2.452c1.003,1.135,2.337,1.91,3.862,2.298
		c0.745,0.19,1.535,0.288,2.353,0.288c4.497,0,8.142-3.648,8.142-8.145S25.712,3.887,21.215,3.887z M26.882,9.434l-7.122,7.122
		c-0.048,0.05-0.112,0.073-0.175,0.073s-0.125-0.023-0.175-0.073l-1.595-1.595c-0.098-0.098-0.253-0.253-0.35-0.345l-1.92-1.925
		c-0.097-0.098-0.097-0.253,0-0.35l1.595-1.595c0.05-0.05,0.112-0.072,0.175-0.072s0.127,0.022,0.174,0.072l1.92,1.92
		c0.05,0.048,0.113,0.072,0.177,0.072c0.062,0,0.125-0.025,0.173-0.072l5.165-5.165c0.05-0.048,0.113-0.073,0.175-0.073
		s0.127,0.025,0.175,0.073l1.608,1.587C26.979,9.182,26.979,9.339,26.882,9.434z"/>
</g>
<g id="Ebene_1_1_">
</g>
</svg>
