<?xml version="1.0" encoding="iso-8859-1"?>
<!-- Generator: Adobe Illustrator 20.0.0, SVG Export Plug-In . SVG Version: 6.00 Build 0)  -->
<svg version="1.1" xmlns="http://www.w3.org/2000/svg" xmlns:xlink="http://www.w3.org/1999/xlink" x="0px" y="0px"
	 viewBox="0 0 32 32" style="enable-background:new 0 0 32 32;" xml:space="preserve" width="32px" height="32px" class="br-symbol-library">
<g id="Lightness">
	<path id="Helligkeit_3_" d="M7.39,22.473l-3.795,3.795l1.967,1.965l3.795-3.792C8.62,23.87,7.96,23.21,7.39,22.473z M24.395,22.473
		c-0.568,0.738-1.23,1.398-1.967,1.965l3.795,3.795l1.967-1.967L24.395,22.473z M26.5,14.75c0.25,0,0.25,2.5,0,2.5H32v-2.5H26.5z
		 M14.5,26.5V32h2.75v-5.5C17.25,26.75,14.5,26.75,14.5,26.5z M14.5,0v5.25h2.75V0H14.5z M0,14.75v2.5h5.25v-2.5H0z M5.563,3.64
		L3.595,5.605L7.39,9.403c0.568-0.74,1.23-1.4,1.968-1.967L5.563,3.64z M26.223,3.64l-3.795,3.795
		c0.738,0.568,1.4,1.227,1.967,1.967l3.795-3.798L26.223,3.64z M15.893,9.428c-3.547,0-6.51,2.96-6.51,6.51
		c0,3.548,2.963,6.51,6.51,6.51c3.55,0,6.51-2.962,6.51-6.51C22.403,12.388,19.443,9.428,15.893,9.428z"/>
</g>
<g id="Ebene_1">
</g>
</svg>
